<?xml version="1.0" standalone="no"?><!DOCTYPE svg PUBLIC "-//W3C//DTD SVG 1.1//EN" "http://www.w3.org/Graphics/SVG/1.1/DTD/svg11.dtd"><svg height="599" node-id="1" sillyvg="true" template-height="599" template-width="819" version="1.1" viewBox="0 0 819 599" width="819" xmlns="http://www.w3.org/2000/svg" xmlns:xlink="http://www.w3.org/1999/xlink"><defs node-id="156"><mask height="33" id="mask0" maskUnits="userSpaceOnUse" node-id="6" width="34" x="270" y="171"><path d="M 287.14 203.96 C 296.13 203.96 303.41 196.68 303.41 187.69 C 303.41 178.71 296.13 171.43 287.14 171.43 C 278.16 171.43 270.88 178.71 270.88 187.69 C 270.88 196.68 278.16 203.96 287.14 203.96 Z M 287.14 198.38 C 293.05 198.38 297.83 193.60 297.83 187.69 C 297.83 181.79 293.05 177.01 287.14 177.01 C 281.24 177.01 276.46 181.79 276.46 187.69 C 276.46 193.60 281.24 198.38 287.14 198.38 Z" fill="#ffffff" fill-rule="nonzero" node-id="159" stroke="none" target-height="32.526" target-width="32.525024" target-x="270.882" target-y="171.431"></path></mask><mask height="33" id="mask1" maskUnits="userSpaceOnUse" node-id="10" width="34" x="270" y="171"><path d="M 287.14 203.96 C 296.13 203.96 303.41 196.68 303.41 187.69 C 303.41 178.71 296.13 171.43 287.14 171.43 C 278.16 171.43 270.88 178.71 270.88 187.69 C 270.88 196.68 278.16 203.96 287.14 203.96 Z M 287.14 198.38 C 293.05 198.38 297.83 193.60 297.83 187.69 C 297.83 181.79 293.05 177.01 287.14 177.01 C 281.24 177.01 276.46 181.79 276.46 187.69 C 276.46 193.60 281.24 198.38 287.14 198.38 Z" fill="#ffffff" fill-rule="nonzero" node-id="163" stroke="none" target-height="32.526" target-width="32.525024" target-x="270.882" target-y="171.431"></path></mask><mask height="33" id="mask2" maskUnits="userSpaceOnUse" node-id="14" width="34" x="318" y="171"><path d="M 335.08 203.96 C 344.06 203.96 351.34 196.68 351.34 187.69 C 351.34 178.71 344.06 171.43 335.08 171.43 C 326.10 171.43 318.81 178.71 318.81 187.69 C 318.81 196.68 326.10 203.96 335.08 203.96 Z M 335.08 198.38 C 340.98 198.38 345.76 193.60 345.76 187.69 C 345.76 181.79 340.98 177.01 335.08 177.01 C 329.18 177.01 324.39 181.79 324.39 187.69 C 324.39 193.60 329.18 198.38 335.08 198.38 Z" fill="#ffffff" fill-rule="nonzero" node-id="167" stroke="none" target-height="32.526" target-width="32.526" target-x="318.814" target-y="171.431"></path></mask><mask height="33" id="mask3" maskUnits="userSpaceOnUse" node-id="18" width="34" x="318" y="171"><path d="M 335.08 203.96 C 344.06 203.96 351.34 196.68 351.34 187.69 C 351.34 178.71 344.06 171.43 335.08 171.43 C 326.10 171.43 318.81 178.71 318.81 187.69 C 318.81 196.68 326.10 203.96 335.08 203.96 Z M 335.08 198.38 C 340.98 198.38 345.76 193.60 345.76 187.69 C 345.76 181.79 340.98 177.01 335.08 177.01 C 329.18 177.01 324.39 181.79 324.39 187.69 C 324.39 193.60 329.18 198.38 335.08 198.38 Z" fill="#ffffff" fill-rule="nonzero" node-id="171" stroke="none" target-height="32.526" target-width="32.526" target-x="318.814" target-y="171.431"></path></mask><mask height="33" id="mask4" maskUnits="userSpaceOnUse" node-id="22" width="33" x="365" y="171"><path d="M 381.30 203.96 C 390.28 203.96 397.56 196.68 397.56 187.69 C 397.56 178.71 390.28 171.43 381.30 171.43 C 372.32 171.43 365.04 178.71 365.04 187.69 C 365.04 196.68 372.32 203.96 381.30 203.96 Z M 381.30 198.38 C 387.20 198.38 391.99 193.60 391.99 187.69 C 391.99 181.79 387.20 177.01 381.30 177.01 C 375.39 177.01 370.61 181.79 370.61 187.69 C 370.61 193.60 375.39 198.38 381.30 198.38 Z" fill="#ffffff" fill-rule="nonzero" node-id="175" stroke="none" target-height="32.526" target-width="32.526" target-x="365.035" target-y="171.431"></path></mask><mask height="33" id="mask5" maskUnits="userSpaceOnUse" node-id="26" width="33" x="365" y="171"><path d="M 381.30 203.96 C 390.28 203.96 397.56 196.68 397.56 187.69 C 397.56 178.71 390.28 171.43 381.30 171.43 C 372.32 171.43 365.04 178.71 365.04 187.69 C 365.04 196.68 372.32 203.96 381.30 203.96 Z M 381.30 198.38 C 387.20 198.38 391.99 193.60 391.99 187.69 C 391.99 181.79 387.20 177.01 381.30 177.01 C 375.39 177.01 370.61 181.79 370.61 187.69 C 370.61 193.60 375.39 198.38 381.30 198.38 Z" fill="#ffffff" fill-rule="nonzero" node-id="179" stroke="none" target-height="32.526" target-width="32.526" target-x="365.035" target-y="171.431"></path></mask><mask height="193" id="mask6" maskUnits="userSpaceOnUse" node-id="45" width="100" x="25" y="296"><path d="M 117.66 301.75 L 116.67 298.28 L 41.41 296.00 L 40.33 299.74 C 34.71 319.29 32.62 339.69 34.16 359.97 L 36.53 391.23 C 37.04 397.97 36.84 404.75 35.93 411.45 L 25.44 488.50 L 116.67 488.50 L 114.44 449.35 C 114.10 443.53 114.30 437.69 115.03 431.91 L 122.83 369.76 C 125.69 346.97 123.93 323.84 117.66 301.75 Z" fill="#ffffff" fill-rule="nonzero" node-id="183" stroke="none" target-height="192.49701" target-width="100.2479" target-x="25.4431" target-y="296"></path></mask><mask height="108" id="mask7" maskUnits="userSpaceOnUse" node-id="50" width="157" x="4" y="198"><path d="M 45.95 201.54 L 60.16 198.19 L 92.68 198.19 C 106.28 198.19 119.59 202.15 130.98 209.60 L 160.66 229.00 L 147.16 263.50 L 123.32 246.50 L 120.66 263.50 L 124.52 296.16 C 125.09 300.99 121.25 305.21 116.39 305.09 L 45.74 303.46 C 40.52 303.35 36.82 298.35 38.22 293.32 L 43.53 274.26 L 37.96 260.23 L 30.66 274.26 L 4.26 268.56 L 20.38 224.27 C 24.53 212.87 34.14 204.32 45.95 201.54 Z" fill="#ffffff" fill-rule="nonzero" node-id="187" stroke="none" target-height="107.019" target-width="156.39972" target-x="4.25928" target-y="198.187"></path></mask><mask height="70" id="mask8" maskUnits="userSpaceOnUse" node-id="69" width="46" x="58" y="139"><path d="M 97.49 151.15 L 97.49 155.36 C 99.37 154.89 103.11 154.80 103.11 158.17 C 103.11 162.38 100.30 165.19 97.49 163.78 C 97.13 168.16 94.78 176.79 87.78 180.39 C 88.03 183.69 88.76 188.43 90.48 191.85 C 92.72 196.35 97.03 198.41 98.90 198.87 C 96.09 202.15 88.23 208.70 79.25 208.70 C 70.26 208.70 63.34 202.15 61.00 198.87 C 62.40 198.41 66.05 196.63 69.42 193.26 C 72.07 190.61 72.58 184.30 72.45 179.69 C 66.61 175.76 64.83 167.89 63.81 163.78 C 61.94 164.25 58.19 164.06 58.19 159.57 C 58.19 155.08 62.40 154.89 63.81 155.36 L 63.81 151.15 C 66.61 151.62 73.91 151.43 80.65 146.94 C 87.39 142.45 89.07 140.39 89.07 139.92 C 89.07 142.26 90.10 146.57 91.88 148.34 C 94.69 151.15 96.56 150.68 97.49 151.15 Z" fill="#ffffff" fill-rule="nonzero" node-id="191" stroke="none" target-height="68.778" target-width="44.9151" target-x="58.1929" target-y="139.921"></path></mask><mask height="287" id="mask9" maskUnits="userSpaceOnUse" node-id="122" width="113" x="523" y="281"><path d="M 610.19 302.05 L 606.44 283.48 L 530.26 281.20 L 525.55 316.96 C 524.13 327.77 523.67 338.68 524.18 349.56 L 534.37 567.21 L 561.28 567.21 L 566.75 349.17 L 606.44 567.21 L 635.18 567.21 L 612.82 357.83 L 613.03 355.66 C 614.71 337.74 613.75 319.68 610.19 302.05 Z" fill="#ffffff" fill-rule="nonzero" node-id="195" stroke="none" target-height="286.00903" target-width="111.502014" target-x="523.674" target-y="281.201"></path></mask><mask height="51" id="mask10" maskUnits="userSpaceOnUse" node-id="136" width="38" x="555" y="153"><path d="M 586.57 180.61 C 584.70 175.97 585.01 160.91 585.40 153.96 C 576.85 155.51 560.08 161.26 561.48 171.92 C 562.88 182.58 558.96 185.24 556.82 185.24 C 554.48 190.26 552.97 200.88 565.57 203.20 C 578.17 205.52 588.71 194.51 592.40 188.72 C 591.24 187.95 588.43 185.24 586.57 180.61 Z" fill="#ffffff" fill-rule="nonzero" node-id="199" stroke="none" target-height="51.558" target-width="39.435974" target-x="552.966" target-y="153.961"></path></mask></defs><path d="M 703.28 586.92 L 48.28 586.92 L 3.53 586.92 L 3.53 283.48 C 3.53 261.99 20.97 244.57 42.49 244.57 C 64.01 244.57 81.46 227.15 81.46 205.65 L 81.46 172.78 C 81.46 133.14 113.63 101.00 153.33 101.00 L 477.93 101.00 C 512.24 101.00 540.06 128.78 540.06 163.06 C 540.06 197.33 567.88 225.11 602.19 225.11 L 621.67 225.11 C 666.75 225.11 703.28 261.61 703.28 306.62 L 703.28 586.92 Z" fill="#f3f6ff" fill-rule="nonzero" node-id="203" stroke="none" target-height="485.922" target-width="699.75397" target-x="3.53003" target-y="101"></path><path d="M 246.31 134.82 C 246.31 128.10 250.27 122.00 256.42 119.27 C 258.80 118.21 261.39 117.72 263.99 117.82 L 400.37 123.15 C 409.25 123.50 416.39 130.59 416.80 139.48 L 421.51 243.12 C 421.62 245.52 421.19 247.92 420.25 250.14 C 417.72 256.11 411.87 259.99 405.39 259.99 L 263.43 259.99 C 253.98 259.99 246.31 252.32 246.31 242.87 L 246.31 134.82 Z" fill="#a7a0ff" fill-rule="nonzero" node-id="205" stroke="none" target-height="142.26898" target-width="175.30501" target-x="246.312" target-y="117.717"></path><path d="M 252.41 134.78 C 252.41 125.33 260.08 117.66 269.53 117.66 L 405.06 117.66 C 414.52 117.66 422.18 125.33 422.18 134.78 L 422.18 242.87 C 422.18 252.32 414.52 259.99 405.06 259.99 L 269.53 259.99 C 260.08 259.99 252.41 252.32 252.41 242.87 L 252.41 134.78 Z" fill="#7268f5" fill-rule="nonzero" node-id="207" stroke="none" target-height="142.32199" target-width="169.771" target-x="252.413" target-y="117.664"></path><path d="M 264.26 259.20 C 264.24 259.19 264.22 259.18 264.20 259.18 C 407.55 257.65 419.69 164.72 407.67 118.06 L 408.85 118.06 C 416.54 119.74 422.30 126.59 422.30 134.78 L 422.30 242.87 C 422.30 250.53 417.27 257.01 410.33 259.20 L 264.26 259.20 Z" fill="#6258e8" fill-rule="nonzero" node-id="209" stroke="none" target-height="141.13702" target-width="158.09601" target-x="264.199" target-y="118.059"></path><g node-id="476"><path d="M 287.14 203.96 C 296.13 203.96 303.41 196.68 303.41 187.69 C 303.41 178.71 296.13 171.43 287.14 171.43 C 278.16 171.43 270.88 178.71 270.88 187.69 C 270.88 196.68 278.16 203.96 287.14 203.96 Z" fill="#968ffa" fill-rule="nonzero" group-id="1" node-id="213" stroke="none" target-height="32.526" target-width="32.525024" target-x="270.882" target-y="171.431"></path></g><g node-id="477"><path d="M 303.41 187.69 C 303.41 184.48 302.45 181.33 300.67 178.66 C 298.88 175.98 296.34 173.90 293.37 172.67 C 290.40 171.44 287.13 171.12 283.97 171.74 C 280.82 172.37 277.92 173.92 275.64 176.19 C 273.37 178.47 271.82 181.37 271.19 184.52 C 270.57 187.68 270.89 190.95 272.12 193.92 C 273.35 196.89 275.44 199.43 278.11 201.22 C 280.78 203.00 283.93 203.96 287.14 203.96 L 287.14 187.69 L 303.41 187.69 Z" fill="#ffffff" fill-rule="nonzero" group-id="2" node-id="218" stroke="none" target-height="32.841003" target-width="32.840027" target-x="270.567" target-y="171.116"></path></g><g node-id="478"><path d="M 335.08 203.96 C 344.06 203.96 351.34 196.68 351.34 187.69 C 351.34 178.71 344.06 171.43 335.08 171.43 C 326.10 171.43 318.81 178.71 318.81 187.69 C 318.81 196.68 326.10 203.96 335.08 203.96 Z" fill="#968ffa" fill-rule="nonzero" group-id="3" node-id="223" stroke="none" target-height="32.526" target-width="32.526" target-x="318.814" target-y="171.431"></path></g><g node-id="479"><path d="M 351.34 187.69 C 351.34 185.02 350.68 182.39 349.42 180.03 C 348.16 177.67 346.34 175.66 344.11 174.17 C 341.89 172.69 339.33 171.77 336.67 171.51 C 334.01 171.25 331.32 171.65 328.85 172.67 C 326.38 173.69 324.20 175.31 322.51 177.38 C 320.81 179.44 319.65 181.90 319.13 184.52 C 318.61 187.14 318.74 189.86 319.51 192.41 C 320.29 194.97 321.69 197.30 323.58 199.19 L 335.08 187.69 L 351.34 187.69 Z" fill="#ffffff" fill-rule="nonzero" group-id="4" node-id="228" stroke="none" target-height="27.947006" target-width="32.734985" target-x="318.605" target-y="171.247"></path></g><g node-id="480"><path d="M 381.30 203.96 C 390.28 203.96 397.56 196.68 397.56 187.69 C 397.56 178.71 390.28 171.43 381.30 171.43 C 372.32 171.43 365.04 178.71 365.04 187.69 C 365.04 196.68 372.32 203.96 381.30 203.96 Z" fill="#968ffa" fill-rule="nonzero" group-id="5" node-id="233" stroke="none" target-height="32.526" target-width="32.526" target-x="365.035" target-y="171.431"></path></g><g node-id="481"><path d="M 397.56 187.69 C 397.56 184.48 396.61 181.33 394.82 178.66 C 393.03 175.98 390.49 173.90 387.52 172.67 C 384.55 171.44 381.28 171.12 378.12 171.74 C 374.97 172.37 372.07 173.92 369.80 176.19 L 381.30 187.69 L 397.56 187.69 Z" fill="#ffffff" fill-rule="nonzero" group-id="6" node-id="238" stroke="none" target-height="16.578003" target-width="27.763" target-x="369.798" target-y="171.116"></path></g><path d="M 267.46 231.67 C 267.46 230.54 268.37 229.63 269.49 229.63 L 308.12 229.63 C 309.25 229.63 310.16 230.54 310.16 231.67 C 310.16 232.79 309.25 233.70 308.12 233.70 L 269.49 233.70 C 268.37 233.70 267.46 232.79 267.46 231.67 Z" fill="#ffffff" fill-rule="nonzero" node-id="241" stroke="none" target-height="4.0660095" target-width="42.69699" target-x="267.459" target-y="229.635"></path><path d="M 267.46 242.53 C 267.46 241.41 268.37 240.50 269.49 240.50 L 297.96 240.50 C 299.08 240.50 299.99 241.41 299.99 242.53 C 299.99 243.66 299.08 244.57 297.96 244.57 L 269.49 244.57 C 268.37 244.57 267.46 243.66 267.46 242.53 Z" fill="#ffffff" fill-rule="nonzero" node-id="243" stroke="none" target-height="4.0670013" target-width="32.530975" target-x="267.459" target-y="240.499"></path><path d="M 378.73 152.92 C 378.73 151.80 379.64 150.89 380.76 150.89 L 395.53 150.89 C 396.66 150.89 397.57 151.80 397.57 152.92 C 397.57 154.04 396.66 154.96 395.53 154.96 L 380.76 154.96 C 379.64 154.96 378.73 154.04 378.73 152.92 Z" fill="#ffffff" fill-rule="nonzero" node-id="245" stroke="none" target-height="4.0659943" target-width="18.835999" target-x="378.73" target-y="150.889"></path><path d="M 368.46 241.62 C 371.30 241.62 373.60 239.32 373.60 236.48 C 373.60 233.65 371.30 231.35 368.46 231.35 C 365.62 231.35 363.32 233.65 363.32 236.48 C 363.32 239.32 365.62 241.62 368.46 241.62 Z" fill="#ffffff" fill-rule="nonzero" node-id="247" stroke="none" target-height="10.272003" target-width="10.272003" target-x="363.323" target-y="231.347"></path><path d="M 387.29 241.62 C 390.13 241.62 392.43 239.32 392.43 236.48 C 392.43 233.65 390.13 231.35 387.29 231.35 C 384.45 231.35 382.15 233.65 382.15 236.48 C 382.15 239.32 384.45 241.62 387.29 241.62 Z" fill="#ffffff" fill-rule="nonzero" node-id="249" stroke="none" target-height="10.272003" target-width="10.272003" target-x="382.154" target-y="231.347"></path><path d="M 299.13 145.75 L 275.16 145.75 C 272.80 145.75 270.88 147.67 270.88 150.03 L 270.88 150.03 C 270.88 152.40 272.80 154.31 275.16 154.31 L 299.13 154.31 C 301.49 154.31 303.41 152.40 303.41 150.03 C 303.41 147.67 301.49 145.75 299.13 145.75 Z" fill="#ffffff" fill-rule="nonzero" node-id="251" stroke="none" target-height="8.559998" target-width="32.525024" target-x="270.882" target-y="145.753"></path><path d="M 392.43 132.91 L 276.02 132.91 C 267.04 132.91 259.75 140.19 259.75 149.18 L 259.75 202.25 C 259.75 211.23 267.04 218.51 276.02 218.51 L 392.43 218.51 C 401.41 218.51 408.69 211.23 408.69 202.25 L 408.69 149.18 C 408.69 140.19 401.41 132.91 392.43 132.91 Z M 276.02 132.06 C 266.56 132.06 258.90 139.72 258.90 149.18 L 258.90 202.25 C 258.90 211.70 266.56 219.36 276.02 219.36 L 392.43 219.36 C 401.88 219.36 409.54 211.70 409.54 202.25 L 409.54 149.18 C 409.54 139.72 401.88 132.06 392.43 132.06 L 276.02 132.06 Z" fill="#ffffff" fill-rule="evenodd" node-id="253" stroke="none" target-height="87.306" target-width="150.64502" target-x="258.899" target-y="132.058"></path><path d="M 438.76 346.39 C 451.19 349.05 463.43 341.13 466.09 328.70 C 468.75 316.27 460.83 304.03 448.40 301.37 C 435.97 298.70 423.73 306.63 421.07 319.06 C 418.41 331.49 426.33 343.73 438.76 346.39 Z" fill="#ffae64" fill-rule="nonzero" node-id="255" stroke="none" target-height="50.349" target-width="50.347992" target-x="418.407" target-y="298.705"></path><path d="M 443.96 347.50 C 456.39 350.17 468.63 342.25 471.29 329.81 C 473.95 317.38 466.03 305.14 453.60 302.48 C 441.16 299.82 428.93 307.74 426.26 320.17 C 423.60 332.60 431.52 344.84 443.96 347.50 Z" fill="#ffe071" fill-rule="nonzero" node-id="257" stroke="none" target-height="50.347992" target-width="50.348022" target-x="423.602" target-y="299.818"></path><path d="M 445.51 332.57 C 446.70 333.10 447.90 333.20 449.11 332.88 C 450.32 332.56 451.21 331.89 451.78 330.86 L 454.94 332.26 C 454.38 333.35 453.53 334.23 452.37 334.92 C 451.22 335.61 449.91 335.98 448.45 336.05 C 447.01 336.12 445.63 335.86 444.31 335.27 C 441.65 334.09 439.93 332.27 439.13 329.81 C 438.68 328.37 438.59 326.83 438.87 325.19 L 433.90 322.97 L 434.71 321.15 L 439.36 323.22 C 439.54 322.67 439.76 322.11 440.01 321.53 L 440.26 320.98 C 440.30 320.88 440.35 320.79 440.39 320.69 C 440.43 320.61 440.47 320.53 440.51 320.45 L 435.93 318.41 L 436.75 316.58 L 441.51 318.70 C 442.11 317.82 442.79 317.06 443.55 316.41 C 444.90 315.25 446.40 314.56 448.06 314.32 C 449.74 314.10 451.46 314.38 453.24 315.17 C 455.43 316.14 456.95 317.60 457.81 319.55 C 458.69 321.50 458.71 323.53 457.88 325.65 L 454.73 324.25 C 455.19 322.95 455.17 321.71 454.66 320.52 C 454.17 319.33 453.29 318.45 452.03 317.89 C 450.33 317.14 448.75 317.16 447.26 317.96 C 446.39 318.44 445.59 319.18 444.87 320.20 L 449.53 322.28 L 448.72 324.10 L 443.85 321.93 C 443.79 322.05 443.74 322.16 443.68 322.28 C 443.63 322.38 443.59 322.48 443.54 322.59 L 443.26 323.22 C 443.03 323.73 442.84 324.22 442.69 324.70 L 447.50 326.84 L 446.69 328.67 L 442.24 326.69 C 442.14 327.52 442.18 328.29 442.35 328.99 C 442.74 330.61 443.79 331.80 445.51 332.57 Z" fill="#b39e53" fill-rule="nonzero" node-id="259" stroke="none" target-height="22.026001" target-width="24.815002" target-x="433.897" target-y="314.095"></path><path d="M 110.76 587.20 L 98.90 577.62 C 94.82 574.12 92.55 568.49 93.88 556.63 C 95.54 541.83 104.83 480.00 104.83 480.00 L 79.74 480.00 L 77.92 573.05 L 75.64 582.18 L 109.39 589.02 L 110.76 587.20 Z" fill="#ffae64" fill-rule="nonzero" node-id="261" stroke="none" target-height="109.020996" target-width="35.123505" target-x="75.6355" target-y="480"></path><path d="M 107.20 587.90 L 76.09 579.90 C 73.34 582.38 72.37 586.28 73.66 589.76 L 76.09 596.32 L 89.32 597.23 L 90.23 594.04 L 96.97 596.57 C 99.76 597.61 102.70 598.14 105.67 598.14 L 116.19 598.14 C 117.63 598.14 118.96 597.38 119.69 596.14 C 120.80 594.22 120.17 591.75 118.26 590.62 L 104.83 582.63 L 108.44 585.26 C 109.18 585.80 109.26 586.87 108.62 587.51 C 108.25 587.88 107.71 588.03 107.20 587.90 Z" fill="#2c2770" fill-rule="nonzero" node-id="263" stroke="none" target-height="18.245972" target-width="48.4292" target-x="72.3748" target-y="579.898"></path><path d="M 9.48 586.57 L 20.88 577.90 C 24.97 574.40 27.27 561.94 28.18 556.92 C 31.37 534.57 35.02 476.64 35.02 476.64 L 60.11 476.64 L 42.78 574.25 L 45.06 582.47 L 10.85 588.39 L 9.48 586.57 Z" fill="#ffae64" fill-rule="nonzero" node-id="265" stroke="none" target-height="111.758026" target-width="50.63312" target-x="9.47778" target-y="476.637"></path><path d="M 13.03 587.73 L 44.15 579.73 C 46.90 582.21 47.86 586.11 46.58 589.59 L 44.15 596.15 L 30.92 597.06 L 30.00 593.87 L 23.26 596.40 C 20.48 597.44 17.53 597.97 14.56 597.97 L 4.05 597.97 C 2.61 597.97 1.28 597.21 0.55 595.97 C -0.57 594.05 0.07 591.59 1.98 590.45 L 15.41 582.47 L 11.79 585.09 C 11.06 585.63 10.97 586.70 11.62 587.34 C 11.99 587.71 12.53 587.86 13.03 587.73 Z" fill="#2c2770" fill-rule="nonzero" node-id="267" stroke="none" target-height="18.245972" target-width="48.42977" target-x="-0.567571" target-y="579.728"></path><path d="M 117.66 301.75 L 116.67 298.28 L 41.41 296.00 L 40.33 299.74 C 34.71 319.29 32.62 339.69 34.16 359.97 L 36.53 391.23 C 37.04 397.97 36.84 404.75 35.93 411.45 L 25.44 488.50 L 116.67 488.50 L 114.44 449.35 C 114.10 443.53 114.30 437.69 115.03 431.91 L 122.83 369.76 C 125.69 346.97 123.93 323.84 117.66 301.75 Z" fill="#1be3b3" fill-rule="nonzero" node-id="269" stroke="none" target-height="192.49701" target-width="100.2479" target-x="25.4431" target-y="296"></path><path d="M 46.88 299.19 C 44.30 308.01 39.49 330.85 40.95 351.65 C 42.41 372.45 41.56 395.59 40.95 404.56 L 30.00 491.23" fill="none" group-id="7" node-id="273" stroke="#ffffff" stroke-linecap="butt" stroke-width="1" target-height="192.04102" target-width="16.8777" target-x="30.0046" target-y="299.193"></path><path d="M 45.95 201.54 L 60.16 198.19 L 90.52 197.50 C 104.85 197.17 118.93 201.25 130.86 209.19 L 160.66 229.00 L 147.16 263.50 L 123.32 246.50 L 120.66 263.50 L 119.33 297.62 C 119.16 301.91 115.63 305.31 111.33 305.31 L 46.19 305.31 C 41.01 305.31 37.20 300.46 38.42 295.43 L 43.53 274.26 L 37.96 260.23 L 30.66 274.26 L 4.26 268.56 L 20.38 224.27 C 24.53 212.87 34.14 204.32 45.95 201.54 Z" fill="#ffe071" fill-rule="nonzero" node-id="276" stroke="none" target-height="108.132" target-width="156.39972" target-x="4.25928" target-y="197.174"></path><path d="M 126.53 188.50 C 135.09 188.50 142.03 195.44 142.03 204.00 C 142.03 212.56 135.09 219.50 126.53 219.50 C 117.97 219.50 111.03 212.56 111.03 204.00 C 111.03 195.44 117.97 188.50 126.53 188.50 Z" fill="none" group-id="8" node-id="280" stroke="#d7be67" stroke-linecap="butt" stroke-width="5" target-height="31" target-width="31" target-x="111.03" target-y="188.5"></path><path d="M 18.53 213.50 C 23.22 213.50 27.03 217.31 27.03 222.00 C 27.03 226.69 23.22 230.50 18.53 230.50 C 13.84 230.50 10.03 226.69 10.03 222.00 C 10.03 217.31 13.84 213.50 18.53 213.50 Z" fill="none" group-id="8" node-id="282" stroke="#d7be67" stroke-linecap="butt" stroke-width="5" target-height="17" target-width="17" target-x="10.0303" target-y="213.5"></path><path d="M 62.53 238.50 C 65.57 238.50 68.03 240.96 68.03 244.00 C 68.03 247.04 65.57 249.50 62.53 249.50 C 59.49 249.50 57.03 247.04 57.03 244.00 C 57.03 240.96 59.49 238.50 62.53 238.50 Z" fill="none" group-id="8" node-id="284" stroke="#d7be67" stroke-linecap="butt" stroke-width="3" target-height="11" target-width="10.999996" target-x="57.0303" target-y="238.5"></path><path d="M 71.53 290.50 C 79.54 290.50 86.03 296.99 86.03 305.00 C 86.03 313.01 79.54 319.50 71.53 319.50 C 63.52 319.50 57.03 313.01 57.03 305.00 C 57.03 296.99 63.52 290.50 71.53 290.50 Z" fill="none" group-id="8" node-id="286" stroke="#d7be67" stroke-linecap="butt" stroke-width="3" target-height="29" target-width="28.999996" target-x="57.0303" target-y="290.5"></path><path d="M 144.53 245.50 C 152.54 245.50 159.03 251.99 159.03 260.00 C 159.03 268.01 152.54 274.50 144.53 274.50 C 136.52 274.50 130.03 268.01 130.03 260.00 C 130.03 251.99 136.52 245.50 144.53 245.50 Z" fill="none" group-id="8" node-id="288" stroke="#d7be67" stroke-linecap="butt" stroke-width="3" target-height="29" target-width="29" target-x="130.03" target-y="245.5"></path><path d="M 104.51 141.32 C 103.39 132.34 94.69 131.03 90.48 131.50 C 88.14 130.10 83.46 124.48 73.63 125.89 C 63.81 127.29 52.58 132.90 55.39 145.54 C 55.39 145.54 53.03 169.86 70.99 169.86 C 70.99 175.50 85.03 204.14 85.03 187.00 C 85.03 169.86 82.63 182.77 94.03 169.86 C 101.03 167.36 105.92 152.55 104.51 141.32 Z" fill="#2c2770" fill-rule="nonzero" node-id="291" stroke="none" target-height="79.658005" target-width="53.3368" target-x="52.5782" target-y="124.481"></path><path d="M 93.03 133.00 C 102.14 133.00 109.53 125.61 109.53 116.50 C 109.53 107.39 102.14 100.00 93.03 100.00 C 83.92 100.00 76.53 107.39 76.53 116.50 C 76.53 125.61 83.92 133.00 93.03 133.00 Z" fill="#2c2770" fill-rule="nonzero" node-id="293" stroke="none" target-height="33" target-width="32.999702" target-x="76.5303" target-y="100"></path><path d="M 97.49 151.15 L 97.49 155.36 C 99.37 154.89 103.11 154.80 103.11 158.17 C 103.11 162.38 100.30 165.19 97.49 163.78 C 97.13 168.16 94.78 176.79 87.78 180.39 C 88.03 183.69 88.76 188.43 90.48 191.85 C 92.72 196.35 97.03 198.41 98.90 198.87 C 96.09 202.15 88.23 208.70 79.25 208.70 C 70.26 208.70 63.34 202.15 61.00 198.87 C 62.40 198.41 66.05 196.63 69.42 193.26 C 72.07 190.61 72.58 184.30 72.45 179.69 C 66.61 175.76 64.83 167.89 63.81 163.78 C 61.94 164.25 58.19 164.06 58.19 159.57 C 58.19 155.08 62.40 154.89 63.81 155.36 L 63.81 151.15 C 66.61 151.62 73.91 151.43 80.65 146.94 C 87.39 142.45 89.07 140.39 89.07 139.92 C 89.07 142.26 90.10 146.57 91.88 148.34 C 94.69 151.15 96.56 150.68 97.49 151.15 Z" fill="#ffae64" fill-rule="nonzero" node-id="295" stroke="none" target-height="68.778" target-width="44.9151" target-x="58.1929" target-y="139.921"></path><path d="M 85.74 170.37 L 79.35 173.56 C 79.81 174.47 81.27 175.66 83.46 174.93 C 85.65 174.20 85.89 171.88 85.74 170.37 Z" fill="#ffffff" fill-rule="nonzero" node-id="297" stroke="none" target-height="5.2910004" target-width="6.5378036" target-x="79.3545" target-y="170.365"></path><path d="M 72.06 151.21 L 67.49 151.21 C 66.74 151.21 66.13 151.82 66.13 152.57 C 66.13 153.33 66.74 153.94 67.49 153.94 L 72.06 153.94 C 72.81 153.94 73.42 153.33 73.42 152.57 C 73.42 151.82 72.81 151.21 72.06 151.21 Z" fill="#2c2770" fill-rule="nonzero" node-id="299" stroke="none" target-height="2.7369995" target-width="7.298401" target-x="66.126" target-y="151.206"></path><path d="M 90.30 151.21 L 85.74 151.21 C 84.98 151.21 84.37 151.82 84.37 152.57 C 84.37 153.33 84.98 153.94 85.74 153.94 L 90.30 153.94 C 91.06 153.94 91.67 153.33 91.67 152.57 C 91.67 151.82 91.06 151.21 90.30 151.21 Z" fill="#2c2770" fill-rule="nonzero" node-id="301" stroke="none" target-height="2.7369995" target-width="7.298401" target-x="84.3721" target-y="151.206"></path><path d="M 87.57 158.50 C 88.32 158.50 88.93 157.89 88.93 157.14 C 88.93 156.38 88.32 155.77 87.57 155.77 C 86.81 155.77 86.20 156.38 86.20 157.14 C 86.20 157.89 86.81 158.50 87.57 158.50 Z" fill="#000000" fill-rule="nonzero" node-id="303" stroke="none" target-height="2.7369995" target-width="2.7369003" target-x="86.1968" target-y="155.768"></path><path d="M 77.07 153.03 L 77.07 169.45 L 81.18 169.45" fill="none" node-id="305" stroke="#000000" stroke-linecap="butt" stroke-width="1" target-height="16.421997" target-width="4.105301" target-x="77.0737" target-y="153.031"></path><path d="M 70.23 158.50 C 70.99 158.50 71.60 157.89 71.60 157.14 C 71.60 156.38 70.99 155.77 70.23 155.77 C 69.48 155.77 68.86 156.38 68.86 157.14 C 68.86 157.89 69.48 158.50 70.23 158.50 Z" fill="#000000" fill-rule="nonzero" node-id="307" stroke="none" target-height="2.7369995" target-width="2.7369003" target-x="68.8628" target-y="155.768"></path><path d="M 99.88 158.05 C 100.34 159.11 100.43 161.33 97.14 161.70" fill="none" node-id="309" stroke="#000000" stroke-linecap="butt" stroke-width="1" target-height="3.649002" target-width="3.283699" target-x="97.1443" target-y="158.049"></path><path d="M 60.88 158.05 C 60.43 159.11 60.34 161.33 63.62 161.70" fill="none" node-id="311" stroke="#000000" stroke-linecap="butt" stroke-width="1" target-height="3.649002" target-width="3.2843018" target-x="60.3359" target-y="158.049"></path><path d="M 71.14 179.03 C 72.36 179.79 76.25 181.77 80.27 181.77 C 84.08 181.77 87.64 180.54 88.77 180.02 L 88.93 179.94 C 88.89 179.97 88.83 179.99 88.77 180.02 L 70.69 188.61 L 71.14 179.03 Z" fill="#ff8282" fill-rule="nonzero" group-id="9" node-id="315" stroke="none" target-height="9.578995" target-width="18.245796" target-x="70.6875" target-y="179.032"></path><path d="M 80.88 285.20 L 97.57 238.15 C 97.92 237.16 98.98 236.61 99.99 236.90 L 133.95 246.36 C 135.08 246.68 135.70 247.90 135.28 249.00 L 117.49 295.74 C 117.12 296.70 116.08 297.23 115.08 296.95 L 82.23 287.79 C 81.11 287.48 80.49 286.29 80.88 285.20 Z" fill="#2c2770" fill-rule="nonzero" node-id="318" stroke="none" target-height="60.61299" target-width="55.209503" target-x="80.4915" target-y="236.614"></path><path d="M 71.04 266.26 L 30.96 273.99 L 6.03 268.50 L 3.23 288.90 C 1.91 298.57 11.30 306.19 20.49 302.91 L 75.23 283.36 L 82.31 283.73 C 82.52 283.74 82.73 283.73 82.94 283.71 L 91.94 282.75 C 92.02 282.75 92.09 282.75 92.17 282.75 L 105.29 283.53 C 106.38 283.59 107.34 282.82 107.51 281.75 C 107.70 280.59 106.91 279.50 105.76 279.31 L 95.49 277.64 L 107.87 277.12 C 108.79 277.08 109.52 276.34 109.54 275.42 C 109.57 274.50 108.88 273.72 107.97 273.63 L 96.33 272.46 L 109.26 270.25 C 110.28 270.07 111.01 269.15 110.94 268.11 C 110.87 267.04 109.99 266.21 108.92 266.21 L 95.00 266.19 L 108.78 263.55 C 110.12 263.29 110.91 261.90 110.45 260.62 C 110.12 259.68 109.21 259.08 108.22 259.14 L 90.13 260.28 L 92.66 253.50 L 81.40 256.95 C 80.10 257.35 78.92 258.07 77.98 259.05 L 71.04 266.26 Z" fill="#ffae64" fill-rule="nonzero" node-id="320" stroke="none" target-height="52.69101" target-width="109.10331" target-x="1.91069" target-y="253.5"></path><path d="M 211.66 182.50 L 160.16 230.00 L 148.16 260.50 L 149.61 260.94 C 159.57 263.99 170.37 260.54 176.72 252.29 L 223.16 192.00 L 243.66 188.00 L 258.52 188.93 C 259.07 188.96 259.47 188.44 259.30 187.92 C 258.90 186.72 257.93 185.79 256.71 185.44 L 227.16 177.00 L 228.50 173.87 C 229.59 171.32 230.16 168.57 230.16 165.79 C 230.16 164.96 229.14 164.54 228.56 165.14 L 211.66 182.50 Z" fill="#ffae64" fill-rule="nonzero" node-id="322" stroke="none" target-height="99.441986" target-width="111.31201" target-x="148.159" target-y="164.543"></path><path d="M 247.32 598.47 C 245.27 598.47 243.67 596.69 243.89 594.65 L 259.48 449.47 L 269.42 450.53 L 250.74 595.46 C 250.52 597.18 249.05 598.47 247.32 598.47 Z" fill="#627ac1" fill-rule="evenodd" node-id="324" stroke="none" target-height="149" target-width="25.751984" target-x="243.669" target-y="449.466"></path><path d="M 196.01 598.11 C 194.20 598.11 192.83 596.47 193.15 594.68 L 219.53 449.11 L 229.37 450.89 L 198.86 595.80 C 198.57 597.15 197.39 598.11 196.01 598.11 Z" fill="#627ac1" fill-rule="evenodd" node-id="326" stroke="none" target-height="148.99997" target-width="36.543" target-x="192.827" target-y="449.108"></path><path d="M 381.55 598.47 C 383.60 598.47 385.20 596.69 384.98 594.65 L 369.39 449.47 L 359.45 450.53 L 378.13 595.46 C 378.35 597.18 379.82 598.47 381.55 598.47 Z" fill="#627ac1" fill-rule="evenodd" node-id="328" stroke="none" target-height="149" target-width="25.751984" target-x="359.45" target-y="449.466"></path><path d="M 432.86 598.11 C 434.67 598.11 436.04 596.47 435.72 594.68 L 409.34 449.11 L 399.50 450.89 L 430.01 595.80 C 430.30 597.15 431.49 598.11 432.86 598.11 Z" fill="#627ac1" fill-rule="evenodd" node-id="330" stroke="none" target-height="148.99997" target-width="36.541992" target-x="399.501" target-y="449.108"></path><path d="M 262.45 406.00 L 407.45 406.00 L 413.45 453.00 L 262.45 453.00 L 262.45 406.00 Z" fill="#ccd9ff" fill-rule="nonzero" node-id="332" stroke="none" target-height="47" target-width="151" target-x="262.45" target-y="406"></path><path d="M 280.84 416.29 C 281.19 413.83 283.30 412.00 285.79 412.00 L 390.99 412.00 C 393.53 412.00 395.67 413.91 395.96 416.43 L 398.81 441.43 C 399.15 444.40 396.83 447.00 393.85 447.00 L 282.21 447.00 C 279.17 447.00 276.83 444.31 277.26 441.29 L 280.84 416.29 Z" fill="#f2f2f2" fill-rule="nonzero" node-id="334" stroke="none" target-height="35" target-width="122.31802" target-x="276.835" target-y="412"></path><path d="M 311.95 427.00 L 299.95 427.00 C 298.57 427.00 297.45 428.12 297.45 429.50 C 297.45 430.88 298.57 432.00 299.95 432.00 L 311.95 432.00 C 313.33 432.00 314.45 430.88 314.45 429.50 C 314.45 428.12 313.33 427.00 311.95 427.00 Z" fill="#627ac1" fill-rule="nonzero" node-id="336" stroke="none" target-height="5" target-width="17" target-x="297.45" target-y="427"></path><path d="M 377.95 427.00 L 365.95 427.00 C 364.57 427.00 363.45 428.12 363.45 429.50 C 363.45 430.88 364.57 432.00 365.95 432.00 L 377.95 432.00 C 379.33 432.00 380.45 430.88 380.45 429.50 C 380.45 428.12 379.33 427.00 377.95 427.00 Z" fill="#627ac1" fill-rule="nonzero" node-id="338" stroke="none" target-height="5" target-width="17" target-x="363.45" target-y="427"></path><path d="M 225.45 406.00 L 269.45 406.00 L 262.45 453.00 L 218.45 453.00 L 225.45 406.00 Z" fill="#a3baff" fill-rule="nonzero" node-id="340" stroke="none" target-height="47" target-width="51.000015" target-x="218.45" target-y="406"></path><path d="M 338.45 412.00 L 338.45 447.00 L 333.45 447.00 L 333.45 412.00 L 338.45 412.00 Z" fill="#627ac1" fill-rule="evenodd" node-id="342" stroke="none" target-height="35" target-width="5" target-x="333.45" target-y="412"></path><path d="M 234.94 354.41 C 245.42 368.25 252.27 386.85 253.29 395.93 C 257.66 400.54 255.91 388.08 253.29 372.86 C 250.67 357.64 241.06 335.96 232.75 335.04 C 224.45 334.11 222.18 337.57 234.94 354.41 Z" fill="#6b8cff" fill-rule="nonzero" node-id="344" stroke="none" target-height="66.42499" target-width="35.478012" target-x="222.179" target-y="334.114"></path><path d="M 246.18 341.40 C 254.24 356.78 253.13 385.59 250.60 394.36 C 252.88 400.30 255.44 387.75 261.18 373.40 C 266.92 359.06 267.18 331.40 253.18 321.90 C 246.27 317.21 235.18 320.40 246.18 341.40 Z" fill="#54b7ff" fill-rule="nonzero" node-id="346" stroke="none" target-height="83.08502" target-width="32.001007" target-x="235.18" target-y="317.21"></path><path d="M 274.76 359.63 C 266.37 370.79 260.89 385.80 260.08 393.12 C 256.58 396.83 257.98 386.79 260.08 374.51 C 262.18 362.24 269.86 344.75 276.50 344.01 C 283.14 343.27 284.96 346.05 274.76 359.63 Z" fill="#6b8cff" fill-rule="nonzero" node-id="348" stroke="none" target-height="53.569" target-width="28.381989" target-x="256.583" target-y="343.266"></path><path d="M 256.18 376.90 C 258.01 369.90 260.18 334.90 249.18 328.40" fill="none" node-id="350" stroke="#ffffff" stroke-linecap="butt" stroke-width="0.8" target-height="48.5" target-width="11" target-x="249.18" target-y="328.4"></path><path d="M 251.45 381.40 C 251.50 374.16 241.95 348.90 231.45 339.90" fill="none" node-id="352" stroke="#ffffff" stroke-linecap="butt" stroke-width="0.8" target-height="41.5" target-width="20.052002" target-x="231.449" target-y="339.9"></path><path d="M 262.11 380.99 C 262.05 373.75 268.94 356.37 275.95 349.90" fill="none" node-id="354" stroke="#ffffff" stroke-linecap="butt" stroke-width="0.8" target-height="31.091003" target-width="13.89502" target-x="262.054" target-y="349.9"></path><path d="M 240.35 375.21 L 271.55 375.21 L 273.53 400.82 C 273.76 403.73 271.46 406.21 268.55 406.21 L 243.35 406.21 C 240.44 406.21 238.14 403.73 238.37 400.82 L 240.35 375.21 Z" fill="#2c2770" fill-rule="nonzero" node-id="356" stroke="none" target-height="31" target-width="35.615982" target-x="238.141" target-y="375.208"></path><path d="M 297.84 332.28 C 297.84 331.28 298.65 330.47 299.65 330.47 L 308.79 330.49 L 304.02 395.52 L 297.84 395.52 L 297.84 332.28 Z" fill="#706ac7" fill-rule="nonzero" node-id="358" stroke="none" target-height="65.05002" target-width="10.951996" target-x="297.838" target-y="330.472"></path><path d="M 304.02 333.49 C 304.02 331.82 305.37 330.47 307.03 330.47 L 387.58 330.47 C 389.25 330.47 390.59 331.82 390.59 333.49 L 390.59 395.52 L 304.02 395.52 L 304.02 333.49 Z" fill="#cfccff" fill-rule="nonzero" node-id="360" stroke="none" target-height="65.052" target-width="86.57199" target-x="304.022" target-y="330.47"></path><path d="M 383.47 333.57 L 311.14 333.57 C 309.49 333.57 308.14 334.91 308.14 336.57 L 308.14 389.42 C 308.14 391.08 309.49 392.42 311.14 392.42 L 383.47 392.42 C 385.13 392.42 386.47 391.08 386.47 389.42 L 386.47 336.57 C 386.47 334.91 385.13 333.57 383.47 333.57 Z" fill="#282f48" fill-rule="nonzero" node-id="362" stroke="none" target-height="58.856018" target-width="78.326996" target-x="308.145" target-y="333.568"></path><path d="M 377.34 333.57 C 379.18 340.20 380.81 354.56 373.59 359.38 C 369.85 361.88 364.10 361.44 358.43 361.01 C 350.04 360.37 341.84 359.74 340.61 368.68 C 340.46 369.72 340.33 370.73 340.20 371.71 C 338.47 384.83 337.47 392.42 323.09 392.42 L 383.46 392.42 C 385.12 392.42 386.47 391.07 386.47 389.41 L 386.47 336.58 C 386.47 334.92 385.12 333.57 383.46 333.57 L 377.34 333.57 Z" fill="#2f3b67" fill-rule="evenodd" node-id="364" stroke="none" target-height="58.856018" target-width="63.382996" target-x="323.088" target-y="333.568"></path><path d="M 338.72 344.93 L 320.85 344.93 C 319.52 344.93 318.45 346.00 318.45 347.33 L 318.45 348.72 C 318.45 350.05 319.52 351.12 320.85 351.12 L 338.72 351.12 C 340.05 351.12 341.12 350.05 341.12 348.72 L 341.12 347.33 C 341.12 346.00 340.05 344.93 338.72 344.93 Z" fill="#5fffd8" fill-rule="nonzero" node-id="366" stroke="none" target-height="6.1960144" target-width="22.67398" target-x="318.45" target-y="344.926"></path><path d="M 375.83 344.93 L 368.26 344.93 C 366.93 344.93 365.86 346.00 365.86 347.33 L 365.86 348.72 C 365.86 350.05 366.93 351.12 368.26 351.12 L 375.83 351.12 C 377.15 351.12 378.23 350.05 378.23 348.72 L 378.23 347.33 C 378.23 346.00 377.15 344.93 375.83 344.93 Z" fill="#5fffd8" fill-rule="nonzero" node-id="368" stroke="none" target-height="6.1960144" target-width="12.367981" target-x="365.859" target-y="344.926"></path><path d="M 377.20 361.45 L 319.48 361.45 C 318.91 361.45 318.45 361.91 318.45 362.47 L 318.45 362.49 C 318.45 363.05 318.91 363.51 319.48 363.51 L 377.20 363.51 C 377.77 363.51 378.23 363.05 378.23 362.49 L 378.23 362.47 C 378.23 361.91 377.77 361.45 377.20 361.45 Z" fill="#5fffd8" fill-rule="nonzero" node-id="370" stroke="none" target-height="2.0650024" target-width="59.776" target-x="318.45" target-y="361.447"></path><path d="M 377.20 368.68 L 319.48 368.68 C 318.91 368.68 318.45 369.13 318.45 369.70 L 318.45 369.71 C 318.45 370.28 318.91 370.74 319.48 370.74 L 377.20 370.74 C 377.77 370.74 378.23 370.28 378.23 369.71 L 378.23 369.70 C 378.23 369.13 377.77 368.68 377.20 368.68 Z" fill="#5fffd8" fill-rule="nonzero" node-id="372" stroke="none" target-height="2.0650024" target-width="59.776" target-x="318.45" target-y="368.675"></path><path d="M 353.50 375.90 L 319.48 375.90 C 318.91 375.90 318.45 376.36 318.45 376.93 L 318.45 376.94 C 318.45 377.51 318.91 377.97 319.48 377.97 L 353.50 377.97 C 354.06 377.97 354.52 377.51 354.52 376.94 L 354.52 376.93 C 354.52 376.36 354.06 375.90 353.50 375.90 Z" fill="#5fffd8" fill-rule="nonzero" node-id="374" stroke="none" target-height="2.064972" target-width="36.07199" target-x="318.45" target-y="375.903"></path><path d="M 297.84 395.52 L 325.67 395.52 L 325.67 405.85 L 300.85 405.85 C 299.19 405.85 297.84 404.50 297.84 402.83 L 297.84 395.52 Z" fill="#706ac7" fill-rule="nonzero" node-id="376" stroke="none" target-height="10.324982" target-width="27.826996" target-x="297.838" target-y="395.522"></path><path d="M 325.67 395.52 L 415.33 395.52 L 415.33 402.83 C 415.33 404.50 413.98 405.85 412.32 405.85 L 325.67 405.85 L 325.67 395.52 Z" fill="#2c2770" fill-rule="nonzero" node-id="378" stroke="none" target-height="10.324982" target-width="89.664" target-x="325.665" target-y="395.522"></path><path d="M 760.79 378.05 C 793.59 365.26 812.79 396.64 818.00 411.49 C 819.47 415.68 817.13 416.15 813.05 414.38 C 793.88 406.05 776.06 446.23 753.02 442.39 C 727.56 438.15 719.08 394.31 760.79 378.05 Z" fill="#1be3b3" fill-rule="nonzero" node-id="380" stroke="none" target-height="80.97" target-width="100.39398" target-x="719.075" target-y="365.262"></path><path d="M 705.80 330.32 C 681.93 306.36 653.54 320.34 641.08 328.62 C 638.01 330.66 638.54 335.26 641.65 337.25 C 651.94 343.83 671.64 359.78 686.94 392.33 C 697.92 415.69 737.40 362.05 705.80 330.32 Z" fill="#54b7ff" fill-rule="nonzero" node-id="382" stroke="none" target-height="109.328" target-width="99.39697" target-x="638.007" target-y="306.361"></path><path d="M 661.10 387.15 C 631.71 377.41 615.53 400.54 609.09 412.06 C 608.12 413.81 610.61 417.05 612.61 416.93 C 638.76 415.27 650.26 448.49 670.98 443.93 C 693.38 438.99 698.90 399.67 661.10 387.15 Z" fill="#1be3b3" fill-rule="nonzero" node-id="384" stroke="none" target-height="71.07999" target-width="90.77899" target-x="608.118" target-y="377.414"></path><path d="M 720.12 526.53 C 720.12 444.00 757.74 375.00 804.74 404.00 M 699.70 518.73 C 718.50 458.61 719.02 344.30 665.45 330.17 L 699.70 518.73 Z M 682.18 526.21 C 676.74 471.50 706.74 418.00 637.24 405.50 L 682.18 526.21 Z" fill="none" node-id="386" stroke="#4f4f4f" stroke-linecap="butt" stroke-width="1" target-height="196.36002" target-width="167.50098" target-x="637.237" target-y="330.168"></path><path d="M 669.95 508.42 L 729.95 508.42 L 738.10 581.76 C 739.09 590.65 732.13 598.42 723.19 598.42 L 676.71 598.42 C 667.77 598.42 660.81 590.65 661.80 581.76 L 669.95 508.42 Z" fill="#a3baff" fill-rule="nonzero" node-id="388" stroke="none" target-height="90.00003" target-width="78.27301" target-x="660.813" target-y="508.421"></path><path d="M 737.95 508.42 L 660.95 508.42 L 660.95 519.42 L 737.95 519.42 L 737.95 508.42 Z" fill="#ccd9ff" fill-rule="nonzero" node-id="390" stroke="none" target-height="11.0000305" target-width="77" target-x="660.949" target-y="508.421"></path><path d="M 469.53 1.00 L 323.53 1.00 C 319.66 1.00 316.53 4.13 316.53 8.00 L 316.53 80.00 C 316.53 83.87 319.66 87.00 323.53 87.00 L 469.53 87.00 C 473.40 87.00 476.53 83.87 476.53 80.00 L 476.53 8.00 C 476.53 4.13 473.40 1.00 469.53 1.00 Z" fill="#ffffff" fill-rule="nonzero" node-id="392" stroke="#e5e5e5" stroke-linecap="butt" stroke-width="2" target-height="86" target-width="160" target-x="316.53" target-y="1"></path><path d="M 361.53 40.00 L 387.53 40.00 C 386.58 26.07 375.46 14.95 361.53 14.00 L 361.53 40.00 Z" fill="#1be3b3" fill-rule="nonzero" node-id="394" stroke="none" target-height="26" target-width="26" target-x="361.53" target-y="14"></path><path d="M 384.30 63.00 C 388.42 58.46 391.09 52.54 391.53 46.00 L 367.53 46.00 L 384.30 63.00 Z" fill="#ffae64" fill-rule="nonzero" node-id="396" stroke="none" target-height="17" target-width="24" target-x="367.53" target-y="46"></path><path d="M 357.73 42.90 L 357.73 13.00 C 343.10 13.99 331.53 26.13 331.53 40.96 C 331.53 56.45 344.13 69.00 359.67 69.00 C 366.46 69.00 372.67 66.60 377.53 62.62 L 357.73 42.90 Z" fill="#ff8282" fill-rule="nonzero" node-id="398" stroke="none" target-height="56" target-width="46" target-x="331.53" target-y="13"></path><path d="M 448.53 51.00 L 405.53 51.00 L 405.53 59.00 L 448.53 59.00 L 448.53 51.00 Z" fill="#a3b7ff" fill-rule="nonzero" node-id="400" stroke="none" target-height="8" target-width="43" target-x="405.53" target-y="51"></path><path d="M 437.53 37.00 L 405.53 37.00 L 405.53 45.00 L 437.53 45.00 L 437.53 37.00 Z" fill="#a3b7ff" fill-rule="nonzero" node-id="402" stroke="none" target-height="8" target-width="32" target-x="405.53" target-y="37"></path><path d="M 465.53 23.00 L 405.53 23.00 L 405.53 31.00 L 465.53 31.00 L 465.53 23.00 Z" fill="#a3b7ff" fill-rule="nonzero" node-id="404" stroke="none" target-height="8" target-width="60" target-x="405.53" target-y="23"></path><path d="M 526.15 587.28 L 537.96 577.16 C 544.23 571.78 543.03 555.35 543.03 555.35 L 559.91 554.44 L 559.91 572.68 L 562.65 582.26 L 527.52 589.11 L 526.15 587.28 Z" fill="#ffae64" fill-rule="nonzero" node-id="406" stroke="none" target-height="34.66797" target-width="36.491943" target-x="526.155" target-y="554.437"></path><path d="M 532.05 598.23 L 520.77 598.23 C 519.30 598.23 517.95 597.45 517.21 596.18 C 516.09 594.27 516.68 591.81 518.52 590.58 C 520.75 589.10 524.01 586.89 527.98 584.09 C 535.73 578.61 538.93 574.96 538.93 574.96 C 538.93 574.96 543.49 577.70 550.33 577.70 C 557.17 577.70 560.82 572.68 560.82 572.68 C 563.76 580.02 563.86 588.19 561.12 595.61 L 560.82 596.40 L 547.59 597.32 L 545.31 595.49 L 539.28 597.22 C 536.93 597.89 534.49 598.23 532.05 598.23 Z" fill="#2c2770" fill-rule="nonzero" node-id="408" stroke="none" target-height="25.545044" target-width="47.773987" target-x="516.09" target-y="572.683"></path><path d="M 648.40 587.28 L 636.60 577.16 C 630.33 571.78 631.53 555.35 631.53 555.35 L 614.65 554.44 L 614.65 572.68 L 611.91 582.26 L 647.04 589.11 L 648.40 587.28 Z" fill="#ffae64" fill-rule="nonzero" node-id="410" stroke="none" target-height="34.66797" target-width="36.492004" target-x="611.912" target-y="554.437"></path><path d="M 642.51 598.23 L 653.79 598.23 C 655.26 598.23 656.61 597.45 657.35 596.18 C 658.47 594.27 657.88 591.81 656.04 590.58 C 653.81 589.10 650.55 586.89 646.58 584.09 C 638.83 578.61 635.63 574.96 635.63 574.96 C 635.63 574.96 631.07 577.70 624.23 577.70 C 617.39 577.70 613.74 572.68 613.74 572.68 C 610.80 580.02 610.70 588.19 613.44 595.61 L 613.74 596.40 L 626.97 597.32 L 629.25 595.49 L 635.28 597.22 C 637.63 597.89 640.07 598.23 642.51 598.23 Z" fill="#2c2770" fill-rule="nonzero" node-id="412" stroke="none" target-height="25.545044" target-width="47.773987" target-x="610.695" target-y="572.683"></path><path d="M 609.28 302.05 L 605.53 283.48 L 529.35 281.20 L 524.64 316.96 C 523.22 327.77 522.76 338.68 523.27 349.56 L 533.45 567.21 L 560.37 567.21 L 565.84 349.17 L 605.53 567.21 L 634.26 567.21 L 611.91 357.83 L 612.12 355.66 C 613.80 337.74 612.84 319.68 609.28 302.05 Z" fill="#2c2770" fill-rule="nonzero" node-id="414" stroke="none" target-height="286.00903" target-width="111.50098" target-x="522.762" target-y="281.201"></path><path d="M 600.96 281.66 C 603.40 293.82 608.26 328.73 608.26 371.06 C 608.26 371.06 623.47 520.07 631.07 568.12" fill="none" group-id="10" node-id="418" stroke="#ffffff" stroke-linecap="butt" stroke-width="1" target-height="286.465" target-width="30.106018" target-x="600.964" target-y="281.657"></path><path d="M 565.38 349.62 C 562.65 356.47 557.08 379.27 556.72 415.77 C 556.35 452.26 556.57 531.93 556.72 567.21" fill="none" group-id="10" node-id="420" stroke="#ffffff" stroke-linecap="butt" stroke-width="1" target-height="217.58603" target-width="9.031982" target-x="556.352" target-y="349.624"></path><path d="M 624.87 276.47 L 617.21 255.93 L 637.71 238.48 L 645.04 262.93 C 648.30 273.79 646.79 285.51 640.91 295.19 L 614.28 339.00 L 613.50 346.05 C 613.48 346.26 613.44 346.47 613.38 346.67 L 611.00 355.40 C 610.98 355.47 610.97 355.55 610.96 355.63 L 609.62 368.70 C 609.51 369.79 608.60 370.61 607.51 370.61 C 606.34 370.61 605.39 369.66 605.39 368.49 L 605.39 358.08 L 602.89 370.22 C 602.70 371.12 601.85 371.73 600.94 371.60 C 600.03 371.48 599.37 370.67 599.42 369.76 L 600.13 358.08 L 595.88 370.49 C 595.54 371.48 594.51 372.05 593.50 371.81 C 592.46 371.57 591.78 370.56 591.95 369.51 L 594.16 355.77 L 589.34 368.95 C 588.88 370.23 587.38 370.79 586.18 370.13 C 585.32 369.65 584.87 368.65 585.10 367.68 L 588.88 351.39 L 584.90 354.89 C 584.04 355.65 582.94 356.06 581.80 356.06 C 581.11 356.06 580.66 355.36 580.94 354.73 L 587.22 341.00 C 587.82 339.69 588.76 338.57 589.95 337.75 L 598.07 332.13 L 624.87 276.47 Z" fill="#ff9330" fill-rule="nonzero" node-id="423" stroke="none" target-height="133.567" target-width="67.638" target-x="580.658" target-y="238.48"></path><path d="M 473.62 169.53 L 495.68 180.73 L 493.26 205.04 L 470.12 194.83 C 457.55 189.28 448.71 177.67 446.70 164.08 L 438.78 110.37 L 432.40 103.10 L 427.45 96.69 C 425.76 94.49 425.13 91.65 425.74 88.94 C 426.19 86.97 427.51 85.32 429.34 84.47 L 438.55 80.16 L 432.48 65.53 C 431.89 64.10 432.71 62.49 434.20 62.13 C 435.29 61.86 436.43 62.35 436.98 63.33 L 446.28 79.76 L 448.88 79.32 C 450.18 79.11 451.46 79.76 452.05 80.93 L 455.07 86.92 C 455.91 88.58 456.14 90.47 455.73 92.29 L 453.36 102.79 L 473.62 169.53 Z" fill="#ff9330" fill-rule="nonzero" node-id="425" stroke="none" target-height="143.1813" target-width="70.554016" target-x="425.129" target-y="61.8637"></path><path d="M 432.22 83.18 L 437.69 93.68 C 438.24 94.72 439.49 95.17 440.57 94.70 C 441.59 94.25 442.13 93.11 441.82 92.04 L 440.92 88.84" fill="none" node-id="427" stroke="#000000" stroke-linecap="butt" stroke-width="1" target-height="11.9854965" target-width="9.907013" target-x="432.222" target-y="83.1807"></path><path d="M 427.23 85.63 L 433.83 95.57 C 434.45 96.51 435.69 96.80 436.67 96.25 C 437.66 95.68 438.03 94.43 437.51 93.42 L 437.25 92.91" fill="none" node-id="429" stroke="#000000" stroke-linecap="butt" stroke-width="1" target-height="11.169395" target-width="10.8029785" target-x="427.23" target-y="85.634"></path><path d="M 426.38 93.25 L 431.75 100.78 C 432.43 101.73 433.72 102.02 434.74 101.44 C 435.73 100.88 436.15 99.68 435.74 98.62 L 434.75 96.07" fill="none" node-id="431" stroke="#000000" stroke-linecap="butt" stroke-width="1" target-height="8.768501" target-width="9.768005" target-x="426.384" target-y="93.2495"></path><path d="M 444.43 80.57 L 435.11 84.53 C 434.33 84.86 433.94 85.74 434.22 86.55 C 434.82 88.29 436.53 89.40 438.37 89.25 L 446.89 88.56 C 445.24 89.63 442.99 95.53 442.76 101.65" fill="none" node-id="433" stroke="#000000" stroke-linecap="butt" stroke-width="1" target-height="21.079102" target-width="12.953003" target-x="433.935" target-y="80.5669"></path><path d="M 619.70 275.68 L 597.87 332.24 L 614.55 339.87 L 638.60 302.51 C 647.24 289.11 649.69 272.63 645.33 257.28 L 633.57 215.95 C 630.14 203.88 620.58 194.51 608.44 191.32 L 586.96 185.69 L 533.58 185.69 C 527.09 185.69 520.64 184.79 514.39 183.03 L 483.14 174.19 L 482.91 174.12 L 482.82 173.90 L 452.97 104.65 L 437.78 110.82 L 444.78 165.31 C 447.21 184.19 459.31 200.43 476.69 208.16 L 524.08 229.23 L 524.30 229.33 L 524.36 229.57 L 528.50 246.65 L 528.52 246.74 L 528.51 246.84 L 524.88 272.55 C 523.46 282.63 531.42 291.58 541.60 291.35 L 603.44 289.92 C 607.68 289.82 611.00 286.22 610.75 281.99 L 608.73 247.26 L 609.70 247.06 L 619.70 275.33 L 619.76 275.51 L 619.70 275.68 Z" fill="#ffffff" fill-rule="nonzero" node-id="435" stroke="#000000" stroke-linecap="butt" stroke-width="1" target-height="235.21698" target-width="211.91202" target-x="437.777" target-y="104.648"></path><path d="M 586.88 180.62 C 585.00 175.93 585.32 160.67 585.71 153.63 C 577.10 155.20 560.23 161.03 561.64 171.82 C 563.05 182.61 559.09 185.31 556.94 185.31 C 554.59 190.39 553.07 201.15 565.75 203.49 C 578.43 205.84 589.03 194.69 592.75 188.83 C 591.58 188.05 588.76 185.31 586.88 180.62 Z" fill="#ff9330" fill-rule="nonzero" node-id="437" stroke="none" target-height="52.20401" target-width="39.68805" target-x="553.066" target-y="153.635"></path><path d="M 591.22 123.56 C 596.94 126.88 591.39 143.94 587.14 149.99 L 572.85 149.99 C 567.95 149.99 556.51 143.77 551.41 140.66 C 546.30 138.41 534.56 132.89 539.16 127.71 L 542.22 125.12 C 532.01 113.72 542.22 112.17 553.45 110.61 L 572.85 107.50 C 581.52 105.43 594.79 111.65 591.22 123.56 Z" fill="#2c2770" fill-rule="nonzero" node-id="439" stroke="none" target-height="44.55699" target-width="64.93005" target-x="532.009" target-y="105.429"></path><path d="M 559.88 181.32 C 578.88 179.26 585.00 163.25 585.69 155.51 L 559.88 169.96 C 551.97 174.61 540.88 183.39 559.88 181.32 Z" fill="#d76767" fill-rule="nonzero" group-id="11" node-id="443" stroke="none" target-height="27.876007" target-width="44.807007" target-x="540.884" target-y="155.51"></path><path d="M 585.19 155.24 C 585.58 161.67 577.73 173.36 563.39 172.77 C 555.02 172.43 552.90 162.86 550.77 152.31 C 549.25 144.80 546.37 136.78 547.33 131.27 L 559.95 127.18 C 558.23 129.52 554.79 133.02 560.52 133.02 C 566.20 133.02 571.62 131.27 573.72 129.52 C 574.87 136.53 580.03 135.95 580.03 139.45 L 580.03 149.39 C 584.62 149.86 584.92 145.34 584.73 143.00 C 586.64 141.83 590.93 140.97 590.93 147.05 C 590.93 153.13 587.10 155.04 585.19 155.24 Z" fill="#ff9330" fill-rule="nonzero" node-id="446" stroke="none" target-height="46.178993" target-width="44.55603" target-x="546.373" target-y="127.178"></path><path d="M 588.22 147.00 C 588.44 148.50 587.84 151.50 583.73 151.50" fill="none" node-id="448" stroke="#000000" stroke-linecap="butt" stroke-width="1" target-height="4.5" target-width="4.7059937" target-x="583.732" target-y="147"></path><path d="M 578.23 150.50 C 579.03 149.30 580.23 147.00 580.23 145.00 C 581.90 142.00 585.13 137.60 584.73 144.00 C 584.73 148.00 584.23 151.50 584.23 154.50 C 584.23 161.50 585.23 167.10 579.23 173.50 C 571.73 181.50 555.23 181.00 550.73 175.00 C 545.22 167.65 550.73 163.50 551.73 157.00 C 558.57 157.17 565.73 157.00 571.23 156.50 C 575.73 156.09 576.73 152.50 578.23 150.50 Z" fill="#2c2770" fill-rule="nonzero" node-id="450" stroke="none" target-height="43.899994" target-width="40.015015" target-x="545.217" target-y="137.6"></path><path d="M 567.71 158.16 L 561.32 161.35 C 561.78 162.26 563.24 163.45 565.43 162.72 C 567.62 161.99 567.86 159.68 567.71 158.16 Z" fill="#ffffff" fill-rule="nonzero" node-id="452" stroke="none" target-height="5.2910004" target-width="6.537964" target-x="561.32" target-y="158.156"></path><path d="M 554.02 139.00 L 549.46 139.00 C 548.71 139.00 548.09 139.61 548.09 140.37 C 548.09 141.12 548.71 141.73 549.46 141.73 L 554.02 141.73 C 554.78 141.73 555.39 141.12 555.39 140.37 C 555.39 139.61 554.78 139.00 554.02 139.00 Z" fill="#2c2770" fill-rule="nonzero" node-id="454" stroke="none" target-height="2.7369995" target-width="7.299011" target-x="548.092" target-y="138.997"></path><path d="M 572.27 139.00 L 567.71 139.00 C 566.95 139.00 566.34 139.61 566.34 140.37 C 566.34 141.12 566.95 141.73 567.71 141.73 L 572.27 141.73 C 573.02 141.73 573.64 141.12 573.64 140.37 C 573.64 139.61 573.02 139.00 572.27 139.00 Z" fill="#2c2770" fill-rule="nonzero" node-id="456" stroke="none" target-height="2.7369995" target-width="7.2979736" target-x="566.338" target-y="138.997"></path><path d="M 569.53 146.30 C 570.29 146.30 570.90 145.68 570.90 144.93 C 570.90 144.17 570.29 143.56 569.53 143.56 C 568.77 143.56 568.16 144.17 568.16 144.93 C 568.16 145.68 568.77 146.30 569.53 146.30 Z" fill="#000000" fill-rule="nonzero" node-id="458" stroke="none" target-height="2.7369995" target-width="2.7369995" target-x="568.162" target-y="143.559"></path><path d="M 559.04 140.82 L 559.04 157.24 L 563.14 157.24" fill="none" node-id="460" stroke="#000000" stroke-linecap="butt" stroke-width="1" target-height="16.42099" target-width="4.1050415" target-x="559.04" target-y="140.822"></path><path d="M 552.20 146.30 C 552.95 146.30 553.57 145.68 553.57 144.93 C 553.57 144.17 552.95 143.56 552.20 143.56 C 551.44 143.56 550.83 144.17 550.83 144.93 C 550.83 145.68 551.44 146.30 552.20 146.30 Z" fill="#000000" fill-rule="nonzero" node-id="462" stroke="none" target-height="2.7369995" target-width="2.7369995" target-x="550.828" target-y="143.559"></path><path d="M 551.23 152.00 C 546.81 152.00 543.23 148.42 543.23 144.00 C 543.23 139.58 546.81 136.00 551.23 136.00 C 555.65 136.00 559.23 139.58 559.23 144.00 C 559.23 148.42 555.65 152.00 551.23 152.00 Z" fill="none" node-id="464" stroke="#000000" stroke-linecap="butt" stroke-width="1" target-height="16" target-width="16" target-x="543.232" target-y="136"></path><path d="M 571.23 152.00 C 566.81 152.00 563.23 148.42 563.23 144.00 C 563.23 139.58 566.81 136.00 571.23 136.00 C 575.65 136.00 579.23 139.58 579.23 144.00 C 579.23 148.42 575.65 152.00 571.23 152.00 Z" fill="none" node-id="466" stroke="#000000" stroke-linecap="butt" stroke-width="1" target-height="16" target-width="16" target-x="563.232" target-y="136"></path><path d="M 564.23 141.00 C 563.19 140.17 560.73 139.00 559.23 141.00" fill="none" node-id="468" stroke="#000000" stroke-linecap="butt" stroke-width="1" target-height="2" target-width="5" target-x="559.232" target-y="139"></path><path d="M 184.70 93.60 C 196.94 96.22 208.98 88.43 211.60 76.19 C 214.22 63.95 206.43 51.91 194.19 49.29 C 181.95 46.67 169.91 54.47 167.29 66.70 C 164.67 78.94 172.47 90.98 184.70 93.60 Z" fill="#ffae64" fill-rule="nonzero" node-id="470" stroke="none" target-height="49.5501" target-width="49.550003" target-x="164.67" target-y="46.6711"></path><path d="M 190.61 94.87 C 202.84 97.49 214.89 89.69 217.51 77.46 C 220.13 65.22 212.33 53.18 200.10 50.56 C 187.86 47.94 175.82 55.73 173.20 67.97 C 170.58 80.20 178.37 92.25 190.61 94.87 Z" fill="#ffe071" fill-rule="nonzero" node-id="472" stroke="none" target-height="49.5501" target-width="49.550003" target-x="170.578" target-y="47.9363"></path><path d="M 198.20 59.42 L 199.68 59.73 L 199.04 62.70 C 203.85 63.95 204.41 66.46 204.00 68.38 L 202.53 68.07 C 202.94 66.11 201.42 64.74 197.99 64.01 C 196.78 63.75 192.77 63.14 192.11 66.22 C 191.83 67.51 191.52 68.97 196.58 71.45 L 198.80 72.68 C 202.25 74.86 202.24 76.61 201.87 78.36 C 201.27 81.13 198.65 82.44 194.94 81.87 L 194.30 84.84 L 192.82 84.53 L 193.46 81.56 C 188.64 80.31 188.08 77.80 188.50 75.88 L 189.97 76.19 C 189.55 78.15 191.08 79.52 194.51 80.25 C 195.72 80.51 199.73 81.12 200.39 78.04 C 200.67 76.75 200.98 75.29 195.92 72.81 L 193.70 71.58 C 190.25 69.40 190.26 67.65 190.63 65.91 C 191.23 63.13 193.85 61.82 197.56 62.39 L 198.20 59.42 Z" fill="#b39e53" fill-rule="nonzero" node-id="474" stroke="none" target-height="25.425198" target-width="16.332" target-x="188.083" target-y="59.4185"></path></svg>