<?xml version="1.0" standalone="no"?><!DOCTYPE svg PUBLIC "-//W3C//DTD SVG 1.1//EN" "http://www.w3.org/Graphics/SVG/1.1/DTD/svg11.dtd"><svg height="740" node-id="1" sillyvg="true" template-height="740" template-width="869" version="1.1" viewBox="0 0 869 740" width="869" xmlns="http://www.w3.org/2000/svg" xmlns:xlink="http://www.w3.org/1999/xlink"><defs node-id="117"><mask height="117" id="mask0" maskUnits="userSpaceOnUse" node-id="34" width="162" x="84" y="121"><path d="M 137.94 121.96 L 152.53 121.38 L 184.45 127.58 C 197.81 130.18 210.12 136.61 219.87 146.09 L 245.30 170.80 L 225.47 202.09 L 205.31 180.86 L 199.45 197.04 L 197.01 229.83 C 196.65 234.68 192.07 238.09 187.32 237.05 L 118.28 221.97 C 113.19 220.86 110.50 215.24 112.84 210.58 L 121.69 192.88 L 118.89 178.04 L 109.05 190.42 L 84.23 179.80 L 108.50 139.39 C 114.75 128.99 125.82 122.44 137.94 121.96 Z" fill="#ffffff" fill-rule="nonzero" node-id="120" stroke="none" target-height="116.70901" target-width="161.0763" target-x="84.2257" target-y="121.38"></path></mask><mask height="67" id="mask1" maskUnits="userSpaceOnUse" node-id="53" width="50" x="153" y="69"><path d="M 198.15 82.33 L 197.35 86.46 C 199.27 86.36 202.97 86.98 202.32 90.29 C 201.52 94.42 198.23 96.64 195.74 94.73 C 194.55 98.96 190.59 106.98 183.03 109.18 C 182.65 112.47 182.47 117.26 183.50 120.95 C 184.84 125.79 188.68 128.63 190.42 129.44 C 187.04 132.12 178.08 137.05 169.26 135.34 C 160.44 133.63 154.89 125.87 153.22 122.21 C 154.69 122.02 158.61 120.97 162.56 118.31 C 165.67 116.21 167.37 110.12 168.12 105.56 C 163.14 100.60 162.90 92.53 162.67 88.30 C 160.75 88.41 157.11 87.51 157.97 83.10 C 158.82 78.69 162.99 79.31 164.28 80.04 L 165.08 75.90 C 167.75 76.90 174.95 78.11 182.42 74.98 C 189.89 71.86 191.94 70.16 192.03 69.70 C 191.58 72.00 191.77 76.42 193.18 78.50 C 195.40 81.79 197.32 81.69 198.15 82.33 Z" fill="#ffffff" fill-rule="nonzero" node-id="124" stroke="none" target-height="67.3531" target-width="49.744003" target-x="153.222" target-y="69.7009"></path></mask><mask height="122" id="mask2" maskUnits="userSpaceOnUse" node-id="76" width="141" x="712" y="339"><path d="M 836.01 366.14 L 817.99 354.70 L 781.78 343.15 C 766.29 338.20 749.57 338.81 734.47 344.85 L 712.88 353.50 L 715.25 390.47 L 743.13 381.53 L 740.50 398.53 L 726.89 428.47 C 724.88 432.90 727.25 438.08 731.92 439.45 L 801.63 459.95 C 805.98 461.22 810.52 458.64 811.64 454.26 L 820.28 420.56 L 822.96 436.14 L 849.84 438.75 L 852.63 399.06 C 853.55 385.87 847.17 373.23 836.01 366.14 Z" fill="#ffffff" fill-rule="nonzero" node-id="128" stroke="none" target-height="123.01898" target-width="140.67499" target-x="712.879" target-y="338.204"></path></mask><mask height="44" id="mask3" maskUnits="userSpaceOnUse" node-id="86" width="42" x="784" y="324"><path d="M 818.94 350.20 C 818.57 345.22 823.45 330.97 825.93 324.46 C 817.31 323.33 799.59 323.72 797.69 334.30 C 795.78 344.88 791.23 346.22 789.19 345.57 C 785.44 349.64 780.77 359.30 792.07 365.34 C 803.37 371.38 816.75 364.10 822.03 359.70 C 821.16 358.61 819.31 355.19 818.94 350.20 Z" fill="#ffffff" fill-rule="nonzero" node-id="132" stroke="none" target-height="48.046997" target-width="45.166016" target-x="780.766" target-y="323.332"></path></mask></defs><path d="M 475.83 33.00 L 188.54 198.86 C 156.98 217.09 146.16 257.45 164.39 289.02 L 330.25 576.31 C 348.48 607.87 388.84 618.69 420.41 600.46 L 707.69 434.60 C 739.26 416.38 750.08 376.01 731.85 344.44 L 565.99 57.16 C 547.76 25.59 507.39 14.77 475.83 33.00 Z" fill="#f3f6ff" fill-rule="nonzero" node-id="136" stroke="none" target-height="603.9154" target-width="603.91504" target-x="146.16" target-y="14.7746"></path><path d="M 386.98 142.46 C 395.00 128.69 412.14 123.20 426.68 129.76 L 566.43 192.76 C 569.25 194.03 571.86 195.71 574.18 197.75 L 581.80 204.44 C 592.52 213.86 595.47 229.35 588.94 242.03 L 471.17 471.10 C 463.31 486.39 444.54 492.41 429.24 484.55 L 276.28 405.95 C 265.19 400.25 258.58 388.49 259.46 376.06 L 260.16 366.34 C 260.50 361.60 261.92 357.00 264.31 352.89 L 386.98 142.46 Z" fill="#0b86df" fill-rule="nonzero" node-id="138" stroke="none" target-height="369.205" target-width="336.88702" target-x="258.578" target-y="123.204"></path><path d="M 377.81 128.91 C 385.69 113.62 404.51 107.59 419.84 115.45 L 567.43 191.06 C 582.76 198.91 588.81 217.68 580.93 232.98 L 465.96 456.09 C 458.08 471.38 439.26 477.41 423.93 469.55 L 276.35 393.94 C 261.01 386.09 254.96 367.32 262.84 352.02 L 377.81 128.91 Z" fill="#54b7ff" fill-rule="nonzero" node-id="140" stroke="none" target-height="369.82" target-width="333.84497" target-x="254.963" target-y="107.59"></path><path d="M 395.44 132.85 C 397.68 128.46 403.03 126.73 407.38 128.99 L 563.57 209.81 C 567.92 212.06 569.64 217.45 567.40 221.84 L 546.33 263.15 C 544.09 267.54 538.74 269.26 534.39 267.01 L 378.20 186.19 C 373.85 183.94 372.13 178.55 374.37 174.16 L 395.44 132.85 Z" fill="#2c2770" fill-rule="nonzero" node-id="142" stroke="none" target-height="142.53001" target-width="197.512" target-x="372.129" target-y="126.735"></path><path d="M 370.40 209.96 C 372.70 205.47 378.20 203.71 382.69 206.01 L 392.43 211.01 C 396.91 213.32 398.68 218.82 396.38 223.30 L 391.37 233.04 C 389.07 237.53 383.57 239.29 379.08 236.99 L 369.34 231.99 C 364.86 229.68 363.09 224.18 365.40 219.70 L 370.40 209.96 Z" fill="#ffffff" fill-rule="nonzero" node-id="144" stroke="none" target-height="35.586" target-width="35.585022" target-x="363.093" target-y="203.707"></path><path d="M 411.40 230.96 C 413.70 226.47 419.20 224.71 423.69 227.01 L 433.43 232.01 C 437.91 234.32 439.68 239.82 437.38 244.30 L 432.37 254.04 C 430.07 258.53 424.57 260.29 420.08 257.99 L 410.34 252.99 C 405.86 250.68 404.09 245.18 406.40 240.70 L 411.40 230.96 Z" fill="#ffffff" fill-rule="nonzero" node-id="146" stroke="none" target-height="35.586" target-width="35.585022" target-x="404.093" target-y="224.707"></path><path d="M 452.40 251.96 C 454.70 247.47 460.20 245.71 464.69 248.01 L 474.43 253.01 C 478.91 255.32 480.68 260.82 478.38 265.30 L 473.37 275.04 C 471.07 279.53 465.57 281.29 461.08 278.99 L 451.34 273.99 C 446.86 271.68 445.09 266.18 447.40 261.70 L 452.40 251.96 Z" fill="#ffffff" fill-rule="nonzero" node-id="148" stroke="none" target-height="35.586" target-width="35.585022" target-x="445.093" target-y="245.707"></path><path d="M 492.40 272.96 C 494.70 268.47 500.20 266.71 504.69 269.01 L 514.43 274.01 C 518.91 276.32 520.68 281.82 518.38 286.30 L 513.37 296.04 C 511.07 300.53 505.57 302.29 501.08 299.99 L 491.34 294.99 C 486.86 292.68 485.09 287.18 487.40 282.70 L 492.40 272.96 Z" fill="#ffffff" fill-rule="nonzero" node-id="150" stroke="none" target-height="35.586" target-width="35.584015" target-x="485.093" target-y="266.707"></path><path d="M 350.40 250.96 C 352.70 246.47 358.20 244.71 362.69 247.01 L 372.43 252.01 C 376.91 254.32 378.68 259.82 376.38 264.30 L 371.37 274.04 C 369.07 278.53 363.57 280.29 359.08 277.99 L 349.34 272.99 C 344.86 270.68 343.09 265.18 345.40 260.70 L 350.40 250.96 Z" fill="#ffffff" fill-rule="nonzero" node-id="152" stroke="none" target-height="35.586" target-width="35.585022" target-x="343.093" target-y="244.707"></path><path d="M 390.40 270.96 C 392.70 266.47 398.20 264.71 402.69 267.01 L 412.43 272.01 C 416.91 274.32 418.68 279.82 416.38 284.30 L 411.37 294.04 C 409.07 298.53 403.57 300.29 399.08 297.99 L 389.34 292.99 C 384.86 290.68 383.09 285.18 385.40 280.70 L 390.40 270.96 Z" fill="#ffffff" fill-rule="nonzero" node-id="154" stroke="none" target-height="35.586" target-width="35.585022" target-x="383.093" target-y="264.707"></path><path d="M 431.40 292.96 C 433.70 288.47 439.20 286.71 443.69 289.01 L 453.43 294.01 C 457.91 296.32 459.68 301.82 457.38 306.30 L 452.37 316.04 C 450.07 320.53 444.57 322.29 440.08 319.99 L 430.34 314.99 C 425.86 312.68 424.09 307.18 426.40 302.70 L 431.40 292.96 Z" fill="#ffffff" fill-rule="nonzero" node-id="156" stroke="none" target-height="35.586" target-width="35.585022" target-x="424.093" target-y="286.707"></path><path d="M 472.40 312.96 C 474.70 308.47 480.20 306.71 484.69 309.01 L 494.43 314.01 C 498.91 316.32 500.68 321.82 498.38 326.30 L 493.37 336.04 C 491.07 340.53 485.57 342.29 481.08 339.99 L 471.34 334.99 C 466.86 332.68 465.09 327.18 467.40 322.70 L 472.40 312.96 Z" fill="#ffffff" fill-rule="nonzero" node-id="158" stroke="none" target-height="35.586" target-width="35.585022" target-x="465.093" target-y="306.707"></path><path d="M 329.40 290.96 C 331.70 286.47 337.20 284.71 341.69 287.01 L 351.43 292.01 C 355.91 294.32 357.68 299.82 355.38 304.30 L 350.37 314.04 C 348.07 318.53 342.57 320.29 338.08 317.99 L 328.34 312.99 C 323.86 310.68 322.09 305.18 324.40 300.70 L 329.40 290.96 Z" fill="#ffffff" fill-rule="nonzero" node-id="160" stroke="none" target-height="35.586" target-width="35.585022" target-x="322.093" target-y="284.707"></path><path d="M 369.40 311.96 C 371.70 307.47 377.20 305.71 381.69 308.01 L 391.43 313.01 C 395.91 315.32 397.68 320.82 395.38 325.30 L 390.37 335.04 C 388.07 339.53 382.57 341.29 378.08 338.99 L 368.34 333.99 C 363.86 331.68 362.09 326.18 364.40 321.70 L 369.40 311.96 Z" fill="#ffffff" fill-rule="nonzero" node-id="162" stroke="none" target-height="35.586" target-width="35.585022" target-x="362.093" target-y="305.707"></path><path d="M 411.40 332.96 C 413.70 328.47 419.20 326.71 423.69 329.01 L 433.43 334.01 C 437.91 336.32 439.68 341.82 437.38 346.30 L 432.37 356.04 C 430.07 360.53 424.57 362.29 420.08 359.99 L 410.34 354.99 C 405.86 352.68 404.09 347.18 406.40 342.70 L 411.40 332.96 Z" fill="#ffffff" fill-rule="nonzero" node-id="164" stroke="none" target-height="35.58499" target-width="35.585022" target-x="404.093" target-y="326.707"></path><path d="M 451.74 353.88 C 454.01 349.47 459.45 347.73 463.87 349.99 L 473.49 354.92 C 477.92 357.19 479.66 362.60 477.39 367.01 L 451.03 418.12 C 448.76 422.54 443.32 424.27 438.90 422.00 L 429.28 417.08 C 424.85 414.81 423.11 409.40 425.38 404.99 L 451.74 353.88 Z" fill="#ffffff" fill-rule="nonzero" node-id="166" stroke="none" target-height="76.54401" target-width="56.55298" target-x="423.109" target-y="347.728"></path><path d="M 308.40 331.96 C 310.70 327.47 316.20 325.71 320.69 328.01 L 330.43 333.01 C 334.91 335.32 336.68 340.82 334.38 345.30 L 329.37 355.04 C 327.07 359.53 321.57 361.29 317.08 358.99 L 307.34 353.99 C 302.86 351.68 301.09 346.18 303.40 341.70 L 308.40 331.96 Z" fill="#ffffff" fill-rule="nonzero" node-id="168" stroke="none" target-height="35.58499" target-width="35.585022" target-x="301.093" target-y="325.707"></path><path d="M 348.40 352.96 C 350.70 348.47 356.20 346.71 360.69 349.01 L 370.43 354.01 C 374.91 356.32 376.68 361.82 374.38 366.30 L 369.37 376.04 C 367.07 380.53 361.57 382.29 357.08 379.99 L 347.34 374.99 C 342.86 372.68 341.09 367.18 343.40 362.70 L 348.40 352.96 Z" fill="#ffffff" fill-rule="nonzero" node-id="170" stroke="none" target-height="35.58499" target-width="35.585022" target-x="341.093" target-y="346.707"></path><path d="M 389.40 373.96 C 391.70 369.48 397.20 367.71 401.69 370.01 L 411.43 375.02 C 415.91 377.32 417.68 382.82 415.38 387.30 L 410.37 397.04 C 408.07 401.53 402.57 403.29 398.08 400.99 L 388.34 395.98 C 383.86 393.68 382.09 388.18 384.40 383.70 L 389.40 373.96 Z" fill="#ffffff" fill-rule="nonzero" node-id="172" stroke="none" target-height="35.586" target-width="35.585022" target-x="382.093" target-y="367.707"></path><path d="M 406.18 128.85 C 401.87 142.55 403.51 173.15 444.56 186.02 C 495.88 202.09 509.72 211.92 517.75 240.05 C 523.45 260.01 533.54 266.69 539.38 267.95 C 537.73 268.12 536.01 267.83 534.42 267.01 L 377.23 186.19 C 372.85 183.94 371.12 178.55 373.37 174.16 L 394.58 132.85 C 396.76 128.62 401.84 126.86 406.13 128.76 L 406.18 128.85 Z" fill="#211d4f" fill-rule="nonzero" node-id="174" stroke="none" target-height="141.26001" target-width="168.264" target-x="371.121" target-y="126.862"></path><path d="M 743.78 69.50 L 706.38 91.09 C 699.20 95.24 696.74 104.41 700.88 111.58 L 722.48 148.98 C 726.62 156.16 735.79 158.62 742.97 154.47 L 780.37 132.88 C 787.54 128.74 790.00 119.56 785.86 112.39 L 764.27 74.99 C 760.12 67.82 750.95 65.36 743.78 69.50 Z" fill="#f3f6ff" fill-rule="nonzero" node-id="176" stroke="none" target-height="93.258194" target-width="93.25903" target-x="696.743" target-y="65.3578"></path><path d="M 75.62 196.00 L 51.05 210.19 C 46.26 212.95 44.62 219.06 47.39 223.85 L 61.57 248.42 C 64.33 253.20 70.45 254.84 75.23 252.08 L 99.81 237.89 C 104.59 235.13 106.23 229.02 103.47 224.23 L 89.28 199.66 C 86.52 194.88 80.40 193.24 75.62 196.00 Z" fill="#f3f6ff" fill-rule="nonzero" node-id="178" stroke="none" target-height="61.602005" target-width="61.602898" target-x="44.6241" target-y="193.239"></path><path d="M 31.90 474.40 L 29.87 458.99 C 28.79 450.79 40.65 439.36 40.65 439.36 L 28.69 427.41 L 16.51 441.00 L 8.08 446.30 L 29.67 474.84 L 31.90 474.40 Z" fill="#ffae64" fill-rule="nonzero" node-id="180" stroke="none" target-height="47.432007" target-width="32.570248" target-x="8.08105" target-y="427.41"></path><path d="M 28.79 472.55 L 10.96 445.82 C 7.26 445.83 3.93 448.09 2.57 451.54 L 0.00 458.05 L 9.24 467.56 L 12.05 465.79 L 15.38 472.17 C 16.76 474.80 18.60 477.17 20.81 479.15 L 28.64 486.17 C 29.71 487.13 31.21 487.45 32.58 487.01 C 34.70 486.33 35.86 484.07 35.20 481.95 L 30.53 467.04 L 31.47 471.41 C 31.66 472.30 31.01 473.15 30.10 473.20 C 29.58 473.23 29.08 472.98 28.79 472.55 Z" fill="#2c2770" fill-rule="nonzero" node-id="182" stroke="none" target-height="41.632996" target-width="35.8646" target-x="0" target-y="445.82"></path><path d="M 42.84 356.74 L 52.03 344.20 C 56.92 337.53 73.40 337.48 73.40 337.48 L 73.02 320.58 L 54.83 321.97 L 45.07 319.97 L 40.92 355.51 L 42.84 356.74 Z" fill="#ffae64" fill-rule="nonzero" node-id="184" stroke="none" target-height="36.768005" target-width="32.476997" target-x="40.9189" target-y="319.971"></path><path d="M 41.87 353.25 L 47.48 321.62 C 44.80 319.06 40.83 318.40 37.46 319.94 L 31.11 322.87 L 31.20 336.13 L 34.46 336.79 L 32.45 343.71 C 31.62 346.56 31.31 349.54 31.54 352.50 L 32.34 362.99 C 32.45 364.42 33.31 365.69 34.61 366.32 C 36.61 367.29 39.01 366.47 40.00 364.48 L 46.94 350.48 L 44.59 354.28 C 44.12 355.06 43.06 355.22 42.37 354.63 C 41.97 354.29 41.78 353.76 41.87 353.25 Z" fill="#2c2770" fill-rule="nonzero" node-id="186" stroke="none" target-height="48.894012" target-width="16.373898" target-x="31.1072" target-y="318.396"></path><path d="M 42.89 448.75 L 24.89 432.26 L 100.68 338.06 L 105.37 247.83 C 105.80 239.70 108.20 231.79 112.37 224.80 L 128.68 197.47 L 185.26 233.42 L 210.14 280.73 L 221.63 305.96 C 228.19 320.35 215.56 336.06 200.09 332.75 L 153.24 288.91 L 145.04 338.03 C 143.25 348.76 138.01 358.61 130.12 366.09 L 42.89 448.75 Z" fill="#2c2770" fill-rule="nonzero" node-id="188" stroke="none" target-height="251.289" target-width="203.3055" target-x="24.8855" target-y="197.466"></path><path d="M 68.39 319.75 L 183.04 301.65 L 207.82 333.27 L 65.39 344.75 L 68.39 319.75 Z" fill="#2c2770" fill-rule="nonzero" node-id="190" stroke="none" target-height="43.106018" target-width="142.4395" target-x="65.3855" target-y="301.649"></path><path d="M 124.15 221.50 L 111.34 332.21 C 110.55 339.00 107.74 345.40 103.26 350.57 L 29.13 436.14" fill="none" node-id="192" stroke="#ffffff" stroke-linecap="butt" stroke-width="1" target-height="214.638" target-width="95.0127" target-x="29.1333" target-y="221.5"></path><path d="M 154.63 280.64 L 181.63 308.14 L 148.13 312.64" fill="none" node-id="194" stroke="#ffffff" stroke-linecap="butt" stroke-width="1" target-height="32" target-width="33.5" target-x="148.134" target-y="280.638"></path><path d="M 68.63 322.64 L 102.13 318.64" fill="none" node-id="196" stroke="#ffffff" stroke-linecap="butt" stroke-width="1" target-height="4" target-width="33.499702" target-x="68.6333" target-y="318.638"></path><path d="M 137.94 121.96 L 152.53 121.38 L 182.46 126.50 C 196.59 128.91 209.63 135.60 219.83 145.67 L 245.30 170.80 L 225.47 202.09 L 205.31 180.86 L 199.45 197.04 L 191.64 230.27 C 190.66 234.46 186.54 237.12 182.32 236.29 L 118.38 223.87 C 113.30 222.88 110.48 217.39 112.63 212.69 L 121.69 192.88 L 118.90 178.04 L 109.05 190.42 L 84.23 179.80 L 108.50 139.39 C 114.75 128.99 125.82 122.44 137.94 121.96 Z" fill="#ffe071" fill-rule="nonzero" node-id="198" stroke="none" target-height="115.73501" target-width="161.0762" target-x="84.2258" target-y="121.38"></path><g node-id="352"><path d="M 219.53 124.53 C 227.93 126.17 233.42 134.30 231.78 142.71 C 230.15 151.11 222.01 156.60 213.61 154.97 C 205.21 153.33 199.72 145.19 201.35 136.79 C 202.99 128.39 211.12 122.90 219.53 124.53 Z" fill="none" group-id="1" node-id="202" stroke="#d7be67" stroke-linecap="butt" stroke-width="5" target-height="33.697006" target-width="33.697006" target-x="199.721" target-y="122.901"></path><path d="M 108.74 128.47 C 113.35 129.36 116.36 133.82 115.46 138.43 C 114.57 143.04 110.11 146.05 105.50 145.16 C 100.89 144.26 97.88 139.80 98.78 135.19 C 99.67 130.58 104.13 127.57 108.74 128.47 Z" fill="none" group-id="1" node-id="204" stroke="#d7be67" stroke-linecap="butt" stroke-width="5" target-height="18.478996" target-width="18.479103" target-x="97.8799" target-y="127.572"></path><path d="M 147.16 161.40 C 150.14 161.98 152.09 164.87 151.51 167.85 C 150.93 170.83 148.05 172.78 145.06 172.20 C 142.08 171.62 140.13 168.74 140.71 165.75 C 141.29 162.77 144.18 160.82 147.16 161.40 Z" fill="none" group-id="1" node-id="206" stroke="#d7be67" stroke-linecap="butt" stroke-width="3" target-height="11.957001" target-width="11.957001" target-x="140.135" target-y="160.824"></path><path d="M 146.07 214.17 C 153.94 215.69 159.07 223.31 157.54 231.17 C 156.01 239.03 148.40 244.16 140.54 242.63 C 132.68 241.10 127.55 233.49 129.07 225.63 C 130.60 217.77 138.21 212.64 146.07 214.17 Z" fill="none" group-id="1" node-id="208" stroke="#d7be67" stroke-linecap="butt" stroke-width="3" target-height="31.522995" target-width="31.52301" target-x="127.547" target-y="212.638"></path><path d="M 226.32 183.92 C 234.18 185.45 239.31 193.06 237.79 200.92 C 236.26 208.78 228.65 213.92 220.79 212.39 C 212.93 210.86 207.79 203.25 209.32 195.39 C 210.85 187.53 218.46 182.39 226.32 183.92 Z" fill="none" group-id="1" node-id="210" stroke="#d7be67" stroke-linecap="butt" stroke-width="3" target-height="31.52301" target-width="31.522995" target-x="207.792" target-y="182.394"></path></g><path d="M 206.91 74.02 C 207.53 64.99 199.24 62.05 195.01 61.70 C 192.98 59.88 189.46 53.47 179.55 52.98 C 169.64 52.48 157.54 55.85 157.89 68.78 C 157.89 68.78 150.93 92.21 168.57 95.64 C 167.49 101.18 175.81 131.97 179.08 115.14 C 182.35 98.32 177.52 110.53 191.18 100.04 C 198.53 98.92 206.15 85.32 206.91 74.02 Z" fill="#2c2770" fill-rule="nonzero" node-id="213" stroke="none" target-height="79.487495" target-width="56.592987" target-x="150.934" target-y="52.4795"></path><path d="M 197.23 63.66 C 206.18 65.40 214.84 59.56 216.58 50.61 C 218.32 41.67 212.47 33.01 203.53 31.27 C 194.58 29.53 185.92 35.37 184.18 44.32 C 182.44 53.26 188.29 61.92 197.23 63.66 Z" fill="#2c2770" fill-rule="nonzero" node-id="215" stroke="none" target-height="35.871304" target-width="35.871994" target-x="182.445" target-y="29.5294"></path><path d="M 198.15 82.33 L 197.35 86.46 C 199.27 86.36 202.97 86.98 202.32 90.29 C 201.52 94.42 198.23 96.64 195.74 94.73 C 194.55 98.96 190.59 106.98 183.03 109.18 C 182.65 112.47 182.47 117.26 183.50 120.95 C 184.84 125.79 188.68 128.63 190.42 129.44 C 187.04 132.12 178.08 137.05 169.26 135.34 C 160.44 133.63 154.89 125.87 153.22 122.21 C 154.69 122.02 158.61 120.97 162.56 118.31 C 165.67 116.21 167.37 110.12 168.12 105.56 C 163.14 100.60 162.90 92.53 162.67 88.30 C 160.75 88.41 157.11 87.51 157.97 83.10 C 158.82 78.69 162.99 79.31 164.28 80.04 L 165.08 75.90 C 167.75 76.90 174.95 78.11 182.42 74.98 C 189.89 71.86 191.94 70.16 192.03 69.70 C 191.58 72.00 191.77 76.42 193.18 78.50 C 195.40 81.79 197.32 81.69 198.15 82.33 Z" fill="#ffae64" fill-rule="nonzero" node-id="217" stroke="none" target-height="67.3531" target-width="49.744003" target-x="153.222" target-y="69.7009"></path><path d="M 182.95 98.95 L 176.07 100.86 C 176.34 101.85 177.55 103.29 179.84 102.99 C 182.13 102.69 182.81 100.47 182.95 98.95 Z" fill="#ffffff" fill-rule="nonzero" node-id="219" stroke="none" target-height="4.3415985" target-width="6.878006" target-x="176.069" target-y="98.9494"></path><path d="M 173.17 77.53 L 168.69 76.66 C 167.95 76.52 167.23 77.00 167.09 77.74 C 166.94 78.49 167.43 79.20 168.17 79.35 L 172.65 80.22 C 173.39 80.36 174.11 79.88 174.25 79.14 C 174.40 78.39 173.91 77.68 173.17 77.53 Z" fill="#2c2770" fill-rule="nonzero" node-id="221" stroke="none" target-height="3.8454056" target-width="7.451996" target-x="166.944" target-y="76.5171"></path><path d="M 191.08 81.01 L 186.60 80.14 C 185.86 80.00 185.14 80.48 185.00 81.23 C 184.85 81.97 185.34 82.69 186.08 82.83 L 190.56 83.70 C 191.30 83.84 192.02 83.36 192.16 82.62 C 192.31 81.88 191.82 81.16 191.08 81.01 Z" fill="#2c2770" fill-rule="nonzero" node-id="223" stroke="none" target-height="3.8454971" target-width="7.452011" target-x="184.855" target-y="79.9987"></path><path d="M 187.00 87.66 C 187.74 87.80 188.46 87.31 188.61 86.57 C 188.75 85.83 188.27 85.11 187.52 84.97 C 186.78 84.82 186.06 85.31 185.92 86.05 C 185.78 86.79 186.26 87.51 187.00 87.66 Z" fill="#000000" fill-rule="nonzero" node-id="225" stroke="none" target-height="2.9750977" target-width="2.975006" target-x="185.775" target-y="84.8244"></path><path d="M 177.75 80.28 L 174.61 96.40 L 178.64 97.18" fill="none" node-id="227" stroke="#000000" stroke-linecap="butt" stroke-width="1" target-height="16.903206" target-width="4.029999" target-x="174.614" target-y="80.2803"></path><path d="M 169.99 84.35 C 170.73 84.49 171.45 84.01 171.59 83.27 C 171.74 82.52 171.25 81.81 170.51 81.66 C 169.77 81.52 169.05 82.00 168.90 82.74 C 168.76 83.49 169.24 84.20 169.99 84.35 Z" fill="#000000" fill-rule="nonzero" node-id="229" stroke="none" target-height="2.975006" target-width="2.975006" target-x="168.76" target-y="81.5171"></path><path d="M 199.18 89.56 C 199.42 90.69 199.09 92.89 195.79 92.62" fill="none" node-id="231" stroke="#000000" stroke-linecap="butt" stroke-width="1" target-height="3.3283997" target-width="3.628006" target-x="195.795" target-y="89.5576"></path><path d="M 160.90 82.12 C 160.25 83.07 159.73 85.24 162.89 86.22" fill="none" node-id="233" stroke="#000000" stroke-linecap="butt" stroke-width="1" target-height="4.1044006" target-width="3.1539917" target-x="159.733" target-y="82.1164"></path><path d="M 166.97 104.67 C 168.01 105.65 171.46 108.33 175.40 109.10 C 179.14 109.83 182.87 109.30 184.08 109.01 L 184.25 108.96 C 184.20 108.98 184.15 108.99 184.08 109.01 L 164.69 113.99 L 166.97 104.67 Z" fill="#ff8282" fill-rule="nonzero" group-id="2" node-id="237" stroke="none" target-height="9.316002" target-width="19.563995" target-x="164.69" target-y="104.672"></path><path d="M 156.26 210.75 L 181.62 167.75 C 182.16 166.84 183.30 166.51 184.24 166.98 L 215.77 182.75 C 216.82 183.27 217.20 184.59 216.57 185.59 L 190.19 228.07 C 189.64 228.95 188.52 229.27 187.59 228.81 L 157.09 213.55 C 156.06 213.03 155.68 211.74 156.26 210.75 Z" fill="#2c2770" fill-rule="nonzero" node-id="240" stroke="none" target-height="62.761993" target-width="61.520996" target-x="155.675" target-y="166.507"></path><path d="M 150.22 190.28 L 109.40 190.22 L 85.98 180.07 L 79.34 199.57 C 76.20 208.80 83.96 218.08 93.60 216.61 L 151.07 207.86 L 157.95 209.57 C 158.16 209.62 158.36 209.66 158.57 209.68 L 167.59 210.46 C 167.66 210.46 167.74 210.48 167.82 210.50 L 180.55 213.76 C 181.60 214.03 182.69 213.46 183.07 212.44 C 183.47 211.34 182.91 210.12 181.81 209.71 L 172.05 206.12 L 184.30 207.97 C 185.21 208.10 186.07 207.51 186.27 206.61 C 186.47 205.72 185.94 204.82 185.06 204.56 L 173.86 201.19 L 186.97 201.49 C 188.02 201.51 188.91 200.74 189.04 199.71 C 189.17 198.65 188.46 197.66 187.41 197.46 L 173.75 194.78 L 187.78 194.82 C 189.15 194.82 190.19 193.61 189.99 192.26 C 189.84 191.28 189.06 190.51 188.07 190.39 L 170.10 188.05 L 173.88 181.88 L 162.17 183.11 C 160.81 183.26 159.52 183.74 158.41 184.53 L 150.22 190.28 Z" fill="#ffae64" fill-rule="nonzero" node-id="242" stroke="none" target-height="38.00499" target-width="113.994995" target-x="76.196" target-y="180.072"></path><path d="M 304.24 134.89 L 244.62 171.69 L 227.02 199.34 L 228.36 200.05 C 237.55 204.94 248.81 203.61 256.62 196.73 L 313.71 146.41 L 334.60 146.39 L 349.01 150.14 C 349.54 150.28 350.04 149.84 349.97 149.30 C 349.80 148.04 349.03 146.95 347.90 146.37 L 320.50 132.45 L 322.42 129.63 C 323.98 127.33 325.06 124.74 325.58 122.02 C 325.75 121.20 324.83 120.60 324.14 121.07 L 304.24 134.89 Z" fill="#ffae64" fill-rule="nonzero" node-id="244" stroke="none" target-height="84.339005" target-width="123.017" target-x="227.021" target-y="120.597"></path><path d="M 543.62 507.00 L 519.05 521.19 C 514.26 523.95 512.62 530.06 515.38 534.85 L 529.57 559.42 C 532.33 564.20 538.45 565.84 543.23 563.08 L 567.80 548.89 C 572.59 546.13 574.23 540.02 571.47 535.23 L 557.28 510.66 C 554.52 505.88 548.40 504.24 543.62 507.00 Z" fill="#ffe071" fill-rule="nonzero" node-id="246" stroke="none" target-height="61.60199" target-width="61.602966" target-x="512.624" target-y="504.239"></path><path d="M 418.98 631.32 C 427.83 629.63 436.38 635.44 438.06 644.29 C 439.75 653.14 433.94 661.68 425.09 663.37 C 416.24 665.06 407.69 659.25 406.01 650.40 C 404.32 641.54 410.13 633.00 418.98 631.32 Z" fill="#54b7ff" fill-rule="nonzero" node-id="248" stroke="none" target-height="35.42804" target-width="35.428986" target-x="404.32" target-y="629.628"></path><path d="M 395.53 599.75 C 410.75 596.85 425.44 606.84 428.33 622.06 C 431.24 637.28 421.25 651.97 406.03 654.87 C 390.81 657.77 376.12 647.78 373.22 632.56 C 370.32 617.34 380.31 602.65 395.53 599.75 Z" fill="none" node-id="250" stroke="#7268f5" stroke-linecap="butt" stroke-width="1" target-height="60.914" target-width="60.914" target-x="370.322" target-y="596.852"></path><path d="M 571.71 605.32 L 586.86 601.84 C 594.92 599.99 601.49 584.88 601.49 584.88 L 616.86 591.90 L 608.39 608.07 L 606.36 617.82 L 572.08 607.58 L 571.71 605.32 Z" fill="#ffae64" fill-rule="nonzero" node-id="252" stroke="none" target-height="32.942993" target-width="45.14496" target-x="571.713" target-y="584.878"></path><path d="M 571.85 617.75 L 561.86 612.52 C 560.56 611.84 559.72 610.52 559.65 609.05 C 559.55 606.84 561.22 604.93 563.42 604.70 C 566.09 604.42 569.99 603.98 574.81 603.34 C 584.22 602.09 588.74 600.34 588.74 600.34 C 588.74 600.34 591.51 604.89 597.57 608.06 C 603.63 611.24 609.20 608.49 609.20 608.49 C 608.39 616.35 604.69 623.64 598.82 628.93 L 598.18 629.50 L 586.04 624.16 L 584.87 621.49 L 578.73 620.22 C 576.33 619.72 574.02 618.89 571.85 617.75 Z" fill="#2c2770" fill-rule="nonzero" node-id="254" stroke="none" target-height="29.153992" target-width="49.640015" target-x="559.555" target-y="600.344"></path><path d="M 617.60 713.17 L 629.93 703.70 C 636.49 698.67 636.69 689.62 636.69 689.62 L 653.07 682.18 L 652.09 700.40 L 654.31 710.12 L 618.87 715.07 L 617.60 713.17 Z" fill="#ffae64" fill-rule="nonzero" node-id="256" stroke="none" target-height="32.88495" target-width="36.708984" target-x="617.603" target-y="682.184"></path><path d="M 622.90 724.42 L 611.64 723.82 C 610.17 723.74 608.86 722.89 608.19 721.58 C 607.18 719.61 607.90 717.19 609.81 716.06 C 612.11 714.70 615.48 712.67 619.60 710.08 C 627.63 705.03 631.02 701.56 631.02 701.56 C 631.02 701.56 635.42 704.53 642.26 704.90 C 649.09 705.27 653.00 700.45 653.00 700.45 C 655.54 707.94 655.21 716.10 652.07 723.36 L 651.73 724.14 L 638.48 724.34 L 636.30 722.40 L 630.18 723.80 C 627.79 724.34 625.34 724.55 622.90 724.42 Z" fill="#2c2770" fill-rule="nonzero" node-id="258" stroke="none" target-height="24.098022" target-width="48.361023" target-x="607.18" target-y="700.453"></path><path d="M 629.58 691.14 L 657.04 706.41 L 710.00 592.39 L 785.16 507.35 C 794.44 496.84 800.55 483.92 802.77 470.07 L 807.80 438.75 L 753.14 433.79 L 663.55 457.79 C 651.32 461.07 641.28 469.82 636.37 481.50 L 589.97 591.81 L 614.78 612.02 L 668.98 501.36 L 738.18 491.45 L 669.03 583.02 L 629.58 691.14 Z" fill="#2c2770" fill-rule="nonzero" node-id="260" stroke="none" target-height="272.61902" target-width="217.82904" target-x="589.97" target-y="433.789"></path><path d="M 800.75 457.14 L 799.21 463.91 C 796.66 475.13 791.39 485.55 783.85 494.24 L 701.34 589.49 L 651.72 703.72" fill="none" node-id="262" stroke="#ffffff" stroke-linecap="butt" stroke-width="1" target-height="246.57803" target-width="149.02502" target-x="651.72" target-y="457.145"></path><path d="M 737.75 489.66 L 672.37 493.49 C 662.48 494.06 653.77 500.22 649.92 509.36 L 609.09 606.44" fill="none" node-id="264" stroke="#ffffff" stroke-linecap="butt" stroke-width="1" target-height="116.77902" target-width="128.659" target-x="609.089" target-y="489.663"></path><path d="M 712.12 357.79 L 728.02 348.38 L 733.70 375.04 L 718.54 383.59 C 707.52 389.80 693.54 385.47 687.98 374.11 L 655.00 306.78 L 645.75 301.23 L 638.31 296.09 C 635.76 294.33 634.13 291.53 633.86 288.44 C 633.66 286.20 634.51 284.00 636.16 282.47 L 644.48 274.76 L 633.06 261.28 C 631.95 259.97 632.27 257.98 633.73 257.08 C 634.80 256.43 636.17 256.57 637.09 257.42 L 652.56 271.71 L 655.40 270.25 C 656.57 269.64 657.99 269.87 658.91 270.81 L 664.57 276.56 C 665.87 277.89 666.67 279.62 666.83 281.47 L 667.91 293.77 L 712.12 357.79 Z" fill="#ff9330" fill-rule="nonzero" node-id="266" stroke="none" target-height="133.374" target-width="101.755005" target-x="631.949" target-y="256.43"></path><path d="M 638.79 280.12 L 648.17 289.42 C 649.10 290.34 650.59 290.38 651.57 289.52 C 652.50 288.70 652.69 287.31 652.00 286.27 L 649.95 283.18" fill="none" node-id="268" stroke="#000000" stroke-linecap="butt" stroke-width="1" target-height="10.262024" target-width="13.901978" target-x="638.786" target-y="280.123"></path><path d="M 634.32 284.43 L 644.71 292.74 C 645.69 293.52 647.10 293.42 647.95 292.49 C 648.81 291.56 648.79 290.11 647.89 289.20 L 647.43 288.75" fill="none" node-id="270" stroke="#000000" stroke-linecap="butt" stroke-width="1" target-height="9.098999" target-width="14.498047" target-x="634.316" target-y="284.426"></path><path d="M 636.01 292.81 L 644.27 298.98 C 645.32 299.76 646.78 299.63 647.67 298.66 C 648.53 297.73 648.57 296.31 647.77 295.33 L 645.85 292.96" fill="none" node-id="272" stroke="#000000" stroke-linecap="butt" stroke-width="1" target-height="6.958008" target-width="12.562988" target-x="636.006" target-y="292.805"></path><path d="M 650.87 273.20 L 642.31 280.57 C 641.59 281.19 641.48 282.26 642.05 283.02 C 643.29 284.67 645.48 285.27 647.38 284.49 L 656.20 280.86 C 654.81 282.55 654.42 289.59 656.25 296.16" fill="none" node-id="274" stroke="#000000" stroke-linecap="butt" stroke-width="1" target-height="22.964996" target-width="14.776001" target-x="641.478" target-y="273.196"></path><path d="M 836.01 366.14 L 817.99 354.70 L 781.78 343.15 C 766.29 338.20 749.57 338.81 734.47 344.85 L 712.88 353.50 L 715.25 390.47 L 743.13 381.53 L 740.50 398.53 L 726.89 428.47 C 724.88 432.90 727.25 438.08 731.92 439.45 L 801.63 459.95 C 805.98 461.22 810.52 458.64 811.64 454.26 L 820.28 420.56 L 822.96 436.14 L 849.84 438.75 L 852.63 399.06 C 853.55 385.87 847.17 373.23 836.01 366.14 Z" fill="#1be3b3" fill-rule="nonzero" node-id="276" stroke="none" target-height="123.01898" target-width="140.67499" target-x="712.879" target-y="338.204"></path><path d="M 757.85 348.50 L 827.85 378.24" fill="none" group-id="3" node-id="280" stroke="#ffe071" stroke-linecap="butt" stroke-width="3" target-height="29.740997" target-width="70.00403" target-x="757.847" target-y="348.502"></path><path d="M 748.37 364.82 L 824.47 397.36" fill="none" group-id="3" node-id="282" stroke="#ffe071" stroke-linecap="butt" stroke-width="3" target-height="32.545013" target-width="76.09796" target-x="748.372" target-y="364.818"></path><path d="M 737.87 380.17 L 823.09 416.42" fill="none" group-id="3" node-id="284" stroke="#ffe071" stroke-linecap="butt" stroke-width="3" target-height="36.25" target-width="85.22302" target-x="737.865" target-y="380.168"></path><path d="M 732.68 405.35 L 820.87 440.50" fill="none" group-id="3" node-id="286" stroke="#ffe071" stroke-linecap="butt" stroke-width="3" target-height="35.15399" target-width="88.18799" target-x="732.681" target-y="405.349"></path><path d="M 720.30 424.76 L 824.58 462.39" fill="none" group-id="3" node-id="288" stroke="#ffe071" stroke-linecap="butt" stroke-width="3" target-height="37.63202" target-width="104.278015" target-x="720.305" target-y="424.762"></path><path d="M 819.24 350.31 C 818.88 345.26 823.81 330.83 826.32 324.25 C 817.64 323.12 799.80 323.54 797.86 334.25 C 795.92 344.96 791.34 346.33 789.29 345.67 C 785.50 349.80 780.78 359.58 792.15 365.67 C 803.52 371.76 817.01 364.37 822.33 359.91 C 821.45 358.81 819.60 355.35 819.24 350.31 Z" fill="#ff9330" fill-rule="nonzero" node-id="291" stroke="none" target-height="48.647003" target-width="45.54297" target-x="780.781" target-y="323.116"></path><path d="M 839.75 301.31 C 847.80 307.96 834.69 316.74 828.79 321.20 L 815.18 316.86 C 810.51 315.37 801.51 305.97 797.59 301.45 C 793.41 297.76 783.91 288.93 789.86 285.39 C 800.27 281.07 790.57 271.23 804.93 268.99 C 819.29 266.75 821.53 281.11 834.39 285.21 C 847.26 289.32 833.11 295.83 839.75 301.31 Z" fill="#2c2770" fill-rule="nonzero" node-id="293" stroke="none" target-height="54.453003" target-width="63.897034" target-x="783.907" target-y="266.75"></path><path d="M 793.30 342.77 C 812.03 346.57 822.73 333.19 825.74 326.02 L 796.75 331.95 C 787.80 333.97 774.58 338.96 793.30 342.77 Z" fill="#a84223" fill-rule="nonzero" group-id="4" node-id="297" stroke="none" target-height="20.550018" target-width="51.16101" target-x="774.576" target-y="326.025"></path><path d="M 825.35 325.61 C 823.75 331.86 812.73 340.61 799.25 335.69 C 791.37 332.82 792.27 323.06 793.44 312.36 C 794.28 304.74 793.97 296.23 796.56 291.27 L 809.83 291.21 C 807.48 292.91 803.13 295.21 808.60 296.95 C 814.01 298.68 819.70 298.65 822.24 297.62 C 821.20 304.65 826.29 305.67 825.23 309.01 L 822.20 318.47 C 826.43 320.31 828.55 316.20 829.08 313.92 C 831.25 313.39 835.15 313.77 833.30 319.56 C 831.45 325.35 827.23 326.01 825.35 325.61 Z" fill="#ff9330" fill-rule="nonzero" node-id="300" stroke="none" target-height="49.399994" target-width="43.774963" target-x="791.372" target-y="291.208"></path><path d="M 819.54 320.14 C 820.66 319.24 822.51 317.41 823.12 315.51 C 825.62 313.16 830.03 309.95 827.71 315.92 C 826.49 319.73 824.95 322.92 824.04 325.77 C 821.91 332.44 821.16 338.08 813.50 342.35 C 803.92 347.69 788.35 342.20 785.89 335.12 C 782.87 326.44 789.39 324.16 792.32 318.27 C 798.78 320.51 805.65 322.53 811.05 323.73 C 815.46 324.70 817.50 321.59 819.54 320.14 Z" fill="#2c2770" fill-rule="nonzero" node-id="302" stroke="none" target-height="37.748016" target-width="47.16101" target-x="782.873" target-y="309.947"></path><path d="M 807.80 323.08 L 800.75 324.18 C 800.90 325.19 801.93 326.76 804.24 326.73 C 806.55 326.70 807.48 324.57 807.80 323.08 Z" fill="#ffffff" fill-rule="nonzero" node-id="304" stroke="none" target-height="3.6820068" target-width="7.054016" target-x="800.745" target-y="323.077"></path><path d="M 800.59 300.67 L 796.24 299.28 C 795.52 299.05 794.75 299.44 794.52 300.17 C 794.29 300.88 794.69 301.65 795.41 301.88 L 799.76 303.27 C 800.48 303.50 801.25 303.11 801.48 302.38 C 801.71 301.67 801.31 300.89 800.59 300.67 Z" fill="#2c2770" fill-rule="nonzero" node-id="306" stroke="none" target-height="4.45401" target-width="7.412964" target-x="794.293" target-y="299.048"></path><path d="M 817.97 306.21 L 813.62 304.83 C 812.90 304.60 812.13 304.99 811.90 305.71 C 811.67 306.43 812.07 307.20 812.79 307.43 L 817.14 308.82 C 817.86 309.05 818.63 308.65 818.86 307.93 C 819.09 307.21 818.69 306.44 817.97 306.21 Z" fill="#2c2770" fill-rule="nonzero" node-id="308" stroke="none" target-height="4.4539795" target-width="7.413025" target-x="811.675" target-y="304.596"></path><path d="M 813.14 312.33 C 813.86 312.56 814.63 312.17 814.86 311.45 C 815.09 310.73 814.70 309.96 813.98 309.73 C 813.26 309.50 812.49 309.89 812.26 310.61 C 812.03 311.33 812.42 312.10 813.14 312.33 Z" fill="#000000" fill-rule="nonzero" node-id="310" stroke="none" target-height="3.066986" target-width="3.0670166" target-x="812.026" target-y="309.497"></path><path d="M 804.81 303.93 L 799.82 319.57 L 803.73 320.82" fill="none" node-id="312" stroke="#000000" stroke-linecap="butt" stroke-width="1" target-height="16.892029" target-width="4.992981" target-x="799.82" target-y="303.929"></path><path d="M 796.63 307.06 C 797.35 307.29 798.12 306.89 798.35 306.18 C 798.58 305.45 798.18 304.69 797.46 304.46 C 796.74 304.23 795.97 304.62 795.74 305.34 C 795.51 306.06 795.91 306.83 796.63 307.06 Z" fill="#000000" fill-rule="nonzero" node-id="314" stroke="none" target-height="3.066986" target-width="3.06604" target-x="795.514" target-y="304.226"></path><path d="M 779.72 452.50 L 742.72 479.50 L 672.22 456.00 L 712.22 428.00 L 779.72 452.50 Z" fill="#dae2ff" fill-rule="nonzero" node-id="316" stroke="none" target-height="51.5" target-width="107.5" target-x="672.224" target-y="428"></path><path d="M 777.22 450.50 L 741.22 476.50 L 669.72 454.00 L 709.72 426.00 L 777.22 450.50 Z" fill="#6b8cff" fill-rule="nonzero" node-id="318" stroke="none" target-height="50.5" target-width="107.5" target-x="669.724" target-y="426"></path><path d="M 663.59 395.50 L 737.34 417.94 L 749.22 474.50 L 743.72 478.50 L 673.70 457.12 L 657.22 397.50 L 663.59 395.50 Z" fill="#dae2ff" fill-rule="nonzero" node-id="320" stroke="none" target-height="82.997986" target-width="92" target-x="657.224" target-y="395.502"></path><path d="M 658.75 397.42 L 731.21 419.48 C 732.95 420.01 734.27 421.46 734.64 423.25 L 745.23 474.15 C 746.00 477.86 742.53 481.04 738.90 479.96 L 673.17 460.34 C 671.46 459.83 670.15 458.44 669.74 456.70 L 656.22 399.79 C 655.87 398.29 657.28 396.97 658.75 397.42 Z" fill="#6b8cff" fill-rule="nonzero" node-id="322" stroke="none" target-height="84.07498" target-width="90.13202" target-x="655.867" target-y="396.967"></path><path d="M 695.49 443.88 C 692.72 441.01 692.57 436.68 695.14 434.19 C 697.72 431.69 702.05 432.00 704.82 434.86 C 707.59 437.72 707.74 442.06 705.16 444.55 C 702.59 447.04 698.26 446.74 695.49 443.88 Z" fill="#dae2ff" fill-rule="nonzero" node-id="324" stroke="none" target-height="15.345978" target-width="15.171997" target-x="692.568" target-y="431.695"></path><path d="M 783.12 435.63 L 823.93 436.34 L 849.72 438.00 L 850.19 442.46 C 851.46 454.44 840.81 464.26 828.97 462.03 L 781.93 453.19 L 775.02 454.77 C 774.82 454.82 774.61 454.85 774.40 454.86 L 765.37 455.47 C 765.29 455.48 765.22 455.49 765.14 455.51 L 752.35 458.53 C 751.29 458.78 750.21 458.19 749.86 457.16 C 749.47 456.05 750.06 454.84 751.17 454.46 L 760.99 451.05 L 748.71 452.66 C 747.80 452.78 746.95 452.18 746.76 451.27 C 746.58 450.37 747.13 449.49 748.01 449.24 L 759.27 446.08 L 746.16 446.13 C 745.12 446.14 744.24 445.35 744.13 444.31 C 744.02 443.25 744.75 442.28 745.80 442.10 L 759.50 439.68 L 745.47 439.45 C 744.11 439.43 743.09 438.20 743.32 436.86 C 743.49 435.88 744.30 435.13 745.29 435.04 L 766.22 433.00 L 763.26 431.58 C 761.81 430.89 760.68 429.65 760.13 428.14 C 759.90 427.52 760.41 426.88 761.07 426.96 L 771.31 428.24 C 772.66 428.40 773.94 428.92 775.04 429.72 L 783.12 435.63 Z" fill="#ff9330" fill-rule="nonzero" node-id="326" stroke="none" target-height="37.38501" target-width="108.36499" target-x="743.09" target-y="426.875"></path><path d="M 737.89 106.70 L 534.92 32.83 C 531.29 31.50 527.27 33.38 525.95 37.01 L 476.70 172.32 C 475.37 175.96 477.25 179.97 480.88 181.30 L 683.85 255.17 C 687.49 256.50 691.50 254.62 692.83 250.99 L 742.08 115.67 C 743.40 112.04 741.52 108.03 737.89 106.70 Z" fill="#ffffff" fill-rule="nonzero" node-id="328" stroke="#e5e5e5" stroke-linecap="butt" stroke-width="2" target-height="224.9922" target-width="268.02502" target-x="475.373" target-y="31.5038"></path><path d="M 544.77 94.94 C 550.74 97.11 557.34 94.04 559.51 88.07 C 561.68 82.10 558.60 75.50 552.63 73.33 C 546.67 71.16 540.07 74.23 537.89 80.20 C 535.72 86.17 538.80 92.77 544.77 94.94 Z" fill="#a3b7ff" fill-rule="nonzero" node-id="330" stroke="none" target-height="25.957497" target-width="25.958008" target-x="535.722" target-y="71.1555"></path><path d="M 538.73 148.08 L 517.12 140.21 L 506.17 170.28 L 527.78 178.15 L 538.73 148.08 Z" fill="#5fffd8" fill-rule="nonzero" node-id="332" stroke="none" target-height="37.93599" target-width="32.557007" target-x="506.172" target-y="140.214"></path><path d="M 546.60 126.47 L 524.98 118.60 L 514.04 148.67 L 535.65 156.54 L 546.60 126.47 Z" fill="#1be3b3" fill-rule="nonzero" node-id="334" stroke="none" target-height="37.936005" target-width="32.557983" target-x="514.038" target-y="118.601"></path><path d="M 574.01 165.18 L 552.40 157.31 L 542.13 185.50 L 563.75 193.37 L 574.01 165.18 Z" fill="#5fffd8" fill-rule="nonzero" node-id="336" stroke="none" target-height="36.05699" target-width="31.873962" target-x="542.135" target-y="157.311"></path><path d="M 578.80 152.02 L 557.18 144.16 L 547.95 169.53 L 569.56 177.39 L 578.80 152.02 Z" fill="#1be3b3" fill-rule="nonzero" node-id="338" stroke="none" target-height="33.23799" target-width="30.846985" target-x="547.95" target-y="144.156"></path><path d="M 618.10 161.00 L 596.48 153.14 L 579.72 199.18 L 601.34 207.05 L 618.10 161.00 Z" fill="#5fffd8" fill-rule="nonzero" node-id="340" stroke="none" target-height="53.910995" target-width="38.37195" target-x="579.723" target-y="153.138"></path><path d="M 624.25 144.09 L 602.64 136.22 L 591.69 166.29 L 613.31 174.16 L 624.25 144.09 Z" fill="#1be3b3" fill-rule="nonzero" node-id="342" stroke="none" target-height="37.936996" target-width="32.557007" target-x="591.694" target-y="136.223"></path><path d="M 654.74 174.34 L 633.13 166.48 L 616.37 212.52 L 637.98 220.39 L 654.74 174.34 Z" fill="#5fffd8" fill-rule="nonzero" node-id="344" stroke="none" target-height="53.910995" target-width="38.37201" target-x="616.371" target-y="166.477"></path><path d="M 669.11 134.88 L 647.50 127.01 L 630.74 173.05 L 652.35 180.92 L 669.11 134.88 Z" fill="#1be3b3" fill-rule="nonzero" node-id="346" stroke="none" target-height="53.911003" target-width="38.37195" target-x="630.736" target-y="127.01"></path><path d="M 691.39 187.68 L 669.78 179.81 L 653.02 225.86 L 674.63 233.73 L 691.39 187.68 Z" fill="#5fffd8" fill-rule="nonzero" node-id="348" stroke="none" target-height="53.912003" target-width="38.37201" target-x="653.019" target-y="179.815"></path><path d="M 700.63 162.31 L 679.01 154.44 L 662.25 200.49 L 683.87 208.35 L 700.63 162.31 Z" fill="#1be3b3" fill-rule="nonzero" node-id="350" stroke="none" target-height="53.910995" target-width="38.37195" target-x="662.254" target-y="154.444"></path></svg>