<?xml version="1.0" standalone="no"?><!DOCTYPE svg PUBLIC "-//W3C//DTD SVG 1.1//EN" "http://www.w3.org/Graphics/SVG/1.1/DTD/svg11.dtd"><svg height="664" node-id="1" sillyvg="true" template-height="664" template-width="924" version="1.1" viewBox="0 0 924 664" width="924" xmlns="http://www.w3.org/2000/svg" xmlns:xlink="http://www.w3.org/1999/xlink"><defs node-id="122"><mask height="46" id="mask0" maskUnits="userSpaceOnUse" node-id="22" width="39" x="34" y="292"><path d="M 39.41 318.74 C 40.17 313.81 36.42 299.21 34.45 292.54 C 43.13 292.08 60.76 293.84 61.84 304.54 C 62.92 315.24 67.35 316.93 69.44 316.44 C 72.86 320.79 76.77 330.79 65.03 335.93 C 53.30 341.07 40.52 332.77 35.59 327.98 C 36.55 326.96 38.66 323.68 39.41 318.74 Z" fill="#ffffff" fill-rule="nonzero" node-id="125" stroke="none" target-height="48.985992" target-width="42.319" target-x="34.4468" target-y="292.082"></path></mask><mask height="473" id="mask1" maskUnits="userSpaceOnUse" node-id="47" width="479" x="199" y="4"><path d="M 377.98 227.97 L 429.23 23.07 C 432.82 8.72 447.98 0.59 461.89 5.56 L 661.24 76.75 C 673.79 81.23 680.62 94.78 676.79 107.55 L 607.92 337.03 L 453.22 461.12 C 430.35 479.48 398.63 482.08 373.07 467.71 L 212.10 377.21 C 195.60 367.93 194.97 344.38 210.94 334.22 L 377.98 227.97 Z" fill="#ffffff" fill-rule="nonzero" node-id="129" stroke="none" target-height="481.49017" target-width="485.65802" target-x="194.966" target-y="0.590817"></path></mask><mask height="41" id="mask2" maskUnits="userSpaceOnUse" node-id="72" width="41" x="528" y="61"><path d="M 548.44 101.76 C 559.56 101.76 568.58 92.74 568.58 81.62 C 568.58 70.49 559.56 61.47 548.44 61.47 C 537.31 61.47 528.29 70.49 528.29 81.62 C 528.29 92.74 537.31 101.76 548.44 101.76 Z M 548.44 94.85 C 555.75 94.85 561.68 88.93 561.68 81.62 C 561.68 74.30 555.75 68.38 548.44 68.38 C 541.13 68.38 535.20 74.30 535.20 81.62 C 535.20 88.93 541.13 94.85 548.44 94.85 Z" fill="#ffffff" fill-rule="nonzero" node-id="133" stroke="none" target-height="40.2925" target-width="40.291992" target-x="528.292" target-y="61.4695"></path></mask><mask height="41" id="mask3" maskUnits="userSpaceOnUse" node-id="76" width="41" x="528" y="61"><path d="M 548.44 101.76 C 559.56 101.76 568.58 92.74 568.58 81.62 C 568.58 70.49 559.56 61.47 548.44 61.47 C 537.31 61.47 528.29 70.49 528.29 81.62 C 528.29 92.74 537.31 101.76 548.44 101.76 Z M 548.44 94.85 C 555.75 94.85 561.68 88.93 561.68 81.62 C 561.68 74.30 555.75 68.38 548.44 68.38 C 541.13 68.38 535.20 74.30 535.20 81.62 C 535.20 88.93 541.13 94.85 548.44 94.85 Z" fill="#ffffff" fill-rule="nonzero" node-id="137" stroke="none" target-height="40.2925" target-width="40.291992" target-x="528.292" target-y="61.4695"></path></mask><mask height="54" id="mask4" maskUnits="userSpaceOnUse" node-id="96" width="37" x="737" y="216"><path d="M 765.31 241.61 C 762.29 237.63 758.63 223.01 757.18 216.20 C 749.33 219.94 734.67 229.90 738.83 239.81 C 742.98 249.73 739.89 253.34 737.82 253.90 C 736.89 259.35 738.22 270.00 750.99 268.93 C 763.75 267.85 771.03 254.46 773.07 247.90 C 771.74 247.46 768.33 245.59 765.31 241.61 Z" fill="#ffffff" fill-rule="nonzero" node-id="141" stroke="none" target-height="53.796997" target-width="38.39801" target-x="734.674" target-y="216.203"></path></mask></defs><path d="M 471.50 57.00 L 184.22 222.86 C 152.65 241.09 141.83 281.45 160.06 313.02 L 325.92 600.31 C 344.15 631.87 384.51 642.69 416.08 624.46 L 703.37 458.60 C 734.93 440.38 745.75 400.01 727.52 368.44 L 561.66 81.16 C 543.43 49.59 503.07 38.77 471.50 57.00 Z" fill="#f3f6ff" fill-rule="nonzero" node-id="145" stroke="none" target-height="603.9154" target-width="603.915" target-x="141.833" target-y="38.7746"></path><path d="M 267.81 22.00 L 237.72 39.37 C 232.94 42.14 231.30 48.25 234.06 53.03 L 251.43 83.13 C 254.19 87.91 260.31 89.55 265.09 86.79 L 295.19 69.41 C 299.97 66.65 301.61 60.54 298.85 55.75 L 281.47 25.66 C 278.71 20.88 272.60 19.24 267.81 22.00 Z" fill="#f3f6ff" fill-rule="nonzero" node-id="147" stroke="none" target-height="70.3104" target-width="70.311005" target-x="231.297" target-y="19.2386"></path><path d="M 515.29 596.00 L 490.72 610.19 C 485.94 612.95 484.30 619.06 487.06 623.85 L 501.25 648.42 C 504.01 653.20 510.12 654.84 514.91 652.08 L 539.48 637.89 C 544.26 635.13 545.90 629.02 543.14 624.23 L 528.95 599.66 C 526.19 594.88 520.07 593.24 515.29 596.00 Z" fill="#f3f6ff" fill-rule="nonzero" node-id="149" stroke="none" target-height="61.60199" target-width="61.603027" target-x="484.297" target-y="593.239"></path><path d="M 279.73 594.16 C 284.19 610.39 300.96 619.92 317.18 615.46 C 333.41 610.99 342.94 594.22 338.47 578.00 C 334.01 561.77 317.24 552.24 301.01 556.71 C 284.79 561.17 275.26 577.94 279.73 594.16 Z" fill="#ffe071" fill-rule="nonzero" node-id="151" stroke="none" target-height="67.677" target-width="67.677" target-x="275.261" target-y="552.243"></path><path d="M 239.54 580.37 L 228.24 568.64 C 222.23 562.40 225.12 545.38 225.12 545.38 L 207.61 542.74 L 205.78 561.77 L 201.97 571.49 L 237.93 582.14 L 239.54 580.37 Z" fill="#ffae64" fill-rule="nonzero" node-id="153" stroke="none" target-height="39.40204" target-width="37.569" target-x="201.973" target-y="542.738"></path><path d="M 232.30 591.21 L 244.07 592.33 C 245.60 592.48 247.09 591.80 247.99 590.55 C 249.34 588.67 248.97 586.04 247.17 584.58 C 245.00 582.81 241.82 580.18 237.96 576.86 C 230.41 570.38 227.45 566.25 227.45 566.25 C 227.45 566.25 222.42 568.65 215.28 567.96 C 208.14 567.28 204.83 561.68 204.83 561.68 C 201.04 569.05 200.11 577.56 202.24 585.57 L 202.46 586.43 L 216.17 588.70 L 218.74 587.02 L 224.86 589.43 C 227.24 590.36 229.75 590.96 232.30 591.21 Z" fill="#2c2770" fill-rule="nonzero" node-id="155" stroke="none" target-height="30.796997" target-width="49.231003" target-x="200.112" target-y="561.682"></path><path d="M 198.92 556.20 L 186.56 435.00 C 190.42 416.94 196.93 406.68 206.08 404.24 C 215.24 401.79 221.80 406.43 225.78 418.17 L 229.19 556.20 L 198.92 556.20 Z" fill="#2c2770" fill-rule="nonzero" node-id="157" stroke="none" target-height="154.409" target-width="42.632996" target-x="186.559" target-y="401.789"></path><path d="M 224.85 648.35 L 211.48 640.42 C 204.37 636.20 202.72 619.80 202.72 619.80 L 185.94 621.82 L 189.08 639.79 L 188.04 649.70 L 223.82 650.38 L 224.85 648.35 Z" fill="#ffae64" fill-rule="nonzero" node-id="159" stroke="none" target-height="30.575012" target-width="38.912994" target-x="185.938" target-y="619.804"></path><path d="M 220.94 660.15 L 232.04 658.20 C 233.49 657.95 234.69 656.95 235.20 655.57 C 235.97 653.49 234.97 651.17 232.94 650.28 C 230.49 649.20 226.90 647.59 222.50 645.51 C 213.92 641.46 210.15 638.42 210.15 638.42 C 210.15 638.42 206.12 641.90 199.38 643.08 C 192.65 644.26 188.19 639.95 188.19 639.95 C 186.56 647.68 187.86 655.75 191.85 662.58 L 192.28 663.31 L 205.46 661.93 L 207.40 659.74 L 213.63 660.39 C 216.07 660.65 218.53 660.57 220.94 660.15 Z" fill="#2c2770" fill-rule="nonzero" node-id="161" stroke="none" target-height="24.893005" target-width="49.410995" target-x="186.559" target-y="638.417"></path><path d="M 214.86 630.82 L 181.56 636.00 L 158.72 516.85 L 91.05 456.96 C 84.96 451.56 80.27 444.76 77.40 437.14 L 66.18 407.35 L 129.55 385.49 L 182.06 395.50 L 208.95 402.22 C 224.29 406.06 228.71 425.73 216.49 435.76 L 153.01 445.11 L 194.40 491.09 C 196.45 493.36 197.75 496.20 198.13 499.23 L 214.86 630.82 Z" fill="#2c2770" fill-rule="nonzero" node-id="163" stroke="none" target-height="250.50497" target-width="162.5346" target-x="66.1794" target-y="385.493"></path><path d="M 79.56 421.00 L 141.06 490.00 L 171.56 523.00 L 190.56 634.50" fill="none" node-id="165" stroke="#ffffff" stroke-linecap="butt" stroke-width="1" target-height="213.5" target-width="111.000206" target-x="79.5588" target-y="421"></path><path d="M 152.56 444.00 L 192.56 433.02 L 198.84 496.31" fill="none" node-id="167" stroke="#ffffff" stroke-linecap="butt" stroke-width="1" target-height="63.28299" target-width="46.283997" target-x="152.559" target-y="433.023"></path><path d="M 144.06 504.00 L 127.06 532.00" fill="none" node-id="169" stroke="#ffffff" stroke-linecap="butt" stroke-width="1" target-height="28" target-width="17.000008" target-x="127.059" target-y="504"></path><path d="M 44.91 460.49 C 27.82 423.03 25.65 360.97 28.58 333.80 C 31.38 332.59 37.08 331.51 40.08 332.00 C 29.81 380.82 46.35 437.98 55.91 460.46 L 44.91 460.49 Z" fill="#bc9f38" fill-rule="nonzero" node-id="171" stroke="none" target-height="128.98099" target-width="30.262001" target-x="25.6507" target-y="331.506"></path><path d="M 21.89 340.56 L 36.93 325.41 L 71.60 305.00 C 84.01 297.69 99.17 296.77 112.38 302.51 L 134.78 312.26 L 125.59 338.02 L 108.76 334.76 L 136.81 376.16 C 140.05 380.94 138.58 387.46 133.61 390.38 L 76.25 424.16 C 72.28 426.50 67.17 425.01 65.07 420.92 L 49.28 390.14 L 49.97 405.71 L 24.47 414.42 L 12.97 376.33 C 9.14 363.68 12.57 349.94 21.89 340.56 Z" fill="#0b86df" fill-rule="nonzero" node-id="173" stroke="none" target-height="129.728" target-width="130.90692" target-x="9.14407" target-y="296.767"></path><path d="M 183.57 266.63 L 134.27 313.36 L 125.32 338.38 C 135.24 341.57 146.10 338.17 152.44 329.89 L 194.19 275.36 L 213.07 271.62 L 226.77 272.44 C 227.27 272.46 227.64 271.98 227.48 271.50 C 227.11 270.40 226.22 269.55 225.09 269.23 L 197.84 261.53 L 199.07 258.64 C 200.07 256.28 200.58 253.75 200.57 251.19 C 200.57 250.42 199.63 250.04 199.10 250.60 L 183.57 266.63 Z" fill="#ff9330" fill-rule="nonzero" node-id="175" stroke="none" target-height="91.52399" target-width="102.326004" target-x="125.317" target-y="250.043"></path><path d="M 17.20 289.81 C 8.07 283.60 5.70 271.16 11.90 262.02 L 17.60 253.65 C 23.81 244.51 36.25 242.14 45.38 248.35 L 51.75 252.68 L 23.57 294.14 L 17.20 289.81 Z" fill="#ffe071" fill-rule="nonzero" node-id="177" stroke="none" target-height="51.996002" target-width="46.05724" target-x="5.69556" target-y="242.142"></path><path d="M 52.67 283.90 C 66.49 265.86 71.51 246.49 63.87 240.64 C 56.24 234.79 38.85 244.68 25.03 262.72 C 11.20 280.76 6.19 300.13 13.82 305.98 C 21.46 311.82 38.85 301.94 52.67 283.90 Z" fill="#bc9f38" fill-rule="nonzero" node-id="179" stroke="none" target-height="77.03201" target-width="65.3186" target-x="6.1884" target-y="234.793"></path><path d="M 39.11 318.82 C 39.86 313.83 36.07 299.05 34.07 292.29 C 42.81 291.84 60.57 293.65 61.67 304.48 C 62.77 315.31 67.23 317.03 69.33 316.53 C 72.78 320.94 76.73 331.06 64.92 336.25 C 53.12 341.44 40.24 333.02 35.28 328.16 C 36.24 327.13 38.36 323.82 39.11 318.82 Z" fill="#ff9330" fill-rule="nonzero" node-id="181" stroke="none" target-height="49.597992" target-width="42.656" target-x="34.0728" target-y="291.841"></path><path d="M 20.80 283.92 C 18.48 287.55 25.58 298.10 31.79 302.12 L 45.04 296.77 C 49.59 294.94 57.87 284.90 61.44 280.11 C 65.34 276.12 74.16 266.61 67.96 263.52 L 64.15 262.26 C 69.36 247.87 61.17 249.38 50.17 252.14 L 43.19 253.87 C 35.30 257.05 20.14 276.95 20.80 283.92 Z" fill="#2c2770" fill-rule="nonzero" node-id="183" stroke="none" target-height="54.246002" target-width="55.677097" target-x="18.4836" target-y="247.871"></path><g node-id="368"><path d="M 63.83 323.26 C 44.98 326.53 34.06 311.42 30.96 303.46 L 60.25 311.30 C 69.30 313.92 82.68 320.00 63.83 323.26 Z" fill="#d76767" fill-rule="nonzero" group-id="1" node-id="187" stroke="none" target-height="23.071014" target-width="51.715004" target-x="30.9648" target-y="303.461"></path></g><path d="M 35.55 306.26 C 37.60 312.37 49.25 320.28 62.33 314.38 C 69.97 310.93 68.35 301.26 66.39 290.68 C 64.99 283.14 64.66 274.63 61.71 269.88 L 48.48 270.80 C 50.95 272.32 55.45 274.29 50.13 276.44 C 44.87 278.56 39.19 278.95 36.58 278.12 C 38.14 285.05 33.13 286.44 34.44 289.69 L 38.16 298.91 C 34.08 301.06 31.66 297.11 30.97 294.87 C 28.76 294.50 24.90 295.17 27.17 300.81 C 29.45 306.45 33.71 306.79 35.55 306.26 Z" fill="#ff9330" fill-rule="nonzero" node-id="190" stroke="none" target-height="50.401" target-width="45.066998" target-x="24.9016" target-y="269.877"></path><path d="M 52.86 302.43 L 59.98 303.00 C 59.90 304.02 58.99 305.67 56.68 305.81 C 54.38 305.95 53.29 303.90 52.86 302.43 Z" fill="#ffffff" fill-rule="nonzero" node-id="192" stroke="none" target-height="3.5200195" target-width="7.1170006" target-x="52.8638" target-y="302.43"></path><path d="M 58.39 279.55 L 62.63 277.84 C 63.33 277.56 64.12 277.90 64.41 278.60 C 64.69 279.30 64.35 280.10 63.65 280.38 L 59.42 282.08 C 58.72 282.37 57.92 282.03 57.64 281.33 C 57.35 280.62 57.69 279.83 58.39 279.55 Z" fill="#2c2770" fill-rule="nonzero" node-id="194" stroke="none" target-height="4.8089905" target-width="7.3343964" target-x="57.3544" target-y="277.558"></path><path d="M 41.47 286.37 L 45.70 284.66 C 46.40 284.38 47.20 284.72 47.48 285.42 C 47.77 286.12 47.43 286.92 46.73 287.20 L 42.49 288.90 C 41.79 289.19 41.00 288.85 40.71 288.15 C 40.43 287.44 40.77 286.65 41.47 286.37 Z" fill="#2c2770" fill-rule="nonzero" node-id="196" stroke="none" target-height="4.809021" target-width="7.3344" target-x="40.4313" target-y="284.378"></path><path d="M 49.10 291.64 C 48.40 291.92 47.60 291.58 47.32 290.88 C 47.04 290.18 47.38 289.38 48.08 289.10 C 48.78 288.81 49.58 289.15 49.86 289.86 C 50.14 290.56 49.80 291.35 49.10 291.64 Z" fill="#000000" fill-rule="nonzero" node-id="198" stroke="none" target-height="3.104004" target-width="3.1035995" target-x="47.0369" target-y="288.815"></path><path d="M 54.42 283.11 L 60.56 298.35 L 56.75 299.88" fill="none" node-id="200" stroke="#000000" stroke-linecap="butt" stroke-width="1" target-height="16.765991" target-width="6.139" target-x="54.4226" target-y="283.113"></path><path d="M 64.17 288.54 C 67.24 287.30 68.73 283.81 67.49 280.73 C 66.25 277.66 62.76 276.17 59.68 277.41 C 56.61 278.65 55.12 282.15 56.36 285.22 C 57.60 288.29 61.09 289.78 64.17 288.54 Z" fill="none" node-id="202" stroke="#000000" stroke-linecap="butt" stroke-width="1" target-height="13.608002" target-width="13.607498" target-x="55.122" target-y="276.173"></path><path d="M 49.33 294.52 C 52.40 293.28 53.89 289.79 52.65 286.71 C 51.41 283.64 47.92 282.15 44.84 283.39 C 41.77 284.63 40.28 288.13 41.52 291.20 C 42.76 294.27 46.25 295.76 49.33 294.52 Z" fill="none" node-id="204" stroke="#000000" stroke-linecap="butt" stroke-width="1" target-height="13.608002" target-width="13.607403" target-x="40.281" target-y="282.154"></path><path d="M 41.71 291.67 L 28.71 294.20" fill="none" node-id="206" stroke="#000000" stroke-linecap="butt" stroke-width="1" target-height="2.539978" target-width="12.992001" target-x="28.7146" target-y="291.665"></path><path d="M 63.01 286.03 C 62.31 286.31 61.52 285.97 61.23 285.27 C 60.95 284.57 61.29 283.77 61.99 283.49 C 62.69 283.21 63.49 283.55 63.77 284.25 C 64.05 284.95 63.71 285.75 63.01 286.03 Z" fill="#000000" fill-rule="nonzero" node-id="208" stroke="none" target-height="3.104004" target-width="3.1035957" target-x="60.95" target-y="283.208"></path><path d="M 69.06 334.00 L 113.26 401.48" fill="none" node-id="210" stroke="#54b7ff" stroke-linecap="butt" stroke-width="1" target-height="67.481995" target-width="44.2034" target-x="69.0586" target-y="334"></path><path d="M 108.72 428.16 C 110.80 387.04 90.21 326.55 77.46 302.37 C 74.42 302.28 71.67 304.94 69.06 306.50 C 96.61 348.10 99.08 407.78 98.48 432.19 L 108.72 428.16 Z" fill="#ffe071" fill-rule="nonzero" node-id="212" stroke="none" target-height="129.91599" target-width="41.7424" target-x="69.0586" target-y="302.277"></path><path d="M 49.69 405.59 L 38.31 397.29 L 24.90 413.16 L 29.55 420.38 C 37.12 432.13 53.57 433.93 63.51 424.11 L 100.05 388.00 L 105.02 382.93 C 105.16 382.78 105.30 382.62 105.42 382.45 L 110.64 375.11 C 110.70 375.02 110.75 374.93 110.80 374.84 L 117.19 362.07 C 117.52 361.41 117.43 360.61 116.96 360.04 C 116.11 359.00 114.48 359.16 113.84 360.34 L 109.19 369.03 L 112.93 354.61 C 113.07 354.06 112.90 353.47 112.48 353.08 C 111.67 352.33 110.35 352.65 109.97 353.69 L 105.86 364.96 L 108.78 347.52 C 108.89 346.85 108.62 346.17 108.08 345.75 C 107.07 344.97 105.59 345.43 105.20 346.64 L 100.28 361.81 L 101.74 346.87 C 101.84 345.85 101.26 344.89 100.31 344.51 C 99.04 344.00 97.62 344.70 97.24 346.01 L 91.86 364.53 L 90.38 360.77 C 89.74 359.14 88.69 357.71 87.34 356.62 C 86.78 356.17 85.96 356.57 85.97 357.28 L 86.10 366.80 L 84.47 379.81 L 49.69 405.59 Z" fill="#ff9330" fill-rule="nonzero" node-id="214" stroke="none" target-height="89.92999" target-width="92.62331" target-x="24.8987" target-y="344.004"></path><path d="M 24.35 414.42 L 20.28 397.66 L 47.94 392.40 L 49.97 405.71 L 24.35 414.42 Z" fill="#0b86df" fill-rule="nonzero" node-id="216" stroke="none" target-height="22.014984" target-width="29.689701" target-x="20.2849" target-y="392.403"></path><path d="M 28.58 333.80 L 34.76 324.92 L 59.59 333.41 L 60.93 343.63 L 28.58 333.80 Z" fill="#54b7ff" fill-rule="nonzero" node-id="218" stroke="none" target-height="18.713013" target-width="32.350998" target-x="28.5796" target-y="324.918"></path><path d="M 64.06 313.50 L 66.56 310.00 L 77.29 323.76 L 69.96 322.88 L 64.06 313.50 Z" fill="#54b7ff" fill-rule="nonzero" node-id="220" stroke="none" target-height="13.756989" target-width="13.228996" target-x="64.0586" target-y="310"></path><path d="M 42.13 454.20 C 63.40 446.37 108.19 428.19 108.19 428.19 L 125.41 471.93 C 127.44 477.07 124.91 482.87 119.77 484.90 L 72.32 503.58 C 67.18 505.60 61.37 503.08 59.35 497.94 L 42.13 454.20 Z" fill="#ffe071" fill-rule="nonzero" node-id="222" stroke="none" target-height="77.40698" target-width="85.3054" target-x="42.1306" target-y="428.195"></path><path d="M 119.31 485.08 L 98.61 432.51 L 108.84 428.48 L 125.51 470.81 C 127.74 476.47 124.96 482.85 119.31 485.08 Z" fill="#bc9f38" fill-rule="nonzero" node-id="224" stroke="none" target-height="56.60202" target-width="29.129303" target-x="98.6077" target-y="428.477"></path><path d="M 42.23 453.09 L 59.01 473.89 L 99.03 458.13 L 98.97 433.44" fill="none" node-id="226" stroke="#bc9f38" stroke-linecap="butt" stroke-width="1" target-height="40.44998" target-width="56.797" target-x="42.2288" target-y="433.437"></path><path d="M 80.77 469.08 C 82.31 468.48 83.07 466.74 82.46 465.19 C 81.85 463.65 80.11 462.89 78.57 463.50 C 77.03 464.11 76.27 465.85 76.88 467.39 C 77.48 468.93 79.23 469.69 80.77 469.08 Z" fill="#bc9f38" fill-rule="nonzero" node-id="228" stroke="none" target-height="6.7960205" target-width="6.7967987" target-x="76.2704" target-y="462.895"></path><path d="M 377.51 227.96 L 428.71 22.98 C 432.29 8.62 447.44 0.49 461.33 5.47 L 660.46 76.68 C 673.00 81.17 679.83 94.71 676.00 107.50 L 607.20 337.05 L 452.67 461.19 C 429.82 479.55 398.14 482.15 372.61 467.78 L 211.81 377.24 C 195.33 367.96 194.69 344.40 210.65 334.24 L 377.51 227.96 Z" fill="#a3b7ff" fill-rule="nonzero" node-id="230" stroke="none" target-height="481.659" target-width="485.13098" target-x="194.695" target-y="0.494988"></path><path d="M 391.53 241.08 L 457.43 0.97 L 677.56 69.30 L 595.77 333.75 L 391.53 491.49 L 189.63 370.73 L 391.53 241.08 Z" fill="#85a5ff" fill-rule="nonzero" group-id="2" node-id="234" stroke="none" target-height="490.52222" target-width="487.925" target-x="189.632" target-y="0.967773"></path><path d="M 405.55 249.51 L 471.45 9.39 L 691.58 77.73 L 609.79 342.18 L 405.55 499.92 L 203.65 379.16 L 405.55 249.51 Z" fill="#6b8cff" fill-rule="nonzero" group-id="2" node-id="236" stroke="none" target-height="490.5222" target-width="487.92596" target-x="203.653" target-y="9.39282"></path><path d="M 228.99 403.62 L 438.83 264.75" fill="none" group-id="2" node-id="238" stroke="#000000" stroke-linecap="butt" stroke-width="0.6" target-height="138.87" target-width="209.83598" target-x="228.99" target-y="264.752"></path><path d="M 645.06 101.40 L 487.49 46.00 L 436.06 234.74 L 588.48 300.00 L 645.06 101.40 Z" fill="#a3b7ff" fill-rule="nonzero" node-id="241" stroke="none" target-height="254" target-width="209.00003" target-x="436.059" target-y="46"></path><path d="M 456.86 10.00 L 655.43 80.56 C 668.02 85.03 674.87 98.65 670.97 111.46 L 603.31 333.59 L 450.28 455.42 C 429.12 472.26 399.94 474.73 376.25 461.68 L 204.06 366.79" fill="none" node-id="243" stroke="#000000" stroke-dasharray="1.2 1.2" stroke-linecap="butt" stroke-width="0.6" target-height="464.734" target-width="470.80597" target-x="204.059" target-y="10"></path><path d="M 254.83 277.52 L 406.74 251.00 L 608.06 335.81 L 608.06 338.62 L 480.83 374.40 C 451.19 382.74 419.52 379.66 392.03 365.78 L 252.22 295.18 C 244.16 291.11 245.93 279.07 254.83 277.52 Z" fill="#9fb8ff" fill-rule="nonzero" node-id="245" stroke="none" target-height="131.73901" target-width="363.90402" target-x="244.155" target-y="251"></path><path d="M 254.83 273.52 L 406.74 247.00 L 608.06 334.62 L 480.83 370.40 C 451.19 378.74 419.52 375.66 392.03 361.78 L 252.22 291.18 C 244.16 287.11 245.93 275.07 254.83 273.52 Z" fill="#b9cbff" fill-rule="nonzero" node-id="247" stroke="none" target-height="131.73901" target-width="363.90402" target-x="244.155" target-y="247"></path><path d="M 448.06 266.00 L 270.06 300.00" fill="none" node-id="249" stroke="#ffffff" stroke-linecap="butt" stroke-width="1.2" target-height="34" target-width="178" target-x="270.059" target-y="266"></path><path d="M 477.06 278.00 L 297.06 313.00" fill="none" node-id="251" stroke="#ffffff" stroke-linecap="butt" stroke-width="1.2" target-height="35" target-width="180" target-x="297.059" target-y="278"></path><path d="M 265.06 108.00 L 109.06 108.00 C 105.19 108.00 102.06 111.13 102.06 115.00 L 102.06 218.00 C 102.06 221.87 105.19 225.00 109.06 225.00 L 265.06 225.00 C 268.93 225.00 272.06 221.87 272.06 218.00 L 272.06 115.00 C 272.06 111.13 268.93 108.00 265.06 108.00 Z" fill="#ffffff" fill-rule="nonzero" node-id="253" stroke="#e5e5e5" stroke-linecap="butt" stroke-width="2" target-height="117" target-width="170" target-x="102.059" target-y="108"></path><path d="M 129.56 149.00 C 134.25 149.00 138.06 145.19 138.06 140.50 C 138.06 135.81 134.25 132.00 129.56 132.00 C 124.86 132.00 121.06 135.81 121.06 140.50 C 121.06 145.19 124.86 149.00 129.56 149.00 Z" fill="#a3b7ff" fill-rule="nonzero" node-id="255" stroke="none" target-height="17" target-width="17.000008" target-x="121.059" target-y="132"></path><path d="M 139.06 187.00 L 122.06 187.00 L 122.06 211.00 L 139.06 211.00 L 139.06 187.00 Z" fill="#5fffd8" fill-rule="nonzero" node-id="257" stroke="none" target-height="24" target-width="17.000008" target-x="122.059" target-y="187"></path><path d="M 139.06 170.00 L 122.06 170.00 L 122.06 194.00 L 139.06 194.00 L 139.06 170.00 Z" fill="#1be3b3" fill-rule="nonzero" node-id="259" stroke="none" target-height="24" target-width="17.000008" target-x="122.059" target-y="170"></path><path d="M 168.06 190.00 L 151.06 190.00 L 151.06 212.00 L 168.06 212.00 L 168.06 190.00 Z" fill="#5fffd8" fill-rule="nonzero" node-id="261" stroke="none" target-height="22" target-width="17" target-x="151.059" target-y="190"></path><path d="M 168.06 180.00 L 151.06 180.00 L 151.06 200.00 L 168.06 200.00 L 168.06 180.00 Z" fill="#1be3b3" fill-rule="nonzero" node-id="263" stroke="none" target-height="20" target-width="17" target-x="151.059" target-y="180"></path><path d="M 197.06 176.00 L 180.06 176.00 L 180.06 212.00 L 197.06 212.00 L 197.06 176.00 Z" fill="#5fffd8" fill-rule="nonzero" node-id="265" stroke="none" target-height="36" target-width="17" target-x="180.059" target-y="176"></path><path d="M 197.06 163.00 L 180.06 163.00 L 180.06 187.00 L 197.06 187.00 L 197.06 163.00 Z" fill="#1be3b3" fill-rule="nonzero" node-id="267" stroke="none" target-height="24" target-width="17" target-x="180.059" target-y="163"></path><path d="M 226.06 176.00 L 209.06 176.00 L 209.06 212.00 L 226.06 212.00 L 226.06 176.00 Z" fill="#5fffd8" fill-rule="nonzero" node-id="269" stroke="none" target-height="36" target-width="17" target-x="209.059" target-y="176"></path><path d="M 226.06 145.00 L 209.06 145.00 L 209.06 181.00 L 226.06 181.00 L 226.06 145.00 Z" fill="#1be3b3" fill-rule="nonzero" node-id="271" stroke="none" target-height="36" target-width="17" target-x="209.059" target-y="145"></path><path d="M 255.06 176.00 L 238.06 176.00 L 238.06 212.00 L 255.06 212.00 L 255.06 176.00 Z" fill="#5fffd8" fill-rule="nonzero" node-id="273" stroke="none" target-height="36" target-width="17" target-x="238.059" target-y="176"></path><path d="M 255.06 156.00 L 238.06 156.00 L 238.06 192.00 L 255.06 192.00 L 255.06 156.00 Z" fill="#1be3b3" fill-rule="nonzero" node-id="275" stroke="none" target-height="36" target-width="17" target-x="238.059" target-y="156"></path><path d="M 515.06 13.00 C 515.06 5.82 520.88 0.00 528.06 0.00 L 593.06 0.00 C 600.24 0.00 606.06 5.82 606.06 13.00 L 606.06 104.00 C 606.06 111.18 600.24 117.00 593.06 117.00 L 528.06 117.00 C 520.88 117.00 515.06 111.18 515.06 104.00 L 515.06 13.00 Z" fill="#dae2ff" fill-rule="nonzero" node-id="277" stroke="none" target-height="117" target-width="91" target-x="515.059" target-y="0"></path><path d="M 548.44 101.76 C 559.56 101.76 568.58 92.74 568.58 81.62 C 568.58 70.49 559.56 61.47 548.44 61.47 C 537.31 61.47 528.29 70.49 528.29 81.62 C 528.29 92.74 537.31 101.76 548.44 101.76 Z" fill="#fafafa" fill-rule="nonzero" group-id="3" node-id="281" stroke="none" target-height="40.2928" target-width="40.291992" target-x="528.292" target-y="61.4692"></path><path d="M 568.58 81.62 C 568.58 77.63 567.40 73.74 565.19 70.42 C 562.98 67.11 559.83 64.53 556.15 63.00 C 552.47 61.48 548.41 61.08 544.51 61.86 C 540.60 62.63 537.01 64.55 534.19 67.37 C 531.38 70.19 529.46 73.78 528.68 77.69 C 527.90 81.59 528.30 85.64 529.83 89.33 C 531.35 93.01 533.93 96.15 537.25 98.37 C 540.56 100.58 544.45 101.76 548.44 101.76 L 548.44 81.62 L 568.58 81.62 Z" fill="#ff8282" fill-rule="nonzero" group-id="4" node-id="286" stroke="none" target-height="40.6827" target-width="40.682983" target-x="527.901" target-y="61.0793"></path><path d="M 528.06 39.50 C 528.06 38.67 528.74 38.00 529.58 38.00 L 558.53 38.00 C 559.38 38.00 560.06 38.67 560.06 39.50 C 560.06 40.33 559.38 41.00 558.53 41.00 L 529.58 41.00 C 528.74 41.00 528.06 40.33 528.06 39.50 Z" fill="#ffffff" fill-rule="nonzero" node-id="289" stroke="none" target-height="3" target-width="32" target-x="528.059" target-y="38"></path><path d="M 528.06 48.50 C 528.06 47.67 528.76 47.00 529.62 47.00 L 551.50 47.00 C 552.36 47.00 553.06 47.67 553.06 48.50 C 553.06 49.33 552.36 50.00 551.50 50.00 L 529.62 50.00 C 528.76 50.00 528.06 49.33 528.06 48.50 Z" fill="#ffffff" fill-rule="nonzero" node-id="291" stroke="none" target-height="3" target-width="25" target-x="528.059" target-y="47"></path><path d="M 591.06 16.00 L 530.06 16.00 C 528.95 16.00 528.06 16.90 528.06 18.00 L 528.06 27.00 C 528.06 28.10 528.95 29.00 530.06 29.00 L 591.06 29.00 C 592.16 29.00 593.06 28.10 593.06 27.00 L 593.06 18.00 C 593.06 16.90 592.16 16.00 591.06 16.00 Z" fill="#ff8282" fill-rule="nonzero" node-id="293" stroke="none" target-height="13" target-width="65" target-x="528.059" target-y="16"></path><path d="M 891.54 610.40 L 893.58 594.99 C 894.66 586.79 882.79 575.36 882.79 575.36 L 894.75 563.41 L 906.93 577.00 L 915.36 582.30 L 893.78 610.84 L 891.54 610.40 Z" fill="#ffae64" fill-rule="nonzero" node-id="295" stroke="none" target-height="47.432007" target-width="32.569946" target-x="882.793" target-y="563.41"></path><path d="M 894.66 608.55 L 912.48 581.82 C 916.19 581.83 919.51 584.09 920.87 587.54 L 923.44 594.05 L 914.20 603.56 L 911.39 601.79 L 908.06 608.17 C 906.69 610.80 904.85 613.17 902.64 615.15 L 894.81 622.17 C 893.74 623.13 892.23 623.45 890.86 623.01 C 888.75 622.33 887.58 620.07 888.24 617.95 L 892.91 603.04 L 891.98 607.41 C 891.78 608.30 892.43 609.15 893.34 609.20 C 893.87 609.23 894.37 608.98 894.66 608.55 Z" fill="#2c2770" fill-rule="nonzero" node-id="297" stroke="none" target-height="41.632996" target-width="35.863953" target-x="887.58" target-y="581.82"></path><path d="M 880.60 492.74 L 871.41 480.20 C 866.53 473.53 850.05 473.48 850.05 473.48 L 850.42 456.58 L 868.62 457.97 L 878.38 455.97 L 882.52 491.51 L 880.60 492.74 Z" fill="#ffae64" fill-rule="nonzero" node-id="299" stroke="none" target-height="36.768005" target-width="32.47705" target-x="850.048" target-y="455.971"></path><path d="M 881.57 489.25 L 875.96 457.62 C 878.64 455.06 882.61 454.40 885.98 455.94 L 892.34 458.87 L 892.24 472.13 L 888.99 472.79 L 890.99 479.71 C 891.82 482.56 892.13 485.54 891.90 488.50 L 891.10 498.99 C 891.00 500.42 890.13 501.69 888.84 502.32 C 886.84 503.29 884.43 502.47 883.44 500.48 L 876.50 486.48 L 878.85 490.28 C 879.33 491.06 880.39 491.22 881.08 490.63 C 881.48 490.29 881.66 489.76 881.57 489.25 Z" fill="#2c2770" fill-rule="nonzero" node-id="301" stroke="none" target-height="48.894012" target-width="16.373962" target-x="875.963" target-y="454.396"></path><path d="M 880.56 584.75 L 898.56 568.26 L 822.77 474.06 L 818.07 383.83 C 817.65 375.70 815.25 367.79 811.08 360.80 L 794.76 333.47 L 738.19 369.42 L 713.30 416.73 L 701.81 441.96 C 695.25 456.35 707.89 472.06 723.35 468.75 L 770.20 424.91 L 778.40 474.03 C 780.19 484.76 785.43 494.61 793.33 502.09 L 880.56 584.75 Z" fill="#2c2770" fill-rule="nonzero" node-id="303" stroke="none" target-height="251.289" target-width="203.30603" target-x="695.253" target-y="333.466"></path><path d="M 855.06 455.75 L 740.40 437.65 L 715.62 469.27 L 858.06 480.75 L 855.06 455.75 Z" fill="#2c2770" fill-rule="nonzero" node-id="305" stroke="none" target-height="43.106018" target-width="142.43903" target-x="715.62" target-y="437.649"></path><path d="M 808.81 397.14 L 813.31 478.64 L 894.31 572.14" fill="none" node-id="307" stroke="#ffffff" stroke-linecap="butt" stroke-width="1" target-height="175" target-width="85.5" target-x="808.811" target-y="397.138"></path><path d="M 768.81 416.64 L 741.81 444.14 L 775.31 448.64" fill="none" node-id="309" stroke="#ffffff" stroke-linecap="butt" stroke-width="1" target-height="32" target-width="33.5" target-x="741.811" target-y="416.638"></path><path d="M 854.81 458.64 L 821.31 454.64" fill="none" node-id="311" stroke="#ffffff" stroke-linecap="butt" stroke-width="1" target-height="4" target-width="33.5" target-x="821.311" target-y="454.638"></path><path d="M 787.91 247.28 L 766.57 246.77 L 722.22 257.29 C 711.00 259.95 699.29 259.80 688.14 256.85 L 684.01 255.75 L 681.32 291.28 L 715.39 304.65 L 738.56 341.26 L 733.64 358.17 C 730.05 370.56 741.02 382.29 753.62 379.52 L 799.88 369.34 C 804.80 368.26 807.51 362.96 805.50 358.34 L 796.56 337.75 L 802.50 302.01 L 812.84 313.98 L 837.21 302.35 L 819.13 266.91 C 813.12 255.13 801.13 247.59 787.91 247.28 Z" fill="#ffe071" fill-rule="nonzero" node-id="313" stroke="none" target-height="135.519" target-width="155.88702" target-x="681.323" target-y="246.77"></path><path d="M 765.38 242.36 C 762.47 238.22 759.25 223.31 758.01 216.38 C 749.99 219.88 734.92 229.45 738.78 239.62 C 742.65 249.80 739.42 253.34 737.33 253.83 C 736.22 259.32 737.21 270.14 750.09 269.49 C 762.97 268.85 770.72 255.56 772.99 248.99 C 771.66 248.50 768.29 246.49 765.38 242.36 Z" fill="#ffae64" fill-rule="nonzero" node-id="315" stroke="none" target-height="53.761993" target-width="38.06299" target-x="734.922" target-y="216.375"></path><path d="M 779.57 216.26 C 778.04 224.42 767.09 237.05 759.59 232.50 L 748.35 227.50 C 744.49 225.78 737.67 216.89 734.75 212.66 C 731.52 209.11 735.38 214.20 733.06 204.76 C 730.74 195.31 736.93 184.53 745.97 181.51 C 772.57 172.65 784.62 189.32 779.57 216.26 Z" fill="#2c2770" fill-rule="nonzero" node-id="317" stroke="none" target-height="64.397" target-width="53.88202" target-x="730.738" target-y="172.65"></path><path d="M 791.06 214.75 C 782.22 214.75 775.06 207.59 775.06 198.75 C 775.06 189.92 782.22 182.75 791.06 182.75 C 799.89 182.75 807.06 189.92 807.06 198.75 C 807.06 207.59 799.89 214.75 791.06 214.75 Z" fill="#2c2770" fill-rule="nonzero" node-id="319" stroke="none" target-height="32" target-width="32" target-x="775.059" target-y="182.755"></path><path d="M 746.75 249.61 C 759.44 238.61 755.86 223.98 752.48 218.04 L 741.07 241.40 C 737.67 248.72 734.06 260.61 746.75 249.61 Z" fill="#d76767" fill-rule="nonzero" group-id="5" node-id="323" stroke="none" target-height="42.567" target-width="25.383972" target-x="734.059" target-y="218.042"></path><path d="M 762.56 233.26 C 760.29 239.29 747.50 247.88 734.64 241.52 C 727.13 237.81 729.08 228.20 731.42 217.70 C 733.09 210.21 733.87 200.94 736.06 197.26 L 747.06 195.76 C 747.06 195.76 749.32 207.92 754.56 210.26 C 761.68 213.43 757.37 218.30 768.56 227.26 C 769.56 231.76 764.38 233.85 762.56 233.26 Z" fill="#ffae64" fill-rule="nonzero" node-id="326" stroke="none" target-height="52.128998" target-width="42.432007" target-x="727.126" target-y="195.756"></path><path d="M 744.52 229.92 L 737.39 230.24 C 737.43 231.26 738.29 232.94 740.58 233.16 C 742.88 233.38 744.04 231.37 744.52 229.92 Z" fill="#ffffff" fill-rule="nonzero" node-id="328" stroke="none" target-height="3.4639893" target-width="7.1329956" target-x="737.388" target-y="229.921"></path><path d="M 739.80 206.85 L 735.63 205.00 C 734.94 204.69 734.13 205.00 733.83 205.69 C 733.52 206.38 733.83 207.19 734.52 207.50 L 738.69 209.35 C 739.38 209.66 740.19 209.35 740.50 208.66 C 740.80 207.97 740.49 207.16 739.80 206.85 Z" fill="#2c2770" fill-rule="nonzero" node-id="330" stroke="none" target-height="4.9690094" target-width="7.2819824" target-x="733.521" target-y="204.693"></path><path d="M 756.47 214.27 L 752.31 212.41 C 751.62 212.11 750.81 212.42 750.50 213.11 C 750.19 213.80 750.50 214.61 751.19 214.92 L 755.36 216.77 C 756.05 217.08 756.86 216.77 757.17 216.07 C 757.48 215.38 757.16 214.58 756.47 214.27 Z" fill="#2c2770" fill-rule="nonzero" node-id="332" stroke="none" target-height="4.968994" target-width="7.282959" target-x="750.192" target-y="212.108"></path><path d="M 751.01 219.82 C 751.70 220.13 752.51 219.82 752.81 219.13 C 753.12 218.44 752.81 217.63 752.12 217.32 C 751.43 217.02 750.62 217.33 750.31 218.02 C 750.01 218.71 750.32 219.52 751.01 219.82 Z" fill="#000000" fill-rule="nonzero" node-id="334" stroke="none" target-height="3.1149902" target-width="3.1149902" target-x="750.006" target-y="217.018"></path><path d="M 743.65 210.56 L 736.97 225.56 L 740.72 227.23" fill="none" node-id="336" stroke="#000000" stroke-linecap="butt" stroke-width="1" target-height="16.671997" target-width="6.674011" target-x="736.972" target-y="210.561"></path><path d="M 735.17 212.78 C 735.86 213.09 736.67 212.78 736.98 212.09 C 737.28 211.40 736.97 210.59 736.28 210.28 C 735.59 209.97 734.78 210.28 734.47 210.97 C 734.17 211.66 734.48 212.47 735.17 212.78 Z" fill="#000000" fill-rule="nonzero" node-id="338" stroke="none" target-height="3.1150055" target-width="3.1149902" target-x="734.167" target-y="209.974"></path><path d="M 812.22 314.56 L 837.74 302.19 L 818.66 266.14 C 812.35 254.23 800.07 246.69 786.60 246.46 L 772.91 246.22 L 765.06 268.25 C 762.32 270.81 755.91 291.99 756.97 306.75 C 758.29 325.21 762.53 390.88 776.56 402.36 C 786.33 410.35 806.45 395.75 825.28 388.77 C 828.48 387.58 829.42 383.02 826.92 380.69 C 814.83 369.45 808.03 356.38 803.28 343.75 C 797.36 328.02 804.65 314.70 803.28 303.40 L 812.22 314.56 Z" fill="#0b86df" fill-rule="nonzero" node-id="340" stroke="none" target-height="164.128" target-width="81.828" target-x="755.915" target-y="246.222"></path><path d="M 626.27 193.14 L 624.45 164.26 C 624.23 160.81 624.36 159.71 621.99 157.20 L 617.20 152.14 C 616.57 151.48 615.47 151.71 615.15 152.56 C 614.21 155.15 614.60 158.04 616.19 160.29 L 617.88 164.26 L 617.20 171.45 L 613.74 164.98 C 612.61 162.85 608.79 159.11 606.59 158.14 L 603.09 156.59 C 601.91 156.07 600.71 157.26 601.21 158.44 L 601.76 159.74 C 602.17 160.71 602.83 161.54 603.67 162.16 C 606.09 163.96 609.85 168.56 610.68 171.45 L 612.21 176.72 L 608.97 173.31 C 607.09 171.33 601.45 166.36 598.96 165.24 L 598.38 164.98 C 597.49 164.57 596.50 165.32 596.64 166.29 L 596.70 166.68 C 596.86 167.79 597.41 168.81 598.26 169.55 C 599.16 170.35 606.59 175.64 607.38 181.64 L 598.86 176.96 C 598.11 176.54 597.18 176.95 596.97 177.78 C 596.62 179.19 597.19 180.68 598.38 181.52 C 601.42 183.69 606.83 187.83 606.59 189.75 C 605.97 194.69 607.34 198.64 612.21 201.14 L 639.49 254.07 C 647.11 268.86 660.20 280.11 675.98 285.41 L 683.08 287.80 L 685.06 258.84 L 672.52 253.45 L 626.27 193.14 Z" fill="#ffae64" fill-rule="nonzero" node-id="342" stroke="none" target-height="136.31999" target-width="88.56" target-x="596.499" target-y="151.477"></path><path d="M 609.40 170.75 L 619.67 175.18 L 625.32 192.74 L 616.95 193.38 C 614.27 192.97 608.89 194.90 608.58 192.12 C 608.19 188.65 620.62 181.73 612.88 178.87 C 609.41 177.58 607.44 175.36 606.39 173.26 C 605.44 171.36 607.46 169.91 609.40 170.75 Z" fill="#ffae64" fill-rule="nonzero" node-id="344" stroke="none" target-height="24.992996" target-width="19.876038" target-x="605.444" target-y="169.909"></path><path d="M 624.38 190.64 L 621.12 178.68 C 620.34 175.84 618.22 173.56 615.43 172.59 L 608.86 170.31 C 608.57 170.20 608.24 170.28 608.02 170.50 C 606.68 171.84 606.97 174.07 608.60 175.03 L 613.88 178.14 C 613.05 181.47 611.88 189.04 613.88 192.64" fill="none" node-id="346" stroke="#000000" stroke-linecap="butt" stroke-width="1" target-height="22.436005" target-width="17.695984" target-x="606.684" target-y="170.204"></path><path d="M 741.56 330.26 C 740.07 304.62 731.14 266.12 735.84 253.57 C 710.38 261.82 691.91 258.66 683.19 255.14 L 680.38 291.12 L 714.77 303.85 C 712.06 323.76 727.60 329.38 728.06 344.26 C 728.43 356.34 728.87 377.65 722.06 388.26 C 715.84 397.93 724.21 401.00 737.77 402.52 C 751.33 404.05 743.42 362.30 741.56 330.26 Z" fill="#0b86df" fill-rule="nonzero" node-id="348" stroke="none" target-height="150.481" target-width="70.953" target-x="680.38" target-y="253.567"></path><path d="M 767.51 337.30 L 739.36 296.08 C 738.77 295.21 737.60 294.95 736.70 295.48 L 706.28 313.30 C 705.26 313.90 704.98 315.24 705.67 316.19 L 734.81 356.84 C 735.41 357.68 736.55 357.92 737.45 357.40 L 766.87 340.15 C 767.87 339.57 768.16 338.26 767.51 337.30 Z" fill="#2c2770" fill-rule="nonzero" node-id="350" stroke="none" target-height="62.97" target-width="63.184998" target-x="704.98" target-y="294.948"></path><path d="M 772.18 316.48 L 814.56 317.25 L 812.56 313.75 L 837.42 301.56 L 844.76 321.68 C 848.02 330.60 840.92 339.89 831.45 339.09 L 772.50 334.08 L 765.75 336.24 C 765.55 336.31 765.35 336.35 765.14 336.39 L 756.20 337.76 C 756.12 337.77 756.04 337.79 755.97 337.82 L 743.48 341.92 C 742.45 342.26 741.32 341.76 740.88 340.76 C 740.40 339.69 740.88 338.44 741.95 337.96 L 751.46 333.73 L 739.36 336.38 C 738.46 336.58 737.56 336.05 737.30 335.16 C 737.04 334.28 737.51 333.35 738.37 333.03 L 749.32 328.93 L 736.25 330.09 C 735.22 330.19 734.28 329.48 734.08 328.45 C 733.88 327.40 734.52 326.38 735.55 326.10 L 749.00 322.53 L 735.01 323.50 C 733.65 323.59 732.52 322.44 732.64 321.08 C 732.72 320.10 733.45 319.28 734.42 319.09 L 752.20 315.57 L 748.02 309.66 L 759.79 310.12 C 761.15 310.17 762.47 310.57 763.64 311.28 L 772.18 316.48 Z" fill="#ffae64" fill-rule="nonzero" node-id="352" stroke="none" target-height="40.697998" target-width="115.5" target-x="732.523" target-y="301.559"></path><path d="M 660.06 477.00 L 510.06 477.00 C 506.19 477.00 503.06 480.13 503.06 484.00 L 503.06 559.00 C 503.06 562.87 506.19 566.00 510.06 566.00 L 660.06 566.00 C 663.92 566.00 667.06 562.87 667.06 559.00 L 667.06 484.00 C 667.06 480.13 663.92 477.00 660.06 477.00 Z" fill="#ffffff" fill-rule="nonzero" node-id="354" stroke="#e5e5e5" stroke-linecap="butt" stroke-width="2" target-height="89" target-width="164.00003" target-x="503.059" target-y="477"></path><path d="M 550.06 517.00 L 576.06 517.00 C 575.11 502.54 563.99 490.99 550.06 490.00 L 550.06 517.00 Z" fill="#1be3b3" fill-rule="nonzero" node-id="356" stroke="none" target-height="27" target-width="26" target-x="550.059" target-y="490"></path><path d="M 573.52 541.00 C 577.82 536.46 580.60 530.54 581.06 524.00 L 556.06 524.00 L 573.52 541.00 Z" fill="#ffae64" fill-rule="nonzero" node-id="358" stroke="none" target-height="17" target-width="25" target-x="556.059" target-y="524"></path><path d="M 545.83 520.97 L 545.83 490.00 C 530.88 491.03 519.06 503.60 519.06 518.96 C 519.06 535.00 531.93 548.00 547.81 548.00 C 554.74 548.00 561.10 545.52 566.06 541.39 L 545.83 520.97 Z" fill="#ff8282" fill-rule="nonzero" node-id="360" stroke="none" target-height="58" target-width="47" target-x="519.059" target-y="490"></path><path d="M 639.06 529.00 L 595.06 529.00 L 595.06 537.00 L 639.06 537.00 L 639.06 529.00 Z" fill="#a3b7ff" fill-rule="nonzero" node-id="362" stroke="none" target-height="8" target-width="44" target-x="595.059" target-y="529"></path><path d="M 627.06 515.00 L 594.06 515.00 L 594.06 523.00 L 627.06 523.00 L 627.06 515.00 Z" fill="#a3b7ff" fill-rule="nonzero" node-id="364" stroke="none" target-height="8" target-width="33" target-x="594.059" target-y="515"></path><path d="M 657.06 500.00 L 595.06 500.00 L 595.06 508.00 L 657.06 508.00 L 657.06 500.00 Z" fill="#a3b7ff" fill-rule="nonzero" node-id="366" stroke="none" target-height="8" target-width="62" target-x="595.059" target-y="500"></path></svg>