<?xml version="1.0" standalone="no"?><!DOCTYPE svg PUBLIC "-//W3C//DTD SVG 1.1//EN" "http://www.w3.org/Graphics/SVG/1.1/DTD/svg11.dtd"><svg height="740" node-id="1" sillyvg="true" template-height="740" template-width="947" version="1.1" viewBox="0 0 947 740" width="947" xmlns="http://www.w3.org/2000/svg" xmlns:xlink="http://www.w3.org/1999/xlink"><defs node-id="95"><mask height="122" id="mask0" maskUnits="userSpaceOnUse" node-id="21" width="141" x="790" y="339"><path d="M 913.33 366.14 L 895.30 354.70 L 859.10 343.15 C 843.61 338.20 826.88 338.81 811.79 344.85 L 790.19 353.50 L 792.57 390.47 L 820.45 381.53 L 817.81 398.53 L 804.21 428.47 C 802.19 432.90 804.57 438.08 809.23 439.45 L 878.95 459.95 C 883.29 461.22 887.83 458.64 888.96 454.26 L 897.59 420.56 L 900.28 436.14 L 927.16 438.75 L 929.94 399.06 C 930.87 385.87 924.49 373.23 913.33 366.14 Z" fill="#ffffff" fill-rule="nonzero" node-id="98" stroke="none" target-height="123.01898" target-width="140.67505" target-x="790.194" target-y="338.204"></path></mask><mask height="44" id="mask1" maskUnits="userSpaceOnUse" node-id="31" width="42" x="862" y="324"><path d="M 896.26 350.20 C 895.89 345.22 900.76 330.97 903.25 324.46 C 894.63 323.33 876.91 323.72 875.00 334.30 C 873.09 344.88 868.54 346.22 866.50 345.57 C 862.75 349.64 858.08 359.30 869.38 365.34 C 880.68 371.38 894.07 364.10 899.35 359.70 C 898.47 358.61 896.63 355.19 896.26 350.20 Z" fill="#ffffff" fill-rule="nonzero" node-id="102" stroke="none" target-height="48.046997" target-width="45.166016" target-x="858.081" target-y="323.332"></path></mask><mask height="54" id="mask2" maskUnits="userSpaceOnUse" node-id="67" width="36" x="217" y="167"><path d="M 225.37 191.84 C 228.66 188.07 233.33 173.75 235.25 167.06 C 242.82 171.34 256.75 182.29 251.92 191.90 C 247.09 201.50 249.92 205.31 251.94 206.01 C 252.49 211.52 250.42 222.05 237.76 220.09 C 225.10 218.12 218.77 204.26 217.19 197.57 C 218.55 197.23 222.08 195.60 225.37 191.84 Z" fill="#ffffff" fill-rule="nonzero" node-id="106" stroke="none" target-height="54.989" target-width="39.561005" target-x="217.194" target-y="167.06"></path></mask></defs><path d="M 553.14 33.00 L 265.86 198.86 C 234.29 217.09 223.47 257.45 241.70 289.02 L 407.56 576.31 C 425.79 607.87 466.15 618.69 497.72 600.46 L 785.01 434.60 C 816.58 416.38 827.39 376.01 809.16 344.44 L 643.30 57.16 C 625.08 25.59 584.71 14.77 553.14 33.00 Z" fill="#f3f6ff" fill-rule="nonzero" node-id="110" stroke="none" target-height="603.9154" target-width="603.91504" target-x="223.475" target-y="14.7746"></path><path d="M 821.09 69.50 L 783.69 91.09 C 776.52 95.24 774.06 104.41 778.20 111.58 L 799.79 148.98 C 803.94 156.16 813.11 158.62 820.28 154.47 L 857.68 132.88 C 864.86 128.74 867.32 119.56 863.17 112.39 L 841.58 74.99 C 837.44 67.82 828.27 65.36 821.09 69.50 Z" fill="#f3f6ff" fill-rule="nonzero" node-id="112" stroke="none" target-height="93.258194" target-width="93.257996" target-x="774.059" target-y="65.3578"></path><path d="M 152.93 196.00 L 128.36 210.19 C 123.58 212.95 121.94 219.06 124.70 223.85 L 138.89 248.42 C 141.65 253.20 147.76 254.84 152.55 252.08 L 177.12 237.89 C 181.90 235.13 183.54 229.02 180.78 224.23 L 166.59 199.66 C 163.83 194.88 157.72 193.24 152.93 196.00 Z" fill="#f3f6ff" fill-rule="nonzero" node-id="114" stroke="none" target-height="61.602005" target-width="61.603004" target-x="121.939" target-y="193.239"></path><path d="M 617.93 555.00 L 593.36 569.19 C 588.58 571.95 586.94 578.06 589.70 582.85 L 603.89 607.42 C 606.65 612.20 612.76 613.84 617.55 611.08 L 642.12 596.89 C 646.90 594.13 648.54 588.02 645.78 583.23 L 631.59 558.66 C 628.83 553.88 622.72 552.24 617.93 555.00 Z" fill="#f3f6ff" fill-rule="nonzero" node-id="116" stroke="none" target-height="61.60199" target-width="61.602966" target-x="586.939" target-y="552.239"></path><path d="M 496.30 631.32 C 505.15 629.63 513.69 635.44 515.38 644.29 C 517.06 653.14 511.26 661.68 502.40 663.37 C 493.55 665.06 485.01 659.25 483.32 650.40 C 481.64 641.54 487.44 633.00 496.30 631.32 Z" fill="#54b7ff" fill-rule="nonzero" node-id="118" stroke="none" target-height="35.42804" target-width="35.42804" target-x="481.636" target-y="629.628"></path><path d="M 472.84 599.75 C 488.06 596.85 502.75 606.84 505.65 622.06 C 508.55 637.28 498.56 651.97 483.35 654.87 C 468.13 657.77 453.44 647.78 450.54 632.56 C 447.64 617.34 457.62 602.65 472.84 599.75 Z" fill="none" node-id="120" stroke="#7268f5" stroke-linecap="butt" stroke-width="1" target-height="60.914" target-width="60.914" target-x="447.637" target-y="596.852"></path><path d="M 649.03 605.32 L 664.18 601.84 C 672.24 599.99 678.80 584.88 678.80 584.88 L 694.17 591.90 L 685.70 608.07 L 683.68 617.82 L 649.39 607.58 L 649.03 605.32 Z" fill="#ffae64" fill-rule="nonzero" node-id="122" stroke="none" target-height="32.942993" target-width="45.14496" target-x="649.028" target-y="584.878"></path><path d="M 649.16 617.75 L 639.18 612.52 C 637.88 611.84 637.04 610.52 636.97 609.05 C 636.87 606.84 638.53 604.93 640.74 604.70 C 643.40 604.42 647.31 603.98 652.13 603.34 C 661.54 602.09 666.06 600.34 666.06 600.34 C 666.06 600.34 668.83 604.89 674.89 608.06 C 680.95 611.24 686.51 608.49 686.51 608.49 C 685.70 616.35 682.00 623.64 676.13 628.93 L 675.50 629.50 L 663.36 624.16 L 662.18 621.49 L 656.04 620.22 C 653.64 619.72 651.33 618.89 649.16 617.75 Z" fill="#2c2770" fill-rule="nonzero" node-id="124" stroke="none" target-height="29.153992" target-width="49.640015" target-x="636.87" target-y="600.344"></path><path d="M 694.92 713.17 L 707.24 703.70 C 713.80 698.67 714.00 689.62 714.00 689.62 L 730.38 682.18 L 729.41 700.40 L 731.63 710.12 L 696.19 715.07 L 694.92 713.17 Z" fill="#ffae64" fill-rule="nonzero" node-id="126" stroke="none" target-height="32.88495" target-width="36.708008" target-x="694.919" target-y="682.184"></path><path d="M 700.22 724.42 L 688.96 723.82 C 687.49 723.74 686.18 722.89 685.51 721.58 C 684.50 719.61 685.21 717.19 687.12 716.06 C 689.43 714.70 692.79 712.67 696.91 710.08 C 704.95 705.03 708.33 701.56 708.33 701.56 C 708.33 701.56 712.74 704.53 719.57 704.90 C 726.40 705.27 730.32 700.45 730.32 700.45 C 732.86 707.94 732.52 716.10 729.39 723.36 L 729.05 724.14 L 715.79 724.34 L 713.61 722.40 L 707.49 723.80 C 705.11 724.34 702.66 724.55 700.22 724.42 Z" fill="#2c2770" fill-rule="nonzero" node-id="128" stroke="none" target-height="24.098022" target-width="48.361023" target-x="684.495" target-y="700.453"></path><path d="M 706.89 691.14 L 734.35 706.41 L 787.31 592.39 L 862.47 507.35 C 871.75 496.84 877.86 483.92 880.09 470.07 L 885.11 438.75 L 830.46 433.79 L 740.87 457.79 C 728.63 461.07 718.60 469.82 713.68 481.50 L 667.28 591.81 L 692.10 612.02 L 746.30 501.36 L 815.49 491.45 L 746.35 583.02 L 706.89 691.14 Z" fill="#2c2770" fill-rule="nonzero" node-id="130" stroke="none" target-height="272.61902" target-width="217.82904" target-x="667.285" target-y="433.789"></path><path d="M 878.06 457.14 L 876.52 463.91 C 873.98 475.13 868.70 485.55 861.17 494.24 L 778.66 589.49 L 729.03 703.72" fill="none" node-id="132" stroke="#ffffff" stroke-linecap="butt" stroke-width="1" target-height="246.57803" target-width="149.02502" target-x="729.035" target-y="457.145"></path><path d="M 815.06 489.66 L 749.69 493.49 C 739.79 494.06 731.08 500.22 727.24 509.36 L 686.40 606.44" fill="none" node-id="134" stroke="#ffffff" stroke-linecap="butt" stroke-width="1" target-height="116.77902" target-width="128.66003" target-x="686.404" target-y="489.663"></path><path d="M 789.44 357.79 L 805.33 348.38 L 811.02 375.04 L 795.86 383.59 C 784.84 389.80 770.86 385.47 765.29 374.11 L 732.31 306.78 L 723.07 301.23 L 715.62 296.09 C 713.07 294.33 711.44 291.53 711.17 288.44 C 710.98 286.20 711.83 284.00 713.48 282.47 L 721.79 274.76 L 710.37 261.28 C 709.26 259.97 709.59 257.98 711.05 257.08 C 712.12 256.43 713.49 256.57 714.41 257.42 L 729.87 271.71 L 732.72 270.25 C 733.89 269.64 735.31 269.87 736.23 270.81 L 741.88 276.56 C 743.18 277.89 743.99 279.62 744.15 281.47 L 745.22 293.77 L 789.44 357.79 Z" fill="#ff9330" fill-rule="nonzero" node-id="136" stroke="none" target-height="133.374" target-width="101.755005" target-x="709.264" target-y="256.43"></path><path d="M 716.10 280.12 L 725.48 289.42 C 726.41 290.34 727.90 290.38 728.88 289.52 C 729.82 288.70 730.00 287.31 729.31 286.27 L 727.26 283.18" fill="none" node-id="138" stroke="#000000" stroke-linecap="butt" stroke-width="1" target-height="10.262024" target-width="13.903015" target-x="716.101" target-y="280.123"></path><path d="M 711.63 284.43 L 722.02 292.74 C 723.00 293.52 724.42 293.42 725.27 292.49 C 726.13 291.56 726.10 290.11 725.20 289.20 L 724.75 288.75" fill="none" node-id="140" stroke="#000000" stroke-linecap="butt" stroke-width="1" target-height="9.098999" target-width="14.499023" target-x="711.631" target-y="284.426"></path><path d="M 713.32 292.81 L 721.58 298.98 C 722.63 299.76 724.10 299.63 724.99 298.66 C 725.84 297.73 725.88 296.31 725.09 295.33 L 723.17 292.96" fill="none" node-id="142" stroke="#000000" stroke-linecap="butt" stroke-width="1" target-height="6.958008" target-width="12.564026" target-x="713.321" target-y="292.805"></path><path d="M 728.18 273.20 L 719.63 280.57 C 718.91 281.19 718.79 282.26 719.37 283.02 C 720.60 284.67 722.79 285.27 724.69 284.49 L 733.51 280.86 C 732.12 282.55 731.74 289.59 733.57 296.16" fill="none" node-id="144" stroke="#000000" stroke-linecap="butt" stroke-width="1" target-height="22.964996" target-width="14.776978" target-x="718.793" target-y="273.196"></path><path d="M 913.33 366.14 L 895.30 354.70 L 859.10 343.15 C 843.61 338.20 826.88 338.81 811.79 344.85 L 790.19 353.50 L 792.57 390.47 L 820.45 381.53 L 817.81 398.53 L 804.21 428.47 C 802.19 432.90 804.57 438.08 809.23 439.45 L 878.95 459.95 C 883.29 461.22 887.83 458.64 888.96 454.26 L 897.59 420.56 L 900.28 436.14 L 927.16 438.75 L 929.94 399.06 C 930.87 385.87 924.49 373.23 913.33 366.14 Z" fill="#1be3b3" fill-rule="nonzero" node-id="146" stroke="none" target-height="123.01898" target-width="140.67505" target-x="790.194" target-y="338.204"></path><g node-id="285"><path d="M 835.16 348.50 L 905.17 378.24" fill="none" group-id="1" node-id="150" stroke="#ffe071" stroke-linecap="butt" stroke-width="3" target-height="29.740997" target-width="70.00403" target-x="835.162" target-y="348.502"></path><path d="M 825.69 364.82 L 901.78 397.36" fill="none" group-id="1" node-id="152" stroke="#ffe071" stroke-linecap="butt" stroke-width="3" target-height="32.545013" target-width="76.09796" target-x="825.687" target-y="364.818"></path><path d="M 815.18 380.17 L 900.40 416.42" fill="none" group-id="1" node-id="154" stroke="#ffe071" stroke-linecap="butt" stroke-width="3" target-height="36.25" target-width="85.22302" target-x="815.18" target-y="380.168"></path><path d="M 810.00 405.35 L 898.18 440.50" fill="none" group-id="1" node-id="156" stroke="#ffe071" stroke-linecap="butt" stroke-width="3" target-height="35.15399" target-width="88.18805" target-x="809.996" target-y="405.349"></path><path d="M 797.62 424.76 L 901.90 462.39" fill="none" group-id="1" node-id="158" stroke="#ffe071" stroke-linecap="butt" stroke-width="3" target-height="37.63202" target-width="104.278015" target-x="797.62" target-y="424.762"></path></g><path d="M 896.55 350.31 C 896.19 345.26 901.13 330.83 903.64 324.25 C 894.96 323.12 877.12 323.54 875.18 334.25 C 873.24 344.96 868.65 346.33 866.60 345.67 C 862.82 349.80 858.10 359.58 869.46 365.67 C 880.83 371.76 894.32 364.37 899.65 359.91 C 898.77 358.81 896.92 355.35 896.55 350.31 Z" fill="#ff9330" fill-rule="nonzero" node-id="161" stroke="none" target-height="48.647003" target-width="45.54297" target-x="858.096" target-y="323.116"></path><path d="M 917.07 301.31 C 925.12 307.96 912.00 316.74 906.11 321.20 L 892.50 316.86 C 887.83 315.37 878.82 305.97 874.91 301.45 C 870.73 297.76 861.22 288.93 867.17 285.39 C 877.58 281.07 867.89 271.23 882.25 268.99 C 896.61 266.75 898.85 281.11 911.71 285.21 C 924.57 289.32 910.42 295.83 917.07 301.31 Z" fill="#2c2770" fill-rule="nonzero" node-id="163" stroke="none" target-height="54.453003" target-width="63.897034" target-x="861.222" target-y="266.75"></path><path d="M 870.62 342.77 C 889.34 346.57 900.04 333.19 903.05 326.02 L 874.07 331.95 C 865.12 333.97 851.89 338.96 870.62 342.77 Z" fill="#a84223" fill-rule="nonzero" group-id="2" node-id="167" stroke="none" target-height="20.550018" target-width="51.16101" target-x="851.891" target-y="326.025"></path><path d="M 902.66 325.61 C 901.07 331.86 890.04 340.61 876.56 335.69 C 868.69 332.82 869.58 323.06 870.76 312.36 C 871.59 304.74 871.29 296.23 873.88 291.27 L 887.14 291.21 C 884.79 292.91 880.45 295.21 885.91 296.95 C 891.32 298.68 897.01 298.65 899.55 297.62 C 898.51 304.65 903.61 305.67 902.54 309.01 L 899.52 318.47 C 903.75 320.31 905.86 316.20 906.39 313.92 C 908.57 313.39 912.46 313.77 910.61 319.56 C 908.76 325.35 904.54 326.01 902.66 325.61 Z" fill="#ff9330" fill-rule="nonzero" node-id="170" stroke="none" target-height="49.399994" target-width="43.774963" target-x="868.687" target-y="291.208"></path><path d="M 896.85 320.14 C 897.98 319.24 899.82 317.41 900.43 315.51 C 902.93 313.16 907.35 309.95 905.02 315.92 C 903.81 319.73 902.26 322.92 901.35 325.77 C 899.23 332.44 898.48 338.08 890.81 342.35 C 881.24 347.69 865.67 342.20 863.21 335.12 C 860.19 326.44 866.70 324.16 869.63 318.27 C 876.09 320.51 882.97 322.53 888.36 323.73 C 892.77 324.70 894.82 321.59 896.85 320.14 Z" fill="#2c2770" fill-rule="nonzero" node-id="172" stroke="none" target-height="37.748016" target-width="47.16101" target-x="860.188" target-y="309.947"></path><path d="M 885.11 323.08 L 878.06 324.18 C 878.22 325.19 879.25 326.76 881.55 326.73 C 883.86 326.70 884.80 324.57 885.11 323.08 Z" fill="#ffffff" fill-rule="nonzero" node-id="174" stroke="none" target-height="3.6820068" target-width="7.054016" target-x="878.06" target-y="323.077"></path><path d="M 877.90 300.67 L 873.56 299.28 C 872.84 299.05 872.07 299.44 871.84 300.17 C 871.61 300.88 872.01 301.65 872.73 301.88 L 877.07 303.27 C 877.79 303.50 878.56 303.11 878.79 302.38 C 879.02 301.67 878.62 300.89 877.90 300.67 Z" fill="#2c2770" fill-rule="nonzero" node-id="176" stroke="none" target-height="4.45401" target-width="7.413025" target-x="871.608" target-y="299.048"></path><path d="M 895.28 306.21 L 890.94 304.83 C 890.22 304.60 889.45 304.99 889.22 305.71 C 888.99 306.43 889.39 307.20 890.11 307.43 L 894.45 308.82 C 895.17 309.05 895.94 308.65 896.17 307.93 C 896.40 307.21 896.00 306.44 895.28 306.21 Z" fill="#2c2770" fill-rule="nonzero" node-id="178" stroke="none" target-height="4.4539795" target-width="7.413025" target-x="888.99" target-y="304.596"></path><path d="M 890.46 312.33 C 891.18 312.56 891.95 312.17 892.18 311.45 C 892.41 310.73 892.01 309.96 891.29 309.73 C 890.57 309.50 889.80 309.89 889.57 310.61 C 889.34 311.33 889.74 312.10 890.46 312.33 Z" fill="#000000" fill-rule="nonzero" node-id="180" stroke="none" target-height="3.065979" target-width="3.0670166" target-x="889.342" target-y="309.497"></path><path d="M 882.13 303.93 L 877.13 319.57 L 881.05 320.82" fill="none" node-id="182" stroke="#000000" stroke-linecap="butt" stroke-width="1" target-height="16.892029" target-width="4.992981" target-x="877.135" target-y="303.929"></path><path d="M 873.95 307.06 C 874.67 307.29 875.44 306.89 875.67 306.18 C 875.90 305.45 875.50 304.69 874.78 304.46 C 874.06 304.23 873.29 304.62 873.06 305.34 C 872.83 306.06 873.23 306.83 873.95 307.06 Z" fill="#000000" fill-rule="nonzero" node-id="184" stroke="none" target-height="3.066986" target-width="3.0670166" target-x="872.829" target-y="304.226"></path><path d="M 857.04 452.50 L 820.04 479.50 L 749.54 456.00 L 789.54 428.00 L 857.04 452.50 Z" fill="#dae2ff" fill-rule="nonzero" node-id="186" stroke="none" target-height="51.5" target-width="107.5" target-x="749.539" target-y="428"></path><path d="M 854.54 450.50 L 818.54 476.50 L 747.04 454.00 L 787.04 426.00 L 854.54 450.50 Z" fill="#6b8cff" fill-rule="nonzero" node-id="188" stroke="none" target-height="50.5" target-width="107.5" target-x="747.039" target-y="426"></path><path d="M 740.90 395.50 L 814.65 417.94 L 826.54 474.50 L 821.04 478.50 L 751.02 457.12 L 734.54 397.50 L 740.90 395.50 Z" fill="#dae2ff" fill-rule="nonzero" node-id="190" stroke="none" target-height="82.997986" target-width="92" target-x="734.539" target-y="395.502"></path><path d="M 736.07 397.42 L 808.52 419.48 C 810.27 420.01 811.59 421.46 811.96 423.25 L 822.54 474.15 C 823.31 477.86 819.85 481.04 816.22 479.96 L 750.49 460.34 C 748.78 459.83 747.47 458.44 747.05 456.70 L 733.54 399.79 C 733.18 398.29 734.59 396.97 736.07 397.42 Z" fill="#6b8cff" fill-rule="nonzero" node-id="192" stroke="none" target-height="84.07498" target-width="90.13104" target-x="733.183" target-y="396.967"></path><path d="M 772.80 443.88 C 770.04 441.01 769.88 436.68 772.46 434.19 C 775.04 431.69 779.37 432.00 782.13 434.86 C 784.90 437.72 785.05 442.06 782.48 444.55 C 779.90 447.04 775.57 446.74 772.80 443.88 Z" fill="#dae2ff" fill-rule="nonzero" node-id="194" stroke="none" target-height="15.345978" target-width="15.1710205" target-x="769.884" target-y="431.695"></path><path d="M 860.43 435.63 L 901.24 436.34 L 927.04 438.00 L 927.51 442.46 C 928.77 454.44 918.13 464.26 906.28 462.03 L 859.25 453.19 L 852.34 454.77 C 852.13 454.82 851.92 454.85 851.71 454.86 L 842.69 455.47 C 842.61 455.48 842.53 455.49 842.46 455.51 L 829.66 458.53 C 828.61 458.78 827.53 458.19 827.17 457.16 C 826.79 456.05 827.37 454.84 828.48 454.46 L 838.31 451.05 L 826.03 452.66 C 825.11 452.78 824.26 452.18 824.08 451.27 C 823.90 450.37 824.44 449.49 825.33 449.24 L 836.59 446.08 L 823.47 446.13 C 822.43 446.14 821.55 445.35 821.44 444.31 C 821.33 443.25 822.06 442.28 823.11 442.10 L 836.82 439.68 L 822.78 439.45 C 821.42 439.43 820.40 438.20 820.64 436.86 C 820.80 435.88 821.61 435.13 822.60 435.04 L 843.54 433.00 L 840.58 431.58 C 839.12 430.89 838.00 429.65 837.44 428.14 C 837.21 427.52 837.72 426.88 838.38 426.96 L 848.62 428.24 C 849.97 428.40 851.26 428.92 852.36 429.72 L 860.43 435.63 Z" fill="#ff9330" fill-rule="nonzero" node-id="196" stroke="none" target-height="37.38501" target-width="108.36499" target-x="820.405" target-y="426.875"></path><path d="M 663.00 300.31 L 667.76 306.79 C 675.01 316.73 671.93 330.71 661.21 336.61 L 654.21 340.52 C 646.57 344.75 642.46 353.41 644.07 362.01 L 645.54 369.89 C 647.79 381.95 638.93 393.24 626.67 393.94 L 618.64 394.39 C 609.91 394.84 602.46 400.87 600.15 409.34 L 598.03 417.10 C 594.76 428.90 581.92 435.25 570.56 430.57 L 563.11 427.49 C 555.02 424.15 545.71 426.33 539.93 432.94 L 534.67 438.97 C 526.64 448.27 512.33 448.33 504.11 439.23 L 498.78 433.26 C 492.94 426.72 483.56 424.67 475.54 428.13 L 468.16 431.27 C 456.86 436.15 443.89 430.05 440.49 418.25 L 438.24 410.56 C 435.80 402.15 428.22 396.25 419.49 395.87 L 411.47 395.55 C 399.20 395.04 390.15 383.88 392.21 371.82 L 393.56 363.93 C 395.03 355.27 390.79 346.68 383.09 342.57 L 376.03 338.79 C 365.18 332.95 361.90 319.03 368.97 309.03 L 373.59 302.49 C 378.66 295.30 378.53 285.75 373.40 278.69 L 368.64 272.21 C 361.39 262.34 364.47 248.36 375.19 242.39 L 382.19 238.48 C 389.83 234.25 393.94 225.59 392.33 216.99 L 390.86 209.11 C 388.61 197.05 397.47 185.76 409.73 185.06 L 417.76 184.61 C 426.49 184.16 433.94 178.13 436.25 169.66 L 438.37 161.90 C 441.64 150.10 454.48 143.75 465.85 148.43 L 473.29 151.51 C 481.38 154.85 490.69 152.67 496.47 146.06 L 501.73 140.03 C 509.82 130.73 524.14 130.67 532.29 139.78 L 537.62 145.74 C 543.46 152.28 552.84 154.33 560.86 150.87 L 568.25 147.73 C 579.54 142.85 592.51 148.95 595.92 160.75 L 598.16 168.44 C 600.60 176.84 608.18 182.75 616.91 183.13 L 624.93 183.45 C 637.20 183.96 646.25 195.12 644.20 207.18 L 642.85 215.07 C 641.37 223.73 645.61 232.32 653.31 236.43 L 660.37 240.21 C 671.22 246.05 674.50 259.96 667.43 269.97 L 662.81 276.51 C 657.74 283.70 657.87 293.25 663.00 300.31 Z" fill="#ffae64" fill-rule="nonzero" node-id="198" stroke="none" target-height="317.663" target-width="313.622" target-x="361.39" target-y="130.668"></path><path d="M 677.01 300.31 L 681.76 306.79 C 689.01 316.73 685.93 330.71 675.21 336.61 L 668.21 340.52 C 660.57 344.75 656.46 353.41 658.07 362.01 L 659.54 369.89 C 661.79 381.95 652.93 393.24 640.67 393.94 L 632.64 394.39 C 623.91 394.84 616.47 400.87 614.15 409.34 L 612.03 417.10 C 608.76 428.90 595.92 435.25 584.56 430.57 L 577.11 427.49 C 569.02 424.15 559.71 426.33 553.93 432.94 L 548.67 438.97 C 540.64 448.27 526.33 448.33 518.11 439.23 L 512.78 433.26 C 506.94 426.72 497.56 424.67 489.54 428.13 L 482.16 431.27 C 470.86 436.15 457.89 430.05 454.49 418.25 L 452.24 410.56 C 449.80 402.15 442.22 396.25 433.49 395.87 L 425.47 395.55 C 413.20 395.04 404.15 383.88 406.21 371.82 L 407.56 363.93 C 409.03 355.27 404.79 346.68 397.09 342.57 L 390.03 338.79 C 379.18 332.95 375.90 319.03 382.97 309.03 L 387.59 302.49 C 392.66 295.30 392.53 285.75 387.40 278.69 L 382.64 272.21 C 375.39 262.34 378.47 248.36 389.19 242.39 L 396.19 238.48 C 403.83 234.25 407.94 225.59 406.33 216.99 L 404.86 209.11 C 402.61 197.05 411.47 185.76 423.73 185.06 L 431.76 184.61 C 440.49 184.16 447.94 178.13 450.25 169.66 L 452.37 161.90 C 455.64 150.10 468.48 143.75 479.85 148.43 L 487.29 151.51 C 495.38 154.85 504.69 152.67 510.47 146.06 L 515.73 140.03 C 523.82 130.73 538.14 130.67 546.29 139.78 L 551.62 145.74 C 557.46 152.28 566.84 154.33 574.86 150.87 L 582.25 147.73 C 593.54 142.85 606.51 148.95 609.92 160.75 L 612.16 168.44 C 614.60 176.84 622.18 182.75 630.91 183.13 L 638.93 183.45 C 651.20 183.96 660.25 195.12 658.19 207.18 L 656.85 215.07 C 655.37 223.73 659.61 232.32 667.31 236.43 L 674.38 240.21 C 685.23 246.05 688.50 259.96 681.44 269.97 L 676.81 276.51 C 671.74 283.70 671.87 293.25 677.01 300.31 Z" fill="#ffe071" fill-rule="nonzero" node-id="200" stroke="none" target-height="317.663" target-width="313.62097" target-x="375.39" target-y="130.668"></path><path d="M 488.27 235.00 C 497.35 235.00 504.16 237.46 508.69 242.38 C 513.35 247.19 515.67 254.11 515.67 263.13 L 515.67 268.41 C 515.67 277.43 513.35 284.41 508.69 289.33 C 504.16 294.14 497.35 296.54 488.27 296.54 C 479.20 296.54 472.33 294.14 467.68 289.33 C 463.03 284.41 460.70 277.43 460.70 268.41 L 460.70 263.13 C 460.70 254.11 463.03 247.19 467.68 242.38 C 472.33 237.46 479.20 235.00 488.27 235.00 Z M 566.11 237.11 L 507.65 344.89 L 492.46 344.89 L 550.93 237.11 L 566.11 237.11 Z M 488.27 248.19 C 483.97 248.19 480.77 249.42 478.68 251.88 C 476.58 254.22 475.54 257.97 475.54 263.13 L 475.54 268.41 C 475.54 273.56 476.58 277.37 478.68 279.83 C 480.77 282.18 483.97 283.35 488.27 283.35 C 492.58 283.35 495.72 282.18 497.70 279.83 C 499.79 277.37 500.84 273.56 500.84 268.41 L 500.84 263.13 C 500.84 257.86 499.79 254.05 497.70 251.70 C 495.72 249.36 492.58 248.19 488.27 248.19 Z M 570.30 285.46 C 579.38 285.46 586.18 287.92 590.72 292.85 C 595.37 297.65 597.70 304.57 597.70 313.59 L 597.70 318.87 C 597.70 327.89 595.37 334.87 590.72 339.79 C 586.18 344.60 579.38 347.00 570.30 347.00 C 561.23 347.00 554.36 344.60 549.71 339.79 C 545.05 334.87 542.73 327.89 542.73 318.87 L 542.73 313.59 C 542.73 304.57 545.05 297.65 549.71 292.85 C 554.36 287.92 561.23 285.46 570.30 285.46 Z M 570.30 298.65 C 566.00 298.65 562.80 299.88 560.70 302.34 C 558.61 304.69 557.56 308.44 557.56 313.59 L 557.56 318.87 C 557.56 324.03 558.61 327.83 560.70 330.30 C 562.80 332.64 566.00 333.81 570.30 333.81 C 574.61 333.81 577.75 332.64 579.73 330.30 C 581.82 327.83 582.87 324.03 582.87 318.87 L 582.87 313.59 C 582.87 308.32 581.82 304.51 579.73 302.17 C 577.75 299.82 574.61 298.65 570.30 298.65 Z" fill="#ffffff" fill-rule="nonzero" node-id="202" stroke="none" target-height="112" target-width="137" target-x="460.701" target-y="235"></path><path d="M 203.47 556.30 L 199.61 541.25 C 197.55 533.24 207.96 520.47 207.96 520.47 L 194.66 510.04 L 184.19 524.98 L 176.46 531.26 L 201.31 557.01 L 203.47 556.30 Z" fill="#ffae64" fill-rule="nonzero" node-id="204" stroke="none" target-height="46.975037" target-width="31.503998" target-x="176.459" target-y="510.037"></path><path d="M 200.16 554.84 L 179.26 530.44 C 175.59 530.89 172.55 533.54 171.62 537.12 L 169.84 543.89 L 180.16 552.23 L 182.74 550.13 L 186.81 556.07 C 188.49 558.52 190.59 560.65 193.03 562.35 L 201.64 568.38 C 202.82 569.21 204.35 569.35 205.66 568.75 C 207.68 567.82 208.56 565.43 207.65 563.41 L 201.23 549.16 L 202.69 553.39 C 202.98 554.25 202.44 555.17 201.54 555.33 C 201.03 555.42 200.50 555.24 200.16 554.84 Z" fill="#2c2770" fill-rule="nonzero" node-id="206" stroke="none" target-height="38.90796" target-width="38.722" target-x="169.843" target-y="530.439"></path><path d="M 98.94 578.32 L 95.07 563.27 C 93.02 555.26 103.43 542.49 103.43 542.49 L 90.12 532.06 L 79.66 547.01 L 71.92 553.28 L 96.77 579.03 L 98.94 578.32 Z" fill="#ffae64" fill-rule="nonzero" node-id="208" stroke="none" target-height="46.974976" target-width="31.503906" target-x="71.9221" target-y="532.06"></path><path d="M 95.62 576.86 L 74.72 552.46 C 71.05 552.91 68.02 555.56 67.08 559.14 L 65.31 565.91 L 75.62 574.25 L 78.20 572.15 L 82.27 578.09 C 83.95 580.54 86.06 582.67 88.49 584.38 L 97.11 590.41 C 98.28 591.23 99.81 591.37 101.12 590.77 C 103.14 589.84 104.03 587.46 103.12 585.43 L 96.69 571.19 L 98.15 575.41 C 98.45 576.27 97.90 577.20 97.00 577.36 C 96.49 577.45 95.96 577.26 95.62 576.86 Z" fill="#2c2770" fill-rule="nonzero" node-id="210" stroke="none" target-height="38.90802" target-width="38.7218" target-x="65.3062" target-y="552.462"></path><path d="M 101.55 549.22 L 81.89 535.45 L 141.01 431.51 L 156.03 348.80 C 159.82 327.90 170.18 308.74 185.59 294.12 L 187.32 292.48 L 249.33 321.62 L 269.24 369.43 C 277.52 389.31 275.90 411.93 264.87 430.42 L 206.05 529.00 L 183.89 521.42 L 234.62 401.90 L 209.39 358.60 L 191.06 418.96 C 188.02 428.98 183.29 438.41 177.07 446.84 L 101.55 549.22 Z" fill="#2c2770" fill-rule="nonzero" node-id="212" stroke="none" target-height="256.73602" target-width="195.62839" target-x="81.8926" target-y="292.482"></path><path d="M 180.35 305.92 L 148.22 431.13 L 80.29 538.61" fill="none" node-id="214" stroke="#ffffff" stroke-linecap="butt" stroke-width="1" target-height="232.68903" target-width="100.060295" target-x="80.2947" target-y="305.917"></path><path d="M 209.06 360.81 L 242.11 395.55 L 184.71 521.99" fill="none" node-id="216" stroke="#ffffff" stroke-linecap="butt" stroke-width="1" target-height="161.181" target-width="57.405014" target-x="184.708" target-y="360.809"></path><path d="M 309.26 237.59 L 292.98 232.02 L 292.85 257.41 L 306.77 261.85 C 318.82 265.70 331.63 258.61 334.76 246.35 L 351.70 180.26 L 359.08 173.45 L 364.89 167.35 C 366.88 165.26 367.84 162.40 367.50 159.53 C 367.26 157.45 366.06 155.60 364.27 154.52 L 355.23 149.07 L 363.08 134.61 C 363.85 133.20 363.18 131.45 361.68 130.91 C 360.58 130.52 359.35 130.90 358.68 131.85 L 347.28 147.81 L 344.55 147.06 C 343.29 146.71 341.94 147.22 341.23 148.33 L 337.35 154.35 C 336.35 155.91 335.92 157.77 336.13 159.62 L 337.46 170.84 L 309.26 237.59 Z" fill="#ffae64" fill-rule="nonzero" node-id="218" stroke="none" target-height="135.178" target-width="74.99399" target-x="292.845" target-y="130.519"></path><path d="M 361.43 152.88 L 354.64 163.13 C 353.96 164.15 352.61 164.47 351.55 163.87 C 350.54 163.30 350.11 162.06 350.55 160.99 L 351.83 157.78" fill="none" node-id="220" stroke="#000000" stroke-linecap="butt" stroke-width="1" target-height="11.593002" target-width="11.317993" target-x="350.113" target-y="152.88"></path><path d="M 366.32 155.96 L 358.42 165.51 C 357.68 166.41 356.36 166.58 355.42 165.90 C 354.45 165.21 354.20 163.88 354.85 162.88 L 355.18 162.38" fill="none" node-id="222" stroke="#000000" stroke-linecap="butt" stroke-width="1" target-height="10.621002" target-width="12.119995" target-x="354.202" target-y="155.957"></path><path d="M 366.37 163.92 L 360.00 171.12 C 359.20 172.03 357.83 172.18 356.84 171.47 C 355.88 170.78 355.57 169.50 356.12 168.45 L 357.42 165.93" fill="none" node-id="224" stroke="#000000" stroke-linecap="butt" stroke-width="1" target-height="8.261993" target-width="10.792999" target-x="355.575" target-y="163.919"></path><path d="M 349.10 148.85 L 358.30 153.96 C 359.07 154.39 359.38 155.34 359.00 156.15 C 358.19 157.88 356.30 158.84 354.42 158.49 L 345.69 156.85 C 347.28 158.13 348.96 164.47 348.54 170.81" fill="none" node-id="226" stroke="#000000" stroke-linecap="butt" stroke-width="1" target-height="21.962997" target-width="13.690002" target-x="345.692" target-y="148.851"></path><path d="M 202.43 195.91 L 223.76 196.90 L 271.57 211.83 C 279.81 214.40 287.51 218.48 294.26 223.85 L 304.99 232.38 L 298.84 263.03 L 271.29 255.60 L 271.50 264.69 C 271.72 274.44 263.65 282.35 253.91 281.94 L 252.66 316.25 C 252.46 321.83 247.27 325.88 241.81 324.73 L 180.27 311.76 C 174.27 310.50 171.87 303.23 175.93 298.63 L 187.50 285.57 L 184.07 249.50 L 172.92 260.71 L 149.41 247.41 L 169.93 213.32 C 176.74 201.99 189.22 195.31 202.43 195.91 Z" fill="#ff8282" fill-rule="nonzero" node-id="228" stroke="none" target-height="130.574" target-width="155.578" target-x="149.414" target-y="195.306"></path><path d="M 260.12 157.32 C 263.09 148.07 261.22 141.61 251.45 137.92 C 252.88 117.47 221.78 130.51 209.46 143.50 C 199.25 154.26 187.29 145.12 166.97 149.05 C 150.09 152.31 132.10 167.27 134.57 182.24 C 141.89 226.37 196.81 188.23 218.26 189.73 C 243.69 191.50 227.99 185.06 231.72 183.15 L 243.28 178.94 C 247.25 177.50 254.67 169.11 257.88 165.09 C 261.35 161.78 257.15 166.58 260.12 157.32 Z" fill="#2c2770" fill-rule="nonzero" node-id="230" stroke="none" target-height="108.903" target-width="130.997" target-x="132.096" target-y="117.466"></path><path d="M 225.26 192.58 C 228.45 188.66 232.69 174.01 234.42 167.17 C 242.17 171.23 256.54 181.82 251.98 191.71 C 247.41 201.59 250.38 205.34 252.44 205.98 C 253.16 211.53 251.41 222.25 238.61 220.72 C 225.81 219.17 219.00 205.38 217.20 198.67 C 218.56 198.27 222.06 196.50 225.26 192.58 Z" fill="#ffae64" fill-rule="nonzero" node-id="232" stroke="none" target-height="55.08101" target-width="39.334" target-x="217.204" target-y="167.174"></path><path d="M 243.33 201.11 C 231.44 189.25 236.03 174.91 239.82 169.22 L 249.57 193.32 C 252.45 200.86 255.22 212.97 243.33 201.11 Z" fill="#d76767" fill-rule="nonzero" group-id="3" node-id="236" stroke="none" target-height="43.748993" target-width="23.787003" target-x="231.438" target-y="169.222"></path><path d="M 228.70 183.70 C 230.54 189.87 242.70 199.34 255.98 193.89 C 263.73 190.71 262.45 180.99 260.85 170.35 C 259.71 162.77 259.58 153.46 257.65 149.63 L 246.78 147.37 C 246.78 147.37 243.68 159.35 238.29 161.31 C 230.96 163.97 234.93 169.14 223.14 177.29 C 221.82 181.71 226.84 184.17 228.70 183.70 Z" fill="#ffae64" fill-rule="nonzero" node-id="239" stroke="none" target-height="51.970993" target-width="41.906998" target-x="221.825" target-y="147.369"></path><path d="M 246.93 181.63 L 254.02 182.45 C 253.91 183.46 252.94 185.07 250.63 185.13 C 248.32 185.20 247.31 183.11 246.93 181.63 Z" fill="#ffffff" fill-rule="nonzero" node-id="241" stroke="none" target-height="3.569992" target-width="7.093994" target-x="246.929" target-y="181.628"></path><path d="M 253.25 158.95 L 257.53 157.39 C 258.24 157.13 259.03 157.50 259.29 158.21 C 259.55 158.92 259.18 159.70 258.47 159.96 L 254.18 161.52 C 253.47 161.78 252.69 161.41 252.43 160.70 C 252.17 159.99 252.53 159.21 253.25 158.95 Z" fill="#2c2770" fill-rule="nonzero" node-id="243" stroke="none" target-height="4.646988" target-width="7.376007" target-x="252.169" target-y="157.13"></path><path d="M 236.10 165.18 L 240.38 163.62 C 241.09 163.36 241.88 163.73 242.14 164.44 C 242.40 165.15 242.03 165.94 241.32 166.19 L 237.03 167.75 C 236.32 168.01 235.54 167.64 235.28 166.93 C 235.02 166.22 235.39 165.44 236.10 165.18 Z" fill="#2c2770" fill-rule="nonzero" node-id="245" stroke="none" target-height="4.646988" target-width="7.375992" target-x="235.02" target-y="163.363"></path><path d="M 241.16 171.10 C 240.45 171.36 239.67 171.00 239.41 170.29 C 239.15 169.57 239.52 168.79 240.23 168.53 C 240.94 168.27 241.72 168.64 241.98 169.35 C 242.24 170.06 241.87 170.85 241.16 171.10 Z" fill="#000000" fill-rule="nonzero" node-id="247" stroke="none" target-height="3.0879974" target-width="3.0879974" target-x="239.151" target-y="168.274"></path><path d="M 249.15 162.38 L 254.76 177.81 L 250.91 179.21" fill="none" node-id="249" stroke="#000000" stroke-linecap="butt" stroke-width="1" target-height="16.834991" target-width="5.6110077" target-x="249.153" target-y="162.376"></path><path d="M 257.45 165.18 C 256.74 165.44 255.96 165.07 255.70 164.36 C 255.44 163.65 255.81 162.87 256.52 162.61 C 257.23 162.35 258.01 162.72 258.27 163.43 C 258.53 164.14 258.17 164.92 257.45 165.18 Z" fill="#000000" fill-rule="nonzero" node-id="251" stroke="none" target-height="3.0879974" target-width="3.0890045" target-x="255.442" target-y="162.352"></path><path d="M 192.49 278.65 C 194.22 288.39 193.07 303.75 192.29 310.21 L 182.81 309.55 C 184.99 295.66 184.30 281.08 183.69 275.52 C 185.90 272.50 190.77 268.90 192.49 278.65 Z" fill="#0b86df" fill-rule="nonzero" node-id="253" stroke="none" target-height="41.306" target-width="11.404007" target-x="182.812" target-y="268.902"></path><path d="M 213.30 266.05 L 170.97 263.86 L 173.21 260.51 L 149.26 246.61 L 140.53 266.17 C 136.66 274.84 143.09 284.61 152.59 284.46 L 211.75 283.58 L 218.34 286.21 C 218.53 286.29 218.73 286.35 218.94 286.39 L 227.76 288.39 C 227.84 288.41 227.91 288.43 227.99 288.46 L 240.15 293.42 C 241.16 293.83 242.32 293.42 242.83 292.46 C 243.38 291.42 242.99 290.13 241.95 289.58 L 232.77 284.70 L 244.66 288.19 C 245.54 288.45 246.47 287.98 246.79 287.12 C 247.11 286.26 246.71 285.30 245.88 284.92 L 235.24 280.06 L 248.19 282.13 C 249.22 282.30 250.21 281.66 250.47 280.65 C 250.75 279.62 250.18 278.55 249.17 278.20 L 236.00 273.70 L 249.89 275.64 C 251.24 275.82 252.44 274.76 252.42 273.40 C 252.41 272.41 251.74 271.55 250.78 271.29 L 233.30 266.53 L 241.76 265.08 C 242.99 264.88 243.81 263.71 243.59 262.48 C 243.41 261.42 242.49 260.64 241.40 260.63 L 227.35 260.52 C 225.17 260.51 223.02 261.02 221.08 262.03 L 213.30 266.05 Z" fill="#ffae64" fill-rule="nonzero" node-id="255" stroke="none" target-height="47.224" target-width="115.787994" target-x="136.656" target-y="246.611"></path><path d="M 216.11 305.86 L 141.37 300.63 C 138.99 300.47 137.01 302.46 137.20 304.84 L 139.94 339.97 C 141.36 358.02 155.77 372.31 173.82 373.57 C 191.88 374.84 208.14 362.69 212.05 345.02 L 219.66 310.61 C 220.18 308.27 218.50 306.03 216.11 305.86 Z" fill="#6b8cff" fill-rule="nonzero" node-id="257" stroke="none" target-height="74.371" target-width="83.16499" target-x="137.011" target-y="300.466"></path><path d="M 189.44 264.90 C 186.26 260.17 180.18 261.24 180.18 261.24 C 174.51 261.41 170.72 265.77 167.76 273.91 C 164.42 283.10 161.63 305.54 161.02 313.03 L 169.99 313.66 C 170.25 312.34 170.66 297.44 173.48 285.34 C 176.34 273.01 180.49 266.28 182.96 264.45 L 189.44 264.90 Z" fill="#2c2770" fill-rule="nonzero" node-id="259" stroke="none" target-height="53.496002" target-width="28.426987" target-x="161.016" target-y="260.166"></path><path d="M 815.21 106.70 L 612.23 32.83 C 608.60 31.50 604.58 33.38 603.26 37.01 L 554.01 172.33 C 552.69 175.96 554.56 179.97 558.19 181.30 L 761.17 255.17 C 764.80 256.50 768.82 254.62 770.14 250.99 L 819.39 115.67 C 820.71 112.04 818.84 108.03 815.21 106.70 Z" fill="#ffffff" fill-rule="nonzero" node-id="261" stroke="#e5e5e5" stroke-linecap="butt" stroke-width="2" target-height="224.9921" target-width="268.02502" target-x="552.688" target-y="31.5039"></path><path d="M 622.08 94.94 C 628.05 97.11 634.65 94.04 636.82 88.07 C 639.00 82.10 635.92 75.50 629.95 73.33 C 623.98 71.16 617.38 74.23 615.21 80.20 C 613.04 86.17 616.12 92.77 622.08 94.94 Z" fill="#a3b7ff" fill-rule="nonzero" node-id="263" stroke="none" target-height="25.957497" target-width="25.95697" target-x="613.038" target-y="71.1556"></path><path d="M 616.04 148.08 L 594.43 140.21 L 583.49 170.28 L 605.10 178.15 L 616.04 148.08 Z" fill="#5fffd8" fill-rule="nonzero" node-id="265" stroke="none" target-height="37.93599" target-width="32.557007" target-x="583.487" target-y="140.214"></path><path d="M 623.91 126.47 L 602.30 118.60 L 591.35 148.67 L 612.97 156.54 L 623.91 126.47 Z" fill="#1be3b3" fill-rule="nonzero" node-id="267" stroke="none" target-height="37.936005" target-width="32.557983" target-x="591.353" target-y="118.601"></path><path d="M 651.32 165.18 L 629.71 157.31 L 619.45 185.50 L 641.06 193.37 L 651.32 165.18 Z" fill="#5fffd8" fill-rule="nonzero" node-id="269" stroke="none" target-height="36.05699" target-width="31.872986" target-x="619.451" target-y="157.311"></path><path d="M 656.11 152.02 L 634.50 144.16 L 625.26 169.53 L 646.88 177.39 L 656.11 152.02 Z" fill="#1be3b3" fill-rule="nonzero" node-id="271" stroke="none" target-height="33.23799" target-width="30.846985" target-x="625.265" target-y="144.156"></path><path d="M 695.41 161.00 L 673.80 153.14 L 657.04 199.18 L 678.65 207.05 L 695.41 161.00 Z" fill="#5fffd8" fill-rule="nonzero" node-id="273" stroke="none" target-height="53.910995" target-width="38.37195" target-x="657.038" target-y="153.138"></path><path d="M 701.57 144.09 L 679.95 136.22 L 669.01 166.29 L 690.62 174.16 L 701.57 144.09 Z" fill="#1be3b3" fill-rule="nonzero" node-id="275" stroke="none" target-height="37.936996" target-width="32.557007" target-x="669.009" target-y="136.223"></path><path d="M 732.06 174.34 L 710.45 166.48 L 693.69 212.52 L 715.30 220.39 L 732.06 174.34 Z" fill="#5fffd8" fill-rule="nonzero" node-id="277" stroke="none" target-height="53.910995" target-width="38.37201" target-x="693.686" target-y="166.477"></path><path d="M 746.42 134.88 L 724.81 127.01 L 708.05 173.05 L 729.66 180.92 L 746.42 134.88 Z" fill="#1be3b3" fill-rule="nonzero" node-id="279" stroke="none" target-height="53.911003" target-width="38.37195" target-x="708.051" target-y="127.01"></path><path d="M 768.71 187.68 L 747.09 179.81 L 730.33 225.86 L 751.95 233.73 L 768.71 187.68 Z" fill="#5fffd8" fill-rule="nonzero" node-id="281" stroke="none" target-height="53.912003" target-width="38.37201" target-x="730.334" target-y="179.815"></path><path d="M 777.94 162.31 L 756.33 154.44 L 739.57 200.49 L 761.18 208.35 L 777.94 162.31 Z" fill="#1be3b3" fill-rule="nonzero" node-id="283" stroke="none" target-height="53.910995" target-width="38.37201" target-x="739.569" target-y="154.444"></path></svg>