<svg width="931" height="890" viewBox="0 0 931 890" fill="none" xmlns="http://www.w3.org/2000/svg">
<path d="M353.566 104L66.2807 269.864C34.7134 288.089 23.8976 328.454 42.123 360.022L207.987 647.307C226.212 678.874 266.577 689.69 298.145 671.464L585.43 505.6C616.997 487.375 627.813 447.01 609.587 415.443L443.723 128.158C425.498 96.5904 385.133 85.7746 353.566 104Z" fill="#F3F6FF"/>
<path d="M37.1918 511.363L49.7678 501.01C56.458 495.503 73.2058 499.715 73.2058 499.715L77.2001 482.458L58.365 479.158L48.9716 474.6L35.5557 509.62L37.1918 511.363Z" fill="#FFAE64"/>
<path d="M26.956 503.301L24.9164 514.942C24.6511 516.456 25.21 517.997 26.3844 518.99C28.1583 520.488 30.8024 520.325 32.4038 518.643C34.3393 516.61 37.2046 513.65 40.8177 510.057C47.8708 503.042 52.2153 500.405 52.2153 500.405C52.2153 500.405 50.215 495.202 51.4526 488.139C52.6901 481.075 58.5298 478.216 58.5298 478.216C51.484 473.858 43.0708 472.271 34.9218 473.765L34.0441 473.926L30.7098 487.416L32.1808 490.101L29.3102 496.017C28.1909 498.324 27.3985 500.775 26.956 503.301Z" fill="#2C2770"/>
<path d="M31.9987 627.079L29.8731 611.683C28.7423 603.492 40.5396 591.987 40.5396 591.987L28.5115 580.112L16.412 593.769L8.01123 599.125L29.7644 627.538L31.9987 627.079Z" fill="#FFAE64"/>
<path d="M20.3294 631.367L28.7703 638.845C29.8684 639.818 31.4004 640.134 32.794 639.676C34.899 638.984 36.0883 636.753 35.5221 634.611C34.8377 632.021 33.8644 628.213 32.7505 623.479C30.5759 614.24 30.6057 609.391 30.6057 609.391C30.6057 609.391 25.3765 608.415 20.2549 603.877C15.1334 599.34 15.7293 593.165 15.7293 593.165C8.66454 596.712 3.16882 602.756 0.30811 610.125L0 610.919L9.29664 620.374L12.2138 620.521L15.5866 625.812C16.9018 627.875 18.4981 629.745 20.3294 631.367Z" fill="#2C2770"/>
<path d="M39.4805 608.344L14.6926 585.526L93.6686 493.427L98.363 403.189C98.786 395.058 101.188 387.154 105.36 380.162L121.673 352.828L178.247 388.782L203.131 436.093L214.625 461.318C221.181 475.707 208.546 491.422 193.085 488.108L146.232 444.275L136.047 505.294C135.544 508.309 134.132 511.097 132 513.287L39.4805 608.344Z" fill="#2C2770"/>
<path d="M61.3945 470.332L176.029 457.011L200.815 488.637L56.7666 506.658L61.3945 470.332Z" fill="#2C2770"/>
<path d="M107.623 416.5L103.123 498L22.1233 591.5" stroke="white"/>
<path d="M147.623 436L174.623 463.5L141.123 468" stroke="white"/>
<path d="M61.6233 478L95.1231 474" stroke="white"/>
<path d="M126.518 263.639L147.862 263.132L192.216 273.652C203.438 276.314 215.143 276.162 226.292 273.209L230.426 272.114L233.11 307.637L199.039 321.009L191.068 336.669L189.519 380.803C189.137 391.687 178.762 399.41 168.226 396.653L108.643 381.062C104.629 380.011 102.084 376.066 102.783 371.976L111.936 318.374L101.597 330.34L77.2239 318.708L95.306 283.268C101.316 271.489 113.299 263.953 126.518 263.639Z" fill="#FFE071"/>
<path d="M149.056 258.719C151.967 254.587 155.182 239.676 156.425 232.737C164.443 236.246 179.512 245.808 175.65 255.984C171.788 266.16 175.012 269.698 177.106 270.195C178.218 275.683 177.222 286.498 164.341 285.855C151.461 285.211 143.713 271.919 141.448 265.354C142.771 264.864 146.145 262.851 149.056 258.719Z" fill="#FF9330"/>
<path d="M137.017 244.801C138.548 252.969 147.346 253.409 154.847 248.859L166.088 243.86C169.942 242.145 176.76 233.256 179.687 229.026C182.917 225.474 185.481 226.698 187.801 217.257C190.121 207.816 183.928 197.029 174.89 194.016C165.852 191.004 164.561 197.029 151.219 195.308C140.972 193.985 134.864 198.32 134.865 209.08C134.865 216.604 124.38 217.392 127.118 229.026C128.839 236.342 135.725 237.915 137.017 244.801Z" fill="#2C2770"/>
<mask id="mask0" mask-type="alpha" maskUnits="userSpaceOnUse" x="141" y="232" width="36" height="54">
<path d="M149.122 257.969C152.141 253.988 155.798 239.374 157.25 232.564C165.099 236.303 179.76 246.26 175.608 256.177C171.456 266.093 174.546 269.697 176.61 270.259C177.542 275.716 176.214 286.362 163.448 285.287C150.681 284.211 143.404 270.822 141.362 264.261C142.691 263.823 146.103 261.95 149.122 257.969Z" fill="white"/>
</mask>
<g mask="url(#mask0)">
<path d="M167.683 265.971C154.991 254.971 158.575 240.343 161.953 234.404L173.367 257.765C176.76 265.084 180.374 276.971 167.683 265.971Z" fill="#D76767"/>
</g>
<path d="M152.75 250.721C155.014 256.751 166.929 264.247 179.796 257.884C187.308 254.17 185.35 244.564 183.014 234.062C181.348 226.575 180.721 218.086 177.607 213.436L164.413 214.826C166.935 216.263 171.506 218.069 166.264 220.4C161.077 222.707 155.417 223.305 152.782 222.557C154.584 229.433 149.629 230.997 151.054 234.202L155.093 243.281C151.089 245.574 148.537 241.719 147.762 239.505C145.54 239.213 141.712 240.02 144.183 245.575C146.653 251.129 150.924 251.32 152.75 250.721Z" fill="#FF9330"/>
<path d="M169.913 246.282L177.046 246.605C177 247.624 176.148 249.3 173.851 249.523C171.553 249.746 170.392 247.733 169.913 246.282Z" fill="white"/>
<path d="M174.631 223.216L178.799 221.362C179.489 221.055 180.298 221.366 180.605 222.056C180.912 222.747 180.601 223.556 179.911 223.863L175.743 225.717C175.052 226.024 174.244 225.713 173.937 225.022C173.629 224.332 173.94 223.523 174.631 223.216Z" fill="#2C2770"/>
<path d="M157.96 230.631L162.128 228.777C162.818 228.47 163.627 228.781 163.934 229.471C164.241 230.162 163.93 230.971 163.24 231.278L159.072 233.132C158.381 233.439 157.573 233.128 157.266 232.437C156.958 231.747 157.269 230.938 157.96 230.631Z" fill="#2C2770"/>
<path d="M163.426 236.187C162.736 236.495 161.927 236.184 161.62 235.493C161.313 234.803 161.623 233.994 162.314 233.687C163.005 233.38 163.813 233.69 164.12 234.381C164.428 235.072 164.117 235.88 163.426 236.187Z" fill="black"/>
<path d="M170.788 226.922L177.461 241.927L173.71 243.595" stroke="black"/>
<path d="M179.264 229.143C178.574 229.451 177.765 229.14 177.458 228.449C177.151 227.759 177.461 226.95 178.152 226.643C178.843 226.336 179.651 226.646 179.958 227.337C180.266 228.027 179.955 228.836 179.264 229.143Z" fill="black"/>
<path d="M102.21 330.927L76.69 318.548L95.7765 282.502C102.082 270.594 114.362 263.055 127.834 262.821L141.523 262.584L157.462 283.707C160.206 286.256 165.431 295.045 164.375 309.807C163.055 328.26 151.906 407.247 137.876 418.722C128.045 426.762 100.131 413.269 79.3197 406.678C76.0671 405.647 75.1241 401.138 77.6492 398.844C105.288 373.728 108.69 340.137 111.15 319.766L102.21 330.927Z" fill="#0B86DF"/>
<path d="M282.911 210.386L284.737 181.503C284.955 178.056 284.823 176.951 287.197 174.443L291.986 169.384C292.613 168.722 293.718 168.95 294.03 169.807C294.975 172.398 294.585 175.288 292.988 177.536L291.303 181.503L291.986 188.699L295.439 182.223C296.572 180.098 300.387 176.352 302.59 175.38L306.096 173.834C307.272 173.315 308.477 174.504 307.973 175.687L307.419 176.989C307.009 177.95 306.352 178.784 305.514 179.407C303.098 181.203 299.335 185.804 298.498 188.696L296.973 193.96L300.213 190.555C302.096 188.577 307.732 183.609 310.221 182.486L310.803 182.223C311.697 181.82 312.684 182.564 312.541 183.535L312.482 183.929C312.319 185.039 311.767 186.055 310.925 186.797C310.021 187.593 302.59 192.884 301.803 198.884L310.321 194.199C311.07 193.787 312.006 194.196 312.213 195.025C312.566 196.438 311.989 197.919 310.802 198.764C307.761 200.929 302.349 205.075 302.59 206.997C303.209 211.935 301.844 215.884 296.973 218.384L269.694 271.313C262.068 286.108 248.978 297.351 233.2 302.656L226.103 305.042L224.123 276.083L236.661 270.694L282.911 210.386Z" fill="#FF9330"/>
<path d="M299.777 187.994L289.511 192.425L283.862 209.979L292.235 210.619C294.916 210.218 300.291 212.146 300.602 209.366C300.992 205.892 288.56 198.977 296.297 196.109C299.769 194.823 301.74 192.609 302.791 190.5C303.738 188.601 301.726 187.153 299.777 187.994Z" fill="#FF9330"/>
<path d="M284.803 207.884L288.064 195.925C288.839 193.083 290.966 190.806 293.748 189.838L300.325 187.55C300.617 187.449 300.942 187.523 301.16 187.742C302.498 189.079 302.212 191.32 300.582 192.279L295.303 195.384C296.136 198.717 297.303 206.284 295.303 209.884" stroke="black"/>
<path d="M190.584 338.649C192.071 313.014 183.293 282.477 178.591 269.929C204.053 278.185 222.524 275.017 231.248 271.5L234.053 307.481L199.666 320.209C203.138 343.083 205.387 365.245 196.691 402.721C194.092 413.923 190.225 417.364 176.663 418.887C163.101 420.41 188.726 370.693 190.584 338.649Z" fill="#0B86DF"/>
<path d="M146.923 353.661L175.074 312.439C175.666 311.571 176.83 311.31 177.736 311.841L208.154 329.665C209.169 330.26 209.454 331.599 208.768 332.556L179.625 373.197C179.023 374.037 177.881 374.28 176.989 373.757L147.563 356.515C146.563 355.929 146.269 354.618 146.923 353.661Z" fill="#2C2770"/>
<path d="M142.25 332.843L101.526 330.073L77.0124 317.921L69.6683 338.037C66.41 346.961 73.5138 356.253 82.9805 355.448L141.929 350.44L148.685 352.603C148.884 352.667 149.089 352.715 149.297 352.747L158.239 354.123C158.316 354.135 158.392 354.153 158.467 354.177L170.952 358.279C171.987 358.619 173.111 358.121 173.555 357.126C174.032 356.055 173.551 354.8 172.48 354.323L162.978 350.088L175.078 352.746C175.978 352.943 176.878 352.41 177.136 351.525C177.392 350.645 176.927 349.716 176.069 349.395L165.116 345.29L178.179 346.455C179.217 346.548 180.158 345.84 180.356 344.816C180.558 343.767 179.914 342.74 178.881 342.465L165.431 338.891L179.424 339.856C180.786 339.95 181.911 338.807 181.794 337.446C181.71 336.459 180.982 335.646 180.01 335.453L162.235 331.931L166.408 326.022L154.646 326.481C153.285 326.534 151.961 326.933 150.798 327.641L142.25 332.843Z" fill="#FF9330"/>
<path d="M620.151 749.206L634.049 742.247C641.442 738.544 644.253 722.307 644.253 722.307L660.85 725.505L656.436 743.209L656.774 753.166L621.038 751.308L620.151 749.206Z" fill="#FFAE64"/>
<path d="M623.432 750.748L655.555 750.512C657.627 753.582 657.616 757.607 655.527 760.667L651.582 766.445L638.526 764.131L638.413 760.811L631.261 761.633C628.31 761.972 625.321 761.778 622.438 761.059L612.234 758.515C610.837 758.167 609.731 757.103 609.328 755.721C608.706 753.589 609.92 751.354 612.048 750.713L627.009 746.215L622.865 747.892C622.021 748.233 621.682 749.248 622.151 750.028C622.421 750.478 622.908 750.751 623.432 750.748Z" fill="#2C2770"/>
<path d="M672.113 842.55L686.011 835.59C693.404 831.888 696.214 815.65 696.214 815.65L712.811 818.848L708.397 836.552L708.735 846.509L672.999 844.651L672.113 842.55Z" fill="#FFAE64"/>
<path d="M675.394 844.091L707.516 843.855C709.589 846.926 709.578 850.951 707.489 854.01L703.544 859.788L690.488 857.474L690.375 854.154L683.223 854.976C680.271 855.315 677.282 855.122 674.4 854.403L664.195 851.859C662.799 851.51 661.692 850.446 661.29 849.065C660.668 846.932 661.881 844.697 664.009 844.057L678.971 839.559L674.827 841.235C673.982 841.576 673.643 842.591 674.113 843.372C674.382 843.821 674.87 844.094 675.394 844.091Z" fill="#2C2770"/>
<path d="M692.364 821.48L715.651 827.286L755.312 714.48L807.881 648.885C821.168 632.304 828.829 611.922 829.752 590.694L829.857 588.317L767.184 560.635L718.037 576.972C697.605 583.763 681.597 599.83 674.88 620.287L639.07 729.35L659.329 741.1L716.251 624.405L765.48 615.036L731.949 668.467C726.38 677.34 722.368 687.099 720.086 697.322L692.364 821.48Z" fill="#2C2770"/>
<path d="M824.286 602.387L750.865 708.785L714.319 830.561" stroke="white"/>
<path d="M764.025 616.734L716.123 614.582L658.359 740.858" stroke="white"/>
<path d="M760.19 490.182L777.392 489.913L769.68 514.1L755.067 514.022C742.416 513.955 732.426 503.256 733.228 490.629L737.549 422.537L732.636 413.779L728.99 406.187C727.74 403.586 727.716 400.563 728.924 397.943C729.799 396.042 731.505 394.652 733.543 394.178L743.833 391.783L740.825 375.603C740.533 374.032 741.711 372.57 743.309 372.523C744.473 372.488 745.519 373.231 745.87 374.342L751.777 393.047L754.603 393.171C755.915 393.228 757.037 394.133 757.372 395.403L759.198 402.33C759.672 404.126 759.506 406.031 758.729 407.717L754.001 417.98L760.19 490.182Z" fill="#FFAE64"/>
<path d="M736.752 393.491L740.046 405.343C740.373 406.52 741.555 407.242 742.751 406.996C743.888 406.762 744.678 405.724 744.6 404.566L744.368 401.121" stroke="black"/>
<path d="M731.149 394.907L735.713 406.433C736.143 407.518 737.339 408.085 738.451 407.731C739.582 407.37 740.229 406.183 739.92 405.037L739.764 404.461" stroke="black"/>
<path d="M728.646 402.464L732.475 411.275C732.961 412.392 734.213 412.961 735.374 412.59C736.496 412.232 737.186 411.106 736.996 409.945L736.536 407.14" stroke="black"/>
<path d="M749.723 393.469L739.399 395.483C738.529 395.652 737.94 396.467 738.052 397.346C738.292 399.246 739.786 400.743 741.686 400.989L750.496 402.128C748.588 402.856 745.027 408.367 743.473 414.532" stroke="black"/>
<path d="M877.986 517.804L871.364 511.787L845.033 495.61C831.551 487.326 815.659 483.856 799.951 485.763L770.008 489.4L766.751 516.929L792.218 518.126L789.188 522.058C784.716 527.858 784.822 535.973 789.444 541.654L767.406 561.378C763.416 564.95 763.993 571.357 768.557 574.157L822.628 607.343C827.236 610.172 833.266 607.707 834.574 602.46L840.763 577.638L857.623 566.898L856.493 592.012L881.945 601.043L889.404 549.616C891.122 537.774 886.842 525.851 877.986 517.804Z" fill="#1BE3B3"/>
<mask id="mask1" mask-type="alpha" maskUnits="userSpaceOnUse" x="764" y="483" width="133" height="125">
<path d="M889.203 527.73L874.482 508.749L836.597 490.311C825.851 485.081 813.943 482.689 802.011 483.363L769.67 485.194L764.812 518.507L792.303 515.721L789.444 541.654L767.501 561.294C763.482 564.89 764.101 571.351 768.728 574.12L822.915 606.543C827.524 609.3 833.486 606.824 834.785 601.613L840.763 577.638L857.976 566.47L856.493 592.012L881.944 601.043L894.99 560.924C898.678 549.583 896.51 537.153 889.203 527.73Z" fill="white"/>
</mask>
<g mask="url(#mask1)">
<path d="M814.513 491.222L875.242 537.015" stroke="#FFE071" stroke-width="3"/>
<path d="M801.372 504.762L867.336 554.749" stroke="#FFE071" stroke-width="3"/>
<path d="M787.464 517.114L856.765 569.26" stroke="#FFE071" stroke-width="3"/>
<path d="M776.341 540.293L853.406 595.737" stroke="#FFE071" stroke-width="3"/>
<path d="M759.636 556.135L851.713 617.876" stroke="#FFE071" stroke-width="3"/>
</g>
<path d="M898.409 460.5C900.677 451.736 893.07 447.311 888.982 446.194C887.326 444.027 885.046 437.083 875.394 434.766C865.743 432.45 853.235 433.531 851.189 446.309C851.189 446.309 840.034 468.053 856.734 474.674C854.656 479.916 857.148 511.712 863.465 495.78C869.782 479.847 862.79 490.963 878.149 483.165C885.577 483.421 895.576 471.456 898.409 460.5Z" fill="#2C2770"/>
<path d="M890.804 448.53C899.275 451.888 908.865 447.743 912.223 439.272C915.582 430.801 911.437 421.211 902.966 417.853C894.495 414.494 884.905 418.639 881.546 427.11C878.188 435.581 882.333 445.171 890.804 448.53Z" fill="#2C2770"/>
<path d="M888.264 467.047L886.712 470.962C888.624 471.217 892.139 472.509 890.898 475.641C889.345 479.555 885.701 481.131 883.609 478.791C881.658 482.724 876.287 489.884 868.454 490.652C867.472 493.811 866.408 498.483 866.738 502.301C867.171 507.303 870.413 510.804 871.981 511.928C868.164 513.939 858.443 517.131 850.092 513.82C841.741 510.508 837.718 501.867 836.751 497.96C838.228 498.043 842.276 497.735 846.649 495.845C850.091 494.358 852.886 488.683 854.464 484.342C850.488 478.545 851.734 470.574 852.293 466.375C850.381 466.12 846.971 464.567 848.626 460.392C850.281 456.216 854.264 457.594 855.398 458.546L856.949 454.632C859.387 456.102 866.24 458.618 874.159 456.925C882.078 455.233 884.402 453.94 884.574 453.505C883.712 455.68 883.084 460.064 884.08 462.369C885.655 466.013 887.567 466.268 888.264 467.047Z" fill="#FFAE64"/>
<path d="M870.256 480.578L863.143 481.192C863.231 482.209 864.15 483.849 866.455 483.977C868.759 484.105 869.837 482.047 870.256 480.578Z" fill="white"/>
<path d="M864.596 457.724L860.356 456.043C859.653 455.764 858.858 456.108 858.579 456.811C858.301 457.513 858.644 458.309 859.347 458.587L863.587 460.268C864.29 460.547 865.085 460.203 865.364 459.501C865.642 458.798 865.299 458.003 864.596 457.724Z" fill="#2C2770"/>
<path d="M881.558 464.449L877.318 462.768C876.615 462.489 875.82 462.833 875.541 463.535C875.263 464.238 875.606 465.033 876.309 465.312L880.55 466.993C881.252 467.272 882.047 466.928 882.326 466.225C882.605 465.523 882.261 464.727 881.558 464.449Z" fill="#2C2770"/>
<path d="M876.324 470.225C877.027 470.503 877.822 470.16 878.101 469.457C878.379 468.755 878.036 467.959 877.333 467.681C876.63 467.402 875.835 467.746 875.556 468.448C875.278 469.151 875.622 469.946 876.324 470.225Z" fill="black"/>
<path d="M868.589 461.27L862.536 476.535L866.352 478.048" stroke="black"/>
<path d="M860.21 463.836C860.913 464.115 861.708 463.771 861.987 463.069C862.265 462.366 861.921 461.571 861.219 461.292C860.516 461.013 859.721 461.357 859.442 462.06C859.164 462.762 859.507 463.558 860.21 463.836Z" fill="black"/>
<path d="M887.941 474.34C887.973 475.498 887.239 477.595 884.052 476.724" stroke="black"/>
<path d="M851.689 459.967C850.873 460.789 849.97 462.819 852.888 464.368" stroke="black"/>
<mask id="mask2" mask-type="alpha" maskUnits="userSpaceOnUse" x="836" y="453" width="56" height="63">
<path d="M888.264 467.047L886.712 470.962C888.624 471.217 892.139 472.509 890.898 475.641C889.345 479.555 885.701 481.131 883.609 478.791C881.658 482.724 876.287 489.884 868.454 490.652C867.472 493.811 866.408 498.483 866.738 502.301C867.171 507.303 870.413 510.804 871.981 511.928C868.164 513.939 858.443 517.131 850.092 513.82C841.741 510.508 837.718 501.867 836.751 497.96C838.228 498.043 842.276 497.735 846.649 495.845C850.091 494.358 852.886 488.683 854.464 484.342C850.488 478.545 851.734 470.574 852.293 466.375C850.381 466.12 846.971 464.567 848.626 460.392C850.281 456.216 854.264 457.594 855.398 458.546L856.949 454.632C859.387 456.102 866.24 458.618 874.159 456.925C882.078 455.233 884.402 453.94 884.574 453.505C883.712 455.68 883.084 460.064 884.08 462.369C885.655 466.013 887.567 466.268 888.264 467.047Z" fill="white"/>
</mask>
<g mask="url(#mask2)">
<path d="M853.492 483.255C854.343 484.41 857.234 487.681 860.966 489.161C864.507 490.566 868.274 490.733 869.517 490.671L869.694 490.659C869.643 490.664 869.583 490.668 869.517 490.671L849.538 491.992L853.492 483.255Z" fill="#FF8282"/>
</g>
<path d="M810.58 597.424L768.147 614.67L705.427 574.813L751.012 557.322L810.58 597.424Z" fill="#DAE2FF"/>
<path d="M808.638 594.878L767.417 611.397L703.485 572.268L749.07 554.776L808.638 594.878Z" fill="#6B8CFF"/>
<path d="M711.683 514.023L775.277 552.121C776.841 553.059 777.771 554.774 777.703 556.596L775.664 611.391L769.359 613.942L708.947 577.667C707.48 576.786 706.566 575.218 706.522 573.507L705.025 514.422L711.683 514.023Z" fill="#DAE2FF"/>
<path d="M706.528 514.711L771.491 553.648C773.059 554.587 773.989 556.307 773.917 558.133L771.871 610.086C771.722 613.868 767.587 616.12 764.328 614.192L705.298 579.254C703.76 578.344 702.825 576.682 702.845 574.896L703.5 516.404C703.517 514.86 705.204 513.917 706.528 514.711Z" fill="#6B8CFF"/>
<path d="M730.934 568.679C728.942 565.232 729.841 560.985 732.943 559.192C736.045 557.399 740.175 558.74 742.167 562.187C744.159 565.633 743.259 569.881 740.157 571.674C737.055 573.466 732.925 572.126 730.934 568.679Z" fill="#DAE2FF"/>
<path d="M817.952 581.877L856.374 595.632L857.459 591.28L879.67 597.265L878.959 602.34C877.31 614.084 864.954 621.052 854.052 616.387L812.559 598.63L805.467 598.49C805.257 598.486 805.048 598.465 804.841 598.428L795.935 596.834C795.858 596.821 795.78 596.813 795.702 596.812L782.56 596.651C781.471 596.638 780.569 595.803 780.472 594.718C780.366 593.55 781.229 592.518 782.397 592.414L792.758 591.482L780.448 590.08C779.533 589.975 778.855 589.18 778.897 588.258C778.94 587.344 779.68 586.615 780.596 586.589L792.288 586.251L779.551 583.124C778.538 582.876 777.879 581.901 778.023 580.868C778.17 579.81 779.113 579.047 780.178 579.122L794.061 580.096L780.496 576.474C779.184 576.123 778.494 574.686 779.041 573.443C779.444 572.531 780.406 572.001 781.392 572.146L802.198 575.237L799.67 573.148C798.425 572.121 797.632 570.648 797.459 569.043C797.388 568.386 798.038 567.887 798.655 568.125L808.284 571.844C809.554 572.335 810.678 573.142 811.549 574.188L817.952 581.877Z" fill="#FFAE64"/>
<path d="M558.618 236H319.417C312.657 236 307.177 241.48 307.177 248.24V690.76C307.177 697.52 312.657 703 319.417 703H558.618C565.378 703 570.858 697.52 570.858 690.76V248.24C570.858 241.48 565.378 236 558.618 236Z" fill="#706AC7"/>
<path d="M577.958 236H342.837C334.95 236 328.557 242.393 328.557 250.28V688.72C328.557 696.607 334.95 703 342.837 703H577.958C585.844 703 592.237 696.607 592.237 688.72V250.28C592.237 242.393 585.844 236 577.958 236Z" fill="#CFCCFF"/>
<path d="M335.683 249.227C335.683 246.417 337.962 244.139 340.774 244.139H393.958C396.225 244.139 398.219 245.638 398.848 247.814L401.12 255.669C401.749 257.845 403.743 259.343 406.01 259.343H512.922C515.066 259.343 516.981 258 517.709 255.985L520.776 247.498C521.505 245.483 523.42 244.139 525.564 244.139H579.003C581.814 244.139 584.093 246.417 584.093 249.227V684.686C584.093 687.495 581.814 689.773 579.003 689.773H340.774C337.962 689.773 335.683 687.495 335.683 684.686V249.227Z" fill="#282F48"/>
<mask id="mask3" mask-type="alpha" maskUnits="userSpaceOnUse" x="335" y="244" width="249" height="446">
<path d="M335.683 249.227C335.683 246.417 337.962 244.139 340.774 244.139H393.699C395.968 244.139 397.964 245.64 398.591 247.82L400.85 255.663C401.478 257.842 403.473 259.343 405.742 259.343H512.175C514.322 259.343 516.238 257.997 516.965 255.978L520.016 247.504C520.742 245.486 522.658 244.139 524.806 244.139H577.985C580.795 244.139 583.075 246.417 583.075 249.227V684.686C583.075 687.495 580.795 689.773 577.985 689.773H340.774C337.962 689.773 335.683 687.495 335.683 684.686V249.227Z" fill="white"/>
</mask>
<g mask="url(#mask3)">
<path d="M521.989 502.058C532.127 392.582 595.834 365.552 626.42 365.722L662.92 354.022L675.087 788.973H397.786L320.412 695.369C341.792 570.225 511.85 611.533 521.989 502.058Z" fill="#2F3B67"/>
</g>
<path d="M335.683 244.139H397.277L458.87 365.213H397.277L335.683 244.139Z" fill="#5FFFD8"/>
<path d="M396.768 244.139H458.361L519.954 365.213H458.361L396.768 244.139Z" fill="#54B7FF"/>
<path d="M457.852 244.139H519.445L581.039 365.213H519.445L457.852 244.139Z" fill="#5FFFD8"/>
<path d="M518.936 244.139H580.53L642.123 365.213H580.53L518.936 244.139Z" fill="#54B7FF"/>
<path d="M335.683 364.705L397.786 365.213L335.683 244.139V364.705Z" fill="#706AC7"/>
<path d="M642.123 365.214C642.123 382.633 628.449 396.754 611.581 396.754C594.712 396.754 581.039 382.633 581.039 365.214H642.123Z" fill="#6B8CFF"/>
<path d="M581.039 365.214C581.039 382.633 567.365 396.754 550.497 396.754C533.628 396.754 519.954 382.633 519.954 365.214H581.039Z" fill="#1BE3B3"/>
<path d="M519.954 365.214C519.954 382.633 506.281 396.754 489.412 396.754C472.544 396.754 458.87 382.633 458.87 365.214H519.954Z" fill="#6B8CFF"/>
<path d="M458.87 365.214C458.87 382.633 445.196 396.754 428.328 396.754C411.459 396.754 397.786 382.633 397.786 365.214H458.87Z" fill="#1BE3B3"/>
<path d="M318.376 291.962C318.376 289.15 316.097 286.871 313.286 286.871C310.474 286.871 308.195 289.15 308.195 291.962V417.099C308.195 419.911 310.474 422.19 313.286 422.19C316.097 422.19 318.376 419.911 318.376 417.099V291.962Z" fill="#CFCCFF"/>
<path d="M314.304 291.962C314.304 289.15 312.025 286.871 309.213 286.871C306.402 286.871 304.123 289.15 304.123 291.962V417.099C304.123 419.911 306.402 422.19 309.213 422.19C312.025 422.19 314.304 419.911 314.304 417.099V291.962Z" fill="#2F3B67"/>
<path d="M578.405 491.897C581.802 486.86 588.639 485.531 593.676 488.929L639.273 519.684C644.309 523.081 645.638 529.918 642.241 534.955L599.183 598.791C595.786 603.827 588.949 605.156 583.913 601.759L538.316 571.003C533.279 567.606 531.95 560.769 535.347 555.733L578.405 491.897Z" fill="#A3BAFF"/>
<path d="M574.688 515.515C575.151 514.828 576.021 514.605 576.632 515.017L597.634 529.183C598.245 529.595 598.364 530.486 597.901 531.172C597.437 531.859 596.567 532.082 595.956 531.67L574.954 517.504C574.344 517.092 574.224 516.202 574.688 515.515Z" fill="#2C2770"/>
<path d="M570.089 522.472C570.552 521.785 571.415 521.557 572.016 521.963L587.25 532.238C587.851 532.643 587.962 533.529 587.499 534.215C587.036 534.902 586.173 535.13 585.572 534.725L570.339 524.45C569.738 524.044 569.626 523.159 570.089 522.472Z" fill="#2C2770"/>
<path d="M630.01 529.043L587.729 500.525C586.813 499.907 585.57 500.149 584.953 501.064L581.038 506.868C580.421 507.783 580.662 509.026 581.578 509.644L623.859 538.163C624.775 538.781 626.018 538.539 626.635 537.623L630.55 531.82C631.167 530.904 630.926 529.661 630.01 529.043Z" fill="#1BE3B3"/>
<path d="M574.225 538.632L565.935 533.04L546.363 562.056L554.653 567.648L574.225 538.632Z" fill="#FAFAFA"/>
<path d="M558.02 544.843L566.311 550.435L554.568 567.845L546.277 562.253L558.02 544.843Z" fill="#1BE3B3"/>
<path d="M591.225 549.632L582.935 544.04L563.363 573.056L571.653 578.648L591.225 549.632Z" fill="#FAFAFA"/>
<path d="M607.225 560.632L598.935 555.04L579.363 584.056L587.653 589.648L607.225 560.632Z" fill="#FAFAFA"/>
<path d="M570.063 562.245L578.354 567.836L570.525 579.443L562.235 573.851L570.063 562.245Z" fill="#1BE3B3"/>
<path d="M593.139 564.185L601.429 569.777L587.449 590.503L579.159 584.911L593.139 564.185Z" fill="#1BE3B3"/>
<path d="M450.377 705.058C459.229 703.371 467.772 709.18 469.459 718.031C471.146 726.883 465.337 735.426 456.486 737.113C447.634 738.8 439.091 732.991 437.404 724.14C435.717 715.288 441.526 706.745 450.377 705.058Z" fill="#54B7FF"/>
<path d="M426.924 673.496C442.144 670.596 456.832 680.582 459.732 695.801C462.632 711.021 452.646 725.709 437.427 728.609C422.208 731.509 407.519 721.523 404.619 706.304C401.719 691.085 411.705 676.396 426.924 673.496Z" stroke="#7268F5"/>
<path d="M323.593 130.643C319.455 121.77 320.909 111.303 327.302 103.934C329.779 101.08 332.878 98.8357 336.361 97.3751L518.812 20.8596C530.703 15.8727 544.452 20.8605 550.449 32.337L620.406 166.204C622.031 169.31 622.941 172.738 623.073 176.238C623.427 185.663 618.125 194.365 609.609 198.336L423.096 285.308C410.675 291.1 395.889 285.683 390.073 273.209L323.593 130.643Z" fill="#FEB1B1"/>
<path d="M331.802 126.952C325.991 114.49 331.386 99.6742 343.852 93.8609L522.565 10.5259C535.031 4.71297 549.849 10.1029 555.66 22.5655L622.098 165.041C627.909 177.503 622.513 192.319 610.047 198.132L431.334 281.467C418.868 287.28 404.051 281.89 398.24 269.428L331.802 126.952Z" fill="#FF8282"/>
<path d="M423.825 283.865C423.795 283.868 423.765 283.872 423.735 283.877C611.811 193.726 570.768 63.9282 526.273 9.90007L527.834 9.17211C539.003 6.65901 550.797 12.1358 555.826 22.9211L622.174 165.205C626.874 175.285 624.225 186.909 616.426 194.053L423.825 283.865Z" fill="#EE7171"/>
<path fill-rule="evenodd" clip-rule="evenodd" d="M519.126 33.6181L361.034 107.337C354.375 110.443 351.488 118.347 354.586 124.991L391.988 205.199C395.087 211.844 402.997 214.713 409.656 211.608L567.748 137.889C574.407 134.783 577.295 126.879 574.196 120.234L536.794 40.0262C533.696 33.3816 525.785 30.5128 519.126 33.6181ZM360.411 106.001C353.011 109.451 349.804 118.233 353.247 125.616L390.648 205.824C394.091 213.207 402.88 216.395 410.28 212.945L568.371 139.226C575.771 135.775 578.978 126.993 575.535 119.61L538.133 39.4018C534.691 32.0188 525.902 28.8306 518.502 32.2813L360.411 106.001Z" fill="white"/>
<path d="M394.981 108.637L375.043 117.935L411.388 195.877L431.327 186.58L394.981 108.637Z" fill="#FFA3A3"/>
<path d="M391.525 153.281L411.464 143.983L431.327 186.58L411.388 195.877L391.525 153.281Z" fill="white"/>
<path d="M436.672 89.1969L416.733 98.4945L453.078 176.437L473.017 167.139L436.672 89.1969Z" fill="#FFA3A3"/>
<path d="M476.549 70.6017L456.61 79.8993L492.956 157.842L512.894 148.544L476.549 70.6017Z" fill="#FFA3A3"/>
<path d="M516.427 52.0065L496.488 61.3041L532.833 139.247L552.772 129.949L516.427 52.0065Z" fill="#FFA3A3"/>
<path d="M439.977 148.341L459.916 139.044L473.017 167.139L453.078 176.437L439.977 148.341Z" fill="white"/>
<path d="M469.289 107.089L489.228 97.7909L512.894 148.544L492.956 157.842L469.289 107.089Z" fill="white"/>
<path d="M502.405 73.9924L522.343 64.6948L552.772 129.949L532.833 139.247L502.405 73.9924Z" fill="white"/>
<path d="M536.143 181.838C535.443 180.336 536.074 178.56 537.551 177.872L588.391 154.165C589.869 153.475 591.634 154.134 592.334 155.636C593.035 157.138 592.405 158.913 590.927 159.602L540.087 183.309C538.61 183.998 536.844 183.34 536.143 181.838Z" fill="white"/>
<path d="M543.75 198.152C543.05 196.65 543.675 194.876 545.145 194.191L582.417 176.811C583.887 176.125 585.647 176.787 586.347 178.289C587.047 179.79 586.423 181.563 584.953 182.249L547.68 199.629C546.211 200.314 544.451 199.654 543.75 198.152Z" fill="white"/>
<path d="M450.248 247.269C457.005 244.119 459.929 236.086 456.778 229.329C453.627 222.572 445.595 219.648 438.837 222.799C432.08 225.95 429.157 233.982 432.308 240.74C435.458 247.497 443.491 250.42 450.248 247.269Z" fill="white"/>
<path fill-rule="evenodd" clip-rule="evenodd" d="M491.849 222.905C496.354 220.804 498.303 215.449 496.203 210.946C494.102 206.44 488.747 204.491 484.242 206.592C479.737 208.693 477.788 214.048 479.889 218.553C481.989 223.057 487.344 225.006 491.849 222.905ZM493.751 226.984C500.508 223.833 503.432 215.801 500.281 209.044C497.129 202.285 489.097 199.362 482.34 202.513C475.583 205.664 472.659 213.696 475.811 220.455C478.961 227.212 486.993 230.135 493.751 226.984Z" fill="white"/>
</svg>
