<?xml version="1.0" standalone="no"?><!DOCTYPE svg PUBLIC "-//W3C//DTD SVG 1.1//EN" "http://www.w3.org/Graphics/SVG/1.1/DTD/svg11.dtd"><svg height="555" node-id="1" sillyvg="true" template-height="555" template-width="993" version="1.1" viewBox="0 0 993 555" width="993" xmlns="http://www.w3.org/2000/svg" xmlns:xlink="http://www.w3.org/1999/xlink"><defs node-id="119"><linearGradient gradientUnits="userSpaceOnUse" id="paint0_linear" node-id="115" spreadMethod="pad" x1="631.998" x2="623.296" y1="97.0029" y2="105.686"><stop offset="0" stop-color="#fff465"></stop><stop offset="1" stop-color="#ffe600"></stop></linearGradient><mask height="38" id="mask0" maskUnits="userSpaceOnUse" node-id="6" width="38" x="250" y="158"><path d="M 259.79 193.63 C 268.80 198.63 280.17 195.37 285.17 186.35 C 290.17 177.33 286.91 165.96 277.89 160.97 C 268.87 155.97 257.51 159.22 252.51 168.24 C 247.51 177.26 250.77 188.63 259.79 193.63 Z M 262.89 188.03 C 268.82 191.31 276.28 189.17 279.57 183.24 C 282.86 177.32 280.71 169.85 274.79 166.56 C 268.86 163.28 261.39 165.42 258.11 171.35 C 254.82 177.27 256.96 184.74 262.89 188.03 Z" fill="#ffffff" fill-rule="nonzero" node-id="128" stroke="none" target-height="42.66101" target-width="42.660995" target-x="247.507" target-y="155.965"></path></mask><mask height="38" id="mask1" maskUnits="userSpaceOnUse" node-id="10" width="38" x="250" y="158"><path d="M 259.79 193.63 C 268.80 198.63 280.17 195.37 285.17 186.35 C 290.17 177.33 286.91 165.96 277.89 160.97 C 268.87 155.97 257.51 159.22 252.51 168.24 C 247.51 177.26 250.77 188.63 259.79 193.63 Z M 262.89 188.03 C 268.82 191.31 276.28 189.17 279.57 183.24 C 282.86 177.32 280.71 169.85 274.79 166.56 C 268.86 163.28 261.39 165.42 258.11 171.35 C 254.82 177.27 256.96 184.74 262.89 188.03 Z" fill="#ffffff" fill-rule="nonzero" node-id="132" stroke="none" target-height="42.66101" target-width="42.660995" target-x="247.507" target-y="155.965"></path></mask><mask height="35" id="mask2" maskUnits="userSpaceOnUse" node-id="39" width="36" x="892" y="400"><path d="M 928.00 400.00 L 892.00 400.00 L 896.00 435.00 L 924.00 435.00 L 928.00 400.00 Z" fill="#ffffff" fill-rule="nonzero" node-id="136" stroke="none" target-height="35" target-width="36" target-x="892" target-y="400"></path></mask><mask height="105" id="mask3" maskUnits="userSpaceOnUse" node-id="58" width="147" x="842" y="224"><path d="M 957.12 236.53 L 937.36 229.22 C 931.78 229.22 917.28 228.94 903.89 227.81 C 890.51 226.69 866.25 227.81 846.73 225.00 L 842.54 250.35 C 850.91 254.57 863.46 258.80 880.19 261.61 C 874.61 278.51 878.33 281.33 882.98 286.96 L 887.16 305.27 L 877.03 329.00 L 959.66 329.00 L 951.11 303.00 L 956.13 274.26 L 963.50 290.50 L 989.00 283.00 L 971.14 248.86 C 968.15 243.16 963.16 238.76 957.12 236.53 Z" fill="#ffffff" fill-rule="nonzero" node-id="140" stroke="none" target-height="104.003006" target-width="146.45502" target-x="842.545" target-y="224.997"></path></mask><mask height="70" id="mask4" maskUnits="userSpaceOnUse" node-id="76" width="46" x="895" y="169"><path d="M 901.50 181.15 L 901.50 185.36 C 899.62 184.89 895.88 184.80 895.88 188.17 C 895.88 192.38 898.69 195.19 901.50 193.78 C 901.86 198.16 904.21 206.79 911.21 210.39 C 910.96 213.69 910.23 218.43 908.51 221.85 C 906.27 226.35 901.96 228.41 900.09 228.87 C 902.90 232.15 910.76 238.70 919.74 238.70 C 928.73 238.70 935.65 232.15 937.99 228.87 C 936.59 228.41 932.94 226.63 929.57 223.26 C 926.92 220.61 926.41 214.30 926.54 209.69 C 932.38 205.76 934.15 197.89 935.18 193.78 C 937.05 194.25 940.80 194.06 940.80 189.57 C 940.80 185.08 936.59 184.89 935.18 185.36 L 935.18 181.15 C 932.38 181.62 925.08 181.43 918.34 176.94 C 911.60 172.45 909.92 170.39 909.92 169.92 C 909.92 172.26 908.88 176.57 907.11 178.34 C 904.30 181.15 902.43 180.68 901.50 181.15 Z" fill="#ffffff" fill-rule="nonzero" node-id="144" stroke="none" target-height="68.778" target-width="44.91504" target-x="895.881" target-y="169.921"></path></mask><mask height="56" id="mask5" maskUnits="userSpaceOnUse" node-id="92" width="40" x="134" y="293"><path d="M 141.50 321.55 C 144.09 316.90 145.77 300.94 146.28 293.54 C 155.12 296.31 172.07 304.62 169.17 315.70 C 166.28 326.78 170.07 330.12 172.33 330.41 C 174.13 336.02 174.32 347.45 160.69 348.23 C 147.07 349.00 137.39 335.96 134.26 329.35 C 135.59 328.69 138.91 326.20 141.50 321.55 Z" fill="#ffffff" fill-rule="nonzero" node-id="148" stroke="none" target-height="55.461975" target-width="40.067" target-x="134.256" target-y="293.536"></path></mask><mask height="56" id="mask6" maskUnits="userSpaceOnUse" node-id="96" width="40" x="134" y="293"><path d="M 141.47 321.44 C 144.06 316.79 145.74 300.83 146.25 293.43 C 155.09 296.20 172.05 304.51 169.15 315.59 C 166.25 326.67 170.05 330.01 172.31 330.30 C 174.11 335.91 174.30 347.34 160.67 348.12 C 147.04 348.89 137.36 335.85 134.23 329.24 C 135.56 328.57 138.88 326.09 141.47 321.44 Z" fill="#ffffff" fill-rule="nonzero" node-id="152" stroke="none" target-height="55.462006" target-width="40.067" target-x="134.229" target-y="293.426"></path></mask></defs><path d="M 865.50 536.00 L 42.50 536.00 L 0.00 536.00 L 0.00 469.23 C 0.00 409.18 48.68 360.50 108.73 360.50 C 163.25 360.50 209.35 320.11 216.51 266.05 L 219.00 247.25 C 227.59 182.43 282.86 134.00 348.24 134.00 L 575.26 134.00 C 620.95 134.00 662.28 161.10 680.50 203.00 L 686.03 215.71 C 700.89 249.89 734.61 272.00 771.88 272.00 C 823.59 272.00 865.50 313.92 865.50 365.62 L 865.50 536.00 Z" fill="#f3f6ff" fill-rule="nonzero" node-id="156" stroke="none" target-height="402" target-width="865.5" target-x="0" target-y="134"></path><path d="M 280.50 16.00 C 276.08 16.00 272.50 12.42 272.50 8.00 C 272.50 3.58 276.08 0.00 280.50 0.00 C 284.92 0.00 288.50 3.58 288.50 8.00 C 288.50 12.42 284.92 16.00 280.50 16.00 Z" fill="#54b7ff" fill-rule="nonzero" node-id="158" stroke="none" target-height="16" target-width="16" target-x="272.5" target-y="0"></path><path d="M 231.00 56.50 C 219.95 56.50 211.00 47.55 211.00 36.50 C 211.00 25.45 219.95 16.50 231.00 16.50 C 242.05 16.50 251.00 25.45 251.00 36.50 C 251.00 47.55 242.05 56.50 231.00 56.50 Z" fill="none" node-id="160" stroke="#54b7ff" stroke-linecap="butt" stroke-width="1" target-height="40" target-width="40" target-x="211" target-y="16.4995"></path><path d="M 272.87 106.08 C 276.11 100.23 283.49 98.12 289.36 101.37 L 342.46 130.81 C 348.33 134.06 350.45 141.44 347.21 147.29 L 306.11 221.44 C 302.87 227.28 295.48 229.39 289.62 226.14 L 236.51 196.71 C 230.65 193.45 228.52 186.08 231.77 180.23 L 272.87 106.08 Z" fill="#ffffff" fill-rule="nonzero" node-id="162" stroke="#e5e5e5" stroke-linecap="butt" stroke-width="2" target-height="131.27031" target-width="121.929" target-x="228.523" target-y="98.1207"></path><g node-id="359"><path d="M 259.79 193.63 C 268.81 198.63 280.17 195.37 285.17 186.35 C 290.17 177.33 286.91 165.96 277.89 160.96 C 268.87 155.97 257.51 159.22 252.51 168.24 C 247.51 177.26 250.77 188.63 259.79 193.63 Z" fill="#fafafa" fill-rule="nonzero" group-id="1" node-id="166" stroke="none" target-height="42.66101" target-width="42.660995" target-x="247.507" target-y="155.965"></path></g><g node-id="360"><path d="M 285.17 186.35 C 286.96 183.12 287.75 179.43 287.45 175.75 C 287.14 172.07 285.75 168.56 283.45 165.67 C 281.15 162.78 278.05 160.64 274.53 159.51 C 271.01 158.39 267.24 158.33 263.69 159.35 C 260.14 160.37 256.97 162.41 254.59 165.23 C 252.20 168.05 250.70 171.51 250.28 175.18 C 249.87 178.85 250.55 182.56 252.24 185.84 C 253.93 189.13 256.56 191.84 259.79 193.63 L 268.84 177.29 L 285.17 186.35 Z" fill="#ff8282" fill-rule="nonzero" group-id="2" node-id="171" stroke="none" target-height="35.298004" target-width="37.88301" target-x="249.868" target-y="158.329"></path></g><path d="M 270.87 133.48 C 271.27 132.76 272.15 132.48 272.85 132.87 L 296.58 146.02 C 297.27 146.41 297.51 147.30 297.11 148.03 C 296.70 148.75 295.82 149.03 295.13 148.65 L 271.39 135.49 C 270.70 135.11 270.47 134.21 270.87 133.48 Z" fill="#ffffff" fill-rule="nonzero" node-id="174" stroke="none" target-height="16.548004" target-width="27.041992" target-x="270.466" target-y="132.482"></path><path d="M 267.43 141.18 C 267.83 140.46 268.72 140.18 269.41 140.57 L 287.02 150.32 C 287.71 150.71 287.95 151.61 287.55 152.33 C 287.14 153.06 286.26 153.33 285.56 152.95 L 267.96 143.19 C 267.26 142.81 267.03 141.91 267.43 141.18 Z" fill="#ffffff" fill-rule="nonzero" node-id="176" stroke="none" target-height="13.149994" target-width="20.918976" target-x="267.028" target-y="140.181"></path><path d="M 333.32 142.83 L 283.47 115.19 C 282.50 114.66 281.29 115.00 280.75 115.97 L 276.87 122.97 C 276.34 123.93 276.69 125.15 277.65 125.69 L 327.50 153.32 C 328.47 153.86 329.69 153.51 330.22 152.54 L 334.10 145.54 C 334.64 144.58 334.29 143.36 333.32 142.83 Z" fill="#ff8282" fill-rule="nonzero" node-id="178" stroke="none" target-height="39.200005" target-width="58.300995" target-x="276.337" target-y="114.656"></path><path d="M 713.13 187.18 L 733.26 148.98 L 736.32 143.18 C 736.64 142.55 736.92 141.92 737.15 141.27 C 738.24 138.25 738.25 135.03 737.35 132.10 C 736.25 128.51 733.76 125.34 730.16 123.45 L 659.54 86.46 C 655.57 84.38 650.79 84.53 646.96 86.86 L 620.13 103.14 C 618.67 104.03 617.43 105.19 616.45 106.52 C 614.94 108.58 614.07 111.08 614.01 113.69 C 614.00 113.82 614.00 113.94 614.00 114.07 C 614.00 114.30 614.01 114.53 614.02 114.77 L 614.05 115.24 L 615.50 139.28 L 615.89 145.81 C 616.16 150.26 618.73 154.25 622.69 156.32 L 693.34 193.32 C 700.50 197.07 709.36 194.32 713.13 187.18 Z M 636.35 120.00 C 636.26 119.91 636.18 119.82 636.10 119.73 C 635.90 119.52 635.72 119.30 635.55 119.08 C 633.05 115.75 633.32 111.02 636.35 108.00 C 639.67 104.69 645.05 104.69 648.38 108.00 C 651.07 110.69 651.58 114.71 649.92 117.91 C 649.87 118.00 649.82 118.09 649.76 118.19 C 649.71 118.28 649.66 118.37 649.60 118.46 C 649.43 118.73 649.25 119.00 649.04 119.25 C 648.99 119.33 648.92 119.41 648.85 119.49 C 648.70 119.66 648.55 119.83 648.38 120.00 C 645.05 123.31 639.67 123.31 636.35 120.00 Z" fill="#54b7ff" fill-rule="nonzero" node-id="180" stroke="none" target-height="112.69591" target-width="124.255005" target-x="614" target-y="84.3781"></path><path d="M 725.14 160.98 L 640.00 151.94 L 727.52 150.00 C 730.10 149.94 731.80 152.70 730.62 155.02 L 728.52 159.13 C 727.88 160.40 726.53 161.13 725.14 160.98 Z" fill="#282f48" fill-rule="nonzero" node-id="182" stroke="none" target-height="11.184998" target-width="91.79901" target-x="640" target-y="149.944"></path><path d="M 643.02 153.00 L 731.28 153.00 C 739.41 153.00 746.00 146.45 746.00 138.38 L 746.00 88.63 C 746.00 80.55 739.41 74.00 731.28 74.00 L 643.05 74.00 C 638.54 74.00 634.37 76.35 632.06 80.19 L 615.83 107.07 C 613.38 111.11 613.39 116.17 615.85 120.21 L 628.64 141.25 L 632.05 146.85 C 634.37 150.67 638.53 153.00 643.02 153.00 Z M 650.07 117.41 C 650.03 117.50 649.98 117.60 649.92 117.69 C 649.87 117.78 649.81 117.88 649.75 117.97 C 649.59 118.24 649.40 118.51 649.19 118.76 C 649.13 118.84 649.07 118.92 649.00 119.00 C 648.85 119.17 648.69 119.34 648.53 119.50 C 645.19 122.82 639.78 122.82 636.45 119.50 C 636.36 119.42 636.28 119.33 636.20 119.24 C 636.00 119.03 635.81 118.81 635.64 118.58 C 633.14 115.25 633.40 110.52 636.45 107.50 C 639.78 104.19 645.19 104.19 648.53 107.50 C 651.23 110.19 651.75 114.21 650.07 117.41 Z" fill="#ff8282" fill-rule="nonzero" node-id="184" stroke="none" target-height="79" target-width="132.61603" target-x="613.384" target-y="74"></path><path d="M 671.62 102.00 C 672.85 102.00 674.45 102.18 676.43 102.54 L 676.36 105.08 C 674.50 104.72 672.92 104.54 671.62 104.54 C 670.30 104.54 669.35 104.80 668.75 105.32 C 668.18 105.84 667.90 106.63 667.90 107.69 L 667.90 108.57 C 667.90 109.14 667.97 109.59 668.11 109.93 C 668.26 110.24 668.54 110.53 668.92 110.77 C 669.31 111.00 669.89 111.24 670.66 111.48 L 673.84 112.53 C 675.36 113.05 676.43 113.74 677.04 114.60 C 677.68 115.46 678.00 116.71 678.00 118.36 L 678.00 119.00 C 678.00 121.01 677.41 122.52 676.23 123.51 C 675.07 124.50 673.15 125.00 670.49 125.00 C 669.20 125.00 667.54 124.77 665.51 124.32 L 665.58 121.71 C 667.47 122.17 669.08 122.39 670.42 122.39 C 672.13 122.39 673.34 122.14 674.04 121.65 C 674.75 121.13 675.10 120.33 675.10 119.24 L 675.10 118.12 C 675.10 117.33 674.92 116.73 674.55 116.33 C 674.21 115.90 673.60 115.54 672.71 115.24 L 669.20 114.09 C 667.63 113.57 666.53 112.91 665.92 112.09 C 665.31 111.26 665.00 110.00 665.00 108.33 L 665.00 107.96 C 665.00 106.00 665.52 104.52 666.57 103.52 C 667.64 102.51 669.32 102.00 671.62 102.00 Z" fill="#ffffff" fill-rule="nonzero" node-id="186" stroke="none" target-height="23" target-width="13" target-x="665" target-y="102"></path><path d="M 690.25 103.00 L 697.00 125.00 L 693.91 125.00 L 692.46 119.89 L 684.37 119.89 L 682.92 125.00 L 680.00 125.00 L 686.72 103.00 L 690.25 103.00 Z M 688.43 105.62 L 685.07 117.34 L 691.76 117.34 L 688.43 105.62 Z" fill="#ffffff" fill-rule="nonzero" node-id="188" stroke="none" target-height="22" target-width="17" target-x="680" target-y="103"></path><path d="M 701.96 103.00 L 701.96 122.48 L 711.00 122.48 L 711.00 125.00 L 699.00 125.00 L 699.00 103.00 L 701.96 103.00 Z" fill="#ffffff" fill-rule="nonzero" node-id="190" stroke="none" target-height="22" target-width="12" target-x="699" target-y="103"></path><path d="M 727.00 103.00 L 727.00 105.59 L 717.96 105.59 L 717.96 112.54 L 726.30 112.54 L 726.30 115.09 L 717.96 115.09 L 717.96 122.41 L 727.00 122.41 L 727.00 125.00 L 715.00 125.00 L 715.00 103.00 L 727.00 103.00 Z" fill="#ffffff" fill-rule="nonzero" node-id="192" stroke="none" target-height="22" target-width="12" target-x="715" target-y="103"></path><path d="M 644.64 115.64 C 641.50 118.78 636.41 118.78 633.27 115.64 L 613.36 95.73 C 610.22 92.59 610.22 87.50 613.36 84.36 C 616.50 81.21 621.59 81.21 624.73 84.36 L 644.64 104.27 C 647.78 107.41 647.78 112.50 644.64 115.64 Z" fill="url(#paint0_linear)" fill-rule="nonzero" node-id="194" stroke="none" target-height="37.570503" target-width="37.569946" target-x="610.215" target-y="81.2145"></path><path d="M 408.93 198.92 C 392.95 198.92 379.64 211.16 378.35 227.06 L 371.69 308.86 C 371.38 312.69 368.01 315.55 364.17 315.24 C 360.33 314.92 357.47 311.57 357.78 307.73 L 364.44 225.94 C 366.32 202.81 385.68 185.00 408.93 185.00 C 430.82 185.00 449.48 200.84 452.99 222.40 L 466.79 307.18 C 467.41 310.98 464.82 314.55 461.02 315.17 C 457.22 315.78 453.64 313.21 453.02 309.41 L 439.22 224.63 C 436.81 209.81 423.98 198.92 408.93 198.92 Z" fill="#706ac7" fill-rule="evenodd" node-id="196" stroke="none" target-height="130.784" target-width="109.936005" target-x="357.472" target-y="185"></path><path d="M 520.20 286.92 L 324.38 286.92 L 324.38 316.25 L 525.18 318.74 L 520.20 286.92 Z" fill="#ff8282" fill-rule="nonzero" node-id="198" stroke="none" target-height="31.819" target-width="200.79999" target-x="324.377" target-y="286.919"></path><path d="M 536.14 534.01 L 289.00 534.01 L 323.84 286.42 L 339.82 305.31 L 363.74 286.42 L 496.40 286.42 L 536.14 534.01 Z" fill="#feb1b1" fill-rule="nonzero" node-id="200" stroke="none" target-height="247.58899" target-width="247.13898" target-x="289" target-y="286.422"></path><path d="M 312.92 510.54 L 328.36 535.50 M 339.82 304.32 L 312.92 510.54 L 339.82 304.32 Z M 312.92 510.54 L 289.00 535.50 L 312.92 510.54 Z" fill="none" node-id="202" stroke="#ffffff" stroke-linecap="butt" stroke-width="1.2" target-height="231.18298" target-width="50.822998" target-x="289" target-y="304.32"></path><path d="M 576.00 534.01 L 328.86 534.01 L 363.70 286.42 L 536.26 286.42 L 576.00 534.01 Z" fill="#ff8282" fill-rule="nonzero" node-id="204" stroke="none" target-height="247.58899" target-width="247.139" target-x="328.861" target-y="286.422"></path><path d="M 500.26 319.24 C 506.32 319.24 511.23 314.34 511.23 308.30 C 511.23 302.26 506.32 297.36 500.26 297.36 C 494.21 297.36 489.30 302.26 489.30 308.30 C 489.30 314.34 494.21 319.24 500.26 319.24 Z" fill="#ffffff" fill-rule="nonzero" node-id="206" stroke="none" target-height="21.875" target-width="21.924011" target-x="489.302" target-y="297.36"></path><path d="M 404.60 319.24 C 410.65 319.24 415.56 314.34 415.56 308.30 C 415.56 302.26 410.65 297.36 404.60 297.36 C 398.54 297.36 393.63 302.26 393.63 308.30 C 393.63 314.34 398.54 319.24 404.60 319.24 Z" fill="#ffffff" fill-rule="nonzero" node-id="208" stroke="none" target-height="21.875" target-width="21.92398" target-x="393.635" target-y="297.36"></path><path d="M 448.79 198.92 C 432.81 198.92 419.50 211.16 418.21 227.06 L 411.55 308.86 C 411.24 312.69 407.87 315.55 404.03 315.24 C 400.19 314.92 397.33 311.57 397.64 307.73 L 404.30 225.94 C 406.18 202.81 425.54 185.00 448.79 185.00 C 470.68 185.00 489.34 200.84 492.85 222.40 L 506.65 307.18 C 507.27 310.98 504.69 314.55 500.88 315.17 C 497.08 315.78 493.50 313.21 492.88 309.41 L 479.08 224.63 C 476.67 209.81 463.84 198.92 448.79 198.92 Z" fill="#2f3b67" fill-rule="evenodd" node-id="210" stroke="none" target-height="130.784" target-width="109.93701" target-x="397.332" target-y="185"></path><path d="M 698.68 369.00 L 498.57 369.00 L 498.57 535.06 L 698.68 535.06 L 698.68 369.00 Z" fill="#a3baff" fill-rule="nonzero" node-id="212" stroke="none" target-height="166.06299" target-width="200.108" target-x="498.569" target-y="369"></path><path d="M 773.90 369.00 L 573.80 369.00 L 573.80 535.06 L 773.90 535.06 L 773.90 369.00 Z" fill="#ccd9ff" fill-rule="nonzero" node-id="214" stroke="none" target-height="166.06299" target-width="200.10803" target-x="573.797" target-y="369"></path><path d="M 498.57 369.00 L 573.80 369.00 L 551.23 422.11 L 476.00 422.11 L 498.57 369.00 Z" fill="#2c2770" fill-rule="nonzero" node-id="216" stroke="none" target-height="53.109985" target-width="97.797" target-x="476" target-y="369"></path><path d="M 773.15 369.00 L 573.80 369.00 L 596.37 422.11 L 795.72 422.11 L 773.15 369.00 Z" fill="#6b8cff" fill-rule="nonzero" node-id="218" stroke="none" target-height="53.109985" target-width="221.92603" target-x="573.797" target-y="369"></path><path d="M 903.00 425.00 L 918.00 425.00 L 918.00 530.00 L 903.00 530.00 L 903.00 425.00 Z" fill="#ccd9ff" fill-rule="nonzero" node-id="220" stroke="none" target-height="105" target-width="15" target-x="903" target-y="425"></path><path d="M 928.00 400.00 L 892.00 400.00 L 896.00 435.00 L 924.00 435.00 L 928.00 400.00 Z" fill="#a3baff" fill-rule="nonzero" node-id="222" stroke="none" target-height="35" target-width="36" target-x="892" target-y="400"></path><path d="M 886.00 401.00 L 936.00 398.50 L 931.00 409.00 L 890.00 418.00 L 886.00 401.00 Z" fill="#000000" fill-rule="nonzero" group-id="3" node-id="226" stroke="none" target-height="19.5" target-width="50" target-x="886" target-y="398.5"></path><path d="M 864.00 382.00 L 958.00 382.00 L 958.00 405.00 L 864.00 405.00 L 864.00 382.00 Z" fill="#ccd9ff" fill-rule="nonzero" node-id="229" stroke="none" target-height="23" target-width="94" target-x="864" target-y="382"></path><path d="M 856.00 527.00 L 966.00 527.00 L 966.00 536.00 L 856.00 536.00 L 856.00 527.00 Z" fill="#ccd9ff" fill-rule="nonzero" node-id="231" stroke="none" target-height="9" target-width="110" target-x="856" target-y="527"></path><path d="M 856.00 533.00 L 966.00 533.00 L 966.00 536.00 L 856.00 536.00 L 856.00 533.00 Z" fill="#2c2770" fill-rule="nonzero" node-id="233" stroke="none" target-height="3" target-width="110" target-x="856" target-y="533"></path><path d="M 691.16 515.99 L 706.40 512.97 C 714.51 511.37 721.54 496.46 721.54 496.46 L 736.69 503.96 L 727.73 519.85 L 725.41 529.54 L 691.45 518.25 L 691.16 515.99 Z" fill="#ffae64" fill-rule="nonzero" node-id="235" stroke="none" target-height="33.078003" target-width="45.53601" target-x="691.156" target-y="496.464"></path><path d="M 693.91 518.34 L 724.94 526.66 C 726.12 530.17 725.04 534.05 722.21 536.44 L 716.87 540.96 L 704.90 535.26 L 705.67 532.03 L 698.56 530.92 C 695.62 530.46 692.79 529.48 690.21 528.02 L 681.05 522.85 C 679.79 522.15 679.01 520.83 678.99 519.39 C 678.96 517.17 680.72 515.33 682.94 515.28 L 698.56 514.92 L 694.12 515.44 C 693.22 515.54 692.62 516.43 692.86 517.31 C 693.00 517.81 693.40 518.21 693.91 518.34 Z" fill="#2c2770" fill-rule="nonzero" node-id="237" stroke="none" target-height="26.036987" target-width="47.16101" target-x="678.957" target-y="514.925"></path><path d="M 957.51 331.80 L 955.96 327.00 L 912.46 327.00 L 904.87 348.31 L 828.60 371.06 C 806.08 375.83 786.32 389.24 773.56 408.41 L 710.96 502.50 L 732.46 514.50 L 827.46 413.50 L 912.75 402.48 C 925.17 400.88 936.66 395.03 945.27 385.94 C 958.95 371.49 963.64 350.73 957.51 331.80 Z" fill="#2c2770" fill-rule="nonzero" node-id="239" stroke="none" target-height="187.5" target-width="252.68604" target-x="710.959" target-y="327"></path><path d="M 949.96 327.00 L 949.96 349.43 C 949.96 372.61 932.71 392.17 909.71 395.07 L 818.96 406.50 L 729.96 513.50" fill="none" node-id="241" stroke="#ffffff" stroke-linecap="butt" stroke-width="1" target-height="186.5" target-width="220" target-x="729.959" target-y="327"></path><path d="M 808.47 537.08 L 817.32 524.29 C 822.02 517.50 816.69 501.90 816.69 501.90 L 832.78 496.74 L 837.42 514.38 L 842.50 522.96 L 810.26 538.49 L 808.47 537.08 Z" fill="#ffae64" fill-rule="nonzero" node-id="243" stroke="none" target-height="41.755005" target-width="34.020996" target-x="808.474" target-y="496.737"></path><path d="M 812.09 536.85 L 840.15 521.21 C 843.44 522.91 845.37 526.45 845.01 530.13 L 844.32 537.10 L 831.76 541.34 L 830.07 538.48 L 824.19 542.64 C 821.76 544.35 819.05 545.62 816.17 546.37 L 806.00 549.04 C 804.61 549.41 803.13 549.01 802.11 547.99 C 800.54 546.42 800.53 543.87 802.09 542.29 L 813.05 531.16 L 810.22 534.62 C 809.65 535.32 809.84 536.38 810.62 536.84 C 811.08 537.10 811.63 537.11 812.09 536.85 Z" fill="#2c2770" fill-rule="nonzero" node-id="245" stroke="none" target-height="28.196045" target-width="44.836975" target-x="800.531" target-y="521.212"></path><path d="M 803.12 359.02 L 880.46 328.00 L 913.96 328.00 L 904.46 355.00 L 825.96 372.00 L 838.46 507.50 L 813.96 507.50 L 783.85 397.85 C 781.67 389.91 782.58 381.45 786.39 374.15 C 789.98 367.28 795.92 361.91 803.12 359.02 Z" fill="#2c2770" fill-rule="nonzero" node-id="247" stroke="none" target-height="179.5" target-width="132.28796" target-x="781.671" target-y="328"></path><path d="M 828.46 373.00 L 816.96 379.50 L 831.96 509.00" fill="none" node-id="249" stroke="#ffffff" stroke-linecap="butt" stroke-width="1" target-height="136" target-width="15" target-x="816.959" target-y="373"></path><path d="M 908.96 338.50 L 912.46 328.00 L 900.46 328.00 L 828.46 373.00 L 908.96 338.50 Z" fill="#000000" fill-rule="nonzero" node-id="251" stroke="#000000" stroke-linecap="butt" stroke-width="1" target-height="45" target-width="84" target-x="828.459" target-y="328"></path><path d="M 852.00 249.00 L 856.00 227.50 L 833.84 224.00 L 823.84 168.13 L 831.78 148.68 C 832.41 147.12 830.67 145.67 829.25 146.58 C 827.65 147.61 826.22 148.88 825.00 150.34 L 824.34 151.13 L 822.97 130.64 C 822.90 129.51 821.96 128.63 820.82 128.63 C 819.70 128.63 818.77 129.49 818.68 130.61 L 817.34 147.13 L 814.61 128.47 C 814.45 127.41 813.55 126.63 812.48 126.63 C 811.30 126.63 810.34 127.59 810.34 128.78 L 810.34 145.63 L 806.95 132.35 C 806.65 131.19 805.38 130.56 804.27 131.03 C 803.43 131.38 802.94 132.27 803.09 133.16 L 805.34 146.63 L 800.54 139.03 C 799.95 138.10 798.62 138.03 797.93 138.89 C 797.57 139.35 797.48 139.97 797.71 140.51 L 802.84 152.63 L 807.50 168.13 L 812.36 219.57 C 813.54 232.06 822.61 242.37 834.85 245.13 L 852.00 249.00 Z" fill="#ffae64" fill-rule="nonzero" node-id="253" stroke="none" target-height="122.367" target-width="58.518982" target-x="797.481" target-y="126.633"></path><path d="M 812.34 161.13 C 814.34 157.63 818.00 153.80 821.84 154.13 C 822.22 153.75 823.29 152.58 824.48 151.27" fill="none" node-id="255" stroke="#000000" stroke-linecap="butt" stroke-width="1" target-height="9.863998" target-width="12.143982" target-x="812.338" target-y="151.269"></path><path d="M 955.42 235.18 L 937.36 229.22 C 931.78 229.22 917.28 228.94 903.89 227.81 C 890.51 226.69 866.25 227.81 846.73 225.00 L 842.54 250.35 C 850.91 254.57 863.46 258.80 880.19 261.61 C 874.61 278.51 878.33 281.33 882.98 286.96 L 887.16 305.27 L 877.03 329.00 L 956.96 329.00 L 958.84 326.50 L 951.11 303.00 L 956.00 278.00 L 963.00 288.50 L 988.00 282.00 L 970.38 247.93 C 967.25 241.88 961.88 237.31 955.42 235.18 Z" fill="#1be3b3" fill-rule="nonzero" node-id="257" stroke="none" target-height="104.003006" target-width="145.45502" target-x="842.545" target-y="224.997"></path><path d="M 871.74 212.22 C 878.58 239.59 804.23 256.93 809.25 289.77 C 814.26 322.61 941.07 400.16 986.23 376.44 C 1031.39 352.72 1029.57 311.21 943.81 313.04 C 858.05 314.86 837.98 277.00 858.51 256.93 C 879.04 236.86 939.25 298.44 941.07 272.89 C 942.90 247.35 865.81 239.59 896.83 220.89 C 922.25 205.57 932.41 253.28 960.23 259.21 C 982.49 263.95 994.75 255.71 998.09 251.00 C 1019.23 261.19 1051.37 284.39 1010.87 295.70 C 970.36 307.01 901.24 292.51 871.74 283.84" fill="none" group-id="4" node-id="261" stroke="#5fffd8" stroke-linecap="butt" stroke-width="7" target-height="194.59401" target-width="247.14197" target-x="804.228" target-y="205.566"></path><path d="M 848.89 278.77 L 893.03 284.94 C 894.85 285.19 896.37 286.41 897.02 288.12 L 906.82 314.04 C 908.16 317.58 905.23 321.27 901.48 320.76 L 863.80 315.70 C 862.05 315.47 860.55 314.32 859.86 312.70 L 846.22 280.54 L 848.89 278.77 Z" fill="#bdbaba" fill-rule="nonzero" node-id="264" stroke="none" target-height="42.502014" target-width="61.934998" target-x="846.224" target-y="278.766"></path><path d="M 847.45 280.58 L 893.02 286.96 C 893.74 287.06 894.35 287.55 894.61 288.23 L 906.82 320.52 C 907.36 321.94 906.18 323.41 904.68 323.21 L 863.20 317.64 C 860.73 317.31 858.61 315.68 857.66 313.36 L 845.33 283.32 C 844.74 281.89 845.92 280.37 847.45 280.58 Z" fill="#2c2770" fill-rule="nonzero" node-id="266" stroke="none" target-height="43.044983" target-width="62.617004" target-x="844.739" target-y="280.368"></path><path d="M 872.97 305.17 C 871.01 303.69 870.50 301.06 871.83 299.30 C 873.16 297.53 875.83 297.30 877.79 298.77 C 879.75 300.25 880.26 302.88 878.93 304.64 C 877.60 306.41 874.93 306.64 872.97 305.17 Z" fill="#ffffff" fill-rule="nonzero" node-id="268" stroke="none" target-height="9.343994" target-width="9.757996" target-x="870.502" target-y="297.298"></path><path d="M 968.62 298.86 L 964.01 287.21 L 987.12 280.99 L 991.71 302.47 C 993.70 311.79 986.61 320.57 977.08 320.60 L 924.10 320.75 L 918.67 323.87 C 918.48 323.98 918.29 324.07 918.10 324.14 L 910.65 326.98 C 910.56 327.02 910.47 327.04 910.38 327.06 L 897.97 329.71 C 897.32 329.85 896.66 329.59 896.27 329.06 C 895.56 328.09 896.07 326.72 897.23 326.44 L 905.74 324.37 L 892.50 324.37 C 891.99 324.37 891.53 324.10 891.29 323.65 C 890.82 322.78 891.39 321.72 892.37 321.62 L 902.99 320.60 L 887.33 319.22 C 886.72 319.17 886.20 318.79 885.96 318.23 C 885.51 317.18 886.24 316.01 887.37 315.94 L 901.52 315.10 L 888.34 313.02 C 887.44 312.88 886.74 312.16 886.63 311.26 C 886.48 310.06 887.39 308.99 888.60 308.95 L 905.74 308.47 L 904.45 307.66 L 901.78 300.55 L 909.72 301.87 C 910.17 301.95 910.61 302.06 911.04 302.21 L 920.54 305.52 L 968.62 298.86 Z" fill="#ffae64" fill-rule="nonzero" node-id="270" stroke="none" target-height="48.856995" target-width="108.185" target-x="885.513" target-y="280.988"></path><path d="M 894.48 171.32 C 895.60 162.34 904.30 161.03 908.51 161.50 C 910.85 160.10 915.53 154.48 925.36 155.88 C 935.18 157.29 946.41 162.90 943.60 175.54 C 943.60 175.54 950.15 191.44 952.02 197.99 C 957.64 212.03 949.52 222.21 937.99 223.26 C 922.55 224.66 929.57 223.26 905.71 226.07 C 881.85 228.87 880.44 209.22 886.05 196.59 C 891.67 183.96 893.07 182.55 894.48 171.32 Z" fill="#2c2770" fill-rule="nonzero" node-id="272" stroke="none" target-height="74.39101" target-width="77.198" target-x="880.441" target-y="154.482"></path><path d="M 901.50 181.15 L 901.50 185.36 C 899.62 184.89 895.88 184.80 895.88 188.17 C 895.88 192.38 898.69 195.19 901.50 193.78 C 901.86 198.16 904.21 206.79 911.21 210.39 C 910.96 213.69 910.23 218.43 908.51 221.85 C 906.27 226.35 901.96 228.41 900.09 228.87 C 902.90 232.15 910.76 238.70 919.74 238.70 C 928.73 238.70 935.65 232.15 937.99 228.87 C 936.59 228.41 932.94 226.63 929.57 223.26 C 926.92 220.61 926.41 214.30 926.54 209.69 C 932.38 205.76 934.15 197.89 935.18 193.78 C 937.05 194.25 940.80 194.06 940.80 189.57 C 940.80 185.08 936.59 184.89 935.18 185.36 L 935.18 181.15 C 932.38 181.62 925.08 181.43 918.34 176.94 C 911.60 172.45 909.92 170.39 909.92 169.92 C 909.92 172.26 908.88 176.57 907.11 178.34 C 904.30 181.15 902.43 180.68 901.50 181.15 Z" fill="#ffae64" fill-rule="nonzero" node-id="274" stroke="none" target-height="68.778" target-width="44.91504" target-x="895.881" target-y="169.921"></path><path d="M 913.25 200.37 L 919.63 203.56 C 919.18 204.47 917.72 205.66 915.53 204.93 C 913.34 204.20 913.10 201.88 913.25 200.37 Z" fill="#ffffff" fill-rule="nonzero" node-id="276" stroke="none" target-height="5.2910004" target-width="6.538025" target-x="913.097" target-y="200.365"></path><path d="M 926.93 181.21 L 931.50 181.21 C 932.25 181.21 932.86 181.82 932.86 182.57 C 932.86 183.33 932.25 183.94 931.50 183.94 L 926.93 183.94 C 926.18 183.94 925.57 183.33 925.57 182.57 C 925.57 181.82 926.18 181.21 926.93 181.21 Z" fill="#2c2770" fill-rule="nonzero" node-id="278" stroke="none" target-height="2.7369995" target-width="7.2979736" target-x="925.565" target-y="181.206"></path><path d="M 908.69 181.21 L 913.25 181.21 C 914.00 181.21 914.62 181.82 914.62 182.57 C 914.62 183.33 914.00 183.94 913.25 183.94 L 908.69 183.94 C 907.93 183.94 907.32 183.33 907.32 182.57 C 907.32 181.82 907.93 181.21 908.69 181.21 Z" fill="#2c2770" fill-rule="nonzero" node-id="280" stroke="none" target-height="2.7369995" target-width="7.299011" target-x="907.318" target-y="181.206"></path><path d="M 911.42 188.50 C 910.67 188.50 910.06 187.89 910.06 187.14 C 910.06 186.38 910.67 185.77 911.42 185.77 C 912.18 185.77 912.79 186.38 912.79 187.14 C 912.79 187.89 912.18 188.50 911.42 188.50 Z" fill="#000000" fill-rule="nonzero" node-id="282" stroke="none" target-height="2.7369995" target-width="2.735962" target-x="910.056" target-y="185.768"></path><path d="M 921.92 183.03 L 921.92 199.45 L 917.81 199.45" fill="none" node-id="284" stroke="#000000" stroke-linecap="butt" stroke-width="1" target-height="16.421997" target-width="4.106018" target-x="917.81" target-y="183.031"></path><path d="M 928.76 188.50 C 928.00 188.50 927.39 187.89 927.39 187.14 C 927.39 186.38 928.00 185.77 928.76 185.77 C 929.51 185.77 930.13 186.38 930.13 187.14 C 930.13 187.89 929.51 188.50 928.76 188.50 Z" fill="#000000" fill-rule="nonzero" node-id="286" stroke="none" target-height="2.7369995" target-width="2.735962" target-x="927.39" target-y="185.768"></path><path d="M 899.11 188.05 C 898.65 189.11 898.56 191.33 901.85 191.70" fill="none" node-id="288" stroke="#000000" stroke-linecap="butt" stroke-width="1" target-height="3.649002" target-width="3.2839966" target-x="898.561" target-y="188.049"></path><path d="M 938.11 188.05 C 938.56 189.11 938.65 191.33 935.37 191.70" fill="none" node-id="290" stroke="#000000" stroke-linecap="butt" stroke-width="1" target-height="3.649002" target-width="3.2839966" target-x="935.369" target-y="188.049"></path><path d="M 927.85 209.03 C 926.63 209.79 922.74 211.77 918.72 211.77 C 914.91 211.77 911.35 210.54 910.22 210.02 L 910.06 209.94 C 910.10 209.97 910.16 209.99 910.22 210.02 L 928.30 218.61 L 927.85 209.03 Z" fill="#ff8282" fill-rule="nonzero" group-id="5" node-id="294" stroke="none" target-height="9.578995" target-width="18.245972" target-x="910.056" target-y="209.032"></path><path d="M 294.80 524.09 L 282.22 513.32 C 275.53 507.58 276.81 490.07 276.81 490.07 L 258.83 489.10 L 258.83 508.54 L 255.92 518.75 L 293.34 526.04 L 294.80 524.09 Z" fill="#ffae64" fill-rule="nonzero" node-id="297" stroke="none" target-height="36.935028" target-width="38.879013" target-x="255.916" target-y="489.103"></path><path d="M 288.52 535.76 L 300.53 535.76 C 302.10 535.76 303.54 534.93 304.33 533.58 C 305.52 531.54 304.89 528.92 302.93 527.61 C 300.55 526.03 297.08 523.68 292.85 520.69 C 284.59 514.86 281.19 510.97 281.19 510.97 C 281.19 510.97 276.33 513.89 269.04 513.89 C 261.75 513.89 257.86 508.54 257.86 508.54 C 254.73 516.36 254.62 525.07 257.55 532.96 L 257.86 533.81 L 271.95 534.79 L 274.38 532.84 L 280.81 534.68 C 283.32 535.39 285.91 535.76 288.52 535.76 Z" fill="#2c2770" fill-rule="nonzero" node-id="299" stroke="none" target-height="27.214996" target-width="50.89801" target-x="254.62" target-y="508.543"></path><path d="M 81.05 545.29 L 96.41 534.80 C 104.58 529.22 123.19 535.71 123.19 535.71 L 129.49 516.49 L 108.41 510.82 L 98.19 504.68 L 79.37 543.15 L 81.05 545.29 Z" fill="#ffae64" fill-rule="nonzero" node-id="301" stroke="none" target-height="40.610992" target-width="50.123306" target-x="79.3687" target-y="504.684"></path><path d="M 70.23 535.09 L 66.73 548.12 C 66.27 549.81 66.75 551.62 67.99 552.87 C 69.85 554.75 72.87 554.84 74.87 553.09 C 77.27 550.97 80.83 547.90 85.31 544.18 C 94.04 536.92 99.25 534.36 99.25 534.36 C 99.25 534.36 97.51 528.24 99.63 520.33 C 101.76 512.43 108.69 509.77 108.69 509.77 C 101.12 504.10 91.71 501.44 82.30 502.31 L 81.28 502.40 L 76.12 517.40 L 77.52 520.61 L 73.65 527.04 C 72.14 529.55 70.99 532.26 70.23 535.09 Z" fill="#2c2770" fill-rule="nonzero" node-id="303" stroke="none" target-height="53.402008" target-width="42.4188" target-x="66.2722" target-y="501.436"></path><path d="M 115.72 510.00 C 74.61 492.11 77.28 470.61 83.69 441.00 L 204.71 390.79 C 212.11 387.72 220.31 387.16 228.06 389.19 C 239.45 392.18 248.72 400.46 252.96 411.45 L 287.00 499.56 L 257.00 506.56 L 212.98 441.00 L 174.17 470.61 L 236.47 488.67 C 247.31 491.81 254.53 502.03 253.87 513.30 C 253.12 526.08 242.54 536.06 229.74 536.06 L 110.02 536.06 L 115.72 510.00 Z" fill="#2c2770" fill-rule="nonzero" node-id="305" stroke="none" target-height="148.89902" target-width="212.3852" target-x="74.6148" target-y="387.16"></path><path d="M 128.00 467.56 C 125.00 479.23 125.60 502.56 152.00 502.56 C 171.81 502.56 192.68 502.56 206.44 502.56 C 212.72 502.56 217.99 507.31 218.62 513.57 C 219.36 520.78 213.69 527.06 206.44 527.06 L 114.50 527.06" fill="none" node-id="307" stroke="#ffffff" stroke-linecap="butt" stroke-width="1" target-height="59.50003" target-width="104.86" target-x="114.5" target-y="467.559"></path><path d="M 239.00 457.56 L 266.00 500.06" fill="none" node-id="309" stroke="#ffffff" stroke-linecap="butt" stroke-width="1" target-height="42.5" target-width="27" target-x="239" target-y="457.559"></path><path d="M 268.61 273.24 C 262.83 275.46 260.24 277.35 257.45 285.06 C 256.71 280.26 256.34 270.26 260.80 268.62 C 266.38 266.56 275.31 270.67 268.61 273.24 Z" fill="#d76767" fill-rule="nonzero" node-id="311" stroke="none" target-height="18.498993" target-width="18.96701" target-x="256.339" target-y="266.56"></path><path d="M 243.26 271.14 L 256.81 256.07 L 263.95 240.06 C 264.21 239.48 264.98 239.34 265.43 239.80 C 266.46 240.88 266.90 242.39 266.59 243.85 L 259.56 277.62 L 257.84 286.06 L 243.26 287.37 L 243.26 271.14 Z" fill="#ff9330" fill-rule="nonzero" node-id="313" stroke="none" target-height="48.03099" target-width="23.638016" target-x="243.26" target-y="239.343"></path><path d="M 215.23 415.06 L 193.12 417.62 L 186.00 432.12 L 189.79 436.95 L 200.47 441.06 L 212.32 422.07 L 220.52 419.07 C 220.78 418.97 221.02 418.82 221.23 418.63 C 222.59 417.34 221.68 415.06 219.81 415.06 L 215.23 415.06 Z" fill="#ff9330" fill-rule="nonzero" node-id="315" stroke="none" target-height="26" target-width="36.587006" target-x="186" target-y="415.059"></path><path d="M 79.98 373.59 L 123.86 324.06 L 155.16 343.17 L 127.04 375.55 L 196.00 415.36 L 185.39 436.06 L 84.42 393.24 C 78.52 390.73 75.49 384.14 77.45 378.04 C 77.97 376.39 78.83 374.88 79.98 373.59 Z" fill="#0b86df" fill-rule="nonzero" node-id="317" stroke="none" target-height="112" target-width="120.5055" target-x="75.4945" target-y="324.059"></path><path d="M 138.22 328.57 C 140.83 323.86 142.53 307.70 143.05 300.20 C 151.94 303.00 169.00 311.41 166.07 322.63 C 163.15 333.85 166.97 337.23 169.24 337.51 C 171.05 343.20 171.23 354.77 157.51 355.56 C 143.80 356.35 134.07 343.16 130.92 336.47 C 132.26 335.80 135.61 333.28 138.22 328.57 Z" fill="#ff9330" fill-rule="nonzero" node-id="319" stroke="none" target-height="56.149994" target-width="40.311996" target-x="130.918" target-y="300.204"></path><path d="M 169.62 325.85 C 149.81 321.14 145.47 303.41 145.77 295.13 L 171.13 313.85 C 178.88 319.81 189.42 330.56 169.62 325.85 Z" fill="#d76767" fill-rule="nonzero" group-id="6" node-id="323" stroke="none" target-height="35.428986" target-width="43.957993" target-x="145.466" target-y="295.134"></path><path d="M 169.59 325.74 C 149.78 321.03 145.44 303.30 145.74 295.02 L 171.10 313.74 C 178.85 319.70 189.40 330.45 169.59 325.74 Z" fill="#d76767" fill-rule="nonzero" group-id="7" node-id="328" stroke="none" target-height="35.429016" target-width="43.955994" target-x="145.44" target-y="295.024"></path><path d="M 147.29 303.12 C 149.36 309.66 161.62 318.31 175.66 312.26 C 179.97 310.41 181.13 309.39 182.19 304.59 C 183.35 299.37 181.13 292.87 181.66 290.91 C 182.06 289.45 184.32 290.21 184.86 288.08 C 185.50 285.50 179.79 279.46 179.53 277.43 C 178.86 272.18 177.77 268.10 175.83 264.85 L 161.72 265.58 C 164.32 267.25 163.56 266.96 157.85 269.14 C 152.20 271.31 148.76 268.92 146.00 267.98 C 147.53 275.39 135.92 271.46 137.26 274.95 C 138.33 277.74 147.32 295.26 148.13 297.39 C 146.15 298.15 144.70 291.29 142.61 290.91 C 140.27 290.47 136.15 291.11 138.47 297.16 C 140.78 303.21 145.31 303.65 147.29 303.12 Z" fill="#ff9330" fill-rule="nonzero" node-id="331" stroke="none" target-height="53.459015" target-width="49.58101" target-x="135.922" target-y="264.847"></path><path d="M 172.60 297.67 C 176.01 298.95 178.64 298.73 180.60 297.67 L 180.06 293.94 L 172.60 297.67 Z" fill="#ffffff" fill-rule="nonzero" node-id="333" stroke="none" target-height="5.007019" target-width="7.9909973" target-x="172.605" target-y="293.939"></path><path d="M 169.62 274.60 L 173.88 272.27 C 174.59 271.88 175.48 272.14 175.86 272.84 C 176.25 273.55 175.99 274.44 175.29 274.82 L 171.02 277.16 C 170.32 277.55 169.43 277.29 169.04 276.58 C 168.66 275.87 168.92 274.99 169.62 274.60 Z" fill="#2c2770" fill-rule="nonzero" node-id="335" stroke="none" target-height="5.6660156" target-width="7.5930023" target-x="168.658" target-y="271.879"></path><path d="M 176.43 279.89 C 175.72 280.28 174.83 280.02 174.45 279.31 C 174.06 278.60 174.32 277.72 175.03 277.33 C 175.73 276.94 176.62 277.20 177.00 277.91 C 177.39 278.62 177.13 279.50 176.43 279.89 Z" fill="#000000" fill-rule="nonzero" node-id="337" stroke="none" target-height="3.3309937" target-width="3.3309937" target-x="174.061" target-y="276.945"></path><path d="M 155.39 291.18 C 155.39 291.18 150.23 282.75 147.03 287.55 C 143.30 293.15 150.76 296.07 150.76 296.07 C 149.70 302.46 146.15 304.44 144.37 303.53 C 121.47 291.81 124.10 261.47 140.00 259.56 C 157.41 257.47 149.03 242.06 163.00 242.06 C 176.55 242.94 180.37 261.85 175.53 264.65 C 161.06 273.05 158.84 268.95 157.42 271.20 C 156.00 273.46 156.51 282.19 157.42 287.55 C 157.76 289.54 157.62 290.65 157.24 291.18 C 156.81 291.78 156.07 291.63 155.39 291.18 Z" fill="#2c2770" fill-rule="nonzero" node-id="339" stroke="none" target-height="62.37999" target-width="58.905" target-x="121.466" target-y="242.059"></path><path d="M 114.35 335.42 C 101.16 384.61 82.19 442.79 81.00 445.96 C 102.26 445.96 100.67 465.62 130.43 469.35 C 154.25 472.32 164.81 465.27 167.11 461.37 L 180.40 363.59 L 207.28 356.79 C 218.23 354.02 227.44 346.64 232.53 336.56 L 258.00 286.11 L 243.12 270.06 L 208.57 317.36 L 143.17 317.36 C 141.07 317.36 138.98 317.69 136.98 318.34 L 127.59 321.40 C 121.08 323.51 116.12 328.81 114.35 335.42 Z" fill="#6b8cff" fill-rule="nonzero" node-id="341" stroke="none" target-height="202.26202" target-width="177" target-x="81" target-y="270.059"></path><path d="M 118.82 373.06 C 138.16 372.62 156.26 349.33 152.50 318.06 C 139.25 318.06 114.20 321.29 108.61 321.29 C 101.63 321.29 94.64 373.59 118.82 373.06 Z" fill="#0b86df" fill-rule="nonzero" node-id="343" stroke="none" target-height="55.535004" target-width="61.617294" target-x="94.6447" target-y="318.059"></path><path d="M 116.71 369.06 C 135.92 368.63 148.91 334.88 153.00 318.06 L 106.57 318.06 C 99.63 318.06 92.69 369.59 116.71 369.06 Z" fill="#6b8cff" fill-rule="nonzero" node-id="345" stroke="none" target-height="51.527008" target-width="60.306602" target-x="92.6934" target-y="318.059"></path><path d="M 250.50 279.06 L 221.50 337.06 L 173.50 353.56 L 153.00 466.56" fill="none" node-id="347" stroke="#ffffff" stroke-linecap="butt" stroke-width="1" target-height="187.5" target-width="97.5" target-x="153" target-y="279.059"></path><path d="M 187.62 467.12 L 234.00 464.54 L 276.10 397.48 L 224.24 401.52 L 186.45 463.57 L 187.62 467.12 Z" fill="#dae2ff" fill-rule="nonzero" node-id="349" stroke="none" target-height="69.632996" target-width="89.64899" target-x="186.448" target-y="397.482"></path><path d="M 186.45 463.57 L 233.21 461.05 L 276.80 394.14 L 224.94 398.18 L 186.45 463.57 Z" fill="#6b8cff" fill-rule="nonzero" node-id="351" stroke="none" target-height="69.42999" target-width="90.35199" target-x="186.448" target-y="394.144"></path><path d="M 242.25 341.86 L 196.77 410.25 L 225.27 464.82 L 232.50 464.39 L 275.63 399.40 L 249.00 341.86 L 242.25 341.86 Z" fill="#dae2ff" fill-rule="nonzero" node-id="353" stroke="none" target-height="122.961" target-width="78.869" target-x="196.766" target-y="341.863"></path><path d="M 244.76 344.33 L 202.74 407.52 C 201.73 409.05 201.63 411.00 202.48 412.62 L 228.58 462.32 C 230.34 465.67 235.04 465.93 237.15 462.78 L 278.36 401.54 C 279.36 400.06 279.49 398.15 278.70 396.55 L 253.41 344.90 C 251.71 341.43 246.89 341.11 244.76 344.33 Z" fill="#1be3b3" fill-rule="nonzero" node-id="355" stroke="none" target-height="124.810974" target-width="77.856" target-x="201.631" target-y="341.114"></path><path d="M 248.75 403.26 C 249.09 399.03 246.28 395.36 242.47 395.05 C 238.67 394.75 235.31 397.93 234.97 402.15 C 234.63 406.38 237.44 410.06 241.25 410.36 C 245.05 410.67 248.41 407.49 248.75 403.26 Z" fill="#dae2ff" fill-rule="nonzero" node-id="357" stroke="none" target-height="15.920013" target-width="14.455994" target-x="234.632" target-y="394.745"></path></svg>