<?xml version="1.0" standalone="no"?><!DOCTYPE svg PUBLIC "-//W3C//DTD SVG 1.1//EN" "http://www.w3.org/Graphics/SVG/1.1/DTD/svg11.dtd"><svg height="790" node-id="1" sillyvg="true" template-height="790" template-width="908" version="1.1" viewBox="0 0 908 790" width="908" xmlns="http://www.w3.org/2000/svg" xmlns:xlink="http://www.w3.org/1999/xlink"><defs node-id="98"><linearGradient gradientUnits="userSpaceOnUse" id="paint0_linear" node-id="94" spreadMethod="pad" x1="518.914" x2="506.184" y1="293.418" y2="373.791"><stop offset="0" stop-color="#273a54"></stop><stop offset="1" stop-color="#111b2a"></stop></linearGradient><mask height="118" id="mask0" maskUnits="userSpaceOnUse" node-id="33" width="139" x="152" y="333"><path d="M 172.42 353.04 L 185.04 345.68 L 216.13 336.17 C 229.14 332.19 243.03 332.09 256.10 335.88 L 290.15 345.76 L 287.33 382.70 L 259.56 373.42 L 261.99 390.45 L 275.22 420.55 C 277.18 425.01 274.74 430.16 270.06 431.48 L 202.03 450.57 C 197.00 451.98 192.00 448.29 191.87 443.07 L 191.37 423.29 L 181.94 411.50 L 179.06 427.05 L 152.15 429.33 L 154.62 382.25 C 155.25 370.13 161.95 359.15 172.42 353.04 Z" fill="#ffffff" fill-rule="nonzero" node-id="107" stroke="none" target-height="119.890015" target-width="137.99901" target-x="152.152" target-y="332.094"></path></mask><mask height="70" id="mask1" maskUnits="userSpaceOnUse" node-id="53" width="52" x="171" y="281"><path d="M 206.99 289.78 L 208.22 293.81 C 209.87 292.81 213.42 291.63 214.41 294.85 C 215.64 298.88 213.77 302.38 210.68 301.86 C 211.61 306.15 211.88 315.10 206.24 320.59 C 207.45 323.67 209.53 327.99 212.17 330.76 C 215.63 334.40 220.35 335.11 222.28 335.01 C 220.55 338.96 214.95 347.52 206.36 350.15 C 197.77 352.78 189.23 348.54 186.04 346.09 C 187.24 345.23 190.21 342.46 192.45 338.26 C 194.21 334.95 192.85 328.77 191.38 324.39 C 184.65 322.35 180.65 315.34 178.46 311.71 C 176.81 312.71 173.18 313.62 171.86 309.33 C 170.55 305.03 174.52 303.62 176.00 303.66 L 174.77 299.63 C 177.59 299.26 184.52 296.95 189.65 290.68 C 194.78 284.42 195.78 281.95 195.65 281.51 C 196.33 283.74 198.58 287.56 200.79 288.74 C 204.30 290.60 205.95 289.61 206.99 289.78 Z" fill="#ffffff" fill-rule="nonzero" node-id="111" stroke="none" target-height="71.27103" target-width="51.729996" target-x="170.55" target-y="281.507"></path></mask><mask height="113" id="mask2" maskUnits="userSpaceOnUse" node-id="68" width="150" x="735" y="396"><path d="M 858.53 410.39 L 838.84 402.15 L 801.21 396.86 C 785.10 394.60 768.72 398.01 754.86 406.52 L 735.03 418.68 L 743.60 454.72 L 769.57 441.21 L 769.84 458.41 L 761.48 490.21 C 760.24 494.92 763.45 499.63 768.28 500.19 L 840.46 508.65 C 844.95 509.17 848.99 505.87 849.36 501.35 L 852.19 466.68 L 857.47 481.59 L 884.40 479.63 L 880.46 440.04 C 879.15 426.88 870.73 415.50 858.53 410.39 Z" fill="#ffffff" fill-rule="nonzero" node-id="115" stroke="none" target-height="114.573" target-width="149.37097" target-x="735.031" target-y="394.601"></path></mask><mask height="47" id="mask3" maskUnits="userSpaceOnUse" node-id="78" width="38" x="806" y="371"><path d="M 839.02 397.56 C 837.82 392.71 840.22 377.83 841.57 371.00 C 832.89 371.35 815.49 374.71 815.39 385.46 C 815.29 396.21 811.03 398.30 808.91 398.00 C 805.90 402.65 802.92 412.96 815.08 417.01 C 827.24 421.05 839.20 411.62 843.67 406.40 C 842.62 405.47 840.22 402.40 839.02 397.56 Z" fill="#ffffff" fill-rule="nonzero" node-id="119" stroke="none" target-height="50.04898" target-width="40.744995" target-x="802.924" target-y="371.005"></path></mask></defs><path d="M 490.85 33.00 L 203.56 198.86 C 172.00 217.09 161.18 257.45 179.41 289.02 L 345.27 576.31 C 363.50 607.87 403.86 618.69 435.43 600.46 L 722.71 434.60 C 754.28 416.38 765.10 376.01 746.87 344.44 L 581.01 57.16 C 562.78 25.59 522.41 14.77 490.85 33.00 Z" fill="#f3f6ff" fill-rule="nonzero" node-id="123" stroke="none" target-height="603.9154" target-width="603.915" target-x="161.18" target-y="14.7746"></path><path d="M 563.49 89.54 C 567.96 105.77 584.73 115.30 600.95 110.83 C 617.17 106.37 626.70 89.60 622.24 73.37 C 617.77 57.15 601.00 47.62 584.78 52.08 C 568.56 56.55 559.02 73.32 563.49 89.54 Z" fill="#ffe071" fill-rule="nonzero" node-id="125" stroke="none" target-height="67.6765" target-width="67.677" target-x="559.025" target-y="47.6195"></path><path d="M 509.61 443.10 C 511.52 443.40 512.82 445.25 512.51 447.22 L 501.42 517.23 C 501.11 519.20 499.30 520.56 497.39 520.25 C 495.47 519.95 494.17 518.11 494.48 516.13 L 505.57 446.12 C 505.88 444.15 507.69 442.80 509.61 443.10 Z" fill="#000000" fill-rule="evenodd" node-id="127" stroke="none" target-height="77.76297" target-width="18.654968" target-x="494.169" target-y="442.795"></path><path d="M 501.01 499.29 C 506.20 500.12 510.28 501.62 510.12 502.66 L 504.28 539.56 C 504.11 540.60 499.76 540.77 494.57 539.95 C 489.37 539.13 485.29 537.62 485.46 536.58 L 491.30 499.68 C 491.46 498.64 495.81 498.47 501.01 499.29 Z" fill="#54b7ff" fill-rule="evenodd" node-id="129" stroke="none" target-height="42.304016" target-width="24.993011" target-x="485.291" target-y="498.469"></path><path d="M 709.99 244.13 C 711.47 234.79 705.30 226.04 696.21 224.60 L 386.27 175.81 C 381.72 175.09 377.44 178.29 376.70 182.97 L 338.10 426.68 C 337.36 431.35 340.44 435.72 344.99 436.44 L 654.93 485.23 C 664.02 486.67 672.59 480.26 674.07 470.92 L 709.99 244.13 Z" fill="#282f48" fill-rule="nonzero" node-id="131" stroke="none" target-height="311.586" target-width="374.11703" target-x="337.356" target-y="175.088"></path><path d="M 700.36 233.90 C 701.10 229.23 698.01 224.86 693.46 224.13 L 373.92 173.53 C 369.37 172.81 365.08 176.01 364.34 180.68 L 325.74 424.39 C 325.00 429.06 328.09 433.44 332.64 434.16 L 652.17 484.77 C 656.73 485.49 661.02 482.28 661.76 477.61 L 700.36 233.90 Z" fill="#333a56" fill-rule="nonzero" node-id="133" stroke="none" target-height="312.682" target-width="376.10498" target-x="324.997" target-y="172.805"></path><path d="M 326.96 430.39 C 328.70 432.46 331.13 433.92 333.97 434.37 L 623.69 480.25 C 559.39 468.49 542.76 446.22 528.97 427.76 C 514.23 408.03 506.72 391.49 443.75 397.94 C 403.99 402.01 400.91 362.19 401.89 317.36 C 402.84 274.25 403.86 227.58 368.87 214.01 C 365.09 212.54 361.25 213.82 358.65 216.60 L 325.74 424.39 C 325.39 426.57 325.88 428.69 326.96 430.39 Z" fill="#282f48" fill-rule="nonzero" node-id="135" stroke="none" target-height="267.716" target-width="298.29602" target-x="325.391" target-y="212.538"></path><path d="M 440.13 406.74 L 409.69 401.92 L 407.63 414.94 L 438.06 419.76 L 440.13 406.74 Z" fill="#ffe98f" fill-rule="nonzero" node-id="137" stroke="none" target-height="17.843994" target-width="32.5" target-x="407.628" target-y="401.915"></path><path d="M 364.23 351.31 C 408.16 358.26 428.77 318.60 466.50 324.75 C 504.23 330.91 501.00 340.18 545.97 347.30 C 590.95 354.43 628.83 350.46 660.86 315.90" fill="none" node-id="139" stroke="url(#paint0_linear)" stroke-linecap="round" stroke-width="13.2" target-height="42.364014" target-width="296.63" target-x="364.234" target-y="315.901"></path><path d="M 364.23 351.31 C 408.16 358.26 430.58 296.06 468.31 302.21 C 506.04 308.37 501.00 340.18 545.97 347.30 C 590.95 354.43 642.73 323.29 666.81 278.38" fill="none" node-id="141" stroke="#ffffff" stroke-linecap="round" stroke-width="13.2" target-height="79.883026" target-width="302.57202" target-x="364.234" target-y="278.382"></path><path d="M 476.40 334.58 C 490.58 336.82 503.90 327.15 506.14 312.97 C 508.39 298.78 498.71 285.46 484.53 283.22 C 470.35 280.97 457.03 290.65 454.78 304.83 C 452.54 319.01 462.21 332.33 476.40 334.58 Z" fill="#ff8282" fill-rule="nonzero" node-id="143" stroke="none" target-height="55.85202" target-width="55.85202" target-x="452.538" target-y="280.973"></path><path d="M 380.51 417.32 C 387.71 418.46 394.48 413.55 395.62 406.36 C 396.75 399.17 391.84 392.41 384.63 391.27 C 377.43 390.13 370.67 395.04 369.53 402.23 C 368.39 409.42 373.30 416.18 380.51 417.32 Z" fill="#ffe98f" fill-rule="nonzero" node-id="145" stroke="none" target-height="28.326996" target-width="28.365997" target-x="368.388" target-y="390.131"></path><path d="M 635.79 437.73 L 605.36 432.91 L 603.29 445.93 L 633.73 450.75 L 635.79 437.73 Z" fill="#1be3b3" fill-rule="nonzero" node-id="147" stroke="none" target-height="17.842987" target-width="32.498962" target-x="603.293" target-y="432.906"></path><path d="M 576.17 448.31 C 583.38 449.45 590.14 444.54 591.28 437.35 C 592.42 430.16 587.50 423.40 580.30 422.26 C 573.09 421.12 566.33 426.03 565.19 433.22 C 564.05 440.41 568.97 447.17 576.17 448.31 Z" fill="#1be3b3" fill-rule="nonzero" node-id="149" stroke="none" target-height="28.326996" target-width="28.367004" target-x="564.052" target-y="421.121"></path><path d="M 729.21 227.81 L 350.93 167.90 L 346.02 198.88 L 724.30 258.79 L 729.21 227.81 Z" fill="#a3b7ff" fill-rule="nonzero" node-id="151" stroke="none" target-height="90.89198" target-width="383.191" target-x="346.02" target-y="167.899"></path><path d="M 729.21 227.81 L 699.10 223.04 L 694.19 254.02 L 724.30 258.79 L 729.21 227.81 Z" fill="#6b8cff" fill-rule="nonzero" node-id="153" stroke="none" target-height="35.74698" target-width="35.018982" target-x="694.192" target-y="223.044"></path><path d="M 453.86 375.71 C 492.29 396.53 540.16 381.35 560.79 341.79 C 581.41 302.24 566.98 253.29 528.55 232.47 C 490.12 211.64 572.87 265.49 541.01 330.93 C 509.14 396.38 415.43 354.88 453.86 375.71 Z" fill="#0b86df" fill-rule="nonzero" node-id="155" stroke="none" target-height="184.891" target-width="165.98196" target-x="415.433" target-y="211.641"></path><path d="M 444.46 356.35 L 463.92 366.90 L 440.42 411.98 L 420.95 401.43 L 444.46 356.35 Z" fill="#ffffff" fill-rule="nonzero" node-id="157" stroke="none" target-height="55.623993" target-width="42.968018" target-x="420.952" target-y="356.351"></path><path d="M 419.72 381.36 C 421.54 377.88 425.75 376.55 429.13 378.38 L 450.95 390.20 C 454.33 392.04 455.60 396.34 453.79 399.82 L 383.94 545.83 C 382.12 549.31 377.91 550.64 374.53 548.81 L 352.71 536.99 C 349.33 535.16 348.06 530.85 349.88 527.37 L 419.72 381.36 Z" fill="#1be3b3" fill-rule="nonzero" node-id="159" stroke="none" target-height="174.09302" target-width="107.53702" target-x="348.063" target-y="376.549"></path><g node-id="296"><path d="M 466.50 371.49 C 426.68 365.18 399.51 327.79 405.82 287.96 C 412.13 248.14 449.52 220.98 489.34 227.28 C 529.16 233.59 556.33 270.98 550.02 310.80 C 543.72 350.62 506.32 377.79 466.50 371.49 Z" fill="#8aceff" fill-opacity="0.351004" fill-rule="nonzero" group-id="1" node-id="163" stroke="none" target-height="156.816" target-width="156.81598" target-x="399.513" target-y="220.976"></path></g><path d="M 441.21 368.85 C 479.64 389.68 527.51 374.49 548.14 334.94 C 568.76 295.38 554.33 246.43 515.90 225.61 C 477.47 204.78 429.60 219.97 408.97 259.52 C 388.35 299.08 402.78 348.03 441.21 368.85 Z M 447.97 357.10 C 415.72 339.62 403.61 298.55 420.92 265.35 C 438.23 232.16 478.40 219.42 510.65 236.89 C 542.89 254.37 555.00 295.44 537.70 328.63 C 520.39 361.83 480.21 374.57 447.97 357.10 Z" fill="#54b7ff" fill-rule="nonzero" node-id="166" stroke="none" target-height="184.89099" target-width="180.41501" target-x="388.348" target-y="204.785"></path><path d="M 244.26 714.01 L 235.23 701.36 C 230.43 694.63 235.53 678.96 235.53 678.96 L 219.37 674.03 L 214.99 691.74 L 210.04 700.38 L 242.49 715.45 L 244.26 714.01 Z" fill="#ffae64" fill-rule="nonzero" node-id="168" stroke="none" target-height="41.422974" target-width="34.224" target-x="210.036" target-y="674.026"></path><path d="M 240.64 713.84 L 212.35 698.61 C 209.09 700.35 207.21 703.91 207.63 707.60 L 208.42 714.55 L 221.04 718.61 L 222.69 715.73 L 228.63 719.80 C 231.08 721.48 233.81 722.70 236.70 723.41 L 246.91 725.94 C 248.30 726.28 249.78 725.86 250.78 724.83 C 252.33 723.23 252.30 720.69 250.72 719.13 L 239.60 708.15 L 242.48 711.58 C 243.06 712.27 242.89 713.33 242.11 713.80 C 241.66 714.07 241.10 714.08 240.64 713.84 Z" fill="#2c2770" fill-rule="nonzero" node-id="170" stroke="none" target-height="27.677002" target-width="45.11299" target-x="207.214" target-y="698.605"></path><path d="M 198.68 604.98 L 200.91 589.60 C 202.09 581.42 216.62 573.64 216.62 573.64 L 208.35 558.89 L 192.94 568.66 L 183.38 571.48 L 196.41 604.80 L 198.68 604.98 Z" fill="#ffae64" fill-rule="nonzero" node-id="172" stroke="none" target-height="46.09198" target-width="33.23201" target-x="183.385" target-y="558.892"></path><path d="M 196.19 602.36 L 186.29 571.79 C 182.72 570.80 178.91 572.07 176.66 575.02 L 172.42 580.59 L 178.73 592.25 L 181.91 591.31 L 183.39 598.36 C 184.00 601.26 185.12 604.04 186.71 606.55 L 192.34 615.43 C 193.11 616.65 194.47 617.36 195.91 617.31 C 198.13 617.23 199.87 615.37 199.81 613.15 L 199.36 597.53 L 199.07 602.00 C 199.02 602.90 198.16 603.54 197.27 603.35 C 196.76 603.23 196.35 602.86 196.19 602.36 Z" fill="#2c2770" fill-rule="nonzero" node-id="174" stroke="none" target-height="46.56598" target-width="27.449997" target-x="172.418" target-y="570.796"></path><path d="M 241.92 686.21 L 218.28 680.09 L 240.98 561.34 L 202.76 479.46 C 199.32 472.09 197.73 463.98 198.13 455.85 L 199.70 424.06 L 266.53 429.24 L 310.71 459.33 L 332.70 476.21 C 345.25 485.83 341.47 505.64 326.26 509.97 L 264.32 493.27 L 280.14 540.48 C 283.59 550.80 283.59 561.96 280.13 572.27 L 241.92 686.21 Z" fill="#2c2770" fill-rule="nonzero" node-id="176" stroke="none" target-height="262.154" target-width="147.522" target-x="197.728" target-y="424.055"></path><path d="M 203.87 560.34 L 296.61 490.52 L 333.34 506.81 L 212.96 583.82 L 203.87 560.34 Z" fill="#2c2770" fill-rule="nonzero" node-id="178" stroke="none" target-height="93.29602" target-width="129.46501" target-x="203.872" target-y="490.524"></path><path d="M 206.98 447.41 L 247.65 551.17 C 250.14 557.54 250.66 564.51 249.13 571.17 L 223.85 681.53" fill="none" node-id="180" stroke="#ffffff" stroke-linecap="butt" stroke-width="1" target-height="234.12" target-width="43.682007" target-x="206.978" target-y="447.406"></path><path d="M 261.66 485.31 L 298.41 496.91 L 270.94 516.61" fill="none" node-id="182" stroke="#ffffff" stroke-linecap="butt" stroke-width="1" target-height="31.305023" target-width="36.75" target-x="261.66" target-y="485.309"></path><path d="M 205.44 562.77 L 233.15 543.51" fill="none" node-id="184" stroke="#ffffff" stroke-linecap="butt" stroke-width="1" target-height="19.259033" target-width="27.700989" target-x="205.445" target-y="543.508"></path><path d="M 172.42 353.04 L 185.04 345.68 L 213.87 336.14 C 227.47 331.65 242.13 331.43 255.87 335.53 L 290.15 345.76 L 287.33 382.70 L 259.56 373.42 L 261.99 390.45 L 270.69 423.47 C 271.78 427.62 269.40 431.90 265.29 433.16 L 203.00 452.20 C 198.04 453.72 192.98 450.20 192.67 445.03 L 191.37 423.29 L 181.94 411.50 L 179.06 427.05 L 152.15 429.33 L 154.62 382.25 C 155.25 370.13 161.95 359.15 172.42 353.04 Z" fill="#1be3b3" fill-rule="nonzero" node-id="186" stroke="none" target-height="122.285" target-width="137.99901" target-x="152.152" target-y="331.431"></path><path d="M 172.42 353.04 L 185.04 345.68 L 216.13 336.17 C 229.14 332.19 243.03 332.09 256.10 335.88 L 290.15 345.76 L 287.33 382.70 L 259.56 373.42 L 261.99 390.45 L 275.22 420.55 C 277.18 425.01 274.74 430.16 270.06 431.48 L 202.03 450.57 C 197.00 451.98 192.00 448.29 191.87 443.07 L 191.37 423.29 L 181.94 411.50 L 179.06 427.05 L 152.15 429.33 L 154.62 382.25 C 155.25 370.13 161.95 359.15 172.42 353.04 Z" fill="#1be3b3" fill-rule="nonzero" group-id="2" node-id="190" stroke="none" target-height="119.890015" target-width="137.99901" target-x="152.152" target-y="332.094"></path><path d="M 245.67 317.01 C 253.86 314.51 262.52 319.12 265.03 327.30 C 267.53 335.49 262.92 344.15 254.74 346.66 C 246.55 349.16 237.88 344.55 235.38 336.37 C 232.88 328.18 237.49 319.51 245.67 317.01 Z" fill="none" group-id="2" node-id="192" stroke="#ffffff" stroke-linecap="butt" stroke-width="5" target-height="34.651" target-width="34.650986" target-x="232.878" target-y="314.508"></path><path d="M 149.70 372.50 C 154.19 371.12 158.94 373.65 160.31 378.14 C 161.69 382.63 159.16 387.38 154.67 388.75 C 150.18 390.12 145.43 387.60 144.06 383.11 C 142.68 378.62 145.21 373.87 149.70 372.50 Z" fill="none" group-id="2" node-id="194" stroke="#ffffff" stroke-linecap="butt" stroke-width="5" target-height="19.00299" target-width="19.00299" target-x="142.684" target-y="371.122"></path><path d="M 199.09 383.54 C 201.99 382.65 205.07 384.29 205.96 387.19 C 206.84 390.10 205.21 393.17 202.30 394.06 C 199.40 394.95 196.32 393.31 195.44 390.41 C 194.55 387.50 196.18 384.43 199.09 383.54 Z" fill="none" group-id="2" node-id="196" stroke="#ffffff" stroke-linecap="butt" stroke-width="3" target-height="12.2960205" target-width="12.296005" target-x="194.547" target-y="382.65"></path><path d="M 222.90 430.63 C 230.56 428.29 238.66 432.60 241.00 440.26 C 243.34 447.92 239.03 456.03 231.38 458.37 C 223.72 460.71 215.61 456.40 213.27 448.74 C 210.93 441.08 215.24 432.98 222.90 430.63 Z" fill="none" group-id="2" node-id="198" stroke="#ffffff" stroke-linecap="butt" stroke-width="3" target-height="32.416016" target-width="32.414993" target-x="210.929" target-y="428.293"></path><path d="M 279.55 366.26 C 287.21 363.92 295.31 368.23 297.66 375.88 C 300.00 383.54 295.69 391.65 288.03 393.99 C 280.37 396.33 272.26 392.02 269.92 384.36 C 267.58 376.70 271.89 368.60 279.55 366.26 Z" fill="none" group-id="2" node-id="200" stroke="#ffffff" stroke-linecap="butt" stroke-width="3" target-height="32.41501" target-width="32.415985" target-x="267.582" target-y="363.917"></path><path d="M 210.82 278.33 C 207.12 270.07 198.42 271.36 194.53 273.04 C 191.88 272.38 185.76 268.38 176.78 272.60 C 167.79 276.81 158.70 285.46 165.07 296.73 C 165.07 296.73 169.93 320.68 187.11 315.42 C 188.76 320.82 210.56 344.10 205.55 327.71 C 200.54 311.32 202.01 324.37 209.14 308.69 C 215.11 304.25 215.45 288.66 210.82 278.33 Z" fill="#2c2770" fill-rule="nonzero" node-id="203" stroke="none" target-height="75.71701" target-width="56.752" target-x="158.696" target-y="268.383"></path><path d="M 197.41 273.73 C 206.12 271.07 211.03 261.84 208.36 253.13 C 205.70 244.41 196.47 239.51 187.76 242.17 C 179.05 244.84 174.14 254.06 176.81 262.78 C 179.47 271.49 188.69 276.39 197.41 273.73 Z" fill="#2c2770" fill-rule="nonzero" node-id="205" stroke="none" target-height="36.885986" target-width="36.886" target-x="174.142" target-y="239.509"></path><path d="M 206.99 289.78 L 208.22 293.81 C 209.87 292.81 213.42 291.63 214.41 294.85 C 215.64 298.88 213.77 302.38 210.68 301.86 C 211.61 306.15 211.88 315.10 206.24 320.59 C 207.45 323.67 209.53 327.99 212.17 330.76 C 215.63 334.40 220.35 335.11 222.28 335.01 C 220.55 338.96 214.95 347.52 206.36 350.15 C 197.77 352.78 189.23 348.54 186.04 346.09 C 187.24 345.23 190.21 342.46 192.45 338.26 C 194.21 334.95 192.85 328.77 191.38 324.39 C 184.65 322.35 180.65 315.34 178.46 311.71 C 176.81 312.71 173.18 313.62 171.86 309.33 C 170.55 305.03 174.52 303.62 176.00 303.66 L 174.77 299.63 C 177.59 299.26 184.52 296.95 189.65 290.68 C 194.78 284.42 195.78 281.95 195.65 281.51 C 196.33 283.74 198.58 287.56 200.79 288.74 C 204.30 290.60 205.95 289.61 206.99 289.78 Z" fill="#ffae64" fill-rule="nonzero" node-id="207" stroke="none" target-height="71.27103" target-width="51.729996" target-x="170.55" target-y="281.507"></path><path d="M 201.36 311.59 L 196.19 316.51 C 196.89 317.25 198.63 317.96 200.51 316.62 C 202.40 315.29 201.95 313.00 201.36 311.59 Z" fill="#ffffff" fill-rule="nonzero" node-id="209" stroke="none" target-height="6.3670044" target-width="6.206009" target-x="196.189" target-y="311.594"></path><path d="M 182.67 297.27 L 178.31 298.61 C 177.59 298.83 177.18 299.59 177.40 300.32 C 177.62 301.04 178.39 301.45 179.11 301.23 L 183.47 299.89 C 184.20 299.67 184.60 298.90 184.38 298.18 C 184.16 297.46 183.40 297.05 182.67 297.27 Z" fill="#2c2770" fill-rule="nonzero" node-id="211" stroke="none" target-height="4.3930054" target-width="7.4210052" target-x="177.183" target-y="297.053"></path><path d="M 200.12 291.94 L 195.76 293.27 C 195.04 293.49 194.63 294.26 194.85 294.98 C 195.07 295.70 195.84 296.11 196.56 295.89 L 200.92 294.56 C 201.65 294.34 202.05 293.57 201.83 292.85 C 201.61 292.12 200.85 291.72 200.12 291.94 Z" fill="#2c2770" fill-rule="nonzero" node-id="213" stroke="none" target-height="4.3930054" target-width="7.42099" target-x="194.632" target-y="291.718"></path><path d="M 199.64 299.72 C 200.36 299.50 200.77 298.73 200.55 298.01 C 200.33 297.29 199.56 296.88 198.84 297.10 C 198.12 297.32 197.71 298.09 197.93 298.81 C 198.15 299.53 198.92 299.94 199.64 299.72 Z" fill="#000000" fill-rule="nonzero" node-id="215" stroke="none" target-height="3.0589905" target-width="3.0589905" target-x="197.71" target-y="296.881"></path><path d="M 188.01 297.55 L 192.81 313.26 L 196.73 312.06" fill="none" node-id="217" stroke="#000000" stroke-linecap="butt" stroke-width="1" target-height="15.70401" target-width="8.727997" target-x="188.006" target-y="297.552"></path><path d="M 183.06 304.79 C 183.79 304.57 184.19 303.80 183.97 303.08 C 183.75 302.36 182.99 301.95 182.26 302.17 C 181.54 302.39 181.13 303.16 181.35 303.88 C 181.57 304.60 182.34 305.01 183.06 304.79 Z" fill="#000000" fill-rule="nonzero" node-id="219" stroke="none" target-height="3.0589905" target-width="3.0589905" target-x="181.134" target-y="301.949"></path><path d="M 211.28 295.68 C 212.03 296.57 212.77 298.66 209.73 299.97" fill="none" node-id="221" stroke="#000000" stroke-linecap="butt" stroke-width="1" target-height="4.289978" target-width="3.0340118" target-x="209.734" target-y="295.682"></path><path d="M 173.99 307.08 C 173.87 308.24 174.43 310.38 177.68 309.77" fill="none" node-id="223" stroke="#000000" stroke-linecap="butt" stroke-width="1" target-height="3.3009949" target-width="3.8099976" target-x="173.865" target-y="307.084"></path><path d="M 189.94 324.15 C 191.32 324.52 195.62 325.27 199.46 324.10 C 203.11 322.99 206.15 320.76 207.09 319.94 L 207.22 319.82 C 207.18 319.86 207.13 319.90 207.09 319.94 L 192.30 333.44 L 189.94 324.15 Z" fill="#ff8282" fill-rule="nonzero" group-id="3" node-id="227" stroke="none" target-height="13.622986" target-width="17.279007" target-x="189.937" target-y="319.821"></path><path d="M 230.29 422.83 L 232.49 372.96 C 232.54 371.91 233.39 371.08 234.44 371.05 L 269.68 370.17 C 270.86 370.14 271.81 371.13 271.73 372.31 L 268.38 422.20 C 268.31 423.24 267.46 424.04 266.43 424.07 L 232.34 424.92 C 231.18 424.95 230.24 423.99 230.29 422.83 Z" fill="#2c2770" fill-rule="nonzero" node-id="230" stroke="none" target-height="54.804993" target-width="41.572998" target-x="230.236" target-y="370.144"></path><path d="M 215.35 407.60 L 179.28 426.70 L 153.83 428.75 L 157.12 449.08 C 158.68 458.70 169.89 463.25 177.71 457.43 L 224.35 422.73 L 231.23 421.00 C 231.43 420.95 231.63 420.89 231.82 420.81 L 240.15 417.26 C 240.22 417.23 240.29 417.21 240.37 417.19 L 253.14 414.10 C 254.20 413.84 254.90 412.82 254.75 411.74 C 254.59 410.58 253.52 409.77 252.36 409.93 L 242.05 411.34 L 253.74 407.22 C 254.60 406.91 255.09 405.98 254.84 405.10 C 254.59 404.21 253.71 403.67 252.81 403.85 L 241.34 406.13 L 253.06 400.24 C 253.99 399.77 254.41 398.67 254.04 397.70 C 253.66 396.70 252.57 396.17 251.55 396.48 L 238.24 400.53 L 250.64 393.97 C 251.84 393.34 252.20 391.77 251.38 390.68 C 250.79 389.88 249.74 389.57 248.81 389.92 L 231.85 396.29 L 232.28 389.07 L 222.53 395.66 C 221.40 396.42 220.49 397.46 219.87 398.68 L 215.35 407.60 Z" fill="#ffae64" fill-rule="nonzero" node-id="232" stroke="none" target-height="74.17499" target-width="101.261" target-x="153.827" target-y="389.074"></path><path d="M 325.33 286.38 L 289.96 346.87 L 287.41 379.54 L 288.92 379.54 C 299.33 379.54 308.65 373.08 312.32 363.34 L 339.10 292.11 L 357.54 282.29 L 372.02 278.83 C 372.55 278.70 372.79 278.08 372.47 277.64 C 371.74 276.61 370.54 276.00 369.27 276.03 L 338.54 276.59 L 338.91 273.20 C 339.21 270.44 338.95 267.65 338.13 265.00 C 337.89 264.20 336.80 264.10 336.42 264.84 L 325.33 286.38 Z" fill="#ffae64" fill-rule="nonzero" node-id="234" stroke="none" target-height="115.44098" target-width="85.379" target-x="287.407" target-y="264.1"></path><path d="M 610.88 655.05 L 626.02 651.57 C 634.08 649.72 640.65 634.61 640.65 634.61 L 656.02 641.63 L 647.55 657.79 L 645.53 667.55 L 611.24 657.30 L 610.88 655.05 Z" fill="#ffae64" fill-rule="nonzero" node-id="236" stroke="none" target-height="32.942993" target-width="45.14496" target-x="610.877" target-y="634.605"></path><path d="M 611.01 667.48 L 601.02 662.25 C 599.73 661.57 598.89 660.25 598.82 658.78 C 598.72 656.57 600.38 654.66 602.59 654.43 C 605.25 654.15 609.15 653.71 613.98 653.07 C 623.38 651.82 627.91 650.07 627.91 650.07 C 627.91 650.07 630.68 654.61 636.74 657.79 C 642.80 660.97 648.36 658.22 648.36 658.22 C 647.55 666.08 643.85 673.36 637.98 678.65 L 637.35 679.23 L 625.21 673.89 L 624.03 671.22 L 617.89 669.94 C 615.49 669.45 613.18 668.62 611.01 667.48 Z" fill="#2c2770" fill-rule="nonzero" node-id="238" stroke="none" target-height="29.153992" target-width="49.640015" target-x="598.719" target-y="650.071"></path><path d="M 656.77 762.90 L 669.09 753.43 C 675.65 748.39 675.85 739.35 675.85 739.35 L 692.23 731.91 L 691.25 750.13 L 693.48 759.84 L 658.04 764.80 L 656.77 762.90 Z" fill="#ffae64" fill-rule="nonzero" node-id="240" stroke="none" target-height="32.88501" target-width="36.708984" target-x="656.767" target-y="731.911"></path><path d="M 662.07 774.15 L 650.80 773.54 C 649.34 773.47 648.03 772.62 647.36 771.31 C 646.34 769.34 647.06 766.92 648.97 765.79 C 651.28 764.42 654.64 762.40 658.76 759.81 C 666.80 754.76 670.18 751.29 670.18 751.29 C 670.18 751.29 674.59 754.26 681.42 754.63 C 688.25 755.00 692.17 750.18 692.17 750.18 C 694.71 757.66 694.37 765.83 691.24 773.08 L 690.90 773.87 L 677.64 774.07 L 675.46 772.12 L 669.34 773.52 C 666.96 774.07 664.51 774.28 662.07 774.15 Z" fill="#2c2770" fill-rule="nonzero" node-id="242" stroke="none" target-height="24.098022" target-width="48.361023" target-x="646.344" target-y="750.18"></path><path d="M 668.74 740.86 L 696.20 756.13 L 749.16 642.12 L 824.32 557.07 C 833.60 546.57 839.71 533.64 841.93 519.80 L 846.96 488.48 L 792.30 483.51 L 702.72 507.52 C 690.48 510.80 680.45 519.55 675.53 531.23 L 629.13 641.54 L 653.95 661.75 L 708.15 551.09 L 777.34 541.18 L 708.20 632.74 L 668.74 740.86 Z" fill="#ff6767" fill-rule="nonzero" node-id="244" stroke="none" target-height="272.62" target-width="217.82904" target-x="629.134" target-y="483.515"></path><path d="M 839.91 506.87 L 838.37 513.64 C 835.82 524.86 830.55 535.28 823.02 543.97 L 740.51 639.21 L 690.88 753.45" fill="none" node-id="246" stroke="#ffffff" stroke-linecap="butt" stroke-width="1" target-height="246.578" target-width="149.02502" target-x="690.884" target-y="506.872"></path><path d="M 776.91 539.39 L 711.54 543.21 C 701.64 543.79 692.93 549.95 689.09 559.09 L 648.25 656.17" fill="none" node-id="248" stroke="#ffffff" stroke-linecap="butt" stroke-width="1" target-height="116.77899" target-width="128.659" target-x="648.253" target-y="539.39"></path><path d="M 858.53 410.39 L 838.84 402.15 L 801.21 396.86 C 785.10 394.60 768.72 398.01 754.86 406.52 L 735.03 418.68 L 743.60 454.72 L 769.57 441.21 L 769.84 458.41 L 761.48 490.21 C 760.24 494.92 763.45 499.63 768.28 500.19 L 840.46 508.65 C 844.95 509.17 848.99 505.87 849.36 501.35 L 852.19 466.68 L 857.47 481.59 L 884.40 479.63 L 880.46 440.04 C 879.15 426.88 870.73 415.50 858.53 410.39 Z" fill="#ffe071" fill-rule="nonzero" node-id="250" stroke="none" target-height="114.573" target-width="149.37097" target-x="735.031" target-y="394.601"></path><path d="M 774.46 383.32 C 765.99 382.13 758.15 388.04 756.96 396.52 C 755.77 404.99 761.67 412.83 770.15 414.02 C 778.63 415.21 786.47 409.31 787.66 400.83 C 788.85 392.35 782.94 384.51 774.46 383.32 Z" fill="none" group-id="4" node-id="254" stroke="#d7be67" stroke-linecap="butt" stroke-width="5" target-height="33.080994" target-width="33.08203" target-x="755.766" target-y="382.133"></path><path d="M 877.93 423.11 C 873.28 422.46 868.99 425.70 868.33 430.35 C 867.68 434.99 870.92 439.29 875.57 439.95 C 880.22 440.60 884.51 437.36 885.17 432.71 C 885.82 428.06 882.58 423.76 877.93 423.11 Z" fill="none" group-id="4" node-id="256" stroke="#d7be67" stroke-linecap="butt" stroke-width="5" target-height="18.140991" target-width="18.140991" target-x="867.68" target-y="422.458"></path><path d="M 830.88 441.74 C 827.88 441.32 825.09 443.42 824.67 446.43 C 824.25 449.43 826.34 452.21 829.35 452.64 C 832.36 453.06 835.14 450.96 835.56 447.96 C 835.99 444.95 833.89 442.17 830.88 441.74 Z" fill="none" group-id="4" node-id="258" stroke="#d7be67" stroke-linecap="butt" stroke-width="3" target-height="11.738007" target-width="11.738037" target-x="824.248" target-y="441.322"></path><path d="M 814.73 491.99 C 806.80 490.87 799.47 496.40 798.36 504.33 C 797.24 512.26 802.77 519.59 810.70 520.70 C 818.63 521.82 825.96 516.29 827.07 508.36 C 828.19 500.43 822.66 493.10 814.73 491.99 Z" fill="none" group-id="4" node-id="260" stroke="#d7be67" stroke-linecap="butt" stroke-width="3" target-height="30.946991" target-width="30.947021" target-x="797.242" target-y="490.871"></path><path d="M 748.71 437.26 C 740.78 436.15 733.44 441.68 732.33 449.61 C 731.22 457.54 736.74 464.87 744.67 465.98 C 752.60 467.10 759.93 461.57 761.05 453.64 C 762.16 445.71 756.64 438.38 748.71 437.26 Z" fill="none" group-id="4" node-id="262" stroke="#d7be67" stroke-linecap="butt" stroke-width="3" target-height="30.946014" target-width="30.94696" target-x="731.215" target-y="436.15"></path><path d="M 839.33 397.61 C 838.12 392.70 840.56 377.64 841.92 370.73 C 833.18 371.08 815.66 374.50 815.56 385.38 C 815.45 396.26 811.16 398.39 809.03 398.09 C 805.99 402.80 802.99 413.23 815.22 417.32 C 827.45 421.41 839.50 411.85 844.00 406.56 C 842.95 405.62 840.54 402.52 839.33 397.61 Z" fill="#ff9330" fill-rule="nonzero" node-id="265" stroke="none" target-height="50.682983" target-width="41.01599" target-x="802.986" target-y="370.725"></path><path d="M 851.30 345.86 C 860.35 351.06 848.90 361.92 843.85 367.31 L 829.69 365.32 C 824.84 364.64 814.38 356.89 809.76 353.10 C 805.02 350.17 794.16 343.06 799.43 338.57 C 808.97 332.56 797.75 324.49 811.53 319.87 C 825.31 315.24 829.93 329.01 843.30 330.89 C 856.67 332.77 843.82 341.57 851.30 345.86 Z" fill="#2c2770" fill-rule="nonzero" node-id="267" stroke="none" target-height="52.074005" target-width="66.19104" target-x="794.162" target-y="315.237"></path><path d="M 812.49 394.55 C 831.59 395.15 839.89 380.15 841.64 372.58 L 814.07 383.30 C 805.59 386.80 793.39 393.95 812.49 394.55 Z" fill="#d76767" fill-rule="nonzero" group-id="5" node-id="271" stroke="none" target-height="22.566986" target-width="48.25" target-x="793.395" target-y="372.579"></path><path d="M 841.19 372.24 C 840.67 378.66 831.28 389.14 817.16 386.57 C 808.92 385.07 808.15 375.29 807.51 364.55 C 807.05 356.90 805.32 348.56 807.03 343.24 L 820.10 340.94 C 818.07 343.02 814.17 346.01 819.85 346.81 C 825.47 347.60 831.08 346.62 833.41 345.17 C 833.57 352.28 838.76 352.42 838.27 355.89 L 836.89 365.73 C 841.37 366.83 842.76 362.43 842.90 360.08 C 844.95 359.19 848.86 358.91 848.01 364.93 C 847.16 370.95 843.11 372.31 841.19 372.24 Z" fill="#ff9330" fill-rule="nonzero" node-id="274" stroke="none" target-height="48.20398" target-width="43.539" target-x="805.316" target-y="340.941"></path><path d="M 834.54 367.82 C 835.50 366.75 837.01 364.63 837.29 362.65 C 839.36 359.92 843.17 356.01 841.88 362.29 C 841.33 366.25 840.35 369.65 839.93 372.62 C 838.95 379.55 839.16 385.23 832.33 390.74 C 823.79 397.62 807.52 394.82 803.90 388.26 C 799.46 380.21 805.50 376.87 807.40 370.57 C 814.14 371.69 821.26 372.52 826.78 372.79 C 831.29 373.01 832.78 369.59 834.54 367.82 Z" fill="#2c2770" fill-rule="nonzero" node-id="276" stroke="none" target-height="41.608" target-width="43.708984" target-x="799.463" target-y="356.007"></path><path d="M 823.47 372.70 L 816.70 374.97 C 817.02 375.94 818.30 377.31 820.57 376.90 C 822.84 376.48 823.41 374.22 823.47 372.70 Z" fill="#ffffff" fill-rule="nonzero" node-id="278" stroke="none" target-height="4.617981" target-width="6.7680054" target-x="816.699" target-y="372.696"></path><path d="M 812.58 351.82 L 808.07 351.19 C 807.32 351.08 806.62 351.60 806.52 352.35 C 806.41 353.10 806.94 353.79 807.68 353.89 L 812.20 354.53 C 812.95 354.63 813.64 354.11 813.75 353.37 C 813.85 352.62 813.33 351.93 812.58 351.82 Z" fill="#2c2770" fill-rule="nonzero" node-id="280" stroke="none" target-height="3.5550232" target-width="7.4380493" target-x="806.415" target-y="351.08"></path><path d="M 830.65 354.36 L 826.13 353.72 C 825.39 353.62 824.69 354.14 824.59 354.89 C 824.48 355.64 825.00 356.33 825.75 356.43 L 830.27 357.07 C 831.02 357.17 831.71 356.65 831.82 355.90 C 831.92 355.16 831.40 354.46 830.65 354.36 Z" fill="#2c2770" fill-rule="nonzero" node-id="282" stroke="none" target-height="3.5550232" target-width="7.4380493" target-x="824.483" target-y="353.619"></path><path d="M 826.92 361.20 C 827.67 361.31 828.37 360.79 828.47 360.04 C 828.58 359.29 828.05 358.60 827.31 358.50 C 826.56 358.39 825.87 358.91 825.76 359.66 C 825.65 360.41 826.18 361.10 826.92 361.20 Z" fill="#000000" fill-rule="nonzero" node-id="284" stroke="none" target-height="2.92099" target-width="2.9209595" target-x="825.655" target-y="358.39"></path><path d="M 817.30 354.32 L 815.01 370.59 L 819.08 371.16" fill="none" node-id="286" stroke="#000000" stroke-linecap="butt" stroke-width="1" target-height="16.832977" target-width="4.065979" target-x="815.012" target-y="354.325"></path><path d="M 809.76 358.79 C 810.51 358.90 811.20 358.38 811.30 357.63 C 811.41 356.88 810.89 356.19 810.14 356.08 C 809.39 355.98 808.70 356.50 808.60 357.25 C 808.49 358.00 809.01 358.69 809.76 358.79 Z" fill="#000000" fill-rule="nonzero" node-id="288" stroke="none" target-height="2.9200134" target-width="2.919983" target-x="808.49" target-y="355.978"></path><path d="M 806.21 485.44 L 796.23 436.52 C 796.02 435.50 795.05 434.80 794.01 434.94 L 759.06 439.59 C 757.90 439.74 757.12 440.87 757.38 442.01 L 768.50 490.77 C 768.73 491.78 769.68 492.45 770.71 492.31 L 804.52 487.82 C 805.67 487.67 806.45 486.57 806.21 485.44 Z" fill="#2c2770" fill-rule="nonzero" node-id="290" stroke="none" target-height="57.644012" target-width="49.330017" target-x="757.115" target-y="434.804"></path><path d="M 818.59 468.05 L 857.20 481.28 L 884.51 479.58 L 883.49 500.97 C 883.03 510.46 872.88 516.27 864.47 511.86 L 812.06 484.40 L 805.00 483.78 C 804.79 483.76 804.58 483.72 804.38 483.67 L 795.60 481.48 C 795.53 481.46 795.45 481.44 795.37 481.44 L 782.27 480.38 C 781.19 480.29 780.34 479.40 780.32 478.31 C 780.29 477.14 781.22 476.17 782.40 476.14 L 792.80 475.92 L 780.61 473.68 C 779.71 473.51 779.08 472.67 779.19 471.76 C 779.29 470.85 780.08 470.17 781.00 470.21 L 792.68 470.67 L 780.19 466.68 C 779.20 466.36 778.61 465.35 778.82 464.33 C 779.04 463.28 780.03 462.58 781.09 462.73 L 794.87 464.65 L 781.60 460.12 C 780.31 459.67 779.72 458.18 780.35 456.98 C 780.81 456.10 781.79 455.63 782.77 455.83 L 800.52 459.47 L 798.96 452.40 L 809.63 457.38 C 810.86 457.96 811.92 458.84 812.72 459.95 L 818.59 468.05 Z" fill="#ff9330" fill-rule="nonzero" node-id="292" stroke="none" target-height="63.863983" target-width="105.90503" target-x="778.605" target-y="452.405"></path><path d="M 691.00 365.54 L 735.39 419.74 L 743.02 451.61 L 741.53 451.85 C 731.24 453.48 721.03 448.56 715.88 439.51 L 678.29 373.34 L 658.54 366.53 L 643.70 365.38 C 643.15 365.34 642.83 364.76 643.07 364.27 C 643.63 363.14 644.72 362.36 645.97 362.18 L 676.41 357.93 L 675.52 354.64 C 674.79 351.96 674.62 349.16 675.00 346.42 C 675.12 345.59 676.18 345.32 676.68 345.99 L 691.00 365.54 Z" fill="#ff9330" fill-rule="nonzero" node-id="294" stroke="none" target-height="108.15698" target-width="100.199036" target-x="642.826" target-y="345.32"></path></svg>