<?xml version="1.0" standalone="no"?><!DOCTYPE svg PUBLIC "-//W3C//DTD SVG 1.1//EN" "http://www.w3.org/Graphics/SVG/1.1/DTD/svg11.dtd"><svg height="653" node-id="1" sillyvg="true" template-height="653" template-width="792" version="1.1" viewBox="0 0 792 653" width="792" xmlns="http://www.w3.org/2000/svg" xmlns:xlink="http://www.w3.org/1999/xlink"><defs node-id="119"><mask height="287" id="mask0" maskUnits="userSpaceOnUse" node-id="33" width="112" x="130" y="334"><path d="M 155.00 355.17 L 158.75 336.61 L 234.93 334.33 L 239.63 370.09 C 241.05 380.89 241.51 391.81 241.00 402.69 L 230.82 620.34 L 203.91 620.34 L 198.43 402.30 L 158.75 620.34 L 130.01 620.34 L 152.36 410.96 L 152.16 408.78 C 150.48 390.87 151.44 372.81 155.00 355.17 Z" fill="#ffffff" fill-rule="nonzero" node-id="122" stroke="none" target-height="286.00897" target-width="111.50099" target-x="130.011" target-y="334.328"></path></mask><mask height="50" id="mask1" maskUnits="userSpaceOnUse" node-id="47" width="38" x="173" y="200"><path d="M 179.62 226.74 C 181.49 222.10 181.17 207.04 180.79 200.09 C 189.34 201.63 206.10 207.39 204.70 218.05 C 203.30 228.71 207.23 231.37 209.37 231.37 C 211.70 236.39 213.22 247.01 200.62 249.33 C 188.02 251.65 177.48 240.64 173.78 234.85 C 174.95 234.07 177.75 231.37 179.62 226.74 Z" fill="#ffffff" fill-rule="nonzero" node-id="126" stroke="none" target-height="51.55699" target-width="39.434998" target-x="173.785" target-y="200.089"></path></mask><mask height="70" id="mask2" maskUnits="userSpaceOnUse" node-id="90" width="46" x="693" y="187"><path d="M 699.30 198.62 L 699.30 202.83 C 697.43 202.36 693.69 202.26 693.69 205.63 C 693.69 209.84 696.50 212.65 699.30 211.25 C 699.67 215.62 702.02 224.26 709.02 227.86 C 708.77 231.16 708.04 235.89 706.32 239.32 C 704.08 243.81 699.77 245.87 697.90 246.34 C 700.71 249.61 708.57 256.16 717.55 256.16 C 726.53 256.16 733.46 249.61 735.80 246.34 C 734.39 245.87 730.75 244.09 727.38 240.72 C 724.73 238.07 724.22 231.77 724.35 227.15 C 730.18 223.23 731.96 215.36 732.99 211.25 C 734.86 211.72 738.61 211.53 738.61 207.04 C 738.61 202.55 734.39 202.36 732.99 202.83 L 732.99 198.62 C 730.18 199.08 722.88 198.90 716.15 194.41 C 709.41 189.91 707.73 187.85 707.73 187.39 C 707.73 189.73 706.70 194.03 704.92 195.81 C 702.11 198.62 700.24 198.15 699.30 198.62 Z" fill="#ffffff" fill-rule="nonzero" node-id="130" stroke="none" target-height="68.77701" target-width="44.916016" target-x="693.69" target-y="187.387"></path></mask></defs><path d="M 473.33 1.00 L 739.38 1.00 C 743.24 1.00 746.38 4.13 746.38 8.00 L 746.38 134.13 C 746.38 137.99 743.24 141.13 739.38 141.13 L 473.33 141.13 C 469.46 141.13 466.33 137.99 466.33 134.13 L 466.33 8.00 C 466.33 4.13 469.46 1.00 473.33 1.00 Z" fill="#ffffff" fill-rule="nonzero" node-id="134" stroke="#e5e5e5" stroke-linecap="butt" stroke-width="2" target-height="140.127" target-width="280.04697" target-x="466.329" target-y="1"></path><path d="M 540.31 64.18 L 582.28 64.18 C 580.75 41.70 562.79 23.74 540.31 22.21 L 540.31 64.18 Z" fill="#1be3b3" fill-rule="nonzero" node-id="136" stroke="none" target-height="41.973503" target-width="41.974" target-x="540.308" target-y="22.2072"></path><path d="M 577.52 102.38 C 584.29 95.04 588.66 85.45 589.39 74.86 L 550.00 74.86 L 577.52 102.38 Z" fill="#ffae64" fill-rule="nonzero" node-id="138" stroke="none" target-height="27.520302" target-width="39.390015" target-x="549.997" target-y="74.8577"></path><path d="M 534.07 70.42 L 534.07 22.21 C 510.56 23.81 491.98 43.38 491.98 67.30 C 491.98 92.27 512.22 112.51 537.19 112.51 C 548.09 112.51 558.07 108.64 565.88 102.22 L 534.07 70.42 Z" fill="#ff8282" fill-rule="nonzero" node-id="140" stroke="none" target-height="90.3013" target-width="73.89697" target-x="491.979" target-y="22.2077"></path><path d="M 682.07 82.61 L 611.90 82.61 L 611.90 95.05 L 682.07 95.05 L 682.07 82.61 Z" fill="#a3b7ff" fill-rule="nonzero" node-id="142" stroke="none" target-height="12.436096" target-width="70.17505" target-x="611.897" target-y="82.6115"></path><path d="M 664.31 60.40 L 611.90 60.40 L 611.90 72.84 L 664.31 72.84 L 664.31 60.40 Z" fill="#a3b7ff" fill-rule="nonzero" node-id="144" stroke="none" target-height="12.436104" target-width="52.409058" target-x="611.897" target-y="60.4041"></path><path d="M 709.61 38.20 L 611.90 38.20 L 611.90 50.63 L 709.61 50.63 L 709.61 38.20 Z" fill="#a3b7ff" fill-rule="nonzero" node-id="146" stroke="none" target-height="12.4361" target-width="97.712036" target-x="611.897" target-y="38.1967"></path><path d="M 751.16 652.13 L 129.16 652.13 L 86.66 652.13 L 86.66 363.63 C 86.66 343.19 103.22 326.63 123.66 326.63 C 144.09 326.63 160.66 310.06 160.66 289.63 L 160.66 258.38 C 160.66 220.68 191.21 190.13 228.91 190.13 L 537.16 190.13 C 569.74 190.13 596.16 216.54 596.16 249.13 C 596.16 281.71 622.57 308.13 655.16 308.13 L 673.66 308.13 C 716.46 308.13 751.16 342.82 751.16 385.63 L 751.16 652.13 Z" fill="#f3f6ff" fill-rule="nonzero" node-id="148" stroke="none" target-height="462" target-width="664.5002" target-x="86.6558" target-y="190.127"></path><path d="M 151.92 419.17 C 184.71 406.39 203.92 437.77 209.12 452.61 C 210.59 456.81 208.25 457.27 204.18 455.50 C 185.01 447.18 167.18 487.36 144.14 483.52 C 118.69 479.28 110.20 435.44 151.92 419.17 Z" fill="#1be3b3" fill-rule="nonzero" node-id="150" stroke="none" target-height="80.97101" target-width="100.394005" target-x="110.201" target-y="406.388"></path><path d="M 96.93 371.45 C 73.06 347.49 44.67 361.47 32.21 369.75 C 29.13 371.79 29.66 376.38 32.78 378.37 C 43.07 384.95 62.77 400.91 78.06 433.46 C 89.04 456.82 128.53 403.17 96.93 371.45 Z" fill="#54b7ff" fill-rule="nonzero" node-id="152" stroke="none" target-height="109.328" target-width="99.3979" target-x="29.1321" target-y="347.488"></path><path d="M 52.23 428.28 C 22.83 418.54 6.65 441.66 0.22 453.19 C -0.76 454.94 1.74 458.18 3.73 458.05 C 29.88 456.40 41.39 489.62 62.10 485.05 C 84.51 480.11 90.02 440.80 52.23 428.28 Z" fill="#1be3b3" fill-rule="nonzero" node-id="154" stroke="none" target-height="71.08002" target-width="90.77844" target-x="-0.756042" target-y="418.541"></path><path d="M 111.25 567.65 C 111.25 485.13 148.86 416.13 195.86 445.13 M 90.82 559.86 C 109.63 499.74 110.14 385.43 56.57 371.30 L 90.82 559.86 Z M 73.31 567.34 C 67.86 512.63 97.86 459.13 28.36 446.63 L 73.31 567.34 Z" fill="none" node-id="156" stroke="#4f4f4f" stroke-linecap="butt" stroke-width="1" target-height="196.36002" target-width="167.50119" target-x="28.3628" target-y="371.295"></path><path d="M 61.07 549.55 L 121.08 549.55 L 129.22 622.89 C 130.21 631.78 123.26 639.55 114.32 639.55 L 67.83 639.55 C 58.89 639.55 51.94 631.78 52.93 622.89 L 61.07 549.55 Z" fill="#a3baff" fill-rule="nonzero" node-id="158" stroke="none" target-height="90" target-width="78.273705" target-x="51.9383" target-y="549.548"></path><path d="M 129.07 549.55 L 52.07 549.55 L 52.07 560.55 L 129.07 560.55 L 129.07 549.55 Z" fill="#ccd9ff" fill-rule="nonzero" node-id="160" stroke="none" target-height="11" target-width="77.0003" target-x="52.0747" target-y="549.548"></path><path d="M 518.91 63.13 L 305.66 63.13 C 301.79 63.13 298.66 66.26 298.66 70.13 L 298.66 211.89 C 298.66 215.75 301.79 218.89 305.66 218.89 L 518.91 218.89 C 522.78 218.89 525.91 215.75 525.91 211.89 L 525.91 70.13 C 525.91 66.26 522.78 63.13 518.91 63.13 Z" fill="#ffffff" fill-rule="nonzero" node-id="162" stroke="#e5e5e5" stroke-linecap="butt" stroke-width="2" target-height="155.76201" target-width="227.25897" target-x="298.656" target-y="63.127"></path><path d="M 335.35 118.08 C 341.57 118.08 346.62 113.04 346.62 106.81 C 346.62 100.59 341.57 95.54 335.35 95.54 C 329.12 95.54 324.08 100.59 324.08 106.81 C 324.08 113.04 329.12 118.08 335.35 118.08 Z" fill="#a3b7ff" fill-rule="nonzero" node-id="164" stroke="none" target-height="22.537704" target-width="22.536987" target-x="324.079" target-y="95.5443"></path><path d="M 347.39 168.60 L 324.86 168.60 L 324.86 201.24 L 347.39 201.24 L 347.39 168.60 Z" fill="#5fffd8" fill-rule="nonzero" node-id="166" stroke="none" target-height="32.64" target-width="22.537018" target-x="324.856" target-y="168.596"></path><path d="M 347.39 145.28 L 324.86 145.28 L 324.86 177.92 L 347.39 177.92 L 347.39 145.28 Z" fill="#1be3b3" fill-rule="nonzero" node-id="168" stroke="none" target-height="32.64" target-width="22.537018" target-x="324.856" target-y="145.282"></path><path d="M 386.25 171.71 L 363.71 171.71 L 363.71 201.24 L 386.25 201.24 L 386.25 171.71 Z" fill="#5fffd8" fill-rule="nonzero" node-id="170" stroke="none" target-height="29.531998" target-width="22.537994" target-x="363.713" target-y="171.705"></path><path d="M 386.25 159.27 L 363.71 159.27 L 363.71 185.69 L 386.25 185.69 L 386.25 159.27 Z" fill="#1be3b3" fill-rule="nonzero" node-id="172" stroke="none" target-height="26.422989" target-width="22.538025" target-x="363.714" target-y="159.27"></path><path d="M 425.11 153.05 L 402.57 153.05 L 402.57 201.24 L 425.11 201.24 L 425.11 153.05 Z" fill="#5fffd8" fill-rule="nonzero" node-id="174" stroke="none" target-height="48.183" target-width="22.536987" target-x="402.571" target-y="153.054"></path><path d="M 425.11 136.73 L 402.57 136.73 L 402.57 168.60 L 425.11 168.60 L 425.11 136.73 Z" fill="#1be3b3" fill-rule="nonzero" node-id="176" stroke="none" target-height="31.862991" target-width="22.536987" target-x="402.571" target-y="136.733"></path><path d="M 463.96 153.05 L 441.43 153.05 L 441.43 201.24 L 463.96 201.24 L 463.96 153.05 Z" fill="#5fffd8" fill-rule="nonzero" node-id="178" stroke="none" target-height="48.183" target-width="22.536987" target-x="441.428" target-y="153.053"></path><path d="M 463.96 112.64 L 441.43 112.64 L 441.43 160.82 L 463.96 160.82 L 463.96 112.64 Z" fill="#1be3b3" fill-rule="nonzero" node-id="180" stroke="none" target-height="48.184" target-width="22.536987" target-x="441.428" target-y="112.641"></path><path d="M 502.82 153.05 L 480.29 153.05 L 480.29 201.24 L 502.82 201.24 L 502.82 153.05 Z" fill="#5fffd8" fill-rule="nonzero" node-id="182" stroke="none" target-height="48.184006" target-width="22.536987" target-x="480.286" target-y="153.053"></path><path d="M 502.82 126.63 L 480.29 126.63 L 480.29 174.81 L 502.82 174.81 L 502.82 126.63 Z" fill="#1be3b3" fill-rule="nonzero" node-id="184" stroke="none" target-height="48.183006" target-width="22.537018" target-x="480.287" target-y="126.63"></path><path d="M 239.03 640.41 L 227.23 630.29 C 220.95 624.91 222.15 608.48 222.15 608.48 L 205.28 607.56 L 205.28 625.81 L 202.54 635.39 L 237.66 642.23 L 239.03 640.41 Z" fill="#ffae64" fill-rule="nonzero" node-id="186" stroke="none" target-height="34.66797" target-width="36.492004" target-x="202.539" target-y="607.564"></path><path d="M 233.14 651.36 L 244.42 651.36 C 245.88 651.36 247.24 650.58 247.98 649.31 C 249.10 647.39 248.51 644.94 246.66 643.71 C 244.43 642.22 241.18 640.02 237.21 637.21 C 229.45 631.74 226.26 628.09 226.26 628.09 C 226.26 628.09 221.70 630.83 214.85 630.83 C 208.01 630.83 204.36 625.81 204.36 625.81 C 201.43 633.15 201.32 641.32 204.07 648.73 L 204.36 649.53 L 217.59 650.44 L 219.87 648.62 L 225.91 650.34 C 228.26 651.01 230.69 651.36 233.14 651.36 Z" fill="#2c2770" fill-rule="nonzero" node-id="188" stroke="none" target-height="25.544983" target-width="47.773987" target-x="201.322" target-y="625.81"></path><path d="M 116.78 640.41 L 128.58 630.29 C 134.86 624.91 133.66 608.48 133.66 608.48 L 150.54 607.56 L 150.54 625.81 L 153.27 635.39 L 118.15 642.23 L 116.78 640.41 Z" fill="#ffae64" fill-rule="nonzero" node-id="190" stroke="none" target-height="34.66797" target-width="36.492004" target-x="116.782" target-y="607.564"></path><path d="M 122.67 651.36 L 111.40 651.36 C 109.93 651.36 108.57 650.58 107.83 649.31 C 106.72 647.39 107.31 644.94 109.15 643.71 C 111.38 642.22 114.63 640.02 118.61 637.21 C 126.36 631.74 129.55 628.09 129.55 628.09 C 129.55 628.09 134.12 630.83 140.96 630.83 C 147.80 630.83 151.45 625.81 151.45 625.81 C 154.39 633.15 154.49 641.32 151.75 648.73 L 151.45 649.53 L 138.22 650.44 L 135.94 648.62 L 129.91 650.34 C 127.56 651.01 125.12 651.36 122.67 651.36 Z" fill="#2c2770" fill-rule="nonzero" node-id="192" stroke="none" target-height="25.544983" target-width="47.773994" target-x="106.717" target-y="625.81"></path><path d="M 155.91 355.17 L 159.66 336.61 L 235.84 334.33 L 240.54 370.09 C 241.97 380.89 242.42 391.81 241.91 402.69 L 231.73 620.34 L 204.82 620.34 L 199.35 402.30 L 159.66 620.34 L 130.92 620.34 L 153.27 410.96 L 153.07 408.78 C 151.39 390.87 152.35 372.81 155.91 355.17 Z" fill="#2c2770" fill-rule="nonzero" node-id="194" stroke="none" target-height="286.00897" target-width="111.50099" target-x="130.923" target-y="334.328"></path><g node-id="357"><path d="M 164.22 334.78 C 161.79 346.95 156.92 381.86 156.92 424.19 C 156.92 424.19 141.72 573.20 134.12 621.25" fill="none" group-id="1" node-id="198" stroke="#ffffff" stroke-linecap="butt" stroke-width="1" target-height="286.46503" target-width="30.106003" target-x="134.116" target-y="334.784"></path><path d="M 199.80 402.75 C 202.54 409.59 208.10 432.40 208.47 468.89 C 208.83 505.39 208.62 585.06 208.47 620.34" fill="none" group-id="1" node-id="200" stroke="#ffffff" stroke-linecap="butt" stroke-width="1" target-height="217.58597" target-width="9.031998" target-x="199.802" target-y="402.751"></path></g><path d="M 292.57 215.65 L 270.50 226.86 L 272.93 251.17 L 296.06 240.96 C 308.63 235.41 317.48 223.80 319.48 210.20 L 327.41 156.49 L 333.78 149.23 L 338.73 142.81 C 340.43 140.61 341.06 137.77 340.44 135.06 C 340.00 133.10 338.67 131.45 336.85 130.60 L 327.64 126.28 L 333.71 111.65 C 334.30 110.23 333.48 108.62 331.98 108.26 C 330.89 107.99 329.76 108.48 329.21 109.46 L 319.91 125.89 L 317.30 125.45 C 316.01 125.23 314.72 125.89 314.13 127.06 L 311.11 133.04 C 310.28 134.70 310.04 136.60 310.45 138.41 L 312.83 148.91 L 292.57 215.65 Z" fill="#ff9330" fill-rule="nonzero" node-id="203" stroke="none" target-height="143.181" target-width="70.554016" target-x="270.503" target-y="107.991"></path><path d="M 333.96 129.31 L 328.49 139.81 C 327.95 140.85 326.69 141.29 325.62 140.82 C 324.59 140.38 324.06 139.24 324.36 138.16 L 325.27 134.97" fill="none" node-id="205" stroke="#000000" stroke-linecap="butt" stroke-width="1" target-height="11.985001" target-width="9.906982" target-x="324.057" target-y="129.308"></path><path d="M 338.96 131.76 L 332.36 141.70 C 331.73 142.64 330.49 142.93 329.52 142.37 C 328.52 141.81 328.15 140.56 328.67 139.54 L 328.94 139.03" fill="none" node-id="207" stroke="#000000" stroke-linecap="butt" stroke-width="1" target-height="11.168991" target-width="10.8029785" target-x="328.153" target-y="131.761"></path><path d="M 339.80 139.38 L 334.44 146.91 C 333.75 147.86 332.46 148.15 331.44 147.56 C 330.46 147.00 330.03 145.81 330.45 144.75 L 331.44 142.20" fill="none" node-id="209" stroke="#000000" stroke-linecap="butt" stroke-width="1" target-height="8.768997" target-width="9.768005" target-x="330.034" target-y="139.376"></path><path d="M 321.76 126.69 L 331.07 130.65 C 331.86 130.99 332.25 131.87 331.97 132.68 C 331.36 134.42 329.66 135.53 327.82 135.38 L 319.30 134.69 C 320.95 135.76 323.20 141.66 323.43 147.77" fill="none" node-id="211" stroke="#000000" stroke-linecap="butt" stroke-width="1" target-height="21.078995" target-width="12.953003" target-x="319.298" target-y="126.694"></path><path d="M 158.51 236.73 L 179.16 231.31 L 232.61 231.31 C 239.05 231.31 245.46 230.43 251.66 228.67 L 282.91 219.83 L 288.38 247.87 L 242.31 275.82 L 238.17 292.89 L 241.80 318.60 C 243.26 328.99 235.06 338.21 224.57 337.97 L 162.74 336.55 C 158.21 336.44 154.67 332.60 154.94 328.08 L 156.95 293.36 L 149.66 307.38 L 123.26 301.69 L 132.67 263.04 C 135.80 250.19 145.72 240.09 158.51 236.73 Z" fill="#54b7ff" fill-rule="nonzero" node-id="213" stroke="none" target-height="118.381" target-width="165.128" target-x="123.256" target-y="219.833"></path><path d="M 179.16 231.31 L 158.51 236.73 C 145.72 240.09 135.80 250.19 132.67 263.04 L 123.26 301.69 L 149.66 307.38 L 156.95 293.36 L 124.18 494.97 C 123.69 497.96 125.96 500.69 128.99 500.77 L 153.21 501.37 L 183.66 388.63 L 183.66 238.13 L 210.16 238.13 L 216.16 388.63 L 233.10 503.37 L 257.88 503.98 C 260.92 504.06 263.33 501.41 262.96 498.39 L 238.17 292.89 L 242.31 275.82 L 288.38 247.87 L 282.91 219.83 L 251.66 228.67 C 245.46 230.43 239.05 231.31 232.61 231.31 L 179.16 231.31 Z" fill="#ffe071" fill-rule="evenodd" node-id="215" stroke="none" target-height="284.226" target-width="165.128" target-x="123.256" target-y="219.833"></path><path d="M 219.66 190.13 L 206.66 188.13" fill="none" node-id="217" stroke="#000000" stroke-linecap="butt" stroke-width="1" target-height="2" target-width="13" target-x="206.656" target-y="188.127"></path><path d="M 179.30 226.74 C 181.18 222.05 180.87 206.80 180.48 199.76 C 189.09 201.33 205.96 207.15 204.55 217.95 C 203.14 228.74 207.09 231.44 209.25 231.44 C 211.59 236.52 213.12 247.27 200.44 249.62 C 187.76 251.97 177.15 240.82 173.43 234.96 C 174.61 234.17 177.43 231.44 179.30 226.74 Z" fill="#ff9330" fill-rule="nonzero" node-id="219" stroke="none" target-height="52.20401" target-width="39.686996" target-x="173.433" target-y="199.762"></path><path d="M 206.31 227.45 C 187.31 225.38 181.18 209.38 180.50 201.64 L 206.31 216.09 C 214.22 220.74 225.30 229.51 206.31 227.45 Z" fill="#d76767" fill-rule="nonzero" group-id="2" node-id="223" stroke="none" target-height="27.876007" target-width="44.80699" target-x="180.496" target-y="201.637"></path><path d="M 181.00 201.36 C 180.61 207.79 188.45 219.48 202.79 218.90 C 211.17 218.56 213.28 208.99 215.42 198.44 C 216.94 190.92 219.81 182.91 218.86 177.40 L 206.24 173.31 C 207.96 175.64 207.39 175.13 201.66 175.13 C 195.98 175.13 193.76 171.88 191.66 170.13 C 190.51 177.14 181.66 169.80 181.66 173.31 C 181.66 176.11 183.66 194.48 183.66 196.63 C 181.66 196.63 182.69 190.13 181.00 189.09 C 179.08 187.92 175.26 187.10 175.26 193.18 C 175.26 199.26 179.08 201.17 181.00 201.36 Z" fill="#ff9330" fill-rule="nonzero" node-id="226" stroke="none" target-height="49.68599" target-width="44.555008" target-x="175.258" target-y="169.798"></path><path d="M 181.66 196.63 C 181.66 196.63 182.66 188.63 179.66 188.63 C 173.33 188.63 175.66 196.13 175.66 196.13 C 169.82 185.13 171.66 164.63 188.66 159.63 C 214.31 152.08 226.16 175.92 218.66 177.13 C 203.16 179.63 191.66 172.13 189.66 173.63 C 187.66 175.13 185.66 189.13 184.66 194.13 C 183.86 198.13 182.49 197.79 181.66 196.63 Z" fill="#2c2770" fill-rule="nonzero" node-id="228" stroke="none" target-height="46.046005" target-width="56.333008" target-x="169.823" target-y="152.081"></path><path d="M 198.48 204.28 L 204.87 207.48 C 204.41 208.39 202.95 209.57 200.76 208.84 C 198.57 208.11 198.33 205.80 198.48 204.28 Z" fill="#ffffff" fill-rule="nonzero" node-id="230" stroke="none" target-height="5.2910004" target-width="6.5379944" target-x="198.328" target-y="204.283"></path><path d="M 212.16 185.12 L 216.73 185.12 C 217.48 185.12 218.09 185.74 218.09 186.49 C 218.09 187.25 217.48 187.86 216.73 187.86 L 212.16 187.86 C 211.41 187.86 210.80 187.25 210.80 186.49 C 210.80 185.74 211.41 185.12 212.16 185.12 Z" fill="#2c2770" fill-rule="nonzero" node-id="232" stroke="none" target-height="2.7369995" target-width="7.298004" target-x="210.797" target-y="185.124"></path><path d="M 193.92 185.12 L 198.48 185.12 C 199.24 185.12 199.85 185.74 199.85 186.49 C 199.85 187.25 199.24 187.86 198.48 187.86 L 193.92 187.86 C 193.16 187.86 192.55 187.25 192.55 186.49 C 192.55 185.74 193.16 185.12 193.92 185.12 Z" fill="#2c2770" fill-rule="nonzero" node-id="234" stroke="none" target-height="2.7369995" target-width="7.298004" target-x="192.551" target-y="185.124"></path><path d="M 196.66 193.42 C 195.90 193.42 195.29 192.81 195.29 192.05 C 195.29 191.30 195.90 190.69 196.66 190.69 C 197.41 190.69 198.02 191.30 198.02 192.05 C 198.02 192.81 197.41 193.42 196.66 193.42 Z" fill="#000000" fill-rule="nonzero" node-id="236" stroke="none" target-height="2.7369995" target-width="2.7359924" target-x="195.287" target-y="190.685"></path><path d="M 207.15 186.95 L 207.15 203.37 L 203.04 203.37" fill="none" node-id="238" stroke="#000000" stroke-linecap="butt" stroke-width="1" target-height="16.42099" target-width="4.1049957" target-x="203.042" target-y="186.949"></path><path d="M 211.99 193.42 C 211.23 193.42 210.62 192.81 210.62 192.05 C 210.62 191.30 211.23 190.69 211.99 190.69 C 212.75 190.69 213.36 191.30 213.36 192.05 C 213.36 192.81 212.75 193.42 211.99 193.42 Z" fill="#000000" fill-rule="nonzero" node-id="240" stroke="none" target-height="2.7369995" target-width="2.7369995" target-x="210.62" target-y="190.685"></path><path d="M 204.66 191.63 C 204.66 194.94 201.97 197.63 198.66 197.63 C 195.34 197.63 192.66 194.94 192.66 191.63 C 192.66 190.80 192.82 190.19 193.09 189.75 C 193.36 189.30 193.76 188.97 194.27 188.73 C 195.34 188.24 196.85 188.13 198.66 188.13 C 200.46 188.13 201.98 188.24 203.04 188.73 C 203.56 188.97 203.95 189.30 204.22 189.75 C 204.49 190.19 204.66 190.80 204.66 191.63 Z" fill="none" node-id="242" stroke="#000000" stroke-linecap="butt" stroke-width="1" target-height="9.5" target-width="12" target-x="192.656" target-y="188.127"></path><path d="M 208.09 189.75 C 206.98 188.70 205.68 188.70 204.22 189.75" fill="none" node-id="244" stroke="#000000" stroke-linecap="butt" stroke-width="1" target-height="1.0429993" target-width="3.876999" target-x="204.218" target-y="188.703"></path><path d="M 219.66 191.63 C 219.66 194.94 216.97 197.63 213.66 197.63 C 210.34 197.63 207.66 194.94 207.66 191.63 C 207.66 190.80 207.82 190.19 208.09 189.75 C 208.36 189.30 208.76 188.97 209.27 188.73 C 210.34 188.24 211.85 188.13 213.66 188.13 C 215.46 188.13 216.98 188.24 218.04 188.73 C 218.56 188.97 218.95 189.30 219.22 189.75 C 219.49 190.19 219.66 190.80 219.66 191.63 Z" fill="none" node-id="246" stroke="#000000" stroke-linecap="butt" stroke-width="1" target-height="9.5" target-width="12" target-x="207.656" target-y="188.127"></path><path d="M 192.66 190.13 L 179.66 188.13" fill="none" node-id="248" stroke="#000000" stroke-linecap="butt" stroke-width="1" target-height="2" target-width="13" target-x="179.656" target-y="188.127"></path><path d="M 281.88 285.59 L 230.85 292.72 C 230.13 292.82 229.52 293.31 229.26 294.00 L 215.32 330.85 C 214.79 332.26 215.96 333.74 217.46 333.54 L 267.92 326.76 C 268.62 326.66 269.21 326.21 269.49 325.56 L 284.99 289.01 C 285.37 288.12 285.06 287.10 284.26 286.56 L 283.27 285.90 C 282.86 285.63 282.37 285.52 281.88 285.59 Z" fill="#2c2770" fill-rule="nonzero" node-id="250" stroke="none" target-height="48.218018" target-width="70.578" target-x="214.788" target-y="285.52"></path><path d="M 282.96 287.71 L 234.61 294.48 C 232.80 294.73 231.28 295.95 230.63 297.66 L 219.10 328.14 C 217.76 331.68 220.69 335.37 224.44 334.87 L 268.18 328.99 C 269.95 328.75 271.46 327.59 272.14 325.94 L 286.15 291.82 C 287.03 289.68 285.25 287.39 282.96 287.71 Z" fill="#6b8cff" fill-rule="nonzero" node-id="252" stroke="none" target-height="47.985016" target-width="69.26901" target-x="217.763" target-y="287.386"></path><path d="M 255.55 315.18 C 257.75 313.52 258.33 310.56 256.83 308.58 C 255.34 306.59 252.34 306.33 250.13 307.99 C 247.93 309.65 247.35 312.61 248.85 314.60 C 250.34 316.58 253.34 316.84 255.55 315.18 Z" fill="#2c2770" fill-rule="nonzero" node-id="254" stroke="none" target-height="10.512024" target-width="10.977997" target-x="247.35" target-y="306.33"></path><path d="M 202.04 315.57 L 148.16 307.13 L 123.66 301.63 L 121.11 314.66 C 119.31 323.91 126.38 332.51 135.79 332.53 L 198.03 332.71 L 204.18 336.25 C 204.36 336.35 204.55 336.44 204.75 336.51 L 213.17 339.72 C 213.26 339.76 213.37 339.79 213.47 339.81 L 227.43 342.79 C 228.16 342.94 228.91 342.66 229.34 342.06 C 230.13 340.97 229.57 339.43 228.27 339.12 L 218.69 336.79 L 233.58 336.79 C 234.15 336.79 234.68 336.48 234.95 335.98 C 235.47 335.00 234.84 333.80 233.73 333.69 L 221.78 332.55 L 239.40 330.99 C 240.08 330.93 240.67 330.50 240.94 329.87 C 241.44 328.70 240.63 327.38 239.35 327.30 L 223.44 326.36 L 238.26 324.02 C 239.27 323.86 240.06 323.05 240.19 322.03 C 240.36 320.68 239.33 319.48 237.97 319.44 L 218.69 318.89 L 220.14 317.98 L 223.14 309.98 L 214.12 311.49 C 213.68 311.56 213.24 311.68 212.81 311.82 L 202.04 315.57 Z" fill="#ff9330" fill-rule="nonzero" node-id="256" stroke="none" target-height="41.31598" target-width="122.131004" target-x="119.311" target-y="301.627"></path><path d="M 680.43 640.32 L 692.29 630.74 C 696.37 627.24 698.64 621.62 697.30 609.76 C 695.64 594.96 686.36 533.13 686.36 533.13 L 711.45 533.13 L 713.27 626.18 L 715.55 635.31 L 681.79 642.15 L 680.43 640.32 Z" fill="#ffae64" fill-rule="nonzero" node-id="258" stroke="none" target-height="109.020996" target-width="35.122986" target-x="680.427" target-y="533.127"></path><path d="M 683.98 641.02 L 715.10 633.02 C 717.85 635.50 718.81 639.41 717.52 642.88 L 715.10 649.45 L 701.87 650.36 L 700.95 647.16 L 694.21 649.69 C 691.43 650.74 688.48 651.27 685.51 651.27 L 675.00 651.27 C 673.56 651.27 672.23 650.51 671.50 649.26 C 670.38 647.34 671.02 644.88 672.93 643.75 L 686.36 635.76 L 682.74 638.39 C 682.00 638.93 681.92 639.99 682.57 640.64 C 682.94 641.01 683.48 641.15 683.98 641.02 Z" fill="#2c2770" fill-rule="nonzero" node-id="260" stroke="none" target-height="18.245972" target-width="48.428955" target-x="670.382" target-y="633.025"></path><path d="M 781.71 639.70 L 770.30 631.03 C 766.22 627.53 763.92 615.07 763.01 610.05 C 759.81 587.70 756.16 529.76 756.16 529.76 L 731.08 529.76 L 748.41 627.38 L 746.13 635.59 L 780.34 641.52 L 781.71 639.70 Z" fill="#ffae64" fill-rule="nonzero" node-id="262" stroke="none" target-height="111.757996" target-width="50.632996" target-x="731.075" target-y="529.764"></path><path d="M 778.15 640.86 L 747.04 632.86 C 744.29 635.33 743.32 639.24 744.61 642.72 L 747.04 649.28 L 760.27 650.19 L 761.18 647.00 L 767.92 649.52 C 770.70 650.57 773.65 651.10 776.62 651.10 L 787.14 651.10 C 788.58 651.10 789.91 650.34 790.63 649.09 C 791.75 647.17 791.12 644.71 789.21 643.58 L 775.78 635.59 L 779.39 638.22 C 780.13 638.76 780.21 639.82 779.57 640.47 C 779.20 640.84 778.66 640.99 778.15 640.86 Z" fill="#2c2770" fill-rule="nonzero" node-id="264" stroke="none" target-height="18.246033" target-width="48.430054" target-x="743.324" target-y="632.855"></path><path d="M 755.58 368.97 L 751.83 350.41 L 675.65 348.13 L 668.81 400.13 L 669.76 536.14 L 770.57 536.14 L 758.22 424.76 L 758.42 422.58 C 760.10 404.67 759.14 386.61 755.58 368.97 Z" fill="#2c2770" fill-rule="nonzero" node-id="266" stroke="none" target-height="188.00897" target-width="101.75702" target-x="668.81" target-y="348.127"></path><path d="M 747.27 348.58 C 749.70 360.75 754.57 395.66 754.57 437.99 C 754.57 437.99 756.23 488.88 763.83 536.93" fill="none" node-id="268" stroke="#ffffff" stroke-linecap="butt" stroke-width="1" target-height="188.34302" target-width="16.565979" target-x="747.268" target-y="348.583"></path><path d="M 624.13 229.68 L 644.67 240.11 L 642.41 262.74 L 622.27 253.85 C 609.70 248.30 600.85 236.69 598.85 223.10 L 591.70 174.60 L 585.76 167.84 L 581.15 161.86 C 579.57 159.82 578.99 157.17 579.56 154.65 C 579.97 152.82 581.21 151.29 582.91 150.49 L 591.48 146.48 L 585.83 132.85 C 585.28 131.53 586.04 130.03 587.43 129.69 C 588.45 129.45 589.50 129.90 590.02 130.81 L 598.68 146.10 L 600.95 145.73 C 602.25 145.51 603.53 146.16 604.12 147.33 L 606.77 152.59 C 607.61 154.25 607.84 156.15 607.43 157.96 L 605.27 167.54 L 624.13 229.68 Z" fill="#ff9330" fill-rule="nonzero" node-id="270" stroke="none" target-height="133.29701" target-width="65.68402" target-x="578.987" target-y="129.446"></path><path d="M 585.59 149.29 L 590.68 159.07 C 591.19 160.04 592.36 160.45 593.36 160.01 C 594.32 159.59 594.81 158.54 594.53 157.54 L 593.68 154.56" fill="none" node-id="272" stroke="#000000" stroke-linecap="butt" stroke-width="1" target-height="11.158997" target-width="9.223999" target-x="585.59" target-y="149.291"></path><path d="M 580.94 151.57 L 587.09 160.83 C 587.67 161.70 588.82 161.97 589.73 161.46 C 590.65 160.93 591.00 159.77 590.52 158.82 L 590.27 158.35" fill="none" node-id="274" stroke="#000000" stroke-linecap="butt" stroke-width="1" target-height="10.399002" target-width="10.057007" target-x="580.943" target-y="151.575"></path><path d="M 580.16 158.66 L 585.15 165.67 C 585.78 166.56 586.99 166.83 587.94 166.29 C 588.85 165.77 589.25 164.65 588.87 163.67 L 587.94 161.29" fill="none" node-id="276" stroke="#000000" stroke-linecap="butt" stroke-width="1" target-height="8.164001" target-width="9.093018" target-x="580.156" target-y="158.665"></path><path d="M 596.96 146.86 L 588.28 150.54 C 587.55 150.85 587.19 151.68 587.45 152.43 C 588.01 154.05 589.60 155.08 591.31 154.94 L 599.24 154.30 C 597.71 155.30 595.61 160.79 595.40 166.48" fill="none" node-id="278" stroke="#000000" stroke-linecap="butt" stroke-width="1" target-height="19.623993" target-width="12.058044" target-x="587.186" target-y="146.858"></path><path d="M 754.80 249.73 L 734.15 244.31 L 680.71 244.31 C 674.26 244.31 667.86 243.43 661.66 241.67 L 630.40 232.83 L 624.93 260.87 L 671.00 288.82 L 675.14 305.89 L 671.49 331.75 C 670.04 342.09 678.16 351.29 688.60 351.12 L 744.58 350.24 C 748.62 350.18 751.98 347.11 752.41 343.09 L 756.36 306.36 L 763.66 320.38 L 790.06 314.69 L 780.64 276.04 C 777.51 263.19 767.59 253.09 754.80 249.73 Z" fill="#54b7ff" fill-rule="nonzero" node-id="280" stroke="none" target-height="118.45201" target-width="165.12805" target-x="624.928" target-y="232.833"></path><path d="M 734.15 244.31 L 754.80 249.73 C 767.59 253.09 777.51 263.19 780.64 276.04 L 790.06 314.69 L 763.66 320.38 L 758.16 311.63 L 755.54 340.73 C 754.96 347.29 755.37 353.90 756.76 360.34 L 788.77 507.72 C 789.44 510.79 787.15 513.70 784.01 513.78 L 760.10 514.37 L 729.66 401.63 L 729.66 251.13 L 703.16 251.13 L 697.16 401.63 L 680.21 516.37 L 655.60 516.98 C 652.50 517.06 650.07 514.32 650.53 511.25 L 679.66 314.69 L 676.36 309.15 C 672.85 303.25 671.00 296.50 671.00 289.63 L 624.93 260.87 L 630.40 232.83 L 661.66 241.67 C 667.86 243.43 674.26 244.31 680.71 244.31 L 734.15 244.31 Z" fill="#ff6767" fill-rule="nonzero" node-id="282" stroke="none" target-height="284.22302" target-width="165.12805" target-x="624.928" target-y="232.833"></path><path d="M 692.29 188.79 C 693.41 179.81 702.11 178.50 706.32 178.97 C 708.66 177.56 713.34 171.95 723.17 173.35 C 732.99 174.75 744.22 180.37 741.41 193.00 C 741.41 193.00 747.96 208.91 749.84 215.46 C 755.45 229.50 747.33 239.68 735.80 240.72 C 720.36 242.13 727.38 240.72 703.52 243.53 C 679.65 246.34 678.25 226.69 683.87 214.06 C 689.48 201.42 690.88 200.02 692.29 188.79 Z" fill="#2c2770" fill-rule="nonzero" node-id="284" stroke="none" target-height="74.392" target-width="77.199036" target-x="678.251" target-y="171.947"></path><path d="M 699.30 198.62 L 699.30 202.83 C 697.43 202.36 693.69 202.26 693.69 205.63 C 693.69 209.84 696.50 212.65 699.30 211.25 C 699.67 215.62 702.02 224.26 709.02 227.86 C 708.77 231.16 708.04 235.89 706.32 239.32 C 704.08 243.81 699.77 245.87 697.90 246.34 C 700.71 249.61 708.57 256.16 717.55 256.16 C 726.53 256.16 733.46 249.61 735.80 246.34 C 734.39 245.87 730.75 244.09 727.38 240.72 C 724.73 238.07 724.22 231.77 724.35 227.15 C 730.18 223.23 731.96 215.36 732.99 211.25 C 734.86 211.72 738.61 211.53 738.61 207.04 C 738.61 202.55 734.39 202.36 732.99 202.83 L 732.99 198.62 C 730.18 199.08 722.88 198.90 716.15 194.41 C 709.41 189.91 707.73 187.85 707.73 187.39 C 707.73 189.73 706.70 194.03 704.92 195.81 C 702.11 198.62 700.24 198.15 699.30 198.62 Z" fill="#ffae64" fill-rule="nonzero" node-id="286" stroke="none" target-height="68.77701" target-width="44.916016" target-x="693.69" target-y="187.387"></path><path d="M 711.06 217.83 L 717.44 221.02 C 716.99 221.94 715.53 223.12 713.34 222.39 C 711.15 221.66 710.91 219.35 711.06 217.83 Z" fill="#ffffff" fill-rule="nonzero" node-id="288" stroke="none" target-height="5.291992" target-width="6.537964" target-x="710.906" target-y="217.83"></path><path d="M 724.74 198.67 L 729.30 198.67 C 730.06 198.67 730.67 199.28 730.67 200.04 C 730.67 200.80 730.06 201.41 729.30 201.41 L 724.74 201.41 C 723.99 201.41 723.37 200.80 723.37 200.04 C 723.37 199.28 723.99 198.67 724.74 198.67 Z" fill="#2c2770" fill-rule="nonzero" node-id="290" stroke="none" target-height="2.7369995" target-width="7.29895" target-x="723.374" target-y="198.672"></path><path d="M 706.50 198.67 L 711.06 198.67 C 711.82 198.67 712.43 199.28 712.43 200.04 C 712.43 200.80 711.82 201.41 711.06 201.41 L 706.50 201.41 C 705.74 201.41 705.13 200.80 705.13 200.04 C 705.13 199.28 705.74 198.67 706.50 198.67 Z" fill="#2c2770" fill-rule="nonzero" node-id="292" stroke="none" target-height="2.7369995" target-width="7.2979736" target-x="705.129" target-y="198.672"></path><path d="M 709.23 205.97 C 708.48 205.97 707.87 205.36 707.87 204.60 C 707.87 203.85 708.48 203.23 709.23 203.23 C 709.99 203.23 710.60 203.85 710.60 204.60 C 710.60 205.36 709.99 205.97 709.23 205.97 Z" fill="#000000" fill-rule="nonzero" node-id="294" stroke="none" target-height="2.7369995" target-width="2.7369995" target-x="707.866" target-y="203.233"></path><path d="M 719.73 200.50 L 719.73 216.92 L 715.62 216.92" fill="none" node-id="296" stroke="#000000" stroke-linecap="butt" stroke-width="1" target-height="16.421997" target-width="4.1049805" target-x="715.62" target-y="200.496"></path><path d="M 726.57 205.97 C 725.81 205.97 725.20 205.36 725.20 204.60 C 725.20 203.85 725.81 203.23 726.57 203.23 C 727.32 203.23 727.94 203.85 727.94 204.60 C 727.94 205.36 727.32 205.97 726.57 205.97 Z" fill="#000000" fill-rule="nonzero" node-id="298" stroke="none" target-height="2.7369995" target-width="2.7369995" target-x="725.199" target-y="203.233"></path><path d="M 696.92 205.51 C 696.46 206.58 696.37 208.80 699.65 209.16" fill="none" node-id="300" stroke="#000000" stroke-linecap="butt" stroke-width="1" target-height="3.6489868" target-width="3.2850342" target-x="696.37" target-y="205.514"></path><path d="M 735.92 205.51 C 736.37 206.58 736.46 208.80 733.18 209.16" fill="none" node-id="302" stroke="#000000" stroke-linecap="butt" stroke-width="1" target-height="3.6489868" target-width="3.2839966" target-x="733.179" target-y="205.514"></path><path d="M 725.65 226.50 C 724.44 227.26 720.55 229.23 716.53 229.23 C 712.72 229.23 709.16 228.00 708.03 227.49 L 707.87 227.41 C 707.91 227.43 707.97 227.46 708.03 227.49 L 726.11 236.08 L 725.65 226.50 Z" fill="#ff8282" fill-rule="nonzero" group-id="3" node-id="306" stroke="none" target-height="9.57901" target-width="18.246033" target-x="707.865" target-y="226.497"></path><path d="M 708.05 211.17 C 703.91 211.17 700.55 207.82 700.55 203.67 C 700.55 199.53 703.91 196.17 708.05 196.17 C 712.19 196.17 715.55 199.53 715.55 203.67 C 715.55 207.82 712.19 211.17 708.05 211.17 Z" fill="none" node-id="309" stroke="#000000" stroke-linecap="butt" stroke-width="1" target-height="15" target-width="15" target-x="700.551" target-y="196.174"></path><path d="M 728.05 211.17 C 723.91 211.17 720.55 207.82 720.55 203.67 C 720.55 199.53 723.91 196.17 728.05 196.17 C 732.19 196.17 735.55 199.53 735.55 203.67 C 735.55 207.82 732.19 211.17 728.05 211.17 Z" fill="none" node-id="311" stroke="#000000" stroke-linecap="butt" stroke-width="1" target-height="15" target-width="15" target-x="720.551" target-y="196.174"></path><path d="M 721.05 201.17 C 720.38 200.51 718.35 199.57 715.55 201.17" fill="none" node-id="313" stroke="#000000" stroke-linecap="butt" stroke-width="1" target-height="1.5999908" target-width="5.5" target-x="715.551" target-y="199.574"></path><path d="M 636.61 299.43 L 684.18 306.08 C 685.99 306.33 687.51 307.55 688.16 309.26 L 698.97 337.84 C 700.30 341.38 697.38 345.06 693.62 344.56 L 652.40 339.02 C 650.64 338.79 649.15 337.64 648.46 336.02 L 633.75 301.33 L 636.61 299.43 Z" fill="#2c2770" fill-rule="nonzero" node-id="315" stroke="none" target-height="45.636993" target-width="66.55701" target-x="633.748" target-y="299.427"></path><path d="M 634.82 301.34 L 682.27 307.98 C 684.08 308.24 685.61 309.46 686.25 311.17 L 697.06 339.74 C 698.40 343.29 695.47 346.97 691.72 346.47 L 650.53 340.93 C 648.76 340.70 647.25 339.53 646.57 337.88 L 632.69 304.08 C 632.10 302.65 633.29 301.13 634.82 301.34 Z" fill="#6b8cff" fill-rule="nonzero" node-id="317" stroke="none" target-height="45.845978" target-width="66.297" target-x="632.101" target-y="301.126"></path><path d="M 662.44 327.75 C 660.34 326.16 659.79 323.34 661.22 321.45 C 662.64 319.56 665.50 319.31 667.61 320.89 C 669.71 322.48 670.26 325.30 668.83 327.19 C 667.41 329.08 664.54 329.33 662.44 327.75 Z" fill="#2c2770" fill-rule="nonzero" node-id="319" stroke="none" target-height="10.023987" target-width="10.467957" target-x="659.791" target-y="319.307"></path><path d="M 713.47 328.12 L 764.85 320.07 L 788.22 314.82 L 790.48 326.43 C 792.28 335.67 785.22 344.27 775.80 344.30 L 717.29 344.46 L 711.44 347.83 C 711.26 347.93 711.07 348.02 710.87 348.10 L 702.86 351.15 C 702.76 351.19 702.67 351.21 702.57 351.24 L 689.26 354.07 C 688.56 354.22 687.85 353.95 687.43 353.38 C 686.68 352.34 687.21 350.87 688.46 350.57 L 697.60 348.35 L 683.39 348.35 C 682.85 348.35 682.35 348.05 682.09 347.58 C 681.59 346.64 682.19 345.50 683.25 345.40 L 694.64 344.31 L 677.84 342.82 C 677.19 342.77 676.63 342.36 676.37 341.76 C 675.89 340.63 676.67 339.38 677.89 339.31 L 693.07 338.40 L 678.93 336.18 C 677.96 336.02 677.21 335.25 677.09 334.28 C 676.93 332.99 677.91 331.85 679.21 331.81 L 697.60 331.29 L 696.21 330.42 L 693.35 322.79 L 701.91 324.22 C 702.36 324.30 702.80 324.41 703.23 324.56 L 713.47 328.12 Z" fill="#ff9330" fill-rule="nonzero" node-id="321" stroke="none" target-height="39.399017" target-width="116.388" target-x="675.894" target-y="314.822"></path><path d="M 322.62 412.66 C 330.22 408.27 334.25 398.97 331.85 389.91 C 329.03 379.23 318.35 372.93 307.99 375.84 C 297.63 378.75 291.52 389.76 294.34 400.45 C 296.64 409.13 304.12 414.91 312.40 415.21 L 361.52 601.13 L 371.66 598.28 L 322.62 412.66 Z M 322.73 392.47 C 324.18 397.96 321.04 403.62 315.72 405.11 C 310.40 406.60 304.92 403.37 303.47 397.88 C 302.02 392.40 305.16 386.74 310.48 385.25 C 315.79 383.75 321.28 386.99 322.73 392.47 Z" fill="#a3b7ff" fill-rule="evenodd" node-id="323" stroke="none" target-height="228.20001" target-width="80.134" target-x="291.522" target-y="372.927"></path><path d="M 454.30 326.95 C 454.30 331.86 458.22 335.85 463.12 335.94 L 467.86 336.03 L 467.12 495.47 L 370.93 620.54 C 364.54 628.86 366.09 640.79 374.41 647.19 C 377.73 649.74 381.81 651.13 386.00 651.13 L 599.25 651.13 C 609.74 651.13 618.25 642.62 618.25 632.13 C 618.25 627.95 616.87 623.89 614.34 620.58 L 518.57 495.47 L 517.94 335.78 L 522.39 335.78 C 527.27 335.78 531.22 331.83 531.22 326.95 C 531.22 322.08 527.27 318.13 522.39 318.13 L 463.12 318.13 C 458.25 318.13 454.30 322.08 454.30 326.95 Z" fill="#ffffff" fill-rule="evenodd" node-id="325" stroke="#000000" stroke-linecap="butt" stroke-width="1.47913" target-height="333" target-width="253.711" target-x="364.537" target-y="318.127"></path><path d="M 400.92 611.49 L 432.07 602.46 C 450.72 597.06 470.62 597.95 488.70 604.99 L 490.84 605.83 C 507.35 612.26 525.71 611.96 542.00 604.99 C 557.14 598.52 574.72 602.57 585.50 615.01 L 586.03 615.63 C 590.73 621.05 590.14 629.26 584.72 633.96 C 582.36 636.00 579.34 637.13 576.21 637.13 L 383.66 637.13 L 400.92 611.49 Z" fill="#1be3b3" fill-rule="nonzero" node-id="327" stroke="none" target-height="40.070984" target-width="207.07397" target-x="383.656" target-y="597.056"></path><path d="M 489.66 354.63 L 512.66 354.63" fill="none" node-id="329" stroke="#000000" stroke-linecap="butt" stroke-width="2.95825" target-height="0" target-width="23" target-x="489.656" target-y="354.627"></path><path d="M 500.66 367.63 L 512.66 367.63" fill="none" node-id="331" stroke="#000000" stroke-linecap="butt" stroke-width="2.95825" target-height="0" target-width="12" target-x="500.656" target-y="367.627"></path><path d="M 489.66 380.63 L 512.66 380.63" fill="none" node-id="333" stroke="#000000" stroke-linecap="butt" stroke-width="2.95825" target-height="0" target-width="23" target-x="489.656" target-y="380.627"></path><path d="M 500.66 393.63 L 512.66 393.63" fill="none" node-id="335" stroke="#000000" stroke-linecap="butt" stroke-width="2.95825" target-height="0" target-width="12" target-x="500.656" target-y="393.627"></path><path d="M 489.66 406.63 L 512.66 406.63" fill="none" node-id="337" stroke="#000000" stroke-linecap="butt" stroke-width="2.95825" target-height="0" target-width="23" target-x="489.656" target-y="406.627"></path><path d="M 500.66 419.63 L 512.66 419.63" fill="none" node-id="339" stroke="#000000" stroke-linecap="butt" stroke-width="2.95825" target-height="0" target-width="12" target-x="500.656" target-y="419.627"></path><path d="M 309.67 451.46 L 303.66 437.13 L 500.66 437.13 L 494.32 450.81 C 491.61 456.65 490.21 463.04 490.21 469.52 L 490.21 613.03 C 490.21 634.62 473.22 652.13 452.26 652.13 L 351.07 652.13 C 330.11 652.13 313.12 634.62 313.12 613.03 L 313.12 468.68 C 313.12 462.76 311.94 456.90 309.67 451.46 Z" fill="#ffffff" fill-rule="evenodd" node-id="341" stroke="#000000" stroke-linecap="butt" stroke-width="1.47913" target-height="215" target-width="197" target-x="303.656" target-y="437.127"></path><path d="M 321.66 590.36 L 342.65 578.77 C 362.37 567.89 385.73 566.45 406.56 574.85 C 422.76 581.38 440.63 582.01 457.23 576.66 L 483.66 568.13 L 483.66 610.42 C 483.66 629.59 468.58 645.13 449.99 645.13 L 355.32 645.13 C 336.73 645.13 321.66 629.59 321.66 610.42 L 321.66 590.36 Z" fill="#6b8cff" fill-rule="nonzero" node-id="343" stroke="none" target-height="78.673035" target-width="162" target-x="321.656" target-y="566.454"></path><path d="M 456.66 487.63 L 479.66 487.63" fill="none" node-id="345" stroke="#000000" stroke-linecap="butt" stroke-width="2.95825" target-height="0" target-width="23" target-x="456.656" target-y="487.627"></path><path d="M 467.66 500.63 L 479.66 500.63" fill="none" node-id="347" stroke="#000000" stroke-linecap="butt" stroke-width="2.95825" target-height="0" target-width="12" target-x="467.656" target-y="500.627"></path><path d="M 456.66 513.63 L 479.66 513.63" fill="none" node-id="349" stroke="#000000" stroke-linecap="butt" stroke-width="2.95825" target-height="0" target-width="23" target-x="456.656" target-y="513.627"></path><path d="M 467.66 526.63 L 479.66 526.63" fill="none" node-id="351" stroke="#000000" stroke-linecap="butt" stroke-width="2.95825" target-height="0" target-width="12" target-x="467.656" target-y="526.627"></path><path d="M 456.66 539.63 L 479.66 539.63" fill="none" node-id="353" stroke="#000000" stroke-linecap="butt" stroke-width="2.95825" target-height="0" target-width="23" target-x="456.656" target-y="539.627"></path><path d="M 467.66 552.63 L 479.66 552.63" fill="none" node-id="355" stroke="#000000" stroke-linecap="butt" stroke-width="2.95825" target-height="0" target-width="12" target-x="467.656" target-y="552.627"></path></svg>