<?xml version="1.0" standalone="no"?><!DOCTYPE svg PUBLIC "-//W3C//DTD SVG 1.1//EN" "http://www.w3.org/Graphics/SVG/1.1/DTD/svg11.dtd"><svg height="695" node-id="1" sillyvg="true" template-height="695" template-width="697" version="1.1" viewBox="0 0 697 695" width="697" xmlns="http://www.w3.org/2000/svg" xmlns:xlink="http://www.w3.org/1999/xlink"><defs node-id="83"><mask height="122" id="mask0" maskUnits="userSpaceOnUse" node-id="32" width="141" x="540" y="294"><path d="M 663.62 321.14 L 645.60 309.70 L 609.40 298.15 C 593.91 293.20 577.18 293.81 562.09 299.85 L 540.49 308.50 L 542.86 345.47 L 570.75 336.53 L 568.11 353.53 L 554.50 383.47 C 552.49 387.90 554.87 393.08 559.53 394.45 L 629.25 414.95 C 633.59 416.22 638.13 413.64 639.25 409.26 L 647.89 375.56 L 650.58 391.14 L 677.46 393.75 L 680.24 354.06 C 681.17 340.87 674.79 328.23 663.62 321.14 Z" fill="#ffffff" fill-rule="nonzero" node-id="86" stroke="none" target-height="123.01898" target-width="140.67505" target-x="540.493" target-y="293.204"></path></mask><mask height="44" id="mask1" maskUnits="userSpaceOnUse" node-id="43" width="42" x="612" y="279"><path d="M 646.55 305.20 C 646.19 300.22 651.06 285.97 653.55 279.46 C 644.93 278.33 627.21 278.72 625.30 289.30 C 623.39 299.88 618.84 301.22 616.80 300.57 C 613.05 304.64 608.38 314.30 619.68 320.34 C 630.98 326.38 644.37 319.10 649.65 314.70 C 648.77 313.61 646.92 310.19 646.55 305.20 Z" fill="#ffffff" fill-rule="nonzero" node-id="90" stroke="none" target-height="48.046997" target-width="45.166016" target-x="608.38" target-y="278.332"></path></mask></defs><path d="M 344.44 44.00 L 57.16 209.86 C 25.59 228.09 14.77 268.45 33.00 300.02 L 198.86 587.31 C 217.09 618.87 257.45 629.69 289.02 611.46 L 576.31 445.60 C 607.87 427.38 618.69 387.01 600.46 355.44 L 434.60 68.16 C 416.38 36.59 376.01 25.77 344.44 44.00 Z" fill="#f3f6ff" fill-rule="nonzero" node-id="94" stroke="none" target-height="603.9154" target-width="603.9154" target-x="14.7746" target-y="25.7746"></path><path d="M 121.56 124.37 C 127.10 98.32 152.16 81.58 177.54 86.97 L 376.33 129.23 L 358.15 214.78 L 113.40 162.76 L 121.56 124.37 Z" fill="#2c2770" fill-rule="nonzero" node-id="96" stroke="none" target-height="133.1994" target-width="262.92902" target-x="113.403" target-y="81.5796"></path><path d="M 416.41 137.75 L 178.08 87.09 C 203.16 92.42 219.06 117.61 213.59 143.36 L 158.69 401.65 C 152.38 431.33 170.71 460.38 199.63 466.53 L 455.60 520.94 C 423.73 514.16 403.52 482.15 410.48 449.44 L 461.53 209.24 C 468.49 176.53 448.28 144.52 416.41 137.75 Z" fill="#1be3b3" fill-rule="nonzero" node-id="98" stroke="none" target-height="433.84912" target-width="316.107" target-x="152.379" target-y="87.0879"></path><path d="M 420.60 225.76 L 260.29 191.69 L 254.23 220.20 L 414.54 254.28 L 420.60 225.76 Z" fill="#ffffff" fill-rule="nonzero" node-id="100" stroke="none" target-height="62.591995" target-width="166.37401" target-x="254.227" target-y="191.686"></path><path d="M 323.44 262.43 L 248.63 246.53 L 242.57 275.04 L 317.38 290.94 L 323.44 262.43 Z" fill="#ffffff" fill-rule="nonzero" node-id="102" stroke="none" target-height="44.419006" target-width="80.875" target-x="242.57" target-y="246.526"></path><path d="M 397.29 335.44 L 236.97 301.37 L 230.91 329.88 L 391.23 363.96 L 397.29 335.44 Z" fill="#ffffff" fill-rule="nonzero" node-id="104" stroke="none" target-height="62.593018" target-width="166.374" target-x="230.914" target-y="301.365"></path><path d="M 195.89 465.73 L 447.58 519.23 C 471.79 524.38 495.68 508.41 500.96 483.58 L 509.59 443.00 L 268.58 391.77 L 262.29 421.38 C 255.72 452.27 226.00 472.13 195.89 465.73 Z" fill="#2c2770" fill-rule="nonzero" node-id="106" stroke="none" target-height="132.608" target-width="313.695" target-x="195.894" target-y="391.769"></path><path d="M 435.26 324.24 C 391.87 329.56 352.30 297.98 346.87 253.70 C 341.44 209.42 372.21 169.22 415.59 163.90 C 458.98 158.58 498.55 190.16 503.98 234.44 C 509.41 278.71 478.64 318.92 435.26 324.24 Z" fill="#0b86df" fill-rule="nonzero" node-id="108" stroke="none" target-height="170.98601" target-width="167.96503" target-x="341.442" target-y="158.576"></path><path d="M 449.90 297.25 L 427.95 300.13 L 433.74 350.63 L 455.69 347.76 L 449.90 297.25 Z" fill="#2c2770" fill-rule="nonzero" node-id="110" stroke="none" target-height="53.37799" target-width="27.74002" target-x="427.951" target-y="297.255"></path><path d="M 464.47 341.83 C 464.02 337.93 460.57 335.18 456.75 335.67 L 432.15 338.89 C 428.33 339.39 425.61 342.96 426.05 346.86 L 439.75 466.30 C 440.19 470.20 443.64 472.95 447.46 472.45 L 472.06 469.24 C 475.88 468.74 478.61 465.17 478.16 461.27 L 464.47 341.83 Z" fill="#ffe071" fill-rule="nonzero" node-id="112" stroke="none" target-height="137.77399" target-width="52.998016" target-x="425.607" target-y="335.177"></path><path d="M 449.52 322.38 C 406.14 327.70 366.57 296.11 361.14 251.84 C 355.71 207.56 386.48 167.35 429.86 162.03 C 473.25 156.71 512.82 188.29 518.25 232.57 C 523.68 276.85 492.91 317.06 449.52 322.38 Z" fill="#54b7ff" fill-rule="nonzero" node-id="114" stroke="none" target-height="170.98701" target-width="167.96503" target-x="355.711" target-y="156.709"></path><path d="M 447.33 308.99 C 410.92 313.45 377.72 286.95 373.16 249.80 C 368.60 212.64 394.42 178.90 430.83 174.43 C 467.23 169.97 500.44 196.47 505.00 233.63 C 509.55 270.79 483.73 304.53 447.33 308.99 Z" fill="#ffffff" fill-rule="nonzero" node-id="116" stroke="none" target-height="143.48499" target-width="140.95001" target-x="368.602" target-y="169.97"></path><path d="M 9.69 335.74 L 72.57 362.49 L 98.98 297.84 L 73.42 281.74 L 15.48 306.33 L 9.69 335.74 Z" fill="#ffe071" fill-rule="nonzero" node-id="118" stroke="none" target-height="80.75101" target-width="89.28899" target-x="9.69472" target-y="281.738"></path><path d="M 44.18 294.15 L 15.65 306.26 L 39.19 322.34 L 44.18 294.15 Z" fill="#ffae64" fill-rule="nonzero" node-id="120" stroke="none" target-height="28.19101" target-width="28.535599" target-x="15.6487" target-y="294.146"></path><path d="M 73.64 281.64 L 45.10 293.75 L 68.65 309.83 L 73.64 281.64 Z" fill="#ffae64" fill-rule="nonzero" node-id="122" stroke="none" target-height="28.19101" target-width="28.535706" target-x="45.1047" target-y="281.642"></path><path d="M 68.29 309.99 L 38.83 322.49 L 72.81 361.30 L 68.29 309.99 Z" fill="#ff8282" fill-rule="nonzero" node-id="124" stroke="none" target-height="51.315002" target-width="33.972805" target-x="38.8337" target-y="309.986"></path><path d="M 10.49 335.06 L 98.86 297.55" fill="none" node-id="126" stroke="#000000" stroke-linecap="butt" stroke-width="2" target-height="37.510986" target-width="88.3685" target-x="10.4934" target-y="297.552"></path><path d="M 399.33 560.32 L 414.48 556.84 C 422.53 554.99 429.10 539.88 429.10 539.88 L 444.47 546.90 L 436.00 563.07 L 433.98 572.82 L 399.69 562.58 L 399.33 560.32 Z" fill="#ffae64" fill-rule="nonzero" node-id="128" stroke="none" target-height="32.942993" target-width="45.14499" target-x="399.328" target-y="539.878"></path><path d="M 399.46 572.75 L 389.48 567.52 C 388.18 566.84 387.34 565.52 387.27 564.05 C 387.17 561.84 388.83 559.93 391.04 559.70 C 393.70 559.42 397.61 558.98 402.43 558.34 C 411.84 557.09 416.36 555.34 416.36 555.34 C 416.36 555.34 419.13 559.89 425.19 563.06 C 431.25 566.24 436.81 563.49 436.81 563.49 C 436.00 571.35 432.30 578.64 426.43 583.93 L 425.80 584.50 L 413.66 579.16 L 412.48 576.49 L 406.34 575.22 C 403.94 574.72 401.63 573.89 399.46 572.75 Z" fill="#2c2770" fill-rule="nonzero" node-id="130" stroke="none" target-height="29.153992" target-width="49.638977" target-x="387.17" target-y="555.344"></path><path d="M 445.22 668.17 L 457.54 658.70 C 464.10 653.67 464.30 644.62 464.30 644.62 L 480.68 637.18 L 479.71 655.40 L 481.93 665.12 L 446.49 670.07 L 445.22 668.17 Z" fill="#ffae64" fill-rule="nonzero" node-id="132" stroke="none" target-height="32.88495" target-width="36.709015" target-x="445.218" target-y="637.184"></path><path d="M 450.52 679.42 L 439.25 678.82 C 437.79 678.74 436.48 677.89 435.81 676.58 C 434.79 674.61 435.51 672.19 437.42 671.06 C 439.73 669.70 443.10 667.67 447.21 665.08 C 455.25 660.03 458.63 656.56 458.63 656.56 C 458.63 656.56 463.04 659.53 469.87 659.90 C 476.70 660.27 480.62 655.45 480.62 655.45 C 483.16 662.94 482.82 671.10 479.69 678.36 L 479.35 679.14 L 466.09 679.34 L 463.91 677.40 L 457.79 678.80 C 455.41 679.34 452.96 679.55 450.52 679.42 Z" fill="#2c2770" fill-rule="nonzero" node-id="134" stroke="none" target-height="24.098022" target-width="48.362" target-x="434.794" target-y="655.453"></path><path d="M 457.19 646.14 L 484.65 661.41 L 537.61 547.39 L 612.77 462.35 C 622.05 451.84 628.16 438.92 630.38 425.07 L 635.41 393.75 L 580.75 388.79 L 491.17 412.79 C 478.93 416.07 468.90 424.82 463.99 436.50 L 417.58 546.81 L 442.40 567.02 L 496.60 456.36 L 565.79 446.45 L 496.65 538.02 L 457.19 646.14 Z" fill="#ff6767" fill-rule="nonzero" node-id="136" stroke="none" target-height="272.62003" target-width="217.82999" target-x="417.584" target-y="388.788"></path><path d="M 628.36 412.14 L 626.82 418.91 C 624.27 430.13 619.00 440.55 611.47 449.24 L 528.96 544.49 L 479.33 658.72" fill="none" node-id="138" stroke="#ffffff" stroke-linecap="butt" stroke-width="1" target-height="246.57803" target-width="149.025" target-x="479.335" target-y="412.145"></path><path d="M 565.36 444.66 L 499.99 448.49 C 490.09 449.06 481.38 455.22 477.54 464.36 L 436.70 561.44" fill="none" node-id="140" stroke="#ffffff" stroke-linecap="butt" stroke-width="1" target-height="116.77902" target-width="128.65897" target-x="436.704" target-y="444.663"></path><path d="M 539.74 312.79 L 555.63 303.38 L 561.32 330.04 L 546.16 338.59 C 535.14 344.80 521.16 340.47 515.59 329.11 L 482.61 261.78 L 473.37 256.23 L 465.92 251.09 C 463.37 249.33 461.74 246.53 461.47 243.44 C 461.28 241.20 462.13 239.00 463.77 237.47 L 472.09 229.76 L 460.67 216.28 C 459.56 214.97 459.88 212.98 461.35 212.08 C 462.42 211.43 463.79 211.57 464.70 212.41 L 480.17 226.71 L 483.02 225.25 C 484.19 224.64 485.61 224.87 486.53 225.81 L 492.18 231.56 C 493.48 232.89 494.28 234.62 494.45 236.47 L 495.52 248.77 L 539.74 312.79 Z" fill="#ff9330" fill-rule="nonzero" node-id="142" stroke="none" target-height="133.374" target-width="101.754" target-x="459.564" target-y="211.43"></path><path d="M 466.40 235.12 L 475.78 244.42 C 476.71 245.34 478.20 245.38 479.18 244.52 C 480.12 243.70 480.30 242.31 479.61 241.27 L 477.56 238.18" fill="none" node-id="144" stroke="#000000" stroke-linecap="butt" stroke-width="1" target-height="10.261993" target-width="13.903015" target-x="466.4" target-y="235.123"></path><path d="M 461.93 239.43 L 472.32 247.74 C 473.30 248.53 474.72 248.42 475.57 247.49 C 476.43 246.56 476.40 245.10 475.50 244.20 L 475.05 243.75" fill="none" node-id="146" stroke="#000000" stroke-linecap="butt" stroke-width="1" target-height="9.098999" target-width="14.498993" target-x="461.93" target-y="239.426"></path><path d="M 463.62 247.81 L 471.88 253.98 C 472.93 254.76 474.40 254.63 475.29 253.66 C 476.14 252.73 476.18 251.31 475.39 250.33 L 473.47 247.96" fill="none" node-id="148" stroke="#000000" stroke-linecap="butt" stroke-width="1" target-height="6.958008" target-width="12.562988" target-x="463.621" target-y="247.805"></path><path d="M 478.48 228.20 L 469.93 235.57 C 469.21 236.19 469.09 237.26 469.66 238.03 C 470.90 239.67 473.09 240.27 474.99 239.49 L 483.81 235.86 C 482.42 237.55 482.04 244.59 483.87 251.16" fill="none" node-id="150" stroke="#000000" stroke-linecap="butt" stroke-width="1" target-height="22.964996" target-width="14.776978" target-x="469.092" target-y="228.196"></path><path d="M 663.62 321.14 L 645.60 309.70 L 609.40 298.15 C 593.91 293.20 577.18 293.81 562.09 299.85 L 540.49 308.50 L 542.86 345.47 L 570.75 336.53 L 568.11 353.53 L 554.50 383.47 C 552.49 387.90 554.87 393.08 559.53 394.45 L 629.25 414.95 C 633.59 416.22 638.13 413.64 639.25 409.26 L 647.89 375.56 L 650.58 391.14 L 677.46 393.75 L 680.24 354.06 C 681.17 340.87 674.79 328.23 663.62 321.14 Z" fill="#1be3b3" fill-rule="nonzero" node-id="152" stroke="none" target-height="123.01898" target-width="140.67505" target-x="540.493" target-y="293.204"></path><g node-id="248"><path d="M 663.62 321.14 L 645.60 309.70 L 609.40 298.15 C 593.91 293.20 577.18 293.81 562.09 299.85 L 540.49 308.50 L 542.86 345.47 L 570.75 336.53 L 568.11 353.53 L 554.50 383.47 C 552.49 387.90 554.87 393.08 559.53 394.45 L 629.25 414.95 C 633.59 416.22 638.13 413.64 639.25 409.26 L 647.89 375.56 L 650.58 391.14 L 677.46 393.75 L 680.24 354.06 C 681.17 340.87 674.79 328.23 663.62 321.14 Z" fill="#2c2770" fill-rule="nonzero" group-id="1" node-id="156" stroke="none" target-height="123.01898" target-width="140.67505" target-x="540.493" target-y="293.204"></path><path d="M 585.46 303.50 L 655.47 333.24" fill="none" group-id="1" node-id="158" stroke="#ffe071" stroke-linecap="butt" stroke-width="3" target-height="29.740997" target-width="70.00403" target-x="585.461" target-y="303.502"></path><path d="M 575.99 319.82 L 652.08 352.36" fill="none" group-id="1" node-id="160" stroke="#ffe071" stroke-linecap="butt" stroke-width="3" target-height="32.545013" target-width="76.09796" target-x="575.986" target-y="319.818"></path><path d="M 565.48 335.17 L 650.70 371.42" fill="none" group-id="1" node-id="162" stroke="#ffe071" stroke-linecap="butt" stroke-width="3" target-height="36.25" target-width="85.22302" target-x="565.479" target-y="335.168"></path><path d="M 560.29 360.35 L 648.48 395.50" fill="none" group-id="1" node-id="164" stroke="#ffe071" stroke-linecap="butt" stroke-width="3" target-height="35.15399" target-width="88.18799" target-x="560.295" target-y="360.349"></path><path d="M 547.92 379.76 L 652.20 417.39" fill="none" group-id="1" node-id="166" stroke="#ffe071" stroke-linecap="butt" stroke-width="3" target-height="37.63202" target-width="104.278015" target-x="547.919" target-y="379.762"></path></g><path d="M 646.85 305.31 C 646.49 300.26 651.43 285.83 653.94 279.25 C 645.26 278.12 627.42 278.54 625.48 289.25 C 623.54 299.96 618.95 301.33 616.90 300.67 C 613.12 304.80 608.40 314.58 619.76 320.67 C 631.13 326.76 644.62 319.37 649.95 314.91 C 649.07 313.81 647.22 310.35 646.85 305.31 Z" fill="#ff9330" fill-rule="nonzero" node-id="169" stroke="none" target-height="48.647003" target-width="45.54303" target-x="608.396" target-y="278.116"></path><path d="M 667.37 256.31 C 675.42 262.96 662.30 271.74 656.41 276.20 L 642.79 271.86 C 638.12 270.37 629.12 260.97 625.21 256.45 C 621.02 252.76 611.52 243.93 617.47 240.39 C 627.88 236.07 618.19 226.23 632.55 223.99 C 646.91 221.75 649.15 236.11 662.01 240.22 C 674.87 244.32 660.72 250.83 667.37 256.31 Z" fill="#2c2770" fill-rule="nonzero" node-id="171" stroke="none" target-height="54.453003" target-width="63.897034" target-x="611.521" target-y="221.75"></path><path d="M 620.91 297.77 C 639.64 301.57 650.34 288.19 653.35 281.02 L 624.37 286.95 C 615.41 288.97 602.19 293.96 620.91 297.77 Z" fill="#a84223" fill-rule="nonzero" group-id="2" node-id="175" stroke="none" target-height="20.550018" target-width="51.16101" target-x="602.19" target-y="281.025"></path><path d="M 652.96 280.61 C 651.37 286.86 640.34 295.61 626.86 290.69 C 618.99 287.82 619.88 278.06 621.06 267.36 C 621.89 259.74 621.59 251.23 624.17 246.27 L 637.44 246.21 C 635.09 247.91 630.75 250.21 636.21 251.95 C 641.62 253.68 647.31 253.65 649.85 252.62 C 648.81 259.65 653.90 260.67 652.84 264.01 L 649.82 273.47 C 654.05 275.31 656.16 271.20 656.69 268.92 C 658.87 268.39 662.76 268.77 660.91 274.56 C 659.06 280.35 654.84 281.01 652.96 280.61 Z" fill="#ff9330" fill-rule="nonzero" node-id="178" stroke="none" target-height="49.40001" target-width="43.774963" target-x="618.986" target-y="246.208"></path><path d="M 647.15 275.14 C 648.28 274.24 650.12 272.41 650.73 270.51 C 653.23 268.16 657.65 264.95 655.32 270.92 C 654.11 274.73 652.57 277.92 651.65 280.77 C 649.52 287.44 648.77 293.08 641.11 297.35 C 631.53 302.69 615.97 297.20 613.51 290.12 C 610.49 281.44 617.00 279.16 619.93 273.27 C 626.39 275.51 633.27 277.53 638.66 278.73 C 643.07 279.70 645.12 276.59 647.15 275.14 Z" fill="#2c2770" fill-rule="nonzero" node-id="180" stroke="none" target-height="37.748016" target-width="47.16101" target-x="610.488" target-y="264.947"></path><path d="M 635.41 278.08 L 628.36 279.18 C 628.52 280.19 629.55 281.76 631.85 281.73 C 634.16 281.70 635.10 279.57 635.41 278.08 Z" fill="#ffffff" fill-rule="nonzero" node-id="182" stroke="none" target-height="3.6820068" target-width="7.054016" target-x="628.359" target-y="278.077"></path><path d="M 628.20 255.66 L 623.86 254.28 C 623.14 254.05 622.37 254.44 622.14 255.16 C 621.91 255.88 622.30 256.65 623.02 256.88 L 627.37 258.27 C 628.09 258.50 628.86 258.11 629.09 257.38 C 629.32 256.67 628.92 255.90 628.20 255.66 Z" fill="#2c2770" fill-rule="nonzero" node-id="184" stroke="none" target-height="4.45401" target-width="7.4119873" target-x="621.908" target-y="254.048"></path><path d="M 645.59 261.21 L 641.24 259.83 C 640.52 259.60 639.75 259.99 639.52 260.71 C 639.29 261.43 639.69 262.20 640.41 262.43 L 644.75 263.82 C 645.47 264.05 646.24 263.65 646.47 262.93 C 646.70 262.21 646.30 261.44 645.59 261.21 Z" fill="#2c2770" fill-rule="nonzero" node-id="186" stroke="none" target-height="4.4539795" target-width="7.4120483" target-x="639.29" target-y="259.596"></path><path d="M 640.76 267.33 C 641.48 267.56 642.25 267.17 642.48 266.45 C 642.71 265.73 642.31 264.96 641.59 264.73 C 640.87 264.50 640.10 264.89 639.87 265.61 C 639.64 266.33 640.04 267.10 640.76 267.33 Z" fill="#000000" fill-rule="nonzero" node-id="188" stroke="none" target-height="3.065979" target-width="3.0670166" target-x="639.641" target-y="264.497"></path><path d="M 632.43 258.93 L 627.43 274.57 L 631.35 275.82" fill="none" node-id="190" stroke="#000000" stroke-linecap="butt" stroke-width="1" target-height="16.892029" target-width="4.992981" target-x="627.435" target-y="258.929"></path><path d="M 624.25 262.06 C 624.97 262.29 625.74 261.89 625.97 261.18 C 626.20 260.45 625.80 259.69 625.08 259.46 C 624.36 259.23 623.59 259.62 623.36 260.34 C 623.13 261.06 623.52 261.83 624.25 262.06 Z" fill="#000000" fill-rule="nonzero" node-id="192" stroke="none" target-height="3.066986" target-width="3.0670166" target-x="623.128" target-y="259.226"></path><path d="M 607.34 407.50 L 570.34 434.50 L 499.84 411.00 L 539.84 383.00 L 607.34 407.50 Z" fill="#dae2ff" fill-rule="nonzero" node-id="194" stroke="none" target-height="51.5" target-width="107.5" target-x="499.838" target-y="383"></path><path d="M 604.84 405.50 L 568.84 431.50 L 497.34 409.00 L 537.34 381.00 L 604.84 405.50 Z" fill="#6b8cff" fill-rule="nonzero" node-id="196" stroke="none" target-height="50.5" target-width="107.5" target-x="497.338" target-y="381"></path><path d="M 491.20 350.50 L 564.95 372.94 L 576.84 429.50 L 571.34 433.50 L 501.32 412.12 L 484.84 352.50 L 491.20 350.50 Z" fill="#dae2ff" fill-rule="nonzero" node-id="198" stroke="none" target-height="82.997986" target-width="92" target-x="484.838" target-y="350.502"></path><path d="M 486.37 352.42 L 558.82 374.48 C 560.57 375.01 561.89 376.46 562.26 378.25 L 572.84 429.15 C 573.61 432.86 570.14 436.04 566.52 434.96 L 500.79 415.34 C 499.08 414.83 497.77 413.44 497.35 411.70 L 483.84 354.79 C 483.48 353.29 484.89 351.97 486.37 352.42 Z" fill="#6b8cff" fill-rule="nonzero" node-id="200" stroke="none" target-height="84.07498" target-width="90.13202" target-x="483.482" target-y="351.967"></path><path d="M 523.10 398.88 C 520.34 396.01 520.18 391.68 522.76 389.19 C 525.34 386.69 529.67 387.00 532.43 389.86 C 535.20 392.72 535.35 397.06 532.78 399.55 C 530.20 402.04 525.87 401.74 523.10 398.88 Z" fill="#dae2ff" fill-rule="nonzero" node-id="202" stroke="none" target-height="15.345978" target-width="15.1710205" target-x="520.183" target-y="386.695"></path><path d="M 610.73 390.63 L 651.54 391.34 L 677.34 393.00 L 677.81 397.46 C 679.07 409.44 668.42 419.26 656.58 417.03 L 609.55 408.19 L 602.63 409.77 C 602.43 409.82 602.22 409.85 602.01 409.86 L 592.99 410.47 C 592.91 410.48 592.83 410.49 592.75 410.51 L 579.96 413.53 C 578.90 413.78 577.83 413.19 577.47 412.16 C 577.09 411.05 577.67 409.84 578.78 409.46 L 588.61 406.05 L 576.33 407.66 C 575.41 407.78 574.56 407.18 574.38 406.27 C 574.20 405.37 574.74 404.49 575.62 404.24 L 586.89 401.08 L 573.77 401.13 C 572.73 401.14 571.85 400.35 571.74 399.31 C 571.63 398.25 572.36 397.28 573.41 397.10 L 587.12 394.68 L 573.08 394.45 C 571.72 394.43 570.70 393.20 570.93 391.86 C 571.10 390.88 571.91 390.13 572.90 390.04 L 593.84 388.00 L 590.88 386.58 C 589.42 385.89 588.30 384.65 587.74 383.14 C 587.51 382.52 588.02 381.88 588.68 381.96 L 598.92 383.24 C 600.27 383.40 601.56 383.92 602.66 384.72 L 610.73 390.63 Z" fill="#ff9330" fill-rule="nonzero" node-id="204" stroke="none" target-height="37.38501" target-width="108.36499" target-x="570.704" target-y="381.875"></path><path d="M 388.23 583.00 L 363.66 597.19 C 358.88 599.95 357.24 606.06 360.00 610.85 L 374.19 635.42 C 376.95 640.20 383.06 641.84 387.85 639.08 L 412.42 624.89 C 417.20 622.13 418.84 616.02 416.08 611.23 L 401.89 586.66 C 399.13 581.88 393.02 580.24 388.23 583.00 Z" fill="#f3f6ff" fill-rule="nonzero" node-id="206" stroke="none" target-height="61.60199" target-width="61.60199" target-x="357.239" target-y="580.239"></path><path d="M 222.08 620.54 C 226.55 636.76 243.32 646.30 259.54 641.83 C 275.76 637.37 285.30 620.60 280.83 604.37 C 276.37 588.15 259.60 578.62 243.37 583.08 C 227.15 587.55 217.62 604.32 222.08 620.54 Z" fill="#ffe071" fill-rule="nonzero" node-id="208" stroke="none" target-height="67.677" target-width="67.677" target-x="217.62" target-y="578.619"></path><path d="M 626.00 1.00 L 470.00 1.00 C 466.13 1.00 463.00 4.13 463.00 8.00 L 463.00 111.00 C 463.00 114.87 466.13 118.00 470.00 118.00 L 626.00 118.00 C 629.87 118.00 633.00 114.87 633.00 111.00 L 633.00 8.00 C 633.00 4.13 629.87 1.00 626.00 1.00 Z" fill="#ffffff" fill-rule="nonzero" node-id="210" stroke="#e5e5e5" stroke-linecap="butt" stroke-width="2" target-height="117" target-width="170" target-x="463" target-y="1"></path><path d="M 490.50 42.00 C 495.19 42.00 499.00 38.19 499.00 33.50 C 499.00 28.81 495.19 25.00 490.50 25.00 C 485.81 25.00 482.00 28.81 482.00 33.50 C 482.00 38.19 485.81 42.00 490.50 42.00 Z" fill="#a3b7ff" fill-rule="nonzero" node-id="212" stroke="none" target-height="17" target-width="17" target-x="482" target-y="25"></path><path d="M 500.00 80.00 L 483.00 80.00 L 483.00 104.00 L 500.00 104.00 L 500.00 80.00 Z" fill="#5fffd8" fill-rule="nonzero" node-id="214" stroke="none" target-height="24" target-width="17" target-x="483" target-y="80"></path><path d="M 500.00 63.00 L 483.00 63.00 L 483.00 87.00 L 500.00 87.00 L 500.00 63.00 Z" fill="#1be3b3" fill-rule="nonzero" node-id="216" stroke="none" target-height="24" target-width="17" target-x="483" target-y="63"></path><path d="M 529.00 83.00 L 512.00 83.00 L 512.00 105.00 L 529.00 105.00 L 529.00 83.00 Z" fill="#5fffd8" fill-rule="nonzero" node-id="218" stroke="none" target-height="22" target-width="17" target-x="512" target-y="83"></path><path d="M 529.00 73.00 L 512.00 73.00 L 512.00 93.00 L 529.00 93.00 L 529.00 73.00 Z" fill="#1be3b3" fill-rule="nonzero" node-id="220" stroke="none" target-height="20" target-width="17" target-x="512" target-y="73"></path><path d="M 558.00 69.00 L 541.00 69.00 L 541.00 105.00 L 558.00 105.00 L 558.00 69.00 Z" fill="#5fffd8" fill-rule="nonzero" node-id="222" stroke="none" target-height="36" target-width="17" target-x="541" target-y="69"></path><path d="M 558.00 56.00 L 541.00 56.00 L 541.00 80.00 L 558.00 80.00 L 558.00 56.00 Z" fill="#1be3b3" fill-rule="nonzero" node-id="224" stroke="none" target-height="24" target-width="17" target-x="541" target-y="56"></path><path d="M 587.00 69.00 L 570.00 69.00 L 570.00 105.00 L 587.00 105.00 L 587.00 69.00 Z" fill="#5fffd8" fill-rule="nonzero" node-id="226" stroke="none" target-height="36" target-width="17" target-x="570" target-y="69"></path><path d="M 587.00 38.00 L 570.00 38.00 L 570.00 74.00 L 587.00 74.00 L 587.00 38.00 Z" fill="#1be3b3" fill-rule="nonzero" node-id="228" stroke="none" target-height="36" target-width="17" target-x="570" target-y="38"></path><path d="M 616.00 69.00 L 599.00 69.00 L 599.00 105.00 L 616.00 105.00 L 616.00 69.00 Z" fill="#5fffd8" fill-rule="nonzero" node-id="230" stroke="none" target-height="36" target-width="17" target-x="599" target-y="69"></path><path d="M 616.00 49.00 L 599.00 49.00 L 599.00 85.00 L 616.00 85.00 L 616.00 49.00 Z" fill="#1be3b3" fill-rule="nonzero" node-id="232" stroke="none" target-height="36" target-width="17" target-x="599" target-y="49"></path><path d="M 246.00 522.00 L 96.00 522.00 C 92.13 522.00 89.00 525.13 89.00 529.00 L 89.00 604.00 C 89.00 607.87 92.13 611.00 96.00 611.00 L 246.00 611.00 C 249.87 611.00 253.00 607.87 253.00 604.00 L 253.00 529.00 C 253.00 525.13 249.87 522.00 246.00 522.00 Z" fill="#ffffff" fill-rule="nonzero" node-id="234" stroke="#e5e5e5" stroke-linecap="butt" stroke-width="2" target-height="89" target-width="164" target-x="89" target-y="522"></path><path d="M 136.00 562.00 L 162.00 562.00 C 161.05 547.54 149.93 535.99 136.00 535.00 L 136.00 562.00 Z" fill="#1be3b3" fill-rule="nonzero" node-id="236" stroke="none" target-height="27" target-width="26" target-x="136" target-y="535"></path><path d="M 159.47 586.00 C 163.76 581.46 166.54 575.54 167.00 569.00 L 142.00 569.00 L 159.47 586.00 Z" fill="#ffae64" fill-rule="nonzero" node-id="238" stroke="none" target-height="17" target-width="25" target-x="142" target-y="569"></path><path d="M 131.77 565.97 L 131.77 535.00 C 116.82 536.03 105.00 548.60 105.00 563.96 C 105.00 580.00 117.87 593.00 133.75 593.00 C 140.69 593.00 147.04 590.52 152.00 586.39 L 131.77 565.97 Z" fill="#ff8282" fill-rule="nonzero" node-id="240" stroke="none" target-height="58" target-width="47" target-x="105" target-y="535"></path><path d="M 225.00 574.00 L 181.00 574.00 L 181.00 582.00 L 225.00 582.00 L 225.00 574.00 Z" fill="#a3b7ff" fill-rule="nonzero" node-id="242" stroke="none" target-height="8" target-width="44" target-x="181" target-y="574"></path><path d="M 213.00 560.00 L 180.00 560.00 L 180.00 568.00 L 213.00 568.00 L 213.00 560.00 Z" fill="#a3b7ff" fill-rule="nonzero" node-id="244" stroke="none" target-height="8" target-width="33" target-x="180" target-y="560"></path><path d="M 243.00 545.00 L 181.00 545.00 L 181.00 553.00 L 243.00 553.00 L 243.00 545.00 Z" fill="#a3b7ff" fill-rule="nonzero" node-id="246" stroke="none" target-height="8" target-width="62" target-x="181" target-y="545"></path></svg>