<?xml version="1.0" standalone="no"?><!DOCTYPE svg PUBLIC "-//W3C//DTD SVG 1.1//EN" "http://www.w3.org/Graphics/SVG/1.1/DTD/svg11.dtd"><svg height="840" node-id="1" sillyvg="true" template-height="840" template-width="1133" version="1.1" viewBox="0 0 1133 840" width="1133" xmlns="http://www.w3.org/2000/svg" xmlns:xlink="http://www.w3.org/1999/xlink"><defs node-id="132"><mask height="59" id="mask0" maskUnits="userSpaceOnUse" node-id="18" width="44" x="770" y="146"><path d="M 802.15 173.41 C 798.59 169.62 793.22 154.91 790.98 148.03 C 783.26 152.75 769.18 164.63 774.55 174.43 C 779.92 184.24 777.12 188.30 775.05 189.10 C 774.67 194.85 777.21 205.71 790.30 203.21 C 803.39 200.71 809.46 186.07 810.86 179.07 C 809.44 178.76 805.71 177.19 802.15 173.41 Z" fill="#ffffff" fill-rule="nonzero" node-id="135" stroke="none" target-height="57.681" target-width="41.682983" target-x="769.179" target-y="148.026"></path></mask><mask height="43" id="mask1" maskUnits="userSpaceOnUse" node-id="34" width="43" x="485" y="62"><path d="M 506.15 104.75 C 517.73 104.75 527.11 95.37 527.11 83.80 C 527.11 72.24 517.73 62.86 506.15 62.86 C 494.58 62.86 485.20 72.24 485.20 83.80 C 485.20 95.37 494.58 104.75 506.15 104.75 Z M 506.15 97.57 C 513.76 97.57 519.93 91.41 519.93 83.80 C 519.93 76.20 513.76 70.04 506.15 70.04 C 498.55 70.04 492.38 76.20 492.38 83.80 C 492.38 91.41 498.55 97.57 506.15 97.57 Z" fill="#ffffff" fill-rule="nonzero" node-id="139" stroke="none" target-height="41.8867" target-width="41.915985" target-x="485.196" target-y="62.8613"></path></mask><mask height="43" id="mask2" maskUnits="userSpaceOnUse" node-id="38" width="43" x="485" y="62"><path d="M 506.15 104.75 C 517.73 104.75 527.11 95.37 527.11 83.80 C 527.11 72.24 517.73 62.86 506.15 62.86 C 494.58 62.86 485.20 72.24 485.20 83.80 C 485.20 95.37 494.58 104.75 506.15 104.75 Z M 506.15 97.57 C 513.76 97.57 519.93 91.41 519.93 83.80 C 519.93 76.20 513.76 70.04 506.15 70.04 C 498.55 70.04 492.38 76.20 492.38 83.80 C 492.38 91.41 498.55 97.57 506.15 97.57 Z" fill="#ffffff" fill-rule="nonzero" node-id="143" stroke="none" target-height="41.8867" target-width="41.915985" target-x="485.196" target-y="62.8613"></path></mask><mask height="126" id="mask3" maskUnits="userSpaceOnUse" node-id="80" width="147" x="23" y="465"><path d="M 41.14 492.90 L 59.89 481.00 L 97.55 468.99 C 113.66 463.85 131.06 464.48 146.77 470.76 L 169.23 479.75 L 166.76 518.19 L 137.76 508.89 L 140.50 526.57 L 154.66 557.69 C 156.75 562.29 154.28 567.68 149.42 569.11 L 76.90 590.41 C 72.38 591.74 67.66 589.06 66.49 584.50 L 57.51 549.47 L 54.71 565.66 L 26.75 568.37 L 23.85 527.11 C 22.89 513.40 29.53 500.26 41.14 492.90 Z" fill="#ffffff" fill-rule="nonzero" node-id="147" stroke="none" target-height="127.88498" target-width="146.3436" target-x="22.8884" target-y="463.853"></path></mask><mask height="46" id="mask4" maskUnits="userSpaceOnUse" node-id="91" width="44" x="51" y="449"><path d="M 58.90 476.33 C 59.28 471.15 54.21 456.33 51.62 449.57 C 60.59 448.39 79.02 448.79 81.01 459.79 C 82.99 470.79 87.73 472.19 89.85 471.51 C 93.75 475.75 98.61 485.79 86.85 492.06 C 75.10 498.34 61.17 490.77 55.68 486.20 C 56.59 485.07 58.51 481.51 58.90 476.33 Z" fill="#ffffff" fill-rule="nonzero" node-id="151" stroke="none" target-height="49.947998" target-width="46.9859" target-x="51.6233" target-y="448.393"></path></mask></defs><path d="M 209.43 222.33 L 508.33 49.93 C 541.15 31.00 583.11 42.24 602.06 75.05 L 774.67 373.62 C 793.63 406.45 782.39 448.43 749.57 467.40 C 749.56 467.40 749.55 467.41 749.53 467.42 L 450.62 639.78 C 417.80 658.71 375.84 647.47 356.88 614.66 L 184.28 316.08 C 165.32 283.26 176.55 241.28 209.38 222.31 C 209.39 222.31 209.40 222.30 209.41 222.29 L 209.43 222.33 Z" fill="#f3f6ff" fill-rule="nonzero" node-id="155" stroke="none" target-height="627.7164" target-width="628.31396" target-x="165.317" target-y="30.9956"></path><path d="M 897.92 531.47 L 897.48 515.31 C 897.24 506.71 883.17 496.93 883.17 496.93 L 893.49 482.69 L 908.23 494.63 L 917.76 498.68 L 900.29 531.55 L 897.92 531.47 Z" fill="#ffae64" fill-rule="nonzero" node-id="157" stroke="none" target-height="48.864014" target-width="34.583984" target-x="883.174" target-y="482.69"></path><path d="M 900.82 529.05 L 914.72 498.67 C 918.53 498.06 922.31 499.84 924.28 503.15 L 927.99 509.41 L 920.07 520.70 L 916.89 519.35 L 914.52 526.45 C 913.54 529.38 912.04 532.12 910.10 534.52 L 903.21 543.02 C 902.27 544.18 900.78 544.76 899.30 544.53 C 897.02 544.18 895.45 542.05 895.78 539.77 L 898.12 523.69 L 897.88 528.33 C 897.83 529.28 898.63 530.04 899.58 529.94 C 900.12 529.89 900.59 529.55 900.82 529.05 Z" fill="#2c2770" fill-rule="nonzero" node-id="159" stroke="none" target-height="46.697998" target-width="32.541992" target-x="895.445" target-y="498.06"></path><path d="M 1008.73 523.48 L 1008.28 507.32 C 1008.04 498.72 993.98 488.94 993.98 488.94 L 1004.29 474.70 L 1019.03 486.64 L 1028.56 490.69 L 1011.10 523.57 L 1008.73 523.48 Z" fill="#ffae64" fill-rule="nonzero" node-id="161" stroke="none" target-height="48.863983" target-width="34.58008" target-x="993.98" target-y="474.702"></path><path d="M 1011.62 521.06 L 1025.53 490.68 C 1029.33 490.07 1033.12 491.85 1035.08 495.16 L 1038.79 501.42 L 1030.87 512.71 L 1027.69 511.36 L 1025.32 518.46 C 1024.34 521.39 1022.85 524.13 1020.90 526.53 L 1014.02 535.03 C 1013.07 536.19 1011.59 536.77 1010.11 536.54 C 1007.82 536.19 1006.25 534.07 1006.58 531.78 L 1008.93 515.70 L 1008.68 520.34 C 1008.63 521.29 1009.44 522.05 1010.38 521.95 C 1010.92 521.90 1011.40 521.56 1011.62 521.06 Z" fill="#2c2770" fill-rule="nonzero" node-id="163" stroke="none" target-height="46.699005" target-width="32.54004" target-x="1006.25" target-y="490.071"></path><path d="M 994.66 495.13 L 1010.37 475.73 L 921.52 388.80 L 882.83 310.43 C 873.05 290.62 858.27 290.93 838.67 280.74 L 836.48 279.59 L 781.78 310.04 L 775.56 363.55 C 772.97 385.79 781.07 407.94 797.39 423.25 L 884.41 504.91 L 904.39 490.97 L 819.47 386.06 L 832.29 335.54 L 867.89 390.61 C 873.80 399.76 881.23 407.83 889.86 414.47 L 994.66 495.13 Z" fill="#2c2770" fill-rule="nonzero" node-id="165" stroke="none" target-height="225.319" target-width="237.39697" target-x="772.973" target-y="279.593"></path><path d="M 849.35 274.54 L 917.32 390.49 L 1015.99 478.42" fill="none" node-id="167" stroke="#ffffff" stroke-linecap="butt" stroke-width="1.04" target-height="203.88" target-width="166.63696" target-x="849.353" target-y="274.544"></path><path d="M 836.37 337.65 L 813.28 381.87 L 906.86 491.78" fill="none" node-id="169" stroke="#ffffff" stroke-linecap="butt" stroke-width="1.04" target-height="154.12802" target-width="93.58197" target-x="813.276" target-y="337.654"></path><path d="M 716.59 224.00 L 733.31 217.62 L 734.38 243.99 L 720.07 249.11 C 707.67 253.54 694.10 246.64 690.40 234.02 L 670.40 165.97 L 662.48 159.16 L 656.21 153.04 C 654.07 150.95 652.97 148.00 653.22 145.01 C 653.40 142.85 654.57 140.88 656.39 139.69 L 665.60 133.69 L 656.90 118.96 C 656.06 117.53 656.69 115.68 658.24 115.07 C 659.36 114.62 660.65 114.97 661.39 115.93 L 673.82 132.10 L 676.62 131.22 C 677.92 130.81 679.34 131.29 680.12 132.42 L 684.37 138.53 C 685.48 140.12 685.99 142.04 685.83 143.96 L 684.86 155.67 L 716.59 224.00 Z" fill="#ffae64" fill-rule="nonzero" node-id="171" stroke="none" target-height="138.923" target-width="81.410034" target-x="652.969" target-y="114.619"></path><path d="M 659.29 137.88 L 666.72 148.29 C 667.46 149.32 668.87 149.61 669.95 148.94 C 670.98 148.31 671.38 147.01 670.90 145.91 L 669.45 142.63" fill="none" node-id="173" stroke="#000000" stroke-linecap="butt" stroke-width="1.04" target-height="11.725006" target-width="12.098999" target-x="659.286" target-y="137.881"></path><path d="M 654.31 141.26 L 662.87 150.89 C 663.68 151.80 665.05 151.93 666.01 151.19 C 666.99 150.43 667.20 149.04 666.49 148.03 L 666.13 147.53" fill="none" node-id="175" stroke="#000000" stroke-linecap="butt" stroke-width="1.04" target-height="10.671997" target-width="12.887024" target-x="654.313" target-y="141.257"></path><path d="M 654.55 149.53 L 661.43 156.78 C 662.30 157.69 663.73 157.80 664.73 157.03 C 665.70 156.28 665.98 154.94 665.38 153.87 L 663.93 151.29" fill="none" node-id="177" stroke="#000000" stroke-linecap="butt" stroke-width="1.04" target-height="8.272995" target-width="11.421997" target-x="654.554" target-y="149.53"></path><path d="M 671.96 133.25 L 662.58 138.89 C 661.79 139.36 661.51 140.37 661.93 141.19 C 662.84 142.96 664.83 143.89 666.78 143.45 L 675.79 141.43 C 674.19 142.82 672.67 149.47 673.34 156.04" fill="none" node-id="179" stroke="#000000" stroke-linecap="butt" stroke-width="1.04" target-height="22.796997" target-width="14.287048" target-x="661.506" target-y="133.248"></path><path d="M 826.15 176.81 L 804.01 178.61 L 754.85 195.86 C 746.37 198.83 738.52 203.35 731.69 209.17 L 720.84 218.43 L 728.35 250.04 L 756.72 241.32 L 756.84 250.78 C 756.96 260.91 765.63 268.83 775.75 268.06 L 778.29 303.66 C 778.71 309.45 784.24 313.47 789.88 312.07 L 853.38 296.36 C 859.58 294.83 861.82 287.19 857.42 282.56 L 844.93 269.41 L 847.18 231.81 L 859.18 243.06 L 883.13 228.38 L 860.58 193.71 C 853.08 182.19 839.86 175.70 826.15 176.81 Z" fill="#ffe071" fill-rule="nonzero" node-id="181" stroke="none" target-height="137.767" target-width="162.29199" target-x="720.843" target-y="175.699"></path><path d="M 764.78 138.81 C 761.35 129.31 763.06 122.53 773.08 118.34 C 770.86 97.14 803.66 109.57 816.94 122.61 C 827.95 133.42 840.05 123.49 861.32 126.83 C 878.99 129.61 898.24 144.50 896.20 160.13 C 890.20 206.25 831.72 168.62 809.47 170.96 C 783.09 173.73 799.18 166.47 795.24 164.61 L 783.06 160.66 C 778.89 159.31 770.87 150.86 767.38 146.81 C 763.65 143.49 768.20 148.32 764.78 138.81 Z" fill="#2c2770" fill-rule="nonzero" node-id="183" stroke="none" target-height="109.1074" target-width="136.88702" target-x="761.349" target-y="97.1426"></path><path d="M 802.30 174.18 C 798.84 170.22 793.89 155.15 791.85 148.11 C 783.94 152.61 769.39 164.14 774.49 174.24 C 779.59 184.34 776.64 188.35 774.52 189.09 C 773.97 194.88 776.18 205.96 789.43 203.89 C 802.69 201.82 809.26 187.24 810.89 180.21 C 809.47 179.84 805.76 178.13 802.30 174.18 Z" fill="#ffae64" fill-rule="nonzero" node-id="185" stroke="none" target-height="57.843994" target-width="41.503967" target-x="769.387" target-y="148.114"></path><g node-id="398"><path d="M 783.82 183.70 C 795.75 170.94 790.45 156.21 786.31 150.44 L 777.04 175.83 C 774.33 183.77 771.88 196.45 783.82 183.70 Z" fill="#d76767" fill-rule="nonzero" group-id="1" node-id="189" stroke="none" target-height="46.01201" target-width="23.87201" target-x="771.88" target-y="150.439"></path></g><path d="M 798.39 165.07 C 796.71 171.55 784.41 181.83 770.40 176.66 C 762.23 173.63 763.21 163.49 764.49 152.38 C 765.40 144.46 765.20 134.78 767.06 130.74 L 778.28 127.99 C 778.28 127.99 781.94 140.32 787.62 142.16 C 795.33 144.66 791.39 150.17 803.95 158.22 C 805.47 162.76 800.35 165.49 798.39 165.07 Z" fill="#ffae64" fill-rule="nonzero" node-id="192" stroke="none" target-height="53.844994" target-width="43.242004" target-x="762.23" target-y="127.988"></path><path d="M 779.37 163.59 L 772.02 164.69 C 772.18 165.74 773.25 167.38 775.65 167.37 C 778.05 167.34 779.03 165.14 779.37 163.59 Z" fill="#ffffff" fill-rule="nonzero" node-id="194" stroke="none" target-height="3.7980042" target-width="7.3449707" target-x="772.025" target-y="163.586"></path><path d="M 767.47 138.79 L 771.98 140.25 C 772.73 140.49 773.14 141.30 772.90 142.04 C 772.90 142.04 772.90 142.04 772.90 142.04 C 772.65 142.79 771.85 143.20 771.10 142.96 L 766.59 141.49 C 765.84 141.25 765.43 140.45 765.67 139.70 C 765.67 139.70 765.67 139.70 765.67 139.70 C 765.92 138.96 766.72 138.55 767.47 138.79 Z" fill="#2c2770" fill-rule="nonzero" node-id="196" stroke="none" target-height="4.6539917" target-width="7.7059937" target-x="765.432" target-y="138.546"></path><path d="M 785.52 144.64 L 790.04 146.10 C 790.78 146.35 791.19 147.15 790.95 147.90 C 790.95 147.90 790.95 147.90 790.95 147.90 C 790.71 148.64 789.90 149.05 789.16 148.81 L 784.64 147.35 C 783.89 147.10 783.49 146.30 783.73 145.56 C 783.73 145.56 783.73 145.56 783.73 145.56 C 783.97 144.81 784.77 144.40 785.52 144.64 Z" fill="#2c2770" fill-rule="nonzero" node-id="198" stroke="none" target-height="4.654999" target-width="7.70697" target-x="783.486" target-y="144.398"></path><path d="M 784.98 152.44 C 785.73 152.69 786.53 152.28 786.78 151.53 C 787.02 150.78 786.61 149.98 785.86 149.74 C 785.12 149.49 784.31 149.90 784.07 150.65 C 783.83 151.40 784.24 152.20 784.98 152.44 Z" fill="#000000" fill-rule="nonzero" node-id="200" stroke="none" target-height="3.1920013" target-width="3.1929932" target-x="783.827" target-y="149.494"></path><path d="M 776.36 143.66 L 771.09 159.90 L 775.15 161.22" fill="none" node-id="202" stroke="#000000" stroke-linecap="butt" stroke-width="1.04" target-height="17.555008" target-width="5.2750244" target-x="771.086" target-y="143.665"></path><path d="M 767.83 146.88 C 768.58 147.12 769.38 146.72 769.62 145.97 C 769.87 145.22 769.46 144.42 768.71 144.18 C 767.96 143.93 767.16 144.34 766.92 145.09 C 766.67 145.84 767.08 146.64 767.83 146.88 Z" fill="#000000" fill-rule="nonzero" node-id="204" stroke="none" target-height="3.1909943" target-width="3.1929932" target-x="766.675" target-y="143.934"></path><path d="M 839.48 262.40 C 838.04 272.59 839.78 288.50 840.84 295.19 L 850.66 294.15 C 847.90 279.81 848.08 264.63 848.52 258.84 C 846.11 255.78 840.92 252.22 839.48 262.40 Z" fill="#0b86df" fill-rule="nonzero" node-id="206" stroke="none" target-height="42.97" target-width="12.622009" target-x="838.042" target-y="252.215"></path><path d="M 817.40 250.07 L 861.32 246.26 L 858.87 242.86 L 883.27 227.55 L 893.05 247.55 C 897.39 256.42 891.05 266.80 881.17 267.00 L 819.64 268.23 L 812.88 271.20 C 812.68 271.29 812.48 271.36 812.27 271.41 L 803.17 273.81 C 803.09 273.83 803.01 273.86 802.94 273.89 L 790.46 279.49 C 789.43 279.95 788.21 279.56 787.65 278.58 C 787.04 277.52 787.40 276.17 788.45 275.56 L 797.82 270.15 L 785.59 274.21 C 784.68 274.52 783.70 274.06 783.33 273.18 C 782.97 272.30 783.35 271.28 784.21 270.86 L 795.09 265.42 L 781.70 268.05 C 780.64 268.26 779.59 267.63 779.27 266.59 C 778.95 265.53 779.50 264.40 780.54 264.00 L 794.07 258.84 L 779.70 261.36 C 778.30 261.61 777.01 260.55 776.98 259.13 C 776.96 258.10 777.63 257.18 778.61 256.87 L 796.62 251.30 L 787.76 250.10 C 786.48 249.93 785.58 248.75 785.76 247.47 C 785.92 246.35 786.85 245.51 787.98 245.46 L 802.58 244.84 C 804.85 244.75 807.11 245.20 809.16 246.17 L 817.40 250.07 Z" fill="#ffae64" fill-rule="nonzero" node-id="208" stroke="none" target-height="52.402985" target-width="120.42999" target-x="776.963" target-y="227.548"></path><path d="M 815.91 291.53 L 893.43 283.39 C 895.90 283.13 898.02 285.12 897.92 287.60 L 896.33 324.21 C 895.52 343.00 881.06 358.38 862.33 360.35 C 843.60 362.31 826.26 350.29 821.55 332.07 L 812.39 296.59 C 811.77 294.19 813.44 291.79 815.91 291.53 Z" fill="#6b8cff" fill-rule="nonzero" node-id="210" stroke="none" target-height="79.188995" target-width="86.252014" target-x="811.772" target-y="283.126"></path><path d="M 842.15 248.01 C 845.28 242.98 851.66 243.87 851.66 243.87 C 857.55 243.84 861.65 248.23 865.02 256.58 C 868.83 266.01 872.54 289.23 873.45 296.98 L 864.14 297.96 C 863.82 296.60 862.86 281.13 859.49 268.66 C 856.06 255.95 851.51 249.12 848.88 247.30 L 842.15 248.01 Z" fill="#2c2770" fill-rule="nonzero" node-id="212" stroke="none" target-height="54.986008" target-width="31.297974" target-x="842.153" target-y="242.976"></path><path d="M 471.43 13.40 C 471.43 6.00 477.42 0.00 484.81 0.00 L 551.68 0.00 C 559.07 0.00 565.06 6.00 565.06 13.40 L 565.06 107.19 C 565.06 114.59 559.07 120.59 551.68 120.59 L 484.81 120.59 C 477.42 120.59 471.43 114.59 471.43 107.19 L 471.43 13.40 Z" fill="#dae2ff" fill-rule="nonzero" node-id="214" stroke="none" target-height="120.588" target-width="93.62604" target-x="471.43" target-y="0"></path><path d="M 506.15 104.75 C 517.73 104.75 527.11 95.37 527.11 83.80 C 527.11 72.24 517.73 62.86 506.15 62.86 C 494.58 62.86 485.20 72.24 485.20 83.80 C 485.20 95.37 494.58 104.75 506.15 104.75 Z" fill="#fafafa" fill-rule="nonzero" group-id="2" node-id="218" stroke="none" target-height="41.885902" target-width="41.915985" target-x="485.196" target-y="62.8611"></path><path d="M 527.11 83.80 C 527.11 79.66 525.88 75.61 523.58 72.17 C 521.28 68.72 518.00 66.04 514.17 64.46 C 510.35 62.87 506.13 62.46 502.06 63.26 C 498.00 64.07 494.27 66.07 491.33 69.00 C 488.40 71.92 486.41 75.66 485.60 79.72 C 484.79 83.78 485.20 87.99 486.79 91.82 C 488.38 95.65 491.06 98.92 494.51 101.22 C 497.96 103.52 502.01 104.75 506.15 104.75 L 506.15 83.80 L 527.11 83.80 Z" fill="#ff8282" fill-rule="nonzero" group-id="3" node-id="223" stroke="none" target-height="42.2923" target-width="42.32199" target-x="484.79" target-y="62.4557"></path><path d="M 484.95 40.02 C 484.95 39.16 485.66 38.46 486.54 38.46 L 516.66 38.46 C 517.53 38.46 518.24 39.16 518.24 40.02 C 518.24 40.88 517.53 41.58 516.66 41.58 L 486.54 41.58 C 485.66 41.58 484.95 40.88 484.95 40.02 Z" fill="#ffffff" fill-rule="nonzero" node-id="226" stroke="none" target-height="3.1186981" target-width="33.28897" target-x="484.954" target-y="38.4636"></path><path d="M 484.95 49.38 C 484.95 48.52 485.65 47.82 486.51 47.82 L 508.36 47.82 C 509.22 47.82 509.92 48.52 509.92 49.38 C 509.92 50.24 509.22 50.94 508.36 50.94 L 486.51 50.94 C 485.65 50.94 484.95 50.24 484.95 49.38 Z" fill="#ffffff" fill-rule="nonzero" node-id="228" stroke="none" target-height="3.1186028" target-width="24.96698" target-x="484.954" target-y="47.8196"></path><path d="M 549.45 15.59 L 487.03 15.59 C 485.88 15.59 484.95 16.52 484.95 17.67 L 484.95 27.03 C 484.95 28.18 485.88 29.11 487.03 29.11 L 549.45 29.11 C 550.60 29.11 551.53 28.18 551.53 27.03 L 551.53 17.67 C 551.53 16.52 550.60 15.59 549.45 15.59 Z" fill="#ff8282" fill-rule="nonzero" node-id="230" stroke="none" target-height="13.5142" target-width="66.57901" target-x="484.954" target-y="15.5933"></path><path d="M 593.57 174.94 L 290.50 279.30 L 404.76 474.14 L 707.84 369.78 L 593.57 174.94 Z" fill="#be7430" fill-rule="nonzero" node-id="232" stroke="none" target-height="299.195" target-width="417.338" target-x="290.497" target-y="174.942"></path><path d="M 292.37 278.71 L 592.49 175.37 L 622.39 399.26 L 322.28 502.60 L 292.37 278.71 Z" fill="#ff9330" fill-rule="nonzero" node-id="234" stroke="none" target-height="327.225" target-width="330.02597" target-x="292.368" target-y="175.374"></path><path d="M 320.87 308.40 C 320.25 303.35 323.24 298.55 328.05 296.89 L 556.10 218.37 C 562.58 216.14 569.47 220.46 570.30 227.27 L 589.55 383.62 C 590.17 388.68 587.18 393.48 582.38 395.13 L 354.32 473.66 C 347.85 475.88 340.96 471.57 340.12 464.76 L 320.87 308.40 Z" fill="#ffb36c" fill-rule="nonzero" node-id="236" stroke="none" target-height="259.746" target-width="269.92096" target-x="320.252" target-y="216.139"></path><path d="M 576.43 278.79 L 590.05 389.53 C 590.28 391.38 589.18 393.14 587.43 393.74 L 316.97 486.87 C 316.61 486.99 316.24 487.06 315.88 487.08 L 315.83 486.93 C 355.02 474.55 436.90 435.73 450.56 397.98 C 459.62 372.96 479.37 368.87 497.95 363.04 C 514.40 357.87 529.27 353.20 533.13 336.59 C 536.72 321.16 546.47 316.71 555.82 312.43 C 567.10 307.28 577.81 302.38 576.43 278.79 Z" fill="#f2a864" fill-rule="nonzero" node-id="238" stroke="none" target-height="208.29202" target-width="274.446" target-x="315.832" target-y="278.787"></path><path d="M 305.88 264.24 C 308.02 266.31 309.75 269.10 310.82 272.21 L 306.10 273.83 C 304.57 269.41 300.83 266.69 297.74 267.76 C 294.65 268.82 293.38 273.27 294.90 277.69 C 296.42 282.11 300.16 284.83 303.25 283.76 C 303.83 283.57 304.35 283.25 304.79 282.84 L 308.40 288.79 C 306.64 290.42 304.40 291.15 302.00 290.87 C 299.60 290.59 297.15 289.31 295.02 287.21 C 292.89 285.12 291.17 282.31 290.12 279.20 C 289.07 276.09 288.73 272.83 289.16 269.89 C 289.59 266.94 290.76 264.46 292.51 262.80 C 294.26 261.14 296.49 260.39 298.89 260.65 C 301.29 260.90 303.74 262.16 305.88 264.24 Z" fill="#c4c4c4" fill-rule="evenodd" node-id="240" stroke="none" target-height="30.764008" target-width="22.083984" target-x="288.734" target-y="260.389"></path><path d="M 539.71 184.36 C 541.85 186.44 543.58 189.23 544.65 192.33 L 539.93 193.96 C 538.41 189.54 534.67 186.82 531.58 187.88 C 528.49 188.94 527.21 193.39 528.73 197.81 C 530.26 202.23 534.00 204.95 537.09 203.89 C 537.66 203.69 538.18 203.37 538.62 202.96 L 542.24 208.91 C 540.48 210.55 538.24 211.28 535.84 211.00 C 533.43 210.71 530.99 209.43 528.86 207.34 C 526.73 205.24 525.01 202.44 523.96 199.33 C 522.91 196.22 522.57 192.96 523.00 190.01 C 523.43 187.06 524.60 184.59 526.35 182.93 C 528.09 181.27 530.33 180.51 532.72 180.77 C 535.12 181.03 537.57 182.28 539.71 184.36 Z" fill="#c4c4c4" fill-rule="evenodd" node-id="242" stroke="none" target-height="30.763992" target-width="22.083984" target-x="522.57" target-y="180.513"></path><path d="M 461.77 210.99 C 463.91 213.06 465.64 215.85 466.71 218.96 L 461.99 220.58 C 460.46 216.16 456.72 213.44 453.63 214.51 C 450.54 215.57 449.27 220.02 450.79 224.44 C 452.31 228.86 456.05 231.58 459.14 230.51 C 459.72 230.31 460.23 230.00 460.68 229.59 L 464.30 235.54 C 462.54 237.17 460.30 237.90 457.89 237.62 C 455.49 237.34 453.05 236.06 450.91 233.96 C 448.78 231.87 447.06 229.06 446.01 225.95 C 444.96 222.84 444.62 219.58 445.05 216.64 C 445.48 213.69 446.65 211.21 448.40 209.55 C 450.15 207.89 452.38 207.14 454.78 207.40 C 457.18 207.65 459.62 208.91 461.77 210.99 Z" fill="#c4c4c4" fill-rule="evenodd" node-id="244" stroke="none" target-height="30.763992" target-width="22.083008" target-x="444.625" target-y="207.138"></path><path d="M 383.82 237.61 C 385.96 239.69 387.69 242.48 388.76 245.58 L 384.04 247.21 C 382.52 242.79 378.78 240.07 375.69 241.13 C 372.60 242.20 371.32 246.64 372.85 251.06 C 374.37 255.48 378.11 258.20 381.20 257.14 C 381.78 256.94 382.29 256.62 382.73 256.21 L 386.35 262.16 C 384.59 263.80 382.35 264.53 379.95 264.25 C 377.54 263.96 375.10 262.68 372.97 260.59 C 370.83 258.49 369.12 255.69 368.07 252.58 C 367.01 249.47 366.68 246.21 367.11 243.26 C 367.54 240.32 368.71 237.84 370.45 236.18 C 372.20 234.52 374.43 233.76 376.83 234.02 C 379.24 234.28 381.68 235.53 383.82 237.61 Z" fill="#c4c4c4" fill-rule="evenodd" node-id="246" stroke="none" target-height="30.764008" target-width="22.083008" target-x="366.68" target-y="233.764"></path><path d="M 347.01 323.37 C 346.40 318.85 349.00 314.56 353.22 313.10 L 367.40 308.22 C 373.03 306.28 379.06 310.12 379.87 316.15 L 380.93 324.02 C 381.54 328.54 378.95 332.83 374.73 334.28 L 360.54 339.17 C 354.91 341.11 348.88 337.27 348.07 331.24 L 347.01 323.37 Z" fill="#ffdab8" fill-rule="nonzero" node-id="248" stroke="none" target-height="34.822998" target-width="35.13501" target-x="346.404" target-y="306.282"></path><path d="M 406.03 303.23 C 405.42 298.70 408.01 294.41 412.23 292.96 L 426.42 288.07 C 432.04 286.14 438.07 289.97 438.88 296.00 L 439.94 303.87 C 440.55 308.39 437.96 312.69 433.74 314.14 L 419.56 319.02 C 413.93 320.96 407.90 317.13 407.08 311.10 L 406.03 303.23 Z" fill="#ffdab8" fill-rule="nonzero" node-id="250" stroke="none" target-height="34.822998" target-width="35.13501" target-x="405.417" target-y="286.138"></path><path d="M 464.01 282.92 C 463.40 278.40 466.00 274.11 470.22 272.65 L 484.40 267.77 C 490.03 265.83 496.06 269.66 496.87 275.70 L 497.93 283.56 C 498.54 288.09 495.95 292.38 491.72 293.83 L 477.54 298.72 C 471.91 300.65 465.88 296.82 465.07 290.79 L 464.01 282.92 Z" fill="#ffdab8" fill-rule="nonzero" node-id="252" stroke="none" target-height="34.822998" target-width="35.13498" target-x="463.403" target-y="265.831"></path><path d="M 523.02 262.77 C 522.42 258.25 525.01 253.96 529.23 252.51 L 543.41 247.62 C 549.04 245.69 555.07 249.52 555.88 255.55 L 556.94 263.42 C 557.55 267.94 554.96 272.23 550.74 273.69 L 536.55 278.57 C 530.93 280.51 524.90 276.68 524.09 270.64 L 523.02 262.77 Z" fill="#ffdab8" fill-rule="nonzero" node-id="254" stroke="none" target-height="34.822998" target-width="35.13501" target-x="522.416" target-y="245.686"></path><path d="M 350.82 372.39 C 350.21 367.87 352.80 363.58 357.02 362.13 L 371.21 357.24 C 376.83 355.31 382.86 359.14 383.68 365.17 L 384.74 373.04 C 385.34 377.56 382.75 381.85 378.53 383.31 L 364.35 388.19 C 358.72 390.13 352.69 386.29 351.88 380.26 L 350.82 372.39 Z" fill="#ffdab8" fill-rule="nonzero" node-id="256" stroke="none" target-height="34.822998" target-width="35.13498" target-x="350.209" target-y="355.305"></path><path d="M 409.83 352.25 C 409.22 347.73 411.81 343.44 416.04 341.98 L 430.22 337.10 C 435.85 335.16 441.88 338.99 442.69 345.02 L 443.75 352.89 C 444.36 357.42 441.76 361.71 437.54 363.16 L 423.36 368.05 C 417.73 369.98 411.70 366.15 410.89 360.12 L 409.83 352.25 Z" fill="#ffdab8" fill-rule="nonzero" node-id="258" stroke="none" target-height="34.822998" target-width="35.13501" target-x="409.223" target-y="335.16"></path><path d="M 467.82 331.94 C 467.21 327.42 469.80 323.13 474.02 321.68 L 488.21 316.79 C 493.83 314.85 499.86 318.69 500.68 324.72 L 501.74 332.59 C 502.34 337.11 499.75 341.40 495.53 342.86 L 481.35 347.74 C 475.72 349.68 469.69 345.84 468.88 339.81 L 467.82 331.94 Z" fill="#ffdab8" fill-rule="nonzero" node-id="260" stroke="none" target-height="34.822998" target-width="35.13498" target-x="467.209" target-y="314.853"></path><path d="M 526.83 311.80 C 526.22 307.27 528.81 302.98 533.04 301.53 L 547.22 296.65 C 552.85 294.71 558.88 298.54 559.69 304.57 L 560.75 312.44 C 561.36 316.97 558.76 321.26 554.54 322.71 L 540.36 327.59 C 534.73 329.53 528.70 325.70 527.89 319.67 L 526.83 311.80 Z" fill="#ffdab8" fill-rule="nonzero" node-id="262" stroke="none" target-height="34.822998" target-width="35.13501" target-x="526.222" target-y="294.708"></path><path d="M 354.30 423.47 C 353.69 418.95 356.28 414.66 360.50 413.20 L 374.69 408.32 C 380.31 406.38 386.34 410.21 387.15 416.25 L 388.21 424.12 C 388.82 428.64 386.23 432.93 382.01 434.38 L 367.83 439.27 C 362.20 441.20 356.17 437.37 355.36 431.34 L 354.30 423.47 Z" fill="#ffdab8" fill-rule="nonzero" node-id="264" stroke="none" target-height="34.822998" target-width="35.13501" target-x="353.689" target-y="406.381"></path><path d="M 413.31 403.32 C 412.70 398.80 415.30 394.51 419.51 393.06 L 433.70 388.17 C 439.33 386.24 445.36 390.07 446.17 396.10 L 447.23 403.97 C 447.84 408.49 445.24 412.79 441.02 414.24 L 426.84 419.12 C 421.21 421.06 415.18 417.23 414.37 411.19 L 413.31 403.32 Z" fill="#ffdab8" fill-rule="nonzero" node-id="266" stroke="none" target-height="34.822998" target-width="35.13501" target-x="412.702" target-y="386.236"></path><path d="M 472.32 383.18 C 471.71 378.66 474.31 374.37 478.53 372.91 L 492.71 368.03 C 498.34 366.09 504.37 369.93 505.18 375.96 L 506.24 383.83 C 506.85 388.35 504.26 392.64 500.04 394.09 L 485.85 398.98 C 480.23 400.92 474.20 397.08 473.38 391.05 L 472.32 383.18 Z" fill="#ffdab8" fill-rule="nonzero" node-id="268" stroke="none" target-height="34.822998" target-width="35.136017" target-x="471.715" target-y="366.092"></path><path d="M 530.31 362.87 C 529.70 358.35 532.29 354.06 536.52 352.61 L 550.70 347.72 C 556.33 345.78 562.36 349.62 563.17 355.65 L 564.23 363.52 C 564.84 368.04 562.24 372.33 558.02 373.79 L 543.84 378.67 C 538.21 380.61 532.18 376.77 531.37 370.74 L 530.31 362.87 Z" fill="#ffdab8" fill-rule="nonzero" node-id="270" stroke="none" target-height="34.824005" target-width="35.13501" target-x="529.701" target-y="345.784"></path><path d="M 161.19 737.28 L 158.71 720.53 C 157.38 711.61 170.11 698.93 170.11 698.93 L 156.87 686.13 L 143.84 701.16 L 134.75 707.10 L 158.76 737.81 L 161.19 737.28 Z" fill="#ffae64" fill-rule="nonzero" node-id="272" stroke="none" target-height="51.677002" target-width="35.364" target-x="134.746" target-y="686.132"></path><path d="M 148.53 742.09 L 157.81 750.15 C 159.01 751.19 160.69 751.52 162.20 751.00 C 164.48 750.22 165.76 747.78 165.12 745.45 C 164.34 742.64 163.24 738.50 161.97 733.35 C 159.50 723.31 159.48 718.02 159.48 718.02 C 159.48 718.02 153.77 717.02 148.14 712.13 C 142.51 707.25 143.09 700.51 143.09 700.51 C 135.43 704.46 129.51 711.11 126.47 719.18 L 126.15 720.05 L 136.38 730.24 L 139.56 730.37 L 143.30 736.10 C 144.75 738.33 146.51 740.35 148.53 742.09 Z" fill="#2c2770" fill-rule="nonzero" node-id="274" stroke="none" target-height="51.01001" target-width="39.607994" target-x="126.148" target-y="700.509"></path><path d="M 261.52 803.87 L 246.66 797.52 C 238.76 794.14 234.83 777.47 234.83 777.47 L 217.80 781.83 L 223.49 799.93 L 223.76 810.29 L 260.73 806.11 L 261.52 803.87 Z" fill="#ffae64" fill-rule="nonzero" node-id="276" stroke="none" target-height="32.826965" target-width="43.71901" target-x="217.803" target-y="777.465"></path><path d="M 259.09 816.57 L 270.28 813.05 C 271.73 812.59 272.83 811.39 273.17 809.90 C 273.68 807.66 272.33 805.40 270.12 804.76 C 267.45 803.98 263.53 802.81 258.72 801.27 C 249.32 798.26 245.01 795.64 245.01 795.64 C 245.01 795.64 241.34 799.78 234.56 801.92 C 227.77 804.06 222.59 800.22 222.59 800.22 C 221.96 808.42 224.40 816.55 229.44 823.05 L 229.98 823.75 L 243.38 820.52 L 245.08 818.00 L 251.60 817.83 C 254.14 817.76 256.66 817.34 259.09 816.57 Z" fill="#2c2770" fill-rule="nonzero" node-id="278" stroke="none" target-height="28.109985" target-width="51.722992" target-x="221.961" target-y="795.641"></path><path d="M 248.84 787.17 L 215.22 797.05 L 175.47 677.32 L 97.58 624.82 C 90.56 620.09 84.80 613.71 80.81 606.25 L 65.19 577.07 L 127.54 545.87 L 183.03 549.01 L 211.67 552.27 C 228.00 554.13 235.23 573.81 224.00 585.82 L 159.84 604.13 L 208.75 645.88 C 211.17 647.95 212.90 650.70 213.71 653.77 L 248.84 787.17 Z" fill="#2c2770" fill-rule="nonzero" node-id="280" stroke="none" target-height="251.18097" target-width="183.6457" target-x="65.1913" target-y="545.872"></path><path d="M 137.60 693.73 L 187.15 584.38 L 228.61 579.21 L 167.49 717.31 L 137.60 693.73 Z" fill="#2c2770" fill-rule="nonzero" node-id="282" stroke="none" target-height="138.09705" target-width="91.01199" target-x="137.599" target-y="579.212"></path><path d="M 78.87 581.36 L 84.55 591.25 C 92.50 605.10 103.53 616.92 116.78 625.82 L 184.61 671.34 L 224.53 793.63" fill="none" node-id="284" stroke="#ffffff" stroke-linecap="butt" stroke-width="1.04" target-height="212.26495" target-width="145.6584" target-x="78.8696" target-y="581.361"></path><path d="M 153.21 598.46 L 192.18 589.11 L 178.24 621.39" fill="none" node-id="286" stroke="#ffffff" stroke-linecap="butt" stroke-width="1.04" target-height="32.281006" target-width="38.970993" target-x="153.207" target-y="589.109"></path><path d="M 144.56 697.63 L 158.94 665.62" fill="none" node-id="288" stroke="#ffffff" stroke-linecap="butt" stroke-width="1.04" target-height="32.014038" target-width="14.384003" target-x="144.555" target-y="665.621"></path><path d="M 170.02 484.21 L 153.49 474.43 L 147.57 502.14 L 163.34 511.03 C 174.80 517.50 189.35 512.99 195.14 501.18 L 229.45 431.18 L 239.06 425.42 L 246.81 420.08 C 249.46 418.25 251.16 415.33 251.44 412.12 C 251.64 409.80 250.76 407.50 249.04 405.92 L 240.39 397.90 L 252.27 383.88 C 253.42 382.52 253.09 380.45 251.56 379.52 C 250.46 378.85 249.03 378.99 248.07 379.87 L 231.98 394.73 L 229.02 393.21 C 227.81 392.58 226.33 392.82 225.37 393.79 L 219.49 399.77 C 218.13 401.15 217.30 402.96 217.13 404.88 L 216.02 417.66 L 170.02 484.21 Z" fill="#ffba5f" fill-rule="nonzero" node-id="290" stroke="none" target-height="138.65" target-width="105.854996" target-x="147.567" target-y="378.845"></path><path d="M 246.31 403.48 L 236.55 413.14 C 235.58 414.10 234.03 414.14 233.01 413.24 C 232.04 412.39 231.85 410.94 232.56 409.86 L 234.70 406.65" fill="none" node-id="292" stroke="#000000" stroke-linecap="butt" stroke-width="1.04" target-height="10.667999" target-width="14.46199" target-x="231.848" target-y="403.475"></path><path d="M 250.96 407.95 L 240.15 416.59 C 239.13 417.41 237.66 417.29 236.78 416.33 C 235.88 415.36 235.91 413.85 236.84 412.91 L 237.31 412.44" fill="none" node-id="294" stroke="#000000" stroke-linecap="butt" stroke-width="1.04" target-height="9.459015" target-width="15.082001" target-x="235.878" target-y="407.948"></path><path d="M 249.20 416.66 L 240.61 423.08 C 239.52 423.89 237.99 423.75 237.07 422.75 C 236.18 421.78 236.13 420.31 236.96 419.29 L 238.96 416.82" fill="none" node-id="296" stroke="#000000" stroke-linecap="butt" stroke-width="1.04" target-height="7.234009" target-width="13.069" target-x="236.133" target-y="416.658"></path><path d="M 233.74 396.27 L 242.64 403.94 C 243.39 404.59 243.51 405.70 242.91 406.49 C 241.63 408.20 239.35 408.82 237.37 408.01 L 228.20 404.24 C 229.64 406.00 230.04 413.31 228.14 420.15" fill="none" node-id="298" stroke="#000000" stroke-linecap="butt" stroke-width="1.04" target-height="23.873016" target-width="15.371994" target-x="228.138" target-y="396.274"></path><path d="M 41.14 492.90 L 59.89 481.00 L 97.55 468.99 C 113.66 463.85 131.06 464.48 146.77 470.76 L 169.23 479.75 L 166.76 518.19 L 137.76 508.89 L 140.50 526.57 L 154.66 557.69 C 156.75 562.29 154.28 567.68 149.42 569.11 L 76.90 590.41 C 72.38 591.74 67.66 589.06 66.49 584.50 L 57.51 549.47 L 54.71 565.66 L 26.75 568.37 L 23.85 527.11 C 22.89 513.40 29.53 500.26 41.14 492.90 Z" fill="#1be3b3" fill-rule="nonzero" node-id="300" stroke="none" target-height="127.88498" target-width="146.3436" target-x="22.8884" target-y="463.853"></path><path d="M 41.14 492.90 L 59.89 481.00 L 97.55 468.99 C 113.66 463.85 131.06 464.48 146.77 470.76 L 169.23 479.75 L 166.76 518.19 L 137.76 508.89 L 140.50 526.57 L 154.66 557.69 C 156.75 562.29 154.28 567.68 149.42 569.11 L 76.90 590.41 C 72.38 591.74 67.66 589.06 66.49 584.50 L 57.51 549.47 L 54.71 565.66 L 26.75 568.37 L 23.85 527.11 C 22.89 513.40 29.53 500.26 41.14 492.90 Z" fill="#ff8282" fill-rule="nonzero" group-id="4" node-id="304" stroke="none" target-height="127.88498" target-width="146.3436" target-x="22.8884" target-y="463.853"></path><path d="M 122.45 474.56 L 49.63 505.48" fill="none" group-id="4" node-id="306" stroke="#ffe071" stroke-linecap="butt" stroke-width="3.12" target-height="30.917023" target-width="72.825005" target-x="49.627" target-y="474.559"></path><path d="M 132.31 491.52 L 53.14 525.35" fill="none" group-id="4" node-id="308" stroke="#ffe071" stroke-linecap="butt" stroke-width="3.12" target-height="33.83304" target-width="79.1638" target-x="53.1442" target-y="491.52"></path><path d="M 143.24 507.48 L 54.58 545.16" fill="none" group-id="4" node-id="310" stroke="#ffe071" stroke-linecap="butt" stroke-width="3.12" target-height="37.68402" target-width="88.6571" target-x="54.5819" target-y="507.477"></path><path d="M 148.63 533.65 L 56.89 570.20" fill="none" group-id="4" node-id="312" stroke="#ffe071" stroke-linecap="butt" stroke-width="3.12" target-height="36.544983" target-width="91.7417" target-x="56.8903" target-y="533.654"></path><path d="M 161.51 553.84 L 53.03 592.96" fill="none" group-id="4" node-id="314" stroke="#ffe071" stroke-linecap="butt" stroke-width="3.12" target-height="39.12097" target-width="108.479294" target-x="53.0267" target-y="553.835"></path><path d="M 58.59 476.43 C 58.96 471.19 53.83 456.19 51.22 449.34 C 60.24 448.17 78.81 448.61 80.82 459.74 C 82.84 470.88 87.61 472.30 89.74 471.62 C 93.68 475.91 98.59 486.08 86.77 492.41 C 74.94 498.74 60.91 491.06 55.37 486.42 C 56.28 485.28 58.21 481.68 58.59 476.43 Z" fill="#ffba5f" fill-rule="nonzero" node-id="317" stroke="none" target-height="50.570984" target-width="47.378098" target-x="51.2155" target-y="448.169"></path><path d="M 37.25 425.50 C 28.87 432.42 42.52 441.54 48.64 446.18 L 62.81 441.66 C 67.67 440.11 77.03 430.34 81.11 425.65 C 85.45 421.81 95.34 412.63 89.15 408.95 C 78.32 404.46 88.41 394.23 73.47 391.90 C 58.53 389.57 56.20 404.50 42.82 408.77 C 29.44 413.04 44.16 419.80 37.25 425.50 Z" fill="#2c2770" fill-rule="nonzero" node-id="319" stroke="none" target-height="56.606995" target-width="66.471596" target-x="28.87" target-y="389.573"></path><path d="M 85.57 468.60 C 66.09 472.56 54.96 458.64 51.83 451.19 L 81.98 457.35 C 91.29 459.45 105.05 464.64 85.57 468.60 Z" fill="#a84223" fill-rule="nonzero" group-id="5" node-id="323" stroke="none" target-height="21.362" target-width="53.222805" target-x="51.8262" target-y="451.193"></path><path d="M 52.23 450.76 C 53.89 457.25 65.36 466.35 79.39 461.24 C 87.58 458.26 86.64 448.11 85.42 436.99 C 84.55 429.06 84.87 420.22 82.18 415.06 L 68.38 415.00 C 70.82 416.77 75.34 419.16 69.66 420.97 C 64.03 422.76 58.11 422.74 55.47 421.67 C 56.55 428.98 51.25 430.03 52.36 433.50 L 55.50 443.34 C 51.10 445.26 48.90 440.98 48.35 438.61 C 46.09 438.05 42.04 438.45 43.96 444.47 C 45.88 450.49 50.28 451.18 52.23 450.76 Z" fill="#ffba5f" fill-rule="nonzero" node-id="326" stroke="none" target-height="51.354004" target-width="45.5388" target-x="42.037" target-y="414.999"></path><path d="M 58.27 445.07 C 57.10 444.14 55.19 442.24 54.55 440.26 C 51.95 437.81 47.36 434.48 49.78 440.69 C 51.04 444.65 52.64 447.96 53.59 450.93 C 55.81 457.86 56.59 463.73 64.56 468.17 C 74.52 473.72 90.72 468.01 93.28 460.64 C 96.42 451.62 89.64 449.26 86.59 443.13 C 79.87 445.46 72.72 447.56 67.11 448.80 C 62.52 449.82 60.39 446.58 58.27 445.07 Z" fill="#2c2770" fill-rule="nonzero" node-id="328" stroke="none" target-height="39.240997" target-width="49.0613" target-x="47.356" target-y="434.479"></path><path d="M 70.49 448.13 L 77.83 449.27 C 77.66 450.32 76.59 451.96 74.19 451.93 C 71.79 451.89 70.82 449.68 70.49 448.13 Z" fill="#ffffff" fill-rule="nonzero" node-id="330" stroke="none" target-height="3.828003" target-width="7.3383026" target-x="70.4869" target-y="448.128"></path><path d="M 82.51 423.39 L 77.99 424.83 C 77.24 425.07 76.83 425.87 77.06 426.62 C 77.06 426.62 77.06 426.62 77.06 426.62 C 77.30 427.37 78.10 427.78 78.85 427.54 L 83.38 426.10 C 84.12 425.86 84.54 425.06 84.30 424.31 C 84.30 424.31 84.30 424.31 84.30 424.31 C 84.06 423.56 83.26 423.15 82.51 423.39 Z" fill="#2c2770" fill-rule="nonzero" node-id="332" stroke="none" target-height="4.630005" target-width="7.7106934" target-x="76.8261" target-y="423.149"></path><path d="M 64.43 429.15 L 59.91 430.60 C 59.16 430.84 58.74 431.64 58.98 432.38 C 58.98 432.38 58.98 432.38 58.98 432.38 C 59.22 433.13 60.02 433.55 60.77 433.31 L 65.29 431.87 C 66.04 431.63 66.45 430.83 66.22 430.08 C 66.22 430.08 66.22 430.08 66.22 430.08 C 65.98 429.33 65.18 428.92 64.43 429.15 Z" fill="#2c2770" fill-rule="nonzero" node-id="334" stroke="none" target-height="4.630005" target-width="7.710701" target-x="58.7437" target-y="428.916"></path><path d="M 64.93 436.96 C 64.18 437.20 63.38 436.79 63.14 436.04 C 62.90 435.29 63.31 434.49 64.06 434.25 C 64.81 434.01 65.61 434.42 65.85 435.17 C 66.09 435.92 65.68 436.72 64.93 436.96 Z" fill="#000000" fill-rule="nonzero" node-id="336" stroke="none" target-height="3.1889954" target-width="3.1899986" target-x="62.8988" target-y="434.01"></path><path d="M 73.59 428.22 L 78.79 444.49 L 74.72 445.78" fill="none" node-id="338" stroke="#000000" stroke-linecap="butt" stroke-width="1.04" target-height="17.561005" target-width="5.1941986" target-x="73.5933" target-y="428.222"></path><path d="M 82.10 431.48 C 81.36 431.72 80.56 431.31 80.32 430.56 C 80.08 429.81 80.49 429.01 81.24 428.77 C 81.99 428.53 82.79 428.94 83.03 429.69 C 83.27 430.44 82.85 431.24 82.10 431.48 Z" fill="#000000" fill-rule="nonzero" node-id="340" stroke="none" target-height="3.1889954" target-width="3.1899948" target-x="80.0772" target-y="428.531"></path><path d="M 99.69 582.67 L 138.18 610.74 L 211.53 586.31 L 169.91 557.20 L 99.69 582.67 Z" fill="#dae2ff" fill-rule="nonzero" node-id="342" stroke="none" target-height="53.536987" target-width="111.831795" target-x="99.6932" target-y="557.201"></path><path d="M 102.29 580.59 L 139.74 607.62 L 214.12 584.23 L 172.51 555.12 L 102.29 580.59 Z" fill="#6b8cff" fill-rule="nonzero" node-id="344" stroke="none" target-height="52.497986" target-width="111.831" target-x="102.294" target-y="555.122"></path><path d="M 220.51 523.42 L 143.79 546.75 L 131.42 605.54 L 137.14 609.70 L 209.99 587.47 L 227.13 525.50 L 220.51 523.42 Z" fill="#dae2ff" fill-rule="nonzero" node-id="346" stroke="none" target-height="86.280945" target-width="95.707" target-x="131.422" target-y="523.418"></path><path d="M 225.54 525.41 L 150.17 548.34 C 148.35 548.90 146.98 550.40 146.59 552.26 L 135.58 605.18 C 134.78 609.03 138.39 612.34 142.16 611.22 L 210.54 590.82 C 212.32 590.29 213.68 588.85 214.11 587.04 L 228.17 527.88 C 228.54 526.32 227.08 524.94 225.54 525.41 Z" fill="#6b8cff" fill-rule="nonzero" node-id="348" stroke="none" target-height="87.400024" target-width="93.763" target-x="134.777" target-y="524.941"></path><path d="M 187.32 573.71 C 190.20 570.73 190.36 566.22 187.68 563.63 C 185.00 561.04 180.50 561.35 177.62 564.33 C 174.74 567.31 174.58 571.82 177.26 574.41 C 179.94 577.00 184.44 576.68 187.32 573.71 Z" fill="#dae2ff" fill-rule="nonzero" node-id="350" stroke="none" target-height="15.958008" target-width="15.777008" target-x="174.581" target-y="561.04"></path><path d="M 96.16 565.13 L 53.71 565.88 L 26.87 567.60 L 26.38 572.23 C 25.07 584.69 36.14 594.90 48.47 592.58 L 97.39 583.39 L 104.59 585.03 C 104.80 585.08 105.02 585.11 105.23 585.13 L 114.62 585.76 C 114.71 585.76 114.79 585.78 114.86 585.80 L 128.17 588.94 C 129.27 589.20 130.39 588.58 130.77 587.51 C 131.16 586.36 130.56 585.10 129.40 584.71 L 119.18 581.16 L 131.96 582.84 C 132.91 582.97 133.79 582.33 133.98 581.39 C 134.17 580.46 133.60 579.54 132.69 579.28 L 120.97 576.00 L 134.61 576.05 C 135.70 576.05 136.61 575.24 136.72 574.16 C 136.84 573.05 136.08 572.05 134.99 571.86 L 120.73 569.35 L 135.33 569.11 C 136.74 569.08 137.80 567.80 137.56 566.41 C 137.39 565.39 136.55 564.62 135.52 564.51 L 113.74 562.40 L 116.81 560.93 C 118.33 560.21 119.50 558.92 120.08 557.34 C 120.32 556.70 119.79 556.03 119.10 556.12 L 108.45 557.45 C 107.04 557.62 105.71 558.15 104.56 558.99 L 96.16 565.13 Z" fill="#ffba5f" fill-rule="nonzero" node-id="352" stroke="none" target-height="38.864014" target-width="112.731094" target-x="25.0719" target-y="556.032"></path><path d="M 265.10 31.58 L 296.41 13.52 C 301.38 10.65 307.74 12.35 310.61 17.32 L 328.69 48.60 C 331.57 53.57 329.86 59.93 324.89 62.80 C 324.89 62.81 324.89 62.81 324.88 62.81 L 293.57 80.86 C 288.60 83.73 282.24 82.03 279.37 77.05 L 261.29 45.78 C 258.41 40.81 260.12 34.45 265.09 31.57 C 265.09 31.57 265.09 31.57 265.09 31.57 L 265.10 31.58 Z" fill="#f3f6ff" fill-rule="nonzero" node-id="354" stroke="none" target-height="73.0785" target-width="73.153015" target-x="258.413" target-y="10.6501"></path><path d="M 528.29 624.97 L 553.86 610.22 C 558.83 607.36 565.19 609.06 568.06 614.03 L 582.83 639.56 C 585.70 644.54 584.00 650.90 579.03 653.77 C 579.02 653.77 579.02 653.77 579.02 653.77 L 553.45 668.51 C 548.48 671.38 542.12 669.68 539.25 664.71 L 524.48 639.17 C 521.61 634.20 523.31 627.84 528.28 624.97 C 528.28 624.96 528.29 624.96 528.29 624.96 L 528.29 624.97 Z" fill="#f3f6ff" fill-rule="nonzero" node-id="356" stroke="none" target-height="64.026" target-width="64.09503" target-x="521.607" target-y="607.355"></path><path d="M 308.80 608.32 C 313.44 625.18 330.88 635.09 347.76 630.45 C 364.63 625.80 374.55 608.36 369.91 591.50 C 365.27 574.63 347.83 564.73 330.95 569.37 C 314.07 574.01 304.16 591.45 308.80 608.32 Z" fill="#ffe071" fill-rule="nonzero" node-id="358" stroke="none" target-height="70.362976" target-width="70.39502" target-x="304.158" target-y="564.726"></path><path d="M 302.90 147.62 L 190.55 147.62 C 186.53 147.62 183.27 150.88 183.27 154.90 L 183.27 227.66 C 183.27 231.68 186.53 234.94 190.55 234.94 L 302.90 234.94 C 306.93 234.94 310.19 231.68 310.19 227.66 L 310.19 154.90 C 310.19 150.88 306.93 147.62 302.90 147.62 Z" fill="#ffffff" fill-rule="nonzero" node-id="360" stroke="#e5e5e5" stroke-linecap="butt" stroke-width="2.08" target-height="87.32199" target-width="126.916" target-x="183.269" target-y="147.617"></path><path d="M 204.07 177.76 C 207.52 177.76 210.32 174.97 210.32 171.53 C 210.32 168.08 207.52 165.29 204.07 165.29 C 200.63 165.29 197.83 168.08 197.83 171.53 C 197.83 174.97 200.63 177.76 204.07 177.76 Z" fill="#a3b7ff" fill-rule="nonzero" node-id="362" stroke="none" target-height="12.475006" target-width="12.483002" target-x="197.833" target-y="165.289"></path><path d="M 210.32 206.87 L 197.83 206.87 L 197.83 224.54 L 210.32 224.54 L 210.32 206.87 Z" fill="#5fffd8" fill-rule="nonzero" node-id="364" stroke="none" target-height="17.673004" target-width="12.483002" target-x="197.833" target-y="206.871"></path><path d="M 210.32 194.40 L 197.83 194.40 L 197.83 212.07 L 210.32 212.07 L 210.32 194.40 Z" fill="#1be3b3" fill-rule="nonzero" node-id="366" stroke="none" target-height="17.671997" target-width="12.483002" target-x="197.833" target-y="194.397"></path><path d="M 232.16 208.95 L 219.68 208.95 L 219.68 225.58 L 232.16 225.58 L 232.16 208.95 Z" fill="#5fffd8" fill-rule="nonzero" node-id="368" stroke="none" target-height="16.632996" target-width="12.483994" target-x="219.679" target-y="208.95"></path><path d="M 232.16 201.67 L 219.68 201.67 L 219.68 216.23 L 232.16 216.23 L 232.16 201.67 Z" fill="#1be3b3" fill-rule="nonzero" node-id="370" stroke="none" target-height="14.553009" target-width="12.483994" target-x="219.679" target-y="201.674"></path><path d="M 254.01 198.56 L 241.53 198.56 L 241.53 225.58 L 254.01 225.58 L 254.01 198.56 Z" fill="#5fffd8" fill-rule="nonzero" node-id="372" stroke="none" target-height="27.028" target-width="12.484009" target-x="241.525" target-y="198.555"></path><path d="M 254.01 189.20 L 241.53 189.20 L 241.53 206.87 L 254.01 206.87 L 254.01 189.20 Z" fill="#1be3b3" fill-rule="nonzero" node-id="374" stroke="none" target-height="17.671997" target-width="12.484009" target-x="241.525" target-y="189.199"></path><path d="M 275.86 198.56 L 263.37 198.56 L 263.37 225.58 L 275.86 225.58 L 275.86 198.56 Z" fill="#5fffd8" fill-rule="nonzero" node-id="376" stroke="none" target-height="27.028" target-width="12.484009" target-x="263.371" target-y="198.555"></path><path d="M 275.86 174.65 L 263.37 174.65 L 263.37 201.67 L 275.86 201.67 L 275.86 174.65 Z" fill="#1be3b3" fill-rule="nonzero" node-id="378" stroke="none" target-height="27.028" target-width="12.484009" target-x="263.371" target-y="174.645"></path><path d="M 297.70 198.56 L 285.22 198.56 L 285.22 225.58 L 297.70 225.58 L 297.70 198.56 Z" fill="#5fffd8" fill-rule="nonzero" node-id="380" stroke="none" target-height="27.028" target-width="12.483978" target-x="285.217" target-y="198.555"></path><path d="M 297.70 182.96 L 285.22 182.96 L 285.22 209.99 L 297.70 209.99 L 297.70 182.96 Z" fill="#1be3b3" fill-rule="nonzero" node-id="382" stroke="none" target-height="27.028" target-width="12.483978" target-x="285.217" target-y="182.962"></path><path d="M 704.46 486.51 L 548.41 486.51 C 544.39 486.51 541.13 489.77 541.13 493.79 L 541.13 571.75 C 541.13 575.77 544.39 579.03 548.41 579.03 L 704.46 579.03 C 708.48 579.03 711.74 575.77 711.74 571.75 L 711.74 493.79 C 711.74 489.77 708.48 486.51 704.46 486.51 Z" fill="#ffffff" fill-rule="nonzero" node-id="384" stroke="#e5e5e5" stroke-linecap="butt" stroke-width="2.08" target-height="92.51999" target-width="170.60797" target-x="541.13" target-y="486.512"></path><path d="M 590.02 528.09 L 617.07 528.09 C 616.08 513.06 604.51 501.05 590.02 500.03 L 590.02 528.09 Z" fill="#1be3b3" fill-rule="nonzero" node-id="386" stroke="none" target-height="28.067993" target-width="27.047974" target-x="590.023" target-y="500.026"></path><path d="M 614.43 553.04 C 618.91 548.33 621.80 542.17 622.27 535.37 L 596.26 535.37 L 614.43 553.04 Z" fill="#ffae64" fill-rule="nonzero" node-id="388" stroke="none" target-height="17.672058" target-width="26.006958" target-x="596.265" target-y="535.371"></path><path d="M 585.62 532.22 L 585.62 500.03 C 570.07 501.10 557.77 514.16 557.77 530.13 C 557.77 546.80 571.17 560.32 587.69 560.32 C 594.90 560.32 601.50 557.74 606.67 553.45 L 585.62 532.22 Z" fill="#ff8282" fill-rule="nonzero" node-id="390" stroke="none" target-height="60.294006" target-width="48.894043" target-x="557.774" target-y="500.026"></path><path d="M 682.61 540.57 L 636.84 540.57 L 636.84 548.88 L 682.61 548.88 L 682.61 540.57 Z" fill="#a3b7ff" fill-rule="nonzero" node-id="392" stroke="none" target-height="8.31604" target-width="45.772034" target-x="636.837" target-y="540.569"></path><path d="M 670.13 526.01 L 635.80 526.01 L 635.80 534.33 L 670.13 534.33 L 670.13 526.01 Z" fill="#a3b7ff" fill-rule="nonzero" node-id="394" stroke="none" target-height="8.315979" target-width="34.329956" target-x="635.796" target-y="526.015"></path><path d="M 701.34 510.42 L 636.84 510.42 L 636.84 518.74 L 701.34 518.74 L 701.34 510.42 Z" fill="#a3b7ff" fill-rule="nonzero" node-id="396" stroke="none" target-height="8.316986" target-width="64.49805" target-x="636.837" target-y="510.421"></path></svg>