<?xml version="1.0" standalone="no"?><!DOCTYPE svg PUBLIC "-//W3C//DTD SVG 1.1//EN" "http://www.w3.org/Graphics/SVG/1.1/DTD/svg11.dtd"><svg height="654" node-id="1" sillyvg="true" template-height="654" template-width="850" version="1.1" viewBox="0 0 850 654" width="850" xmlns="http://www.w3.org/2000/svg" xmlns:xlink="http://www.w3.org/1999/xlink"><defs node-id="113"><mask height="499" id="mask0" maskUnits="userSpaceOnUse" node-id="6" width="277" x="352" y="134"><path d="M 352.03 139.86 C 352.03 136.72 354.58 134.18 357.73 134.18 L 416.93 134.18 C 419.47 134.18 421.70 135.85 422.40 138.29 L 424.93 147.06 C 425.63 149.49 427.87 151.17 430.40 151.17 L 549.46 151.17 C 551.87 151.17 554.01 149.66 554.82 147.41 L 558.24 137.94 C 559.05 135.68 561.19 134.18 563.59 134.18 L 623.08 134.18 C 626.23 134.18 628.77 136.72 628.77 139.86 L 628.77 626.61 C 628.77 629.75 626.23 632.29 623.08 632.29 L 357.73 632.29 C 354.58 632.29 352.03 629.75 352.03 626.61 L 352.03 139.86 Z" fill="#ffffff" fill-rule="nonzero" node-id="116" stroke="none" target-height="498.11703" target-width="276.74203" target-x="352.033" target-y="134.176"></path></mask><mask height="287" id="mask1" maskUnits="userSpaceOnUse" node-id="30" width="112" x="715" y="336"><path d="M 801.39 357.12 L 797.64 338.56 L 721.46 336.28 L 716.75 372.04 C 715.33 382.85 714.87 393.75 715.38 404.64 L 725.56 622.29 L 752.48 622.29 L 757.95 404.25 L 797.64 622.29 L 826.37 622.29 L 804.02 412.91 L 804.23 410.73 C 805.91 392.82 804.95 374.76 801.39 357.12 Z" fill="#ffffff" fill-rule="nonzero" node-id="120" stroke="none" target-height="286.00897" target-width="111.50104" target-x="714.873" target-y="336.278"></path></mask><mask height="50" id="mask2" maskUnits="userSpaceOnUse" node-id="44" width="38" x="743" y="204"><path d="M 774.77 230.69 C 772.90 226.05 773.21 210.99 773.60 204.04 C 765.04 205.58 748.28 211.34 749.68 222.00 C 751.08 232.66 747.15 235.32 745.01 235.32 C 742.68 240.34 741.16 250.96 753.77 253.28 C 766.37 255.60 776.91 244.59 780.60 238.80 C 779.43 238.02 776.63 235.32 774.77 230.69 Z" fill="#ffffff" fill-rule="nonzero" node-id="124" stroke="none" target-height="51.558" target-width="39.436035" target-x="741.165" target-y="204.038"></path></mask><mask height="260" id="mask3" maskUnits="userSpaceOnUse" node-id="72" width="100" x="181" y="353"><path d="M 280.29 412.11 C 282.24 382.98 277.03 362.62 274.18 356.09 L 198.39 353.29 C 194.72 362.62 189.88 392.41 191.84 408.10 C 193.79 423.78 194.72 454.12 195.94 470.93 L 181.27 612.38 L 203.03 612.38 L 238.73 406.51 L 232.86 612.38 L 255.84 612.38 C 263.17 557.76 278.33 441.24 280.29 412.11 Z" fill="#ffffff" fill-rule="nonzero" node-id="128" stroke="none" target-height="259.096" target-width="100.96901" target-x="181.274" target-y="353.286"></path></mask><mask height="108" id="mask4" maskUnits="userSpaceOnUse" node-id="78" width="157" x="159" y="250"><path d="M 201.15 253.62 L 215.36 250.26 L 247.88 250.26 C 261.48 250.26 274.79 254.23 286.18 261.68 L 315.86 281.08 L 302.36 315.58 L 278.52 298.58 L 275.86 315.58 L 279.71 348.24 C 280.29 353.07 276.45 357.28 271.58 357.17 L 200.94 355.54 C 195.72 355.42 192.02 350.42 193.42 345.40 L 198.73 326.33 L 193.16 312.31 L 185.86 326.33 L 159.46 320.64 L 175.58 276.34 C 179.73 264.94 189.34 256.40 201.15 253.62 Z" fill="#ffffff" fill-rule="nonzero" node-id="132" stroke="none" target-height="107.01898" target-width="156.40001" target-x="159.458" target-y="250.264"></path></mask><mask height="70" id="mask5" maskUnits="userSpaceOnUse" node-id="97" width="46" x="213" y="191"><path d="M 252.69 203.23 L 252.69 207.44 C 254.56 206.97 258.31 206.88 258.31 210.25 C 258.31 214.46 255.50 217.26 252.69 215.86 C 252.33 220.24 249.97 228.87 242.98 232.47 C 243.23 235.77 243.96 240.50 245.68 243.93 C 247.92 248.42 252.22 250.48 254.10 250.95 C 251.29 254.22 243.43 260.78 234.45 260.78 C 225.46 260.78 218.54 254.22 216.20 250.95 C 217.60 250.48 221.25 248.71 224.62 245.34 C 227.27 242.68 227.78 236.38 227.65 231.76 C 221.81 227.84 220.03 219.97 219.01 215.86 C 217.13 216.33 213.39 216.14 213.39 211.65 C 213.39 207.16 217.60 206.97 219.01 207.44 L 219.01 203.23 C 221.81 203.70 229.11 203.51 235.85 199.02 C 242.59 194.53 244.27 192.47 244.27 192.00 C 244.27 194.34 245.30 198.65 247.08 200.42 C 249.89 203.23 251.76 202.76 252.69 203.23 Z" fill="#ffffff" fill-rule="nonzero" node-id="136" stroke="none" target-height="68.77701" target-width="44.916" target-x="213.391" target-y="191.999"></path></mask></defs><path d="M 840.23 647.08 L 218.23 647.08 L 175.73 647.08 L 175.73 358.58 C 175.73 338.14 192.29 321.58 212.73 321.58 C 233.16 321.58 249.73 305.01 249.73 284.58 L 249.73 253.33 C 249.73 215.63 280.29 185.08 317.98 185.08 L 626.23 185.08 C 658.81 185.08 685.23 211.49 685.23 244.08 C 685.23 276.66 711.64 303.08 744.23 303.08 L 762.73 303.08 C 805.53 303.08 840.23 337.77 840.23 380.58 L 840.23 647.08 Z" fill="#f3f6ff" fill-rule="nonzero" node-id="140" stroke="none" target-height="462.00003" target-width="664.5" target-x="175.729" target-y="185.077"></path><path d="M 601.43 125.08 L 333.82 125.08 C 326.27 125.08 320.14 131.20 320.14 138.76 L 320.14 633.40 C 320.14 640.95 326.27 647.08 333.82 647.08 L 601.43 647.08 C 608.98 647.08 615.11 640.95 615.11 633.40 L 615.11 138.76 C 615.11 131.20 608.98 125.08 601.43 125.08 Z" fill="#706ac7" fill-rule="nonzero" node-id="142" stroke="none" target-height="522" target-width="294.96402" target-x="320.145" target-y="125.077"></path><path d="M 623.07 125.08 L 360.02 125.08 C 351.21 125.08 344.06 132.22 344.06 141.04 L 344.06 631.12 C 344.06 639.93 351.21 647.08 360.02 647.08 L 623.07 647.08 C 631.88 647.08 639.02 639.93 639.02 631.12 L 639.02 141.04 C 639.02 132.22 631.88 125.08 623.07 125.08 Z" fill="#cfccff" fill-rule="nonzero" node-id="144" stroke="none" target-height="522" target-width="294.96402" target-x="344.061" target-y="125.077"></path><path d="M 352.03 139.86 C 352.03 136.72 354.58 134.18 357.73 134.18 L 417.22 134.18 C 419.76 134.18 421.99 135.85 422.69 138.28 L 425.23 147.06 C 425.94 149.50 428.17 151.17 430.70 151.17 L 550.30 151.17 C 552.70 151.17 554.84 149.67 555.65 147.42 L 559.09 137.93 C 559.90 135.68 562.04 134.18 564.44 134.18 L 624.22 134.18 C 627.36 134.18 629.91 136.72 629.91 139.86 L 629.91 626.61 C 629.91 629.75 627.36 632.29 624.22 632.29 L 357.73 632.29 C 354.58 632.29 352.03 629.75 352.03 626.61 L 352.03 139.86 Z" fill="#282f48" fill-rule="nonzero" node-id="146" stroke="none" target-height="498.11703" target-width="277.881" target-x="352.033" target-y="134.176"></path><g node-id="342"><path d="M 560.44 422.47 C 571.78 300.10 643.05 269.89 677.26 270.08 L 718.09 257.00 L 731.70 743.17 L 421.50 743.17 L 334.95 638.55 C 358.87 498.67 549.10 544.84 560.44 422.47 Z" fill="#2f3b67" fill-rule="nonzero" group-id="1" node-id="150" stroke="none" target-height="486.176" target-width="396.753" target-x="334.951" target-y="256.999"></path></g><path d="M 332.67 187.63 C 332.67 184.49 330.12 181.94 326.98 181.94 C 323.83 181.94 321.28 184.49 321.28 187.63 L 321.28 327.50 C 321.28 330.65 323.83 333.19 326.98 333.19 C 330.12 333.19 332.67 330.65 332.67 327.50 L 332.67 187.63 Z" fill="#cfccff" fill-rule="nonzero" node-id="153" stroke="none" target-height="151.255" target-width="11.389008" target-x="321.284" target-y="181.94"></path><path d="M 328.12 187.63 C 328.12 184.49 325.57 181.94 322.42 181.94 C 319.28 181.94 316.73 184.49 316.73 187.63 L 316.73 327.50 C 316.73 330.65 319.28 333.19 322.42 333.19 C 325.57 333.19 328.12 330.65 328.12 327.50 L 328.12 187.63 Z" fill="#2f3b67" fill-rule="nonzero" node-id="155" stroke="none" target-height="151.255" target-width="11.3880005" target-x="316.729" target-y="181.94"></path><path d="M 685.90 133.69 C 698.13 136.31 710.18 128.51 712.80 116.28 C 715.42 104.04 707.62 92.00 695.39 89.38 C 683.15 86.76 671.11 94.55 668.49 106.79 C 665.87 119.02 673.66 131.07 685.90 133.69 Z" fill="#ffae64" fill-rule="nonzero" node-id="157" stroke="none" target-height="49.5504" target-width="49.549988" target-x="665.869" target-y="86.7576"></path><path d="M 691.81 134.95 C 704.04 137.57 716.09 129.78 718.71 117.54 C 721.33 105.31 713.53 93.26 701.30 90.64 C 689.06 88.02 677.02 95.82 674.40 108.05 C 671.78 120.29 679.57 132.33 691.81 134.95 Z" fill="#ffe071" fill-rule="nonzero" node-id="159" stroke="none" target-height="49.5503" target-width="49.55005" target-x="671.777" target-y="88.0227"></path><path d="M 699.40 99.50 L 700.88 99.82 L 700.24 102.79 C 705.05 104.04 705.61 106.54 705.20 108.47 L 703.72 108.16 C 704.14 106.19 702.62 104.83 699.19 104.09 C 697.98 103.83 693.97 103.23 693.31 106.31 C 693.03 107.60 692.72 109.06 697.78 111.54 L 700.00 112.76 C 703.44 114.95 703.44 116.70 703.07 118.44 C 702.47 121.22 699.85 122.53 696.13 121.95 L 695.50 124.93 L 694.02 124.61 L 694.66 121.64 C 689.84 120.40 689.28 117.89 689.69 115.96 L 691.17 116.28 C 690.75 118.24 692.28 119.61 695.71 120.34 C 696.92 120.60 700.93 121.21 701.59 118.13 C 701.87 116.84 702.18 115.38 697.12 112.90 L 694.90 111.67 C 691.45 109.49 691.46 107.73 691.83 105.99 C 692.42 103.21 695.05 101.90 698.76 102.48 L 699.40 99.50 Z" fill="#b39e53" fill-rule="nonzero" node-id="161" stroke="none" target-height="25.425102" target-width="16.332031" target-x="689.282" target-y="99.5049"></path><path d="M 364.74 84.56 C 385.87 89.09 406.66 75.66 411.17 54.57 C 415.69 33.48 402.22 12.71 381.10 8.19 C 359.97 3.67 339.19 17.10 334.67 38.19 C 330.15 59.28 343.62 80.04 364.74 84.56 Z" fill="#ffae64" fill-rule="nonzero" node-id="163" stroke="none" target-height="85.42071" target-width="85.534" target-x="330.154" target-y="3.66719"></path><path d="M 373.85 86.51 C 394.98 91.03 415.76 77.61 420.28 56.52 C 424.80 35.43 411.33 14.66 390.20 10.14 C 369.08 5.61 348.29 19.04 343.78 40.13 C 339.26 61.22 352.73 81.99 373.85 86.51 Z" fill="#ffe071" fill-rule="nonzero" node-id="165" stroke="none" target-height="85.42073" target-width="85.535" target-x="339.261" target-y="5.61397"></path><path d="M 370.14 46.57 L 370.66 44.15 L 377.57 45.61 C 377.63 44.43 377.63 43.35 377.64 42.33 C 377.64 40.11 377.64 38.00 378.28 35.59 C 379.40 31.28 381.51 28.57 384.56 27.53 C 389.21 25.96 394.56 28.93 396.73 30.35 L 395.79 32.71 C 394.34 31.71 389.29 28.54 385.36 29.88 C 383.17 30.62 381.60 32.75 380.69 36.21 C 380.14 38.32 380.14 40.18 380.14 42.33 C 380.13 43.50 380.13 44.74 380.04 46.13 L 390.23 48.29 L 389.70 50.71 L 379.80 48.61 C 379.68 49.55 379.50 50.57 379.27 51.66 C 377.60 59.34 373.19 62.34 369.77 64.19 L 390.93 68.67 L 390.40 71.09 L 364.73 65.65 L 365.25 63.23 L 367.45 62.61 C 370.72 60.91 375.21 58.59 376.82 51.14 C 377.06 50.04 377.23 49.03 377.35 48.09 L 370.14 46.56 L 370.14 46.57 Z" fill="#b39e53" fill-rule="nonzero" node-id="167" stroke="none" target-height="45.124603" target-width="32" target-x="364.729" target-y="25.9618"></path><path d="M 384.40 187.95 L 650.45 187.95 C 654.32 187.95 657.45 191.08 657.45 194.95 L 657.45 321.08 C 657.45 324.94 654.32 328.08 650.45 328.08 L 384.40 328.08 C 380.54 328.08 377.40 324.94 377.40 321.08 L 377.40 194.95 C 377.40 191.08 380.54 187.95 384.40 187.95 Z" fill="#ffffff" fill-rule="nonzero" node-id="169" stroke="#e5e5e5" stroke-linecap="butt" stroke-width="2" target-height="140.127" target-width="280.04697" target-x="377.402" target-y="187.95"></path><path d="M 451.38 251.13 L 493.36 251.13 C 491.82 228.65 473.86 210.69 451.38 209.16 L 451.38 251.13 Z" fill="#1be3b3" fill-rule="nonzero" node-id="171" stroke="none" target-height="41.972992" target-width="41.974" target-x="451.381" target-y="209.158"></path><path d="M 488.59 289.33 C 495.36 281.99 499.74 272.40 500.46 261.81 L 461.07 261.81 L 488.59 289.33 Z" fill="#ffae64" fill-rule="nonzero" node-id="173" stroke="none" target-height="27.519989" target-width="39.389984" target-x="461.07" target-y="261.808"></path><path d="M 445.14 257.37 L 445.14 209.16 C 421.63 210.76 403.05 230.33 403.05 254.25 C 403.05 279.22 423.29 299.46 448.26 299.46 C 459.16 299.46 469.15 295.59 476.95 289.17 L 445.14 257.37 Z" fill="#ff8282" fill-rule="nonzero" node-id="175" stroke="none" target-height="90.30101" target-width="73.897" target-x="403.052" target-y="209.158"></path><path d="M 593.14 269.56 L 522.97 269.56 L 522.97 282.00 L 593.14 282.00 L 593.14 269.56 Z" fill="#a3b7ff" fill-rule="nonzero" node-id="177" stroke="none" target-height="12.435974" target-width="70.17505" target-x="522.97" target-y="269.562"></path><path d="M 575.38 247.35 L 522.97 247.35 L 522.97 259.79 L 575.38 259.79 L 575.38 247.35 Z" fill="#a3b7ff" fill-rule="nonzero" node-id="179" stroke="none" target-height="12.436981" target-width="52.409058" target-x="522.97" target-y="247.354"></path><path d="M 620.68 225.15 L 522.97 225.15 L 522.97 237.58 L 620.68 237.58 L 620.68 225.15 Z" fill="#a3b7ff" fill-rule="nonzero" node-id="181" stroke="none" target-height="12.435989" target-width="97.712036" target-x="522.97" target-y="225.147"></path><path d="M 717.35 642.36 L 729.15 632.24 C 735.43 626.86 734.23 610.43 734.23 610.43 L 751.11 609.51 L 751.11 627.76 L 753.85 637.34 L 718.72 644.18 L 717.35 642.36 Z" fill="#ffae64" fill-rule="nonzero" node-id="183" stroke="none" target-height="34.66803" target-width="36.492004" target-x="717.354" target-y="609.514"></path><path d="M 723.25 653.30 L 711.97 653.30 C 710.50 653.30 709.14 652.53 708.40 651.26 C 707.29 649.35 707.88 646.89 709.72 645.66 C 711.95 644.17 715.21 641.97 719.18 639.16 C 726.93 633.69 730.13 630.04 730.13 630.04 C 730.13 630.04 734.69 632.78 741.53 632.78 C 748.37 632.78 752.02 627.76 752.02 627.76 C 754.96 635.10 755.06 643.27 752.32 650.68 L 752.02 651.48 L 738.79 652.39 L 736.51 650.57 L 730.48 652.29 C 728.13 652.96 725.69 653.30 723.25 653.30 Z" fill="#2c2770" fill-rule="nonzero" node-id="185" stroke="none" target-height="25.544983" target-width="47.773987" target-x="707.289" target-y="627.76"></path><path d="M 839.60 642.36 L 827.80 632.24 C 821.52 626.86 822.73 610.43 822.73 610.43 L 805.85 609.51 L 805.85 627.76 L 803.11 637.34 L 838.24 644.18 L 839.60 642.36 Z" fill="#ffae64" fill-rule="nonzero" node-id="187" stroke="none" target-height="34.66803" target-width="36.492004" target-x="803.111" target-y="609.514"></path><path d="M 833.71 653.30 L 844.99 653.30 C 846.46 653.30 847.81 652.53 848.55 651.26 C 849.67 649.35 849.08 646.89 847.23 645.66 C 845.00 644.17 841.75 641.97 837.78 639.16 C 830.02 633.69 826.83 630.04 826.83 630.04 C 826.83 630.04 822.27 632.78 815.43 632.78 C 808.58 632.78 804.93 627.76 804.93 627.76 C 802.00 635.10 801.89 643.27 804.64 650.68 L 804.93 651.48 L 818.16 652.39 L 820.44 650.57 L 826.48 652.29 C 828.83 652.96 831.26 653.30 833.71 653.30 Z" fill="#2c2770" fill-rule="nonzero" node-id="189" stroke="none" target-height="25.544983" target-width="47.774048" target-x="801.894" target-y="627.76"></path><path d="M 800.48 357.12 L 796.73 338.56 L 720.55 336.28 L 715.84 372.04 C 714.42 382.85 713.96 393.75 714.47 404.64 L 724.65 622.29 L 751.57 622.29 L 757.04 404.25 L 796.73 622.29 L 825.46 622.29 L 803.11 412.91 L 803.32 410.73 C 804.99 392.82 804.04 374.76 800.48 357.12 Z" fill="#0b86df" fill-rule="nonzero" node-id="191" stroke="none" target-height="286.00897" target-width="111.50098" target-x="713.961" target-y="336.278"></path><path d="M 792.16 336.73 C 794.60 348.90 799.46 383.81 799.46 426.14 C 799.46 426.14 814.67 575.15 822.27 623.20" fill="none" group-id="2" node-id="195" stroke="#ffffff" stroke-linecap="butt" stroke-width="1" target-height="286.46497" target-width="30.105957" target-x="792.163" target-y="336.734"></path><path d="M 756.58 404.70 C 753.85 411.54 748.28 434.35 747.92 470.84 C 747.55 507.34 747.76 587.01 747.92 622.29" fill="none" group-id="2" node-id="197" stroke="#ffffff" stroke-linecap="butt" stroke-width="1" target-height="217.586" target-width="9.031982" target-x="747.551" target-y="404.701"></path><path d="M 813.07 326.54 L 805.41 306.01 L 825.91 288.56 L 833.24 313.01 C 836.50 323.86 834.99 335.59 829.11 345.27 L 802.48 389.08 L 801.70 396.13 C 801.68 396.34 801.64 396.55 801.58 396.75 L 799.20 405.48 C 799.18 405.55 799.16 405.63 799.16 405.70 L 797.82 418.78 C 797.71 419.86 796.80 420.69 795.71 420.69 C 794.54 420.69 793.59 419.74 793.59 418.56 L 793.59 408.16 L 791.09 420.30 C 790.90 421.20 790.05 421.80 789.13 421.68 C 788.23 421.55 787.57 420.75 787.62 419.84 L 788.33 408.16 L 784.08 420.57 C 783.74 421.55 782.71 422.12 781.70 421.89 C 780.65 421.65 779.98 420.64 780.15 419.58 L 782.36 405.84 L 777.54 419.02 C 777.08 420.30 775.58 420.86 774.38 420.20 C 773.51 419.72 773.07 418.73 773.29 417.76 L 777.08 401.47 L 773.10 404.97 C 772.24 405.73 771.14 406.14 770.00 406.14 C 769.31 406.14 768.86 405.43 769.14 404.81 L 775.42 391.08 C 776.02 389.77 776.96 388.65 778.14 387.83 L 786.27 382.21 L 813.07 326.54 Z" fill="#ff9330" fill-rule="nonzero" node-id="200" stroke="none" target-height="133.56699" target-width="67.638" target-x="768.857" target-y="288.557"></path><path d="M 661.82 219.60 L 683.88 230.81 L 681.46 255.12 L 658.32 244.91 C 645.75 239.36 636.91 227.75 634.90 214.15 L 626.98 160.44 L 620.60 153.18 L 615.65 146.76 C 613.96 144.56 613.33 141.72 613.94 139.01 C 614.38 137.05 615.71 135.40 617.54 134.55 L 626.75 130.23 L 620.68 115.60 C 620.09 114.18 620.91 112.57 622.40 112.21 C 623.49 111.94 624.62 112.43 625.18 113.41 L 634.48 129.84 L 637.08 129.40 C 638.38 129.19 639.66 129.84 640.25 131.01 L 643.27 137.00 C 644.11 138.65 644.34 140.55 643.93 142.36 L 641.56 152.87 L 661.82 219.60 Z" fill="#ff9330" fill-rule="nonzero" node-id="202" stroke="none" target-height="143.181" target-width="70.554016" target-x="613.328" target-y="111.941"></path><path d="M 620.42 133.26 L 625.89 143.76 C 626.43 144.80 627.69 145.24 628.77 144.77 C 629.79 144.32 630.33 143.19 630.02 142.12 L 629.12 138.92" fill="none" node-id="204" stroke="#000000" stroke-linecap="butt" stroke-width="1" target-height="11.985001" target-width="9.906982" target-x="620.421" target-y="133.258"></path><path d="M 615.43 135.71 L 622.03 145.65 C 622.65 146.59 623.89 146.88 624.87 146.32 C 625.86 145.76 626.23 144.51 625.71 143.50 L 625.45 142.98" fill="none" node-id="206" stroke="#000000" stroke-linecap="butt" stroke-width="1" target-height="11.169998" target-width="10.8029785" target-x="615.429" target-y="135.711"></path><path d="M 614.58 143.33 L 619.95 150.86 C 620.63 151.81 621.92 152.09 622.94 151.51 C 623.93 150.95 624.35 149.75 623.94 148.70 L 622.95 146.15" fill="none" node-id="208" stroke="#000000" stroke-linecap="butt" stroke-width="1" target-height="8.768005" target-width="9.767029" target-x="614.584" target-y="143.327"></path><path d="M 632.63 130.64 L 623.31 134.60 C 622.53 134.94 622.13 135.82 622.41 136.63 C 623.02 138.37 624.73 139.48 626.57 139.33 L 635.09 138.64 C 633.44 139.71 631.18 145.61 630.96 151.72" fill="none" node-id="210" stroke="#000000" stroke-linecap="butt" stroke-width="1" target-height="21.07901" target-width="12.953003" target-x="622.134" target-y="130.644"></path><path d="M 795.87 240.68 L 775.22 235.26 L 721.78 235.26 C 715.34 235.26 708.93 234.38 702.73 232.62 L 671.48 223.78 L 666.00 251.82 L 712.07 279.77 L 716.21 296.85 L 712.59 322.55 C 711.12 332.94 719.33 342.16 729.81 341.92 L 791.65 340.50 C 796.17 340.39 799.71 336.55 799.45 332.03 L 797.43 297.31 L 804.73 311.33 L 831.13 305.64 L 821.71 266.99 C 818.59 254.14 808.66 244.04 795.87 240.68 Z" fill="#1be3b3" fill-rule="nonzero" node-id="212" stroke="none" target-height="118.381" target-width="165.12805" target-x="666.001" target-y="223.783"></path><path d="M 775.08 230.69 C 773.20 226.00 773.52 210.75 773.91 203.71 C 765.30 205.28 748.43 211.10 749.84 221.90 C 751.25 232.69 747.29 235.39 745.14 235.39 C 742.79 240.47 741.26 251.22 753.95 253.57 C 766.63 255.92 777.23 244.77 780.95 238.91 C 779.78 238.12 776.96 235.39 775.08 230.69 Z" fill="#ff9330" fill-rule="nonzero" node-id="214" stroke="none" target-height="52.203995" target-width="39.68701" target-x="741.265" target-y="203.712"></path><path d="M 779.42 173.64 C 785.14 176.96 779.59 194.02 775.34 200.06 L 761.04 200.06 C 756.14 200.06 744.71 193.85 739.61 190.74 C 734.50 188.49 722.76 182.97 727.36 177.78 L 730.42 175.19 C 720.21 163.80 730.42 162.24 741.65 160.69 L 761.04 157.58 C 769.72 155.51 782.99 161.72 779.42 173.64 Z" fill="#2c2770" fill-rule="nonzero" node-id="216" stroke="none" target-height="44.557007" target-width="64.92999" target-x="720.208" target-y="155.506"></path><path d="M 748.08 231.40 C 767.08 229.33 773.20 213.33 773.89 205.59 L 748.08 220.04 C 740.16 224.69 729.08 233.46 748.08 231.40 Z" fill="#d76767" fill-rule="nonzero" group-id="3" node-id="220" stroke="none" target-height="27.875992" target-width="44.807007" target-x="729.083" target-y="205.587"></path><path d="M 773.39 205.31 C 773.77 211.74 765.93 223.43 751.59 222.85 C 743.22 222.51 741.10 212.94 738.97 202.39 C 737.45 194.87 734.57 186.86 735.53 181.35 L 748.15 177.25 C 746.43 179.59 742.99 183.10 748.72 183.10 C 754.40 183.10 759.81 181.35 761.92 179.59 C 763.06 186.61 768.23 186.02 768.23 189.53 L 768.23 199.47 C 772.82 199.94 773.58 195.38 773.39 193.04 C 775.30 191.87 779.13 191.05 779.13 197.13 C 779.13 203.21 775.30 205.12 773.39 205.31 Z" fill="#ff9330" fill-rule="nonzero" node-id="223" stroke="none" target-height="46.179" target-width="44.55597" target-x="734.572" target-y="177.255"></path><path d="M 755.90 208.23 L 749.52 211.43 C 749.98 212.34 751.43 213.52 753.62 212.79 C 755.81 212.06 756.06 209.75 755.90 208.23 Z" fill="#ffffff" fill-rule="nonzero" node-id="225" stroke="none" target-height="5.2910004" target-width="6.538025" target-x="749.519" target-y="208.233"></path><path d="M 742.22 189.07 L 737.66 189.07 C 736.90 189.07 736.29 189.69 736.29 190.44 C 736.29 191.20 736.90 191.81 737.66 191.81 L 742.22 191.81 C 742.98 191.81 743.59 191.20 743.59 190.44 C 743.59 189.69 742.98 189.07 742.22 189.07 Z" fill="#2c2770" fill-rule="nonzero" node-id="227" stroke="none" target-height="2.7369995" target-width="7.2979736" target-x="736.291" target-y="189.074"></path><path d="M 760.47 189.07 L 755.90 189.07 C 755.15 189.07 754.54 189.69 754.54 190.44 C 754.54 191.20 755.15 191.81 755.90 191.81 L 760.47 191.81 C 761.22 191.81 761.84 191.20 761.84 190.44 C 761.84 189.69 761.22 189.07 760.47 189.07 Z" fill="#2c2770" fill-rule="nonzero" node-id="229" stroke="none" target-height="2.7369995" target-width="7.2980347" target-x="754.537" target-y="189.074"></path><path d="M 757.73 196.37 C 758.49 196.37 759.10 195.76 759.10 195.00 C 759.10 194.25 758.49 193.64 757.73 193.64 C 756.97 193.64 756.36 194.25 756.36 195.00 C 756.36 195.76 756.97 196.37 757.73 196.37 Z" fill="#000000" fill-rule="nonzero" node-id="231" stroke="none" target-height="2.7369995" target-width="2.7369995" target-x="756.361" target-y="193.636"></path><path d="M 747.24 190.90 L 747.24 207.32 L 751.34 207.32" fill="none" node-id="233" stroke="#000000" stroke-linecap="butt" stroke-width="1" target-height="16.421005" target-width="4.1049805" target-x="747.239" target-y="190.899"></path><path d="M 740.40 196.37 C 741.15 196.37 741.76 195.76 741.76 195.00 C 741.76 194.25 741.15 193.64 740.40 193.64 C 739.64 193.64 739.03 194.25 739.03 195.00 C 739.03 195.76 739.64 196.37 740.40 196.37 Z" fill="#000000" fill-rule="nonzero" node-id="235" stroke="none" target-height="2.7369995" target-width="2.7369995" target-x="739.027" target-y="193.636"></path><path d="M 596.99 376.08 L 383.73 376.08 C 379.86 376.08 376.73 379.21 376.73 383.08 L 376.73 524.84 C 376.73 528.71 379.86 531.84 383.73 531.84 L 596.99 531.84 C 600.85 531.84 603.99 528.71 603.99 524.84 L 603.99 383.08 C 603.99 379.21 600.85 376.08 596.99 376.08 Z" fill="#ffffff" fill-rule="nonzero" node-id="237" stroke="#e5e5e5" stroke-linecap="butt" stroke-width="2" target-height="155.762" target-width="227.25897" target-x="376.729" target-y="376.077"></path><path d="M 413.42 431.03 C 419.64 431.03 424.69 425.99 424.69 419.76 C 424.69 413.54 419.64 408.50 413.42 408.50 C 407.20 408.50 402.15 413.54 402.15 419.76 C 402.15 425.99 407.20 431.03 413.42 431.03 Z" fill="#a3b7ff" fill-rule="nonzero" node-id="239" stroke="none" target-height="22.537018" target-width="22.536987" target-x="402.152" target-y="408.495"></path><path d="M 425.47 481.55 L 402.93 481.55 L 402.93 514.19 L 425.47 514.19 L 425.47 481.55 Z" fill="#5fffd8" fill-rule="nonzero" node-id="241" stroke="none" target-height="32.64102" target-width="22.537018" target-x="402.929" target-y="481.546"></path><path d="M 425.47 458.23 L 402.93 458.23 L 402.93 490.87 L 425.47 490.87 L 425.47 458.23 Z" fill="#1be3b3" fill-rule="nonzero" node-id="243" stroke="none" target-height="32.640015" target-width="22.537018" target-x="402.929" target-y="458.232"></path><path d="M 464.32 484.65 L 441.79 484.65 L 441.79 514.19 L 464.32 514.19 L 464.32 484.65 Z" fill="#5fffd8" fill-rule="nonzero" node-id="245" stroke="none" target-height="29.532013" target-width="22.537994" target-x="441.786" target-y="484.655"></path><path d="M 464.32 472.22 L 441.79 472.22 L 441.79 498.64 L 464.32 498.64 L 464.32 472.22 Z" fill="#1be3b3" fill-rule="nonzero" node-id="247" stroke="none" target-height="26.423004" target-width="22.538025" target-x="441.787" target-y="472.221"></path><path d="M 503.18 466.00 L 480.64 466.00 L 480.64 514.19 L 503.18 514.19 L 503.18 466.00 Z" fill="#5fffd8" fill-rule="nonzero" node-id="249" stroke="none" target-height="48.183014" target-width="22.536987" target-x="480.644" target-y="466.004"></path><path d="M 503.18 449.68 L 480.64 449.68 L 480.64 481.55 L 503.18 481.55 L 503.18 449.68 Z" fill="#1be3b3" fill-rule="nonzero" node-id="251" stroke="none" target-height="31.862976" target-width="22.536987" target-x="480.644" target-y="449.683"></path><path d="M 542.04 466.00 L 519.50 466.00 L 519.50 514.19 L 542.04 514.19 L 542.04 466.00 Z" fill="#5fffd8" fill-rule="nonzero" node-id="253" stroke="none" target-height="48.183014" target-width="22.537048" target-x="519.501" target-y="466.004"></path><path d="M 542.04 425.59 L 519.50 425.59 L 519.50 473.77 L 542.04 473.77 L 542.04 425.59 Z" fill="#1be3b3" fill-rule="nonzero" node-id="255" stroke="none" target-height="48.182983" target-width="22.537048" target-x="519.501" target-y="425.592"></path><path d="M 580.90 466.00 L 558.36 466.00 L 558.36 514.19 L 580.90 514.19 L 580.90 466.00 Z" fill="#5fffd8" fill-rule="nonzero" node-id="257" stroke="none" target-height="48.183014" target-width="22.536987" target-x="558.359" target-y="466.004"></path><path d="M 580.90 439.58 L 558.36 439.58 L 558.36 487.76 L 580.90 487.76 L 580.90 439.58 Z" fill="#1be3b3" fill-rule="nonzero" node-id="259" stroke="none" target-height="48.183014" target-width="22.536987" target-x="558.36" target-y="439.581"></path><path d="M 267.96 642.13 L 256.16 632.01 C 249.88 626.63 251.08 610.20 251.08 610.20 L 234.20 609.29 L 234.20 627.53 L 231.47 637.11 L 266.59 643.95 L 267.96 642.13 Z" fill="#ffae64" fill-rule="nonzero" node-id="261" stroke="none" target-height="34.66797" target-width="36.492004" target-x="231.466" target-y="609.286"></path><path d="M 264.40 642.83 L 233.29 634.83 C 230.54 637.31 229.57 641.22 230.86 644.69 L 233.29 651.25 L 246.52 652.16 L 247.43 648.97 L 254.17 651.50 C 256.95 652.54 259.90 653.08 262.87 653.08 L 273.39 653.08 C 274.83 653.08 276.16 652.31 276.88 651.07 C 278.00 649.15 277.37 646.69 275.46 645.55 L 262.03 637.57 L 265.64 640.20 C 266.38 640.73 266.46 641.80 265.82 642.44 C 265.45 642.81 264.91 642.96 264.40 642.83 Z" fill="#2c2770" fill-rule="nonzero" node-id="263" stroke="none" target-height="18.246033" target-width="48.428986" target-x="229.574" target-y="634.831"></path><path d="M 166.68 642.51 L 178.48 632.40 C 184.76 627.02 183.55 610.58 183.55 610.58 L 200.43 609.67 L 200.43 627.91 L 203.17 637.50 L 168.04 644.34 L 166.68 642.51 Z" fill="#ffae64" fill-rule="nonzero" node-id="265" stroke="none" target-height="34.66797" target-width="36.492004" target-x="166.677" target-y="609.669"></path><path d="M 170.23 643.21 L 201.34 635.21 C 204.10 637.69 205.06 641.60 203.77 645.07 L 201.34 651.64 L 188.12 652.55 L 187.20 649.36 L 180.46 651.88 C 177.68 652.93 174.73 653.46 171.76 653.46 L 161.25 653.46 C 159.81 653.46 158.48 652.70 157.75 651.45 C 156.63 649.53 157.27 647.07 159.18 645.93 L 172.61 637.95 L 168.99 640.58 C 168.25 641.12 168.17 642.18 168.81 642.83 C 169.19 643.20 169.72 643.35 170.23 643.21 Z" fill="#2c2770" fill-rule="nonzero" node-id="267" stroke="none" target-height="18.246033" target-width="48.430008" target-x="156.631" target-y="635.214"></path><path d="M 280.29 412.11 C 282.24 382.98 277.03 362.62 274.18 356.09 L 198.39 353.29 C 194.72 362.62 189.88 392.41 191.84 408.10 C 193.79 423.78 194.72 454.12 195.94 470.93 L 181.27 612.38 L 203.03 612.38 L 238.73 406.51 L 232.86 612.38 L 255.84 612.38 C 263.17 557.76 278.33 441.24 280.29 412.11 Z" fill="#2c2770" fill-rule="nonzero" node-id="269" stroke="none" target-height="259.096" target-width="100.96901" target-x="181.274" target-y="353.286"></path><path d="M 267.94 354.65 C 270.68 360.74 276.25 378.56 276.61 401.18 C 276.98 423.81 260.34 552.02 251.98 613.29" fill="none" group-id="4" node-id="273" stroke="#ffffff" stroke-linecap="butt" stroke-width="1" target-height="258.639" target-width="24.998001" target-x="251.977" target-y="354.655"></path><path d="M 199.52 355.11 C 198.00 363.32 195.14 384.85 195.87 405.29 C 196.60 425.72 198.61 460.63 199.52 475.54 L 184.47 613.75" fill="none" group-id="4" node-id="275" stroke="#ffffff" stroke-linecap="butt" stroke-width="1" target-height="258.639" target-width="15.053009" target-x="184.467" target-y="355.111"></path><path d="M 201.15 253.62 L 215.36 250.26 L 245.72 249.58 C 260.05 249.25 274.13 253.33 286.06 261.27 L 315.86 281.08 L 302.36 315.58 L 278.52 298.58 L 275.86 315.58 L 274.53 349.69 C 274.36 353.99 270.83 357.38 266.53 357.38 L 201.39 357.38 C 196.21 357.38 192.40 352.54 193.62 347.50 L 198.73 326.33 L 193.16 312.31 L 185.86 326.33 L 159.46 320.64 L 175.58 276.34 C 179.73 264.94 189.34 256.40 201.15 253.62 Z" fill="#ffe071" fill-rule="nonzero" node-id="278" stroke="none" target-height="108.13199" target-width="156.40001" target-x="159.458" target-y="249.251"></path><path d="M 281.73 240.58 C 290.29 240.58 297.23 247.52 297.23 256.08 C 297.23 264.64 290.29 271.58 281.73 271.58 C 273.17 271.58 266.23 264.64 266.23 256.08 C 266.23 247.52 273.17 240.58 281.73 240.58 Z" fill="none" group-id="5" node-id="282" stroke="#d7be67" stroke-linecap="butt" stroke-width="5" target-height="31" target-width="31" target-x="266.229" target-y="240.577"></path><path d="M 173.73 265.58 C 178.42 265.58 182.23 269.38 182.23 274.08 C 182.23 278.77 178.42 282.58 173.73 282.58 C 169.03 282.58 165.23 278.77 165.23 274.08 C 165.23 269.38 169.03 265.58 173.73 265.58 Z" fill="none" group-id="5" node-id="284" stroke="#d7be67" stroke-linecap="butt" stroke-width="5" target-height="17" target-width="17" target-x="165.229" target-y="265.577"></path><path d="M 217.73 290.58 C 220.77 290.58 223.23 293.04 223.23 296.08 C 223.23 299.12 220.77 301.58 217.73 301.58 C 214.69 301.58 212.23 299.12 212.23 296.08 C 212.23 293.04 214.69 290.58 217.73 290.58 Z" fill="none" group-id="5" node-id="286" stroke="#d7be67" stroke-linecap="butt" stroke-width="3" target-height="11" target-width="11" target-x="212.229" target-y="290.577"></path><path d="M 226.73 342.58 C 234.74 342.58 241.23 349.07 241.23 357.08 C 241.23 365.09 234.74 371.58 226.73 371.58 C 218.72 371.58 212.23 365.09 212.23 357.08 C 212.23 349.07 218.72 342.58 226.73 342.58 Z" fill="none" group-id="5" node-id="288" stroke="#d7be67" stroke-linecap="butt" stroke-width="3" target-height="29" target-width="29" target-x="212.229" target-y="342.577"></path><path d="M 299.73 297.58 C 307.74 297.58 314.23 304.07 314.23 312.08 C 314.23 320.09 307.74 326.58 299.73 326.58 C 291.72 326.58 285.23 320.09 285.23 312.08 C 285.23 304.07 291.72 297.58 299.73 297.58 Z" fill="none" group-id="5" node-id="290" stroke="#d7be67" stroke-linecap="butt" stroke-width="3" target-height="29" target-width="29" target-x="285.229" target-y="297.577"></path><path d="M 259.71 193.40 C 258.59 184.42 249.89 183.11 245.68 183.58 C 243.34 182.17 238.66 176.56 228.83 177.96 C 219.01 179.37 207.78 184.98 210.58 197.61 C 210.58 197.61 208.23 221.94 226.19 221.94 C 226.19 227.58 240.23 256.22 240.23 239.08 C 240.23 221.94 237.82 234.85 249.23 221.94 C 256.23 219.44 261.11 204.63 259.71 193.40 Z" fill="#2c2770" fill-rule="nonzero" node-id="293" stroke="none" target-height="79.657" target-width="53.33702" target-x="207.777" target-y="176.559"></path><path d="M 248.23 185.08 C 257.34 185.08 264.73 177.69 264.73 168.58 C 264.73 159.47 257.34 152.08 248.23 152.08 C 239.12 152.08 231.73 159.47 231.73 168.58 C 231.73 177.69 239.12 185.08 248.23 185.08 Z" fill="#2c2770" fill-rule="nonzero" node-id="295" stroke="none" target-height="33" target-width="33" target-x="231.729" target-y="152.077"></path><path d="M 252.69 203.23 L 252.69 207.44 C 254.56 206.97 258.31 206.88 258.31 210.25 C 258.31 214.46 255.50 217.26 252.69 215.86 C 252.33 220.24 249.97 228.87 242.98 232.47 C 243.23 235.77 243.96 240.50 245.68 243.93 C 247.92 248.42 252.22 250.48 254.10 250.95 C 251.29 254.22 243.43 260.78 234.45 260.78 C 225.46 260.78 218.54 254.22 216.20 250.95 C 217.60 250.48 221.25 248.71 224.62 245.34 C 227.27 242.68 227.78 236.38 227.65 231.76 C 221.81 227.84 220.03 219.97 219.01 215.86 C 217.13 216.33 213.39 216.14 213.39 211.65 C 213.39 207.16 217.60 206.97 219.01 207.44 L 219.01 203.23 C 221.81 203.70 229.11 203.51 235.85 199.02 C 242.59 194.53 244.27 192.47 244.27 192.00 C 244.27 194.34 245.30 198.65 247.08 200.42 C 249.89 203.23 251.76 202.76 252.69 203.23 Z" fill="#ffae64" fill-rule="nonzero" node-id="297" stroke="none" target-height="68.77701" target-width="44.916" target-x="213.391" target-y="191.999"></path><path d="M 240.94 222.44 L 234.55 225.63 C 235.01 226.55 236.47 227.73 238.66 227.00 C 240.85 226.27 241.09 223.96 240.94 222.44 Z" fill="#ffffff" fill-rule="nonzero" node-id="299" stroke="none" target-height="5.291992" target-width="6.5380096" target-x="234.553" target-y="222.442"></path><path d="M 227.25 203.28 L 222.69 203.28 C 221.94 203.28 221.32 203.90 221.32 204.65 C 221.32 205.41 221.94 206.02 222.69 206.02 L 227.25 206.02 C 228.01 206.02 228.62 205.41 228.62 204.65 C 228.62 203.90 228.01 203.28 227.25 203.28 Z" fill="#2c2770" fill-rule="nonzero" node-id="301" stroke="none" target-height="2.7369995" target-width="7.298004" target-x="221.325" target-y="203.284"></path><path d="M 245.50 203.28 L 240.94 203.28 C 240.18 203.28 239.57 203.90 239.57 204.65 C 239.57 205.41 240.18 206.02 240.94 206.02 L 245.50 206.02 C 246.26 206.02 246.87 205.41 246.87 204.65 C 246.87 203.90 246.26 203.28 245.50 203.28 Z" fill="#2c2770" fill-rule="nonzero" node-id="303" stroke="none" target-height="2.7369995" target-width="7.298004" target-x="239.571" target-y="203.284"></path><path d="M 242.76 210.58 C 243.52 210.58 244.13 209.97 244.13 209.21 C 244.13 208.46 243.52 207.84 242.76 207.84 C 242.01 207.84 241.40 208.46 241.40 209.21 C 241.40 209.97 242.01 210.58 242.76 210.58 Z" fill="#000000" fill-rule="nonzero" node-id="305" stroke="none" target-height="2.7369995" target-width="2.7369995" target-x="241.395" target-y="207.845"></path><path d="M 232.27 205.11 L 232.27 221.53 L 236.38 221.53" fill="none" node-id="307" stroke="#000000" stroke-linecap="butt" stroke-width="1" target-height="16.421997" target-width="4.106003" target-x="232.272" target-y="205.108"></path><path d="M 225.43 210.58 C 226.19 210.58 226.80 209.97 226.80 209.21 C 226.80 208.46 226.19 207.84 225.43 207.84 C 224.67 207.84 224.06 208.46 224.06 209.21 C 224.06 209.97 224.67 210.58 225.43 210.58 Z" fill="#000000" fill-rule="nonzero" node-id="309" stroke="none" target-height="2.7369995" target-width="2.7369995" target-x="224.061" target-y="207.845"></path><path d="M 255.08 210.13 C 255.54 211.19 255.63 213.41 252.34 213.78" fill="none" node-id="311" stroke="#000000" stroke-linecap="butt" stroke-width="1" target-height="3.6489868" target-width="3.2839966" target-x="252.343" target-y="210.126"></path><path d="M 216.08 210.13 C 215.63 211.19 215.53 213.41 218.82 213.78" fill="none" node-id="313" stroke="#000000" stroke-linecap="butt" stroke-width="1" target-height="3.6489868" target-width="3.2839966" target-x="215.535" target-y="210.126"></path><path d="M 226.34 231.11 C 227.56 231.87 231.45 233.85 235.47 233.85 C 239.28 233.85 242.84 232.61 243.97 232.10 L 244.13 232.02 C 244.09 232.04 244.03 232.07 243.97 232.10 L 225.89 240.69 L 226.34 231.11 Z" fill="#ff8282" fill-rule="nonzero" group-id="6" node-id="317" stroke="none" target-height="9.57901" target-width="18.246002" target-x="225.886" target-y="231.109"></path><path d="M 236.08 337.28 L 252.77 290.23 C 253.12 289.24 254.18 288.69 255.19 288.97 L 289.15 298.44 C 290.28 298.75 290.90 299.98 290.48 301.07 L 272.69 347.81 C 272.32 348.78 271.27 349.30 270.28 349.03 L 237.43 339.87 C 236.31 339.56 235.69 338.37 236.08 337.28 Z" fill="#2c2770" fill-rule="nonzero" node-id="320" stroke="none" target-height="60.612976" target-width="55.20999" target-x="235.69" target-y="288.691"></path><path d="M 226.24 318.34 L 186.16 326.06 L 161.23 320.58 L 158.43 340.98 C 157.11 350.64 166.50 358.27 175.69 354.99 L 230.43 335.44 L 237.51 335.80 C 237.72 335.81 237.93 335.81 238.14 335.79 L 247.14 334.83 C 247.21 334.82 247.29 334.82 247.37 334.83 L 260.49 335.60 C 261.58 335.67 262.54 334.90 262.71 333.82 C 262.90 332.67 262.11 331.58 260.96 331.39 L 250.69 329.72 L 263.07 329.20 C 263.99 329.16 264.72 328.42 264.74 327.49 C 264.77 326.58 264.08 325.80 263.17 325.71 L 251.53 324.54 L 264.46 322.33 C 265.48 322.15 266.21 321.23 266.14 320.19 C 266.07 319.12 265.19 318.29 264.12 318.29 L 250.20 318.27 L 263.98 315.63 C 265.32 315.37 266.11 313.98 265.65 312.69 C 265.32 311.76 264.41 311.16 263.42 311.22 L 245.33 312.36 L 247.86 305.58 L 236.60 309.02 C 235.30 309.42 234.12 310.15 233.18 311.13 L 226.24 318.34 Z" fill="#ffae64" fill-rule="nonzero" node-id="322" stroke="none" target-height="52.69101" target-width="109.10402" target-x="157.109" target-y="305.577"></path><path d="M 366.86 234.58 L 315.36 282.08 L 303.36 312.58 L 304.81 313.02 C 314.76 316.06 325.56 312.62 331.92 304.37 L 378.36 244.08 L 398.86 240.08 L 413.72 241.01 C 414.26 241.04 414.67 240.51 414.50 240.00 C 414.10 238.80 413.13 237.87 411.91 237.52 L 382.36 229.08 L 383.70 225.94 C 384.79 223.39 385.36 220.65 385.36 217.87 C 385.36 217.03 384.34 216.62 383.76 217.22 L 366.86 234.58 Z" fill="#ffae64" fill-rule="nonzero" node-id="324" stroke="none" target-height="99.44101" target-width="111.31201" target-x="303.358" target-y="216.621"></path><path d="M 200.37 368.01 C 207.77 359.26 226.46 362.48 233.23 365.88 C 215.34 398.44 199.55 375.45 194.07 408.94 C 191.72 423.27 174.23 409.64 175.57 434.79 C 176.74 456.62 161.78 458.51 160.04 470.27 C 158.29 482.03 153.57 492.02 143.41 495.44 C 128.55 500.45 117.14 482.36 128.36 473.86 C 139.58 465.36 117.73 452.76 134.93 442.70 C 152.12 432.65 133.69 409.36 155.36 403.34 C 177.03 397.31 169.06 384.48 176.06 377.73 C 183.06 370.97 191.12 378.94 200.37 368.01 Z" fill="#6b8cff" fill-rule="nonzero" node-id="326" stroke="none" target-height="141.182" target-width="116.089005" target-x="117.142" target-y="359.264"></path><path d="M 123.20 300.00 C 126.96 287.58 144.44 289.00 151.94 294.50 C 141.44 304.00 125.66 303.63 134.89 341.06 C 138.84 357.08 116.90 350.41 129.49 376.10 C 140.41 398.39 123.01 406.93 126.44 420.00 C 129.87 433.06 132.19 445.42 123.20 453.50 C 110.05 465.31 94.54 450.36 102.36 436.50 C 110.19 422.64 84.70 420.13 98.02 402.00 C 111.34 383.87 82.62 371.39 102.36 355.50 C 122.11 339.60 101.20 331.66 105.44 321.50 C 109.68 311.34 118.49 315.53 123.20 300.00 Z" fill="#1be3b3" fill-rule="nonzero" node-id="328" stroke="none" target-height="177.732" target-width="69.320496" target-x="82.6205" target-y="287.577"></path><path d="M 28.12 368.84 C 21.36 361.80 5.60 365.52 0.00 368.77 C 16.96 395.52 29.21 375.13 35.64 403.32 C 38.39 415.38 52.59 402.86 52.76 424.33 C 52.91 442.95 65.76 443.77 67.87 453.68 C 69.97 463.59 74.52 471.84 83.36 474.21 C 96.29 477.68 105.07 461.69 95.06 455.06 C 85.05 448.42 103.02 436.55 87.83 428.90 C 72.64 421.26 87.14 400.48 68.35 396.50 C 49.56 392.53 55.68 381.19 49.36 375.82 C 43.04 370.44 36.58 377.65 28.12 368.84 Z" fill="#54b7ff" fill-rule="nonzero" node-id="330" stroke="none" target-height="115.882996" target-width="105.07" target-x="0" target-y="361.796"></path><path d="M 115.24 510.79 C 113.49 471.40 106.25 362.94 128.44 309.61 C 130.38 304.96 134.44 295.00 144.94 295.00" fill="none" node-id="332" stroke="#4f4f4f" stroke-linecap="butt" stroke-width="1" target-height="215.793" target-width="38.693993" target-x="106.247" target-y="294.999"></path><path d="M 94.68 521.29 C 93.67 483.65 77.61 401.49 21.45 373.93" fill="none" node-id="334" stroke="#4f4f4f" stroke-linecap="butt" stroke-width="1" target-height="147.36002" target-width="73.2221" target-x="21.4542" target-y="373.928"></path><path d="M 132.61 521.61 C 136.16 480.76 158.96 392.49 221.80 366.18" fill="none" node-id="336" stroke="#4f4f4f" stroke-linecap="butt" stroke-width="1" target-height="155.42297" target-width="89.188995" target-x="132.612" target-y="366.182"></path><path d="M 82.44 503.50 L 142.44 503.50 L 157.91 619.53 C 160.31 637.52 146.32 653.50 128.18 653.50 L 96.71 653.50 C 78.56 653.50 64.57 637.52 66.97 619.53 L 82.44 503.50 Z" fill="#a3baff" fill-rule="nonzero" node-id="338" stroke="none" target-height="150" target-width="95.738495" target-x="64.5715" target-y="503.498"></path><path d="M 150.44 503.50 L 73.44 503.50 L 73.44 514.50 L 150.44 514.50 L 150.44 503.50 Z" fill="#ccd9ff" fill-rule="nonzero" node-id="340" stroke="none" target-height="11" target-width="77.00019" target-x="73.4408" target-y="503.498"></path></svg>