<?xml version="1.0" standalone="no"?><!DOCTYPE svg PUBLIC "-//W3C//DTD SVG 1.1//EN" "http://www.w3.org/Graphics/SVG/1.1/DTD/svg11.dtd"><svg height="559" node-id="1" sillyvg="true" template-height="559" template-width="1026" version="1.1" viewBox="0 0 1026 559" width="1026" xmlns="http://www.w3.org/2000/svg" xmlns:xlink="http://www.w3.org/1999/xlink"><defs node-id="112"><mask height="58" id="mask0" maskUnits="userSpaceOnUse" node-id="22" width="44" x="879" y="325"><path d="M 912.15 347.88 C 907.43 345.22 898.66 331.69 894.27 325.55 C 888.12 332.63 868.69 342.54 886.37 356.89 C 894.79 364.96 893.29 369.87 891.50 371.31 C 892.95 377.13 898.89 387.14 911.06 380.59 C 923.22 374.04 923.39 358.19 922.56 350.80 C 921.06 350.93 916.87 350.54 912.15 347.88 Z" fill="#ffffff" fill-rule="nonzero" node-id="115" stroke="none" target-height="61.58899" target-width="54.703003" target-x="868.69" target-y="325.549"></path></mask><mask height="105" id="mask1" maskUnits="userSpaceOnUse" node-id="93" width="149" x="109" y="205"><path d="M 144.16 216.81 L 162.92 210.12 C 168.50 210.12 183.00 209.84 196.39 208.72 C 209.77 207.59 234.03 208.72 253.55 205.90 L 257.73 231.25 C 249.37 235.47 236.82 239.70 220.09 242.52 C 225.67 259.42 221.95 262.23 217.30 267.87 L 213.12 286.17 L 223.25 309.90 L 140.62 309.90 L 149.17 283.90 L 144.15 255.16 L 126.67 266.46 L 109.94 245.33 L 135.35 222.11 C 137.90 219.78 140.90 217.98 144.16 216.81 Z" fill="#ffffff" fill-rule="nonzero" node-id="119" stroke="none" target-height="104.003006" target-width="147.794" target-x="109.94" target-y="205.899"></path></mask><mask height="70" id="mask2" maskUnits="userSpaceOnUse" node-id="107" width="46" x="159" y="150"><path d="M 198.78 162.05 L 198.78 166.26 C 200.66 165.79 204.40 165.70 204.40 169.07 C 204.40 173.28 201.59 176.09 198.78 174.69 C 198.42 179.06 196.07 187.70 189.07 191.30 C 189.32 194.59 190.05 199.33 191.77 202.76 C 194.01 207.25 198.32 209.31 200.19 209.78 C 197.38 213.05 189.52 219.60 180.54 219.60 C 171.55 219.60 164.63 213.05 162.29 209.78 C 163.69 209.31 167.34 207.53 170.71 204.16 C 173.36 201.51 173.87 195.20 173.74 190.59 C 167.90 186.66 166.12 178.79 165.10 174.69 C 163.23 175.15 159.48 174.97 159.48 170.47 C 159.48 165.98 163.69 165.79 165.10 166.26 L 165.10 162.05 C 167.91 162.52 175.20 162.33 181.94 157.84 C 188.68 153.35 190.36 151.29 190.36 150.82 C 190.36 153.16 191.39 157.47 193.17 159.25 C 195.98 162.05 197.85 161.59 198.78 162.05 Z" fill="#ffffff" fill-rule="nonzero" node-id="123" stroke="none" target-height="68.778" target-width="44.916" target-x="159.483" target-y="150.823"></path></mask></defs><path d="M 909.57 538.82 L 254.57 538.82 L 209.82 538.82 L 209.82 235.39 C 209.82 213.89 227.26 196.47 248.78 196.47 C 270.30 196.47 287.75 179.05 287.75 157.55 L 287.75 124.69 C 287.75 85.04 319.92 52.90 359.62 52.90 L 684.22 52.90 C 718.53 52.90 746.35 80.68 746.35 114.96 C 746.35 149.23 774.17 177.01 808.48 177.01 L 827.96 177.01 C 873.03 177.01 909.57 213.51 909.57 258.52 L 909.57 538.82 Z" fill="#f3f6ff" fill-rule="nonzero" node-id="127" stroke="none" target-height="485.92188" target-width="699.75397" target-x="209.82" target-y="52.9021"></path><path d="M 698.99 227.50 C 711.23 230.12 723.27 222.33 725.89 210.09 C 728.51 197.86 720.72 185.81 708.48 183.19 C 696.24 180.57 684.20 188.37 681.58 200.60 C 678.96 212.84 686.75 224.88 698.99 227.50 Z" fill="#ffae64" fill-rule="nonzero" node-id="129" stroke="none" target-height="49.550003" target-width="49.549988" target-x="678.96" target-y="180.573"></path><path d="M 704.90 228.77 C 717.13 231.39 729.18 223.59 731.80 211.36 C 734.42 199.12 726.62 187.08 714.39 184.46 C 702.15 181.84 690.11 189.63 687.49 201.87 C 684.87 214.10 692.66 226.15 704.90 228.77 Z" fill="#ffe071" fill-rule="nonzero" node-id="131" stroke="none" target-height="49.550003" target-width="49.55005" target-x="684.868" target-y="181.838"></path><path d="M 712.49 193.32 L 713.97 193.64 L 713.33 196.61 C 718.14 197.85 718.71 200.36 718.29 202.29 L 716.82 201.97 C 717.24 200.01 715.71 198.64 712.28 197.91 C 711.07 197.65 707.06 197.04 706.40 200.12 C 706.12 201.41 705.81 202.87 710.87 205.35 L 713.09 206.58 C 716.53 208.76 716.53 210.52 716.16 212.26 C 715.56 215.04 712.94 216.35 709.23 215.77 L 708.59 218.75 L 707.11 218.43 L 707.75 215.46 C 702.93 214.21 702.37 211.71 702.79 209.78 L 704.26 210.10 C 703.84 212.06 705.37 213.42 708.80 214.16 C 710.01 214.42 714.02 215.02 714.68 211.94 C 714.96 210.65 715.27 209.19 710.21 206.71 L 707.99 205.49 C 704.54 203.31 704.55 201.55 704.92 199.81 C 705.52 197.03 708.14 195.72 711.85 196.29 L 712.49 193.32 Z" fill="#b39e53" fill-rule="nonzero" node-id="133" stroke="none" target-height="25.425003" target-width="16.332031" target-x="702.373" target-y="193.321"></path><path d="M 626.84 167.38 C 647.96 171.90 668.75 158.47 673.26 137.38 C 677.78 116.29 664.32 95.53 643.19 91.01 C 622.06 86.48 601.28 99.91 596.76 121.00 C 592.25 142.09 605.71 162.86 626.84 167.38 Z" fill="#ffae64" fill-rule="nonzero" node-id="135" stroke="none" target-height="85.4204" target-width="85.535034" target-x="592.245" target-y="86.4826"></path><path d="M 635.94 169.33 C 657.07 173.85 677.86 160.42 682.37 139.33 C 686.89 118.24 673.42 97.48 652.30 92.95 C 631.17 88.43 610.38 101.86 605.87 122.95 C 601.35 144.04 614.82 164.80 635.94 169.33 Z" fill="#ffe071" fill-rule="nonzero" node-id="137" stroke="none" target-height="85.42061" target-width="85.535034" target-x="601.352" target-y="88.4294"></path><path d="M 632.23 129.38 L 632.76 126.97 L 639.66 128.43 C 639.72 127.24 639.72 126.16 639.73 125.15 C 639.73 122.92 639.74 120.82 640.37 118.41 C 641.49 114.09 643.61 111.38 646.65 110.35 C 651.30 108.78 656.65 111.75 658.82 113.16 L 657.88 115.52 C 656.43 114.53 651.38 111.36 647.45 112.69 C 645.26 113.44 643.69 115.57 642.79 119.03 C 642.24 121.14 642.23 123.00 642.23 125.15 C 642.23 126.32 642.22 127.56 642.13 128.95 L 652.32 131.11 L 651.79 133.52 L 641.89 131.43 C 641.77 132.37 641.60 133.38 641.36 134.48 C 639.69 142.16 635.28 145.16 631.86 147.00 L 653.02 151.48 L 652.50 153.90 L 626.82 148.47 L 627.34 146.05 L 629.54 145.42 C 632.82 143.73 637.30 141.41 638.91 133.96 C 639.15 132.86 639.32 131.85 639.44 130.91 L 632.23 129.38 L 632.23 129.38 Z" fill="#b39e53" fill-rule="nonzero" node-id="139" stroke="none" target-height="45.124992" target-width="32" target-x="626.82" target-y="108.777"></path><path d="M 797.02 528.00 L 809.60 517.22 C 816.29 511.49 815.01 493.98 815.01 493.98 L 832.99 493.00 L 832.99 512.45 L 835.90 522.65 L 798.48 529.94 L 797.02 528.00 Z" fill="#ffae64" fill-rule="nonzero" node-id="141" stroke="none" target-height="36.934998" target-width="38.878967" target-x="797.025" target-y="493.005"></path><path d="M 803.30 539.66 L 791.29 539.66 C 789.72 539.66 788.28 538.83 787.49 537.48 C 786.30 535.44 786.93 532.82 788.89 531.51 C 791.27 529.93 794.74 527.58 798.97 524.59 C 807.23 518.76 810.63 514.88 810.63 514.88 C 810.63 514.88 815.49 517.79 822.78 517.79 C 830.07 517.79 833.96 512.45 833.96 512.45 C 837.09 520.26 837.20 528.97 834.27 536.87 L 833.96 537.72 L 819.87 538.69 L 817.44 536.74 L 811.01 538.58 C 808.50 539.30 805.91 539.66 803.30 539.66 Z" fill="#2c2770" fill-rule="nonzero" node-id="143" stroke="none" target-height="27.214966" target-width="50.89801" target-x="786.302" target-y="512.445"></path><path d="M 1010.77 549.20 L 995.41 538.70 C 987.24 533.12 968.63 539.61 968.63 539.61 L 962.33 520.39 L 983.41 514.73 L 993.63 508.59 L 1012.45 547.05 L 1010.77 549.20 Z" fill="#ffae64" fill-rule="nonzero" node-id="145" stroke="none" target-height="40.611023" target-width="50.12201" target-x="962.328" target-y="508.586"></path><path d="M 1021.59 538.99 L 1025.09 552.02 C 1025.55 553.71 1025.07 555.52 1023.83 556.77 C 1021.97 558.66 1018.95 558.74 1016.95 556.99 C 1014.55 554.88 1010.99 551.80 1006.51 548.08 C 997.78 540.82 992.57 538.26 992.57 538.26 C 992.57 538.26 994.31 532.14 992.19 524.24 C 990.06 516.33 983.13 513.67 983.13 513.67 C 990.70 508.00 1000.10 505.34 1009.52 506.21 L 1010.54 506.30 L 1015.70 521.30 L 1014.30 524.51 L 1018.17 530.94 C 1019.68 533.45 1020.83 536.16 1021.59 538.99 Z" fill="#2c2770" fill-rule="nonzero" node-id="147" stroke="none" target-height="53.401978" target-width="42.42102" target-x="983.129" target-y="505.338"></path><path d="M 976.10 513.90 C 1017.21 496.01 1014.54 474.51 1008.13 444.90 L 887.11 394.69 C 879.71 391.62 871.51 391.06 863.76 393.10 C 852.37 396.08 843.11 404.36 838.86 415.35 L 804.82 503.46 L 834.82 510.46 L 878.84 444.90 L 917.65 474.51 L 855.35 492.57 C 844.51 495.71 837.29 505.94 837.95 517.20 C 838.70 529.98 849.28 539.96 862.08 539.96 L 981.80 539.96 L 976.10 513.90 Z" fill="#2c2770" fill-rule="nonzero" node-id="149" stroke="none" target-height="148.89899" target-width="212.39001" target-x="804.82" target-y="391.062"></path><path d="M 963.82 471.46 C 966.82 483.13 966.22 506.46 939.82 506.46 C 920.01 506.46 899.14 506.46 885.38 506.46 C 879.10 506.46 873.84 511.22 873.20 517.47 C 872.46 524.69 878.13 530.96 885.38 530.96 L 977.32 530.96" fill="none" node-id="151" stroke="#ffffff" stroke-linecap="butt" stroke-width="1" target-height="59.5" target-width="104.859985" target-x="872.46" target-y="471.461"></path><path d="M 852.82 461.46 L 825.82 503.96" fill="none" node-id="153" stroke="#ffffff" stroke-linecap="butt" stroke-width="1" target-height="42.5" target-width="27" target-x="825.82" target-y="461.461"></path><path d="M 776.72 415.31 L 806.22 377.25 L 808.15 378.75 L 778.65 416.81 L 775.38 419.37 L 776.72 415.31 Z" fill="#2c2770" fill-rule="nonzero" node-id="155" stroke="none" target-height="42.121002" target-width="32.763977" target-x="775.385" target-y="377.251"></path><path d="M 886.89 511.71 L 914.11 486.08 C 916.31 484.01 916.18 480.47 913.83 478.56 L 861.65 436.21 C 859.75 434.67 857.02 434.73 855.18 436.35 L 828.03 460.43 C 825.75 462.45 825.79 466.03 828.12 468.00 L 880.25 511.90 C 882.19 513.53 885.05 513.46 886.89 511.71 Z" fill="#6b8cff" fill-rule="nonzero" node-id="157" stroke="none" target-height="78.86398" target-width="90.56903" target-x="825.745" target-y="434.671"></path><path d="M 872.87 499.02 L 900.14 473.24 C 900.59 472.82 900.55 472.11 900.08 471.73 L 859.05 439.36 C 858.67 439.06 858.13 439.07 857.77 439.39 L 830.48 463.67 C 830.02 464.08 830.03 464.80 830.50 465.19 L 871.54 499.06 C 871.93 499.38 872.50 499.36 872.87 499.02 Z" fill="#ffffff" fill-rule="nonzero" node-id="159" stroke="none" target-height="60.32498" target-width="70.56702" target-x="830.018" target-y="439.057"></path><path d="M 885.95 454.80 L 906.15 450.16 L 917.04 460.93 L 915.27 466.45 L 907.23 473.49 L 890.75 460.18 L 882.62 460.06 C 882.34 460.05 882.08 459.99 881.83 459.88 C 880.21 459.15 880.31 456.82 881.98 456.22 L 885.95 454.80 Z" fill="#ff9330" fill-rule="nonzero" node-id="161" stroke="none" target-height="23.324982" target-width="36.828003" target-x="880.211" target-y="450.16"></path><path d="M 993.01 375.38 L 938.33 345.41 L 916.63 372.30 L 951.86 392.08 L 903.32 449.30 L 919.31 464.29 L 995.31 394.21 C 999.75 390.12 1000.34 383.31 996.66 378.52 C 995.68 377.23 994.43 376.16 993.01 375.38 Z" fill="#1eb591" fill-rule="nonzero" node-id="163" stroke="none" target-height="118.880005" target-width="97.025024" target-x="903.315" target-y="345.408"></path><path d="M 912.15 347.88 C 907.43 345.22 898.66 331.69 894.27 325.55 C 888.12 332.63 868.69 342.54 886.37 356.89 C 894.79 364.96 893.29 369.87 891.50 371.31 C 892.95 377.13 898.89 387.14 911.06 380.59 C 923.22 374.04 923.39 358.19 922.56 350.80 C 921.06 350.93 916.87 350.54 912.15 347.88 Z" fill="#ff9330" fill-rule="nonzero" node-id="165" stroke="none" target-height="61.58899" target-width="54.703003" target-x="868.69" target-y="325.549"></path><g node-id="335"><path d="M 891.09 364.20 C 906.40 350.61 901.82 332.83 897.61 325.64 L 884.04 354.28 C 880.01 363.25 875.78 377.80 891.09 364.20 Z" fill="#d76767" fill-rule="nonzero" group-id="1" node-id="169" stroke="none" target-height="52.156982" target-width="30.616028" target-x="875.784" target-y="325.64"></path></g><path d="M 900.74 343.66 C 899.47 350.44 888.27 360.55 873.52 356.21 C 869.00 354.88 867.72 354.00 866.08 349.35 C 864.28 344.27 865.72 337.52 864.95 335.62 C 864.38 334.21 862.21 335.24 861.42 333.18 C 860.46 330.68 865.44 323.96 865.45 321.90 C 865.49 316.59 866.09 312.37 867.63 308.90 L 881.81 307.93 C 879.41 309.91 880.13 309.52 886.10 311.01 C 892.00 312.49 895.15 309.69 897.79 308.42 C 897.16 316.01 908.27 310.68 907.36 314.32 C 906.63 317.24 899.77 335.82 899.21 338.04 C 901.29 338.56 901.90 331.54 903.94 330.90 C 906.23 330.18 910.42 330.33 908.84 336.65 C 907.25 342.96 902.78 343.95 900.74 343.66 Z" fill="#ff9330" fill-rule="nonzero" node-id="172" stroke="none" target-height="52.623993" target-width="49.95398" target-x="860.463" target-y="307.928"></path><path d="M 874.81 341.27 C 871.56 342.96 868.91 343.07 866.83 342.24 L 866.91 338.45 L 874.81 341.27 Z" fill="#ffffff" fill-rule="nonzero" node-id="174" stroke="none" target-height="4.61499" target-width="7.9779663" target-x="866.833" target-y="338.453"></path><path d="M 874.63 319.79 L 870.55 317.10 C 869.88 316.66 868.97 316.84 868.52 317.52 C 868.08 318.20 868.26 319.11 868.94 319.55 L 873.02 322.24 C 873.70 322.69 874.60 322.50 875.05 321.82 C 875.50 321.15 875.31 320.24 874.63 319.79 Z" fill="#2c2770" fill-rule="nonzero" node-id="176" stroke="none" target-height="6.0309753" target-width="7.419983" target-x="868.076" target-y="316.657"></path><path d="M 868.39 327.13 C 869.15 327.43 870.00 327.07 870.30 326.32 C 870.60 325.56 870.24 324.71 869.48 324.41 C 868.73 324.11 867.88 324.48 867.58 325.23 C 867.28 325.98 867.64 326.83 868.39 327.13 Z" fill="#000000" fill-rule="nonzero" node-id="178" stroke="none" target-height="3.3249817" target-width="3.3250122" target-x="867.277" target-y="324.109"></path><path d="M 891.22 332.71 C 891.22 332.71 895.35 323.68 899.12 328.08 C 903.53 333.23 896.42 337.04 896.42 337.04 C 898.26 343.30 902.04 344.84 903.71 343.71 C 925.16 329.25 918.96 303.08 904.43 296.14 C 878.57 283.79 860.43 305.46 867.91 308.67 C 883.37 315.30 885.09 310.94 886.78 313.02 C 888.47 315.10 889.01 323.88 888.75 329.33 C 888.65 331.37 888.93 332.46 889.37 332.94 C 889.87 333.49 890.60 333.25 891.22 332.71 Z" fill="#2c2770" fill-rule="nonzero" node-id="180" stroke="none" target-height="61.050995" target-width="64.734985" target-x="860.426" target-y="283.789"></path><path d="M 949.86 354.06 C 974.63 394.93 1006.74 442.11 1008.64 444.65 C 989.43 450.22 996.02 467.57 970.11 478.73 C 949.38 487.66 937.99 484.06 934.88 481.14 L 907.33 416.43 L 901.96 428.66 C 897.79 438.17 887.04 442.90 877.22 439.56 L 811.93 417.40 L 817.84 395.87 L 874.62 408.16 L 882.47 375.92 C 884.41 367.94 889.65 361.16 896.87 357.26 L 916.87 346.47 C 919.98 344.79 923.48 343.96 927.01 344.08 L 933.24 344.28 C 940.08 344.50 946.31 348.20 949.86 354.06 Z" fill="#1be3b3" fill-rule="nonzero" node-id="182" stroke="none" target-height="143.699" target-width="196.70801" target-x="811.932" target-y="343.964"></path><path d="M 853.79 445.23 L 851.00 442.99 C 850.24 442.39 849.17 442.41 848.44 443.04 L 833.77 455.71 C 832.79 456.56 832.86 458.10 833.92 458.85 L 836.99 461.05 C 837.75 461.60 838.77 461.54 839.47 460.93 L 853.86 448.30 C 854.80 447.48 854.76 446.01 853.79 445.23 Z" fill="#2c2770" fill-rule="nonzero" node-id="184" stroke="none" target-height="19.203003" target-width="22.002014" target-x="832.794" target-y="442.392"></path><path d="M 864.28 450.54 L 844.59 468.79" fill="none" node-id="186" stroke="#000000" stroke-linecap="round" stroke-width="1" target-height="18.247986" target-width="19.692017" target-x="844.588" target-y="450.539"></path><path d="M 870.51 456.52 L 852.03 473.36" fill="none" node-id="188" stroke="#000000" stroke-linecap="round" stroke-width="1" target-height="16.835022" target-width="18.481995" target-x="852.026" target-y="456.52"></path><path d="M 878.86 462.01 L 865.92 474.38" fill="none" node-id="190" stroke="#000000" stroke-linecap="round" stroke-width="1" target-height="12.373016" target-width="12.939026" target-x="865.917" target-y="462.011"></path><path d="M 794.75 385.53 L 818.14 396.27 L 812.02 417.51 L 805.35 414.34 C 802.43 413.18 795.42 411.46 790.75 413.89 C 786.09 416.32 784.88 414.06 784.87 412.63 C 784.54 411.63 782.83 410.03 783.41 408.12 C 784.14 405.72 783.02 404.49 782.76 403.01 C 782.39 400.81 784.40 399.32 782.92 397.31 C 781.74 395.70 782.87 393.01 783.49 391.32 L 794.75 385.53 Z" fill="#ff9330" fill-rule="nonzero" node-id="192" stroke="none" target-height="31.97998" target-width="36.395996" target-x="781.74" target-y="385.532"></path><path d="M 385.01 510.54 C 388.34 512.11 389.76 516.05 388.17 519.34 L 380.55 535.14 C 378.96 538.43 374.97 539.83 371.63 538.26 C 368.30 536.69 366.88 532.75 368.47 529.47 L 376.10 513.67 C 377.68 510.37 381.67 508.98 385.01 510.54 Z" fill="#2c2770" fill-rule="evenodd" node-id="194" stroke="none" target-height="30.84903" target-width="22.873993" target-x="366.883" target-y="508.978"></path><path d="M 603.63 510.54 C 600.30 512.11 598.88 516.05 600.47 519.34 L 608.10 535.14 C 609.68 538.43 613.67 539.83 617.01 538.26 C 620.34 536.69 621.76 532.75 620.17 529.47 L 612.55 513.67 C 610.96 510.37 606.97 508.98 603.63 510.54 Z" fill="#2c2770" fill-rule="evenodd" node-id="196" stroke="none" target-height="30.84903" target-width="22.874023" target-x="598.883" target-y="508.978"></path><path d="M 487.01 510.54 C 490.34 512.11 491.76 516.05 490.17 519.34 L 482.55 535.14 C 480.96 538.43 476.97 539.83 473.63 538.26 C 470.30 536.69 468.88 532.75 470.47 529.47 L 478.09 513.67 C 479.68 510.37 483.67 508.98 487.01 510.54 Z" fill="#2c2770" fill-rule="evenodd" node-id="198" stroke="none" target-height="30.84903" target-width="22.873993" target-x="468.883" target-y="508.978"></path><path d="M 719.63 510.54 C 716.30 512.11 714.88 516.05 716.47 519.34 L 724.10 535.14 C 725.68 538.43 729.67 539.83 733.01 538.26 C 736.34 536.69 737.76 532.75 736.17 529.47 L 728.54 513.67 C 726.96 510.37 722.97 508.98 719.63 510.54 Z" fill="#2c2770" fill-rule="evenodd" node-id="200" stroke="none" target-height="30.84903" target-width="22.873047" target-x="714.884" target-y="508.978"></path><path d="M 608.82 514.90 L 730.89 514.90 C 742.45 514.90 751.82 505.28 751.82 493.41 L 751.82 293.39 C 751.82 281.52 742.45 271.90 730.89 271.90 L 608.82 271.90 L 608.82 514.90 Z" fill="#2c2770" fill-rule="nonzero" node-id="202" stroke="none" target-height="242.99997" target-width="143" target-x="608.82" target-y="271.902"></path><path d="M 339.82 494.88 C 339.82 505.94 348.56 514.90 359.33 514.90 L 614.31 514.90 C 625.08 514.90 633.82 505.94 633.82 494.88 L 633.82 291.93 C 633.82 280.87 625.08 271.90 614.31 271.90 L 359.33 271.90 C 348.56 271.90 339.82 280.87 339.82 291.93 L 339.82 494.88 Z" fill="#a3b7ff" fill-rule="nonzero" node-id="204" stroke="none" target-height="242.99997" target-width="294" target-x="339.82" target-y="271.902"></path><path d="M 634.82 294.90 C 619.78 344.83 567.14 438.96 473.33 449.83 C 376.56 461.05 358.91 497.22 362.18 513.90 L 620.25 513.90 C 628.64 511.63 634.82 503.83 634.82 494.55 L 634.82 294.90 Z" fill="#6b8cff" fill-rule="nonzero" node-id="206" stroke="none" target-height="218.99997" target-width="275.91" target-x="358.91" target-y="294.902"></path><path d="M 378.24 496.90 L 591.40 496.90 C 599.92 496.90 606.82 489.84 606.82 481.12 L 606.82 313.68 C 606.82 304.97 599.92 297.90 591.40 297.90 L 378.24 297.90 C 369.72 297.90 362.82 304.97 362.82 313.68 L 362.82 481.12 C 362.82 489.84 369.72 496.90 378.24 496.90 Z" fill="none" node-id="208" stroke="#ffffff" stroke-linecap="butt" stroke-width="2" target-height="199" target-width="244" target-x="362.82" target-y="297.902"></path><path d="M 496.82 444.89 C 496.82 447.11 498.56 448.90 500.70 448.90 L 579.93 448.90 C 582.08 448.90 583.82 447.11 583.82 444.89 L 583.82 349.92 C 583.82 347.70 582.08 345.90 579.93 345.90 L 500.70 345.90 C 498.56 345.90 496.82 347.70 496.82 349.92 L 496.82 444.89 Z" fill="#4e5f9a" fill-rule="nonzero" node-id="210" stroke="none" target-height="103" target-width="87" target-x="496.82" target-y="345.902"></path><path d="M 493.82 444.89 C 493.82 447.11 495.56 448.90 497.70 448.90 L 576.93 448.90 C 579.08 448.90 580.82 447.11 580.82 444.89 L 580.82 349.92 C 580.82 347.70 579.08 345.90 576.93 345.90 L 497.70 345.90 C 495.56 345.90 493.82 347.70 493.82 349.92 L 493.82 444.89 Z" fill="#282f48" fill-rule="nonzero" node-id="212" stroke="none" target-height="103" target-width="87" target-x="493.82" target-y="345.902"></path><path d="M 493.82 368.90 C 493.82 371.11 495.56 372.90 497.70 372.90 L 576.93 372.90 C 579.08 372.90 580.82 371.11 580.82 368.90 L 580.82 348.90 C 580.82 346.69 579.08 344.90 576.93 344.90 L 497.70 344.90 C 495.56 344.90 493.82 346.69 493.82 348.90 L 493.82 368.90 Z" fill="#3d4667" fill-rule="nonzero" node-id="214" stroke="none" target-height="28" target-width="87" target-x="493.82" target-y="344.902"></path><path d="M 504.82 391.90 C 504.82 395.22 507.33 397.90 510.42 397.90 L 513.22 397.90 C 516.31 397.90 518.82 395.22 518.82 391.90 L 518.82 388.90 C 518.82 385.59 516.31 382.90 513.22 382.90 L 510.42 382.90 C 507.33 382.90 504.82 385.59 504.82 388.90 L 504.82 391.90 Z" fill="#1be3b3" fill-rule="nonzero" node-id="216" stroke="none" target-height="15" target-width="14" target-x="504.82" target-y="382.902"></path><path d="M 530.82 391.90 C 530.82 395.22 533.33 397.90 536.42 397.90 L 539.22 397.90 C 542.31 397.90 544.82 395.22 544.82 391.90 L 544.82 388.90 C 544.82 385.59 542.31 382.90 539.22 382.90 L 536.42 382.90 C 533.33 382.90 530.82 385.59 530.82 388.90 L 530.82 391.90 Z" fill="#1be3b3" fill-rule="nonzero" node-id="218" stroke="none" target-height="15" target-width="14" target-x="530.82" target-y="382.902"></path><path d="M 555.82 391.90 C 555.82 395.22 558.33 397.90 561.42 397.90 L 564.22 397.90 C 567.31 397.90 569.82 395.22 569.82 391.90 L 569.82 388.90 C 569.82 385.59 567.31 382.90 564.22 382.90 L 561.42 382.90 C 558.33 382.90 555.82 385.59 555.82 388.90 L 555.82 391.90 Z" fill="#1be3b3" fill-rule="nonzero" node-id="220" stroke="none" target-height="15" target-width="14" target-x="555.82" target-y="382.902"></path><path d="M 504.82 411.90 C 504.82 415.22 507.33 417.90 510.42 417.90 L 513.22 417.90 C 516.31 417.90 518.82 415.22 518.82 411.90 L 518.82 408.90 C 518.82 405.59 516.31 402.90 513.22 402.90 L 510.42 402.90 C 507.33 402.90 504.82 405.59 504.82 408.90 L 504.82 411.90 Z" fill="#1be3b3" fill-rule="nonzero" node-id="222" stroke="none" target-height="15" target-width="14" target-x="504.82" target-y="402.902"></path><path d="M 530.82 411.90 C 530.82 415.22 533.33 417.90 536.42 417.90 L 539.22 417.90 C 542.31 417.90 544.82 415.22 544.82 411.90 L 544.82 408.90 C 544.82 405.59 542.31 402.90 539.22 402.90 L 536.42 402.90 C 533.33 402.90 530.82 405.59 530.82 408.90 L 530.82 411.90 Z" fill="#1be3b3" fill-rule="nonzero" node-id="224" stroke="none" target-height="15" target-width="14" target-x="530.82" target-y="402.902"></path><path d="M 555.82 411.90 C 555.82 415.22 558.33 417.90 561.42 417.90 L 564.22 417.90 C 567.31 417.90 569.82 415.22 569.82 411.90 L 569.82 408.90 C 569.82 405.59 567.31 402.90 564.22 402.90 L 561.42 402.90 C 558.33 402.90 555.82 405.59 555.82 408.90 L 555.82 411.90 Z" fill="#1be3b3" fill-rule="nonzero" node-id="226" stroke="none" target-height="15" target-width="14" target-x="555.82" target-y="402.902"></path><path d="M 504.82 433.90 C 504.82 437.22 507.33 439.90 510.42 439.90 L 513.22 439.90 C 516.31 439.90 518.82 437.22 518.82 433.90 L 518.82 430.90 C 518.82 427.59 516.31 424.90 513.22 424.90 L 510.42 424.90 C 507.33 424.90 504.82 427.59 504.82 430.90 L 504.82 433.90 Z" fill="#1be3b3" fill-rule="nonzero" node-id="228" stroke="none" target-height="15" target-width="14" target-x="504.82" target-y="424.902"></path><path d="M 530.82 433.90 C 530.82 437.22 533.33 439.90 536.42 439.90 L 539.22 439.90 C 542.31 439.90 544.82 437.22 544.82 433.90 L 544.82 430.90 C 544.82 427.59 542.31 424.90 539.22 424.90 L 536.42 424.90 C 533.33 424.90 530.82 427.59 530.82 430.90 L 530.82 433.90 Z" fill="#1be3b3" fill-rule="nonzero" node-id="230" stroke="none" target-height="15" target-width="14" target-x="530.82" target-y="424.902"></path><path d="M 555.82 433.90 C 555.82 437.22 558.33 439.90 561.42 439.90 L 564.22 439.90 C 567.31 439.90 569.82 437.22 569.82 433.90 L 569.82 430.90 C 569.82 427.59 567.31 424.90 564.22 424.90 L 561.42 424.90 C 558.33 424.90 555.82 427.59 555.82 430.90 L 555.82 433.90 Z" fill="#1be3b3" fill-rule="nonzero" node-id="232" stroke="none" target-height="15" target-width="14" target-x="555.82" target-y="424.902"></path><path d="M 600.82 377.24 C 600.82 367.66 608.30 359.90 617.53 359.90 L 622.68 359.90 C 625.52 359.90 627.82 362.29 627.82 365.24 C 627.82 368.18 625.52 370.57 622.68 370.57 L 617.53 370.57 C 613.98 370.57 611.11 373.55 611.11 377.24 L 611.11 420.57 C 611.11 424.25 613.98 427.24 617.53 427.24 L 622.68 427.24 C 625.52 427.24 627.82 429.62 627.82 432.57 C 627.82 435.51 625.52 437.90 622.68 437.90 L 617.53 437.90 C 608.30 437.90 600.82 430.14 600.82 420.57 L 600.82 377.24 Z" fill="#ffffff" fill-rule="evenodd" node-id="234" stroke="none" target-height="78" target-width="27" target-x="600.82" target-y="359.902"></path><path d="M 335.82 318.75 C 335.82 314.42 339.18 310.90 343.32 310.90 C 347.46 310.90 350.82 314.42 350.82 318.75 L 350.82 337.06 C 350.82 341.39 347.46 344.90 343.32 344.90 C 339.18 344.90 335.82 341.39 335.82 337.06 L 335.82 318.75 Z" fill="#2c2770" fill-rule="nonzero" node-id="236" stroke="none" target-height="34" target-width="15" target-x="335.82" target-y="310.902"></path><path d="M 335.82 453.75 C 335.82 449.42 339.18 445.90 343.32 445.90 C 347.46 445.90 350.82 449.42 350.82 453.75 L 350.82 472.06 C 350.82 476.39 347.46 479.90 343.32 479.90 C 339.18 479.90 335.82 476.39 335.82 472.06 L 335.82 453.75 Z" fill="#2c2770" fill-rule="nonzero" node-id="238" stroke="none" target-height="34" target-width="15" target-x="335.82" target-y="445.902"></path><path d="M 508.23 220.31 C 518.71 234.15 525.56 252.76 526.58 261.83 C 530.95 266.44 529.20 253.99 526.58 238.76 C 523.96 223.54 514.35 201.86 506.05 200.94 C 497.74 200.02 495.47 203.47 508.23 220.31 Z" fill="#6b8cff" fill-rule="nonzero" node-id="240" stroke="none" target-height="66.425" target-width="35.478027" target-x="495.469" target-y="200.016"></path><path d="M 519.47 207.30 C 527.53 222.68 526.42 251.49 523.89 260.26 C 526.16 266.20 528.73 253.65 534.47 239.30 C 540.21 224.96 540.47 197.30 526.47 187.80 C 519.56 183.11 508.47 186.30 519.47 207.30 Z" fill="#54b7ff" fill-rule="nonzero" node-id="242" stroke="none" target-height="83.08499" target-width="32.001007" target-x="508.47" target-y="183.113"></path><path d="M 548.05 225.54 C 539.66 236.70 534.18 251.70 533.37 259.02 C 529.87 262.74 531.27 252.69 533.37 240.42 C 535.47 228.14 543.15 210.66 549.79 209.91 C 556.43 209.17 558.25 211.96 548.05 225.54 Z" fill="#6b8cff" fill-rule="nonzero" node-id="244" stroke="none" target-height="53.569" target-width="28.382019" target-x="529.873" target-y="209.168"></path><path d="M 529.47 242.80 C 531.30 235.80 533.47 200.80 522.47 194.30" fill="none" node-id="246" stroke="#ffffff" stroke-linecap="butt" stroke-width="0.8" target-height="48.5" target-width="11" target-x="522.47" target-y="194.302"></path><path d="M 524.74 247.30 C 524.79 240.07 515.24 214.80 504.74 205.80" fill="none" node-id="248" stroke="#ffffff" stroke-linecap="butt" stroke-width="0.8" target-height="41.5" target-width="20.052002" target-x="504.739" target-y="205.802"></path><path d="M 535.40 246.89 C 535.34 239.66 542.23 222.27 549.24 215.80" fill="none" node-id="250" stroke="#ffffff" stroke-linecap="butt" stroke-width="0.8" target-height="31.091003" target-width="13.89502" target-x="535.344" target-y="215.802"></path><path d="M 513.64 241.11 L 544.84 241.11 L 546.82 266.72 C 547.05 269.63 544.75 272.11 541.84 272.11 L 516.64 272.11 C 513.73 272.11 511.43 269.63 511.66 266.72 L 513.64 241.11 Z" fill="#2c2770" fill-rule="nonzero" node-id="252" stroke="none" target-height="30.999985" target-width="35.615997" target-x="511.431" target-y="241.11"></path><path d="M 301.93 31.44 L 300.58 78.45 C 299.65 110.50 315.90 140.54 343.11 157.08 L 354.68 157.40 C 389.76 142.82 413.07 108.80 414.18 70.59 L 415.21 34.56 L 408.68 34.38 C 388.69 33.83 370.21 23.61 359.02 6.92 L 347.45 6.60 C 342.68 21.91 328.41 32.17 312.52 31.74 L 301.93 31.44 Z" fill="#ffbd32" fill-rule="nonzero" node-id="254" stroke="none" target-height="150.79695" target-width="115.55902" target-x="299.654" target-y="6.60104"></path><path d="M 289.88 31.42 L 288.83 67.98 C 287.74 105.86 308.81 140.82 342.64 157.29 C 377.72 142.73 401.03 108.73 402.13 70.54 L 403.16 34.54 L 396.63 34.36 C 376.64 33.81 358.16 23.60 346.97 6.92 C 334.63 22.97 315.44 32.13 295.32 31.57 L 289.88 31.42 Z" fill="#54b7ff" fill-rule="nonzero" node-id="256" stroke="none" target-height="150.37117" target-width="115.42099" target-x="287.741" target-y="6.91683"></path><path d="M 300.88 42.52 L 300.05 71.64 C 299.17 102.01 316.07 130.03 343.19 143.21 C 371.31 131.56 390.01 104.31 390.89 73.69 L 391.72 45.02 L 386.43 44.87 C 370.44 44.43 355.63 36.26 346.66 22.91 C 336.77 35.76 321.40 43.08 305.30 42.64 L 300.88 42.52 Z" fill="none" node-id="258" stroke="#000000" stroke-linecap="butt" stroke-width="2" target-height="120.2965" target-width="92.55002" target-x="299.171" target-y="22.9145"></path><path d="M 374.55 67.54 L 338.56 105.16 L 320.37 85.57 L 328.26 77.98 L 338.70 89.22 L 366.79 59.86 L 374.55 67.54 Z" fill="#ffffff" fill-rule="evenodd" node-id="260" stroke="none" target-height="45.297596" target-width="54.181" target-x="320.368" target-y="59.8604"></path><path d="M 134.15 533.47 C 132.12 533.47 130.52 531.72 130.71 529.70 L 146.92 355.90 L 156.86 356.97 L 137.58 530.40 C 137.38 532.15 135.91 533.47 134.15 533.47 Z" fill="#627ac1" fill-rule="evenodd" node-id="262" stroke="none" target-height="177.56796" target-width="26.33699" target-x="130.524" target-y="355.902"></path><path d="M 163.15 533.47 C 161.12 533.47 159.52 531.72 159.71 529.70 L 175.92 355.90 L 185.86 356.97 L 166.58 530.40 C 166.38 532.15 164.91 533.47 163.15 533.47 Z" fill="#627ac1" fill-rule="evenodd" node-id="264" stroke="none" target-height="177.56796" target-width="26.33699" target-x="159.524" target-y="355.902"></path><path d="M 250.07 533.47 C 252.11 533.47 253.70 531.72 253.51 529.70 L 237.30 355.90 L 227.36 356.97 L 246.65 530.40 C 246.84 532.15 248.32 533.47 250.07 533.47 Z" fill="#627ac1" fill-rule="evenodd" node-id="266" stroke="none" target-height="177.56796" target-width="26.337006" target-x="227.361" target-y="355.902"></path><path d="M 252.36 343.90 L 143.36 343.90 C 138.94 343.90 135.36 347.48 135.36 351.90 C 135.36 356.32 138.94 359.90 143.36 359.90 L 252.36 359.90 C 256.78 359.90 260.36 356.32 260.36 351.90 C 260.36 347.48 256.78 343.90 252.36 343.90 Z" fill="#a3baff" fill-rule="nonzero" node-id="268" stroke="none" target-height="16" target-width="125" target-x="135.361" target-y="343.902"></path><path d="M 284.05 526.95 L 272.25 516.84 C 265.97 511.46 267.17 495.02 267.17 495.02 L 250.29 494.11 L 250.29 512.36 L 247.56 521.94 L 282.68 528.78 L 284.05 526.95 Z" fill="#ffae64" fill-rule="nonzero" node-id="270" stroke="none" target-height="34.668" target-width="36.49298" target-x="247.557" target-y="494.111"></path><path d="M 280.49 527.66 L 249.38 519.66 C 246.63 522.13 245.66 526.04 246.95 529.52 L 249.38 536.08 L 262.61 536.99 L 263.52 533.80 L 270.26 536.32 C 273.05 537.37 275.99 537.90 278.96 537.90 L 289.48 537.90 C 290.92 537.90 292.25 537.14 292.98 535.89 C 294.10 533.98 293.46 531.51 291.55 530.38 L 278.12 522.39 L 281.74 525.02 C 282.47 525.56 282.56 526.62 281.91 527.27 C 281.54 527.64 281.00 527.79 280.49 527.66 Z" fill="#2c2770" fill-rule="nonzero" node-id="272" stroke="none" target-height="18.245972" target-width="48.430008" target-x="245.665" target-y="519.656"></path><path d="M 231.05 527.34 L 219.25 517.22 C 212.97 511.84 214.17 495.41 214.17 495.41 L 197.29 494.49 L 197.29 512.74 L 194.56 522.32 L 229.68 529.16 L 231.05 527.34 Z" fill="#ffae64" fill-rule="nonzero" node-id="274" stroke="none" target-height="34.668" target-width="36.492996" target-x="194.557" target-y="494.494"></path><path d="M 227.49 528.04 L 196.38 520.04 C 193.63 522.52 192.66 526.42 193.95 529.90 L 196.38 536.46 L 209.61 537.37 L 210.52 534.18 L 217.26 536.71 C 220.04 537.75 222.99 538.28 225.96 538.28 L 236.48 538.28 C 237.92 538.28 239.25 537.52 239.97 536.28 C 241.09 534.36 240.46 531.90 238.55 530.76 L 225.12 522.78 L 228.74 525.40 C 229.47 525.94 229.56 527.01 228.91 527.65 C 228.54 528.02 228.00 528.17 227.49 528.04 Z" fill="#2c2770" fill-rule="nonzero" node-id="276" stroke="none" target-height="18.245972" target-width="48.430008" target-x="192.665" target-y="520.039"></path><path d="M 219.30 507.81 L 194.32 507.81 L 194.32 373.90 L 162.06 357.23 C 143.74 347.76 134.96 326.42 141.31 306.80 L 216.32 305.40 L 278.69 345.21 C 286.99 350.50 291.40 360.16 289.98 369.90 L 269.82 507.81 L 247.32 507.81 L 245.82 375.90 L 238.32 371.97 C 238.37 373.21 238.31 374.46 238.14 375.71 L 219.30 507.81 Z" fill="#2c2770" fill-rule="nonzero" node-id="278" stroke="none" target-height="202.41098" target-width="156.447" target-x="134.958" target-y="305.402"></path><path d="M 140.82 306.90 C 143.82 333.40 153.82 348.90 203.32 367.40 L 197.82 508.40" fill="none" node-id="280" stroke="#ffffff" stroke-linecap="butt" stroke-width="1" target-height="201.5" target-width="62.5" target-x="140.821" target-y="306.902"></path><path d="M 237.32 359.90 L 255.32 370.90 L 251.82 507.40" fill="none" node-id="282" stroke="#ffffff" stroke-linecap="butt" stroke-width="1" target-height="147.5" target-width="18" target-x="237.32" target-y="359.902"></path><path d="M 101.85 250.49 L 122.67 240.60 L 139.23 256.22 L 119.86 266.75 C 107.78 273.32 93.19 273.23 81.20 266.51 L 38.39 242.53 L 29.40 243.10 L 21.85 243.10 C 19.26 243.10 16.81 241.95 15.16 239.96 C 13.97 238.51 13.51 236.59 13.91 234.76 L 15.97 225.51 L 1.73 221.66 C 0.34 221.29 -0.38 219.77 0.20 218.46 C 0.63 217.51 1.63 216.95 2.67 217.10 L 20.08 219.58 L 21.17 217.55 C 21.79 216.39 23.09 215.77 24.38 216.02 L 30.17 217.13 C 31.99 217.48 33.64 218.46 34.82 219.89 L 41.09 227.47 L 101.85 250.49 Z" fill="#ffae64" fill-rule="nonzero" node-id="284" stroke="none" target-height="57.54599" target-width="139.60663" target-x="-0.379616" target-y="215.772"></path><path d="M 14.60 231.90 L 25.46 233.84 C 26.54 234.03 27.58 233.36 27.85 232.29 C 28.10 231.28 27.57 230.24 26.60 229.86 L 23.73 228.71" fill="none" node-id="286" stroke="#000000" stroke-linecap="butt" stroke-width="1" target-height="5.324005" target-width="13.496399" target-x="14.6042" target-y="228.707"></path><path d="M 13.57 236.98 L 24.66 237.76 C 25.70 237.84 26.63 237.09 26.77 236.06 C 26.92 235.00 26.21 234.02 25.17 233.82 L 24.64 233.72" fill="none" node-id="288" stroke="#000000" stroke-linecap="butt" stroke-width="1" target-height="4.1129913" target-width="13.347" target-x="13.5732" target-y="233.725"></path><path d="M 18.71 241.94 L 27.32 242.26 C 28.41 242.30 29.35 241.51 29.51 240.43 C 29.65 239.38 29.01 238.39 28.00 238.09 L 25.55 237.37" fill="none" node-id="290" stroke="#000000" stroke-linecap="butt" stroke-width="1" target-height="4.928009" target-width="10.942301" target-x="18.7097" target-y="237.374"></path><path d="M 19.62 221.41 L 17.24 230.53 C 17.04 231.30 17.47 232.09 18.22 232.35 C 19.85 232.89 21.64 232.26 22.58 230.82 L 26.92 224.15 C 26.77 225.97 29.84 230.99 34.22 234.64" fill="none" node-id="292" stroke="#000000" stroke-linecap="butt" stroke-width="1" target-height="13.228989" target-width="17.178099" target-x="17.0408" target-y="221.408"></path><path d="M 265.01 204.15 L 242.93 210.77 L 241.13 233.46 L 262.56 228.29 C 275.92 225.06 286.69 215.20 291.08 202.18 L 306.75 155.68 L 313.80 150.08 L 319.40 145.01 C 321.32 143.28 322.36 140.78 322.25 138.19 C 322.17 136.32 321.22 134.59 319.69 133.50 L 311.96 128.03 L 319.95 115.62 C 320.72 114.41 320.24 112.80 318.93 112.22 C 317.98 111.79 316.86 112.06 316.19 112.86 L 304.94 126.38 L 302.77 125.60 C 301.53 125.16 300.15 125.57 299.36 126.62 L 295.81 131.33 C 294.69 132.81 294.13 134.64 294.21 136.50 L 294.64 146.32 L 265.01 204.15 Z" fill="#ffae64" fill-rule="nonzero" node-id="294" stroke="none" target-height="121.67" target-width="81.233" target-x="241.13" target-y="111.793"></path><path d="M 317.26 131.84 L 310.51 140.56 C 309.84 141.43 308.61 141.63 307.70 141.02 C 306.84 140.44 306.54 139.31 306.99 138.38 L 308.35 135.59" fill="none" node-id="296" stroke="#000000" stroke-linecap="butt" stroke-width="1" target-height="9.785004" target-width="10.72699" target-x="306.535" target-y="131.844"></path><path d="M 321.43 134.92 L 313.74 142.94 C 313.01 143.69 311.82 143.76 311.02 143.09 C 310.21 142.41 310.07 141.20 310.72 140.35 L 311.04 139.93" fill="none" node-id="298" stroke="#000000" stroke-linecap="butt" stroke-width="1" target-height="8.8390045" target-width="11.361023" target-x="310.072" target-y="134.92"></path><path d="M 320.95 142.04 L 314.78 148.06 C 314.00 148.82 312.77 148.87 311.93 148.16 C 311.12 147.49 310.93 146.32 311.48 145.42 L 312.81 143.25" fill="none" node-id="300" stroke="#000000" stroke-linecap="butt" stroke-width="1" target-height="6.82399" target-width="10.018982" target-x="310.928" target-y="142.042"></path><path d="M 306.50 127.43 L 314.39 132.60 C 315.05 133.04 315.27 133.91 314.88 134.60 C 314.03 136.10 312.28 136.84 310.62 136.40 L 302.93 134.35 C 304.26 135.60 305.35 141.39 304.55 147.03" fill="none" node-id="302" stroke="#000000" stroke-linecap="butt" stroke-width="1" target-height="19.602005" target-width="12.341003" target-x="302.926" target-y="127.427"></path><path d="M 144.16 216.81 L 162.92 210.12 C 168.50 210.12 183.00 209.84 196.39 208.72 C 209.77 207.59 234.03 208.72 253.55 205.90 L 257.73 231.25 C 249.37 235.47 236.82 239.70 220.09 242.52 C 225.67 259.42 221.95 262.23 217.30 267.87 L 213.12 286.17 L 223.25 309.90 L 140.62 309.90 L 149.17 283.90 L 144.15 255.16 L 126.67 266.46 L 109.94 245.33 L 135.35 222.11 C 137.90 219.78 140.90 217.98 144.16 216.81 Z" fill="#6b8cff" fill-rule="nonzero" node-id="304" stroke="none" target-height="104.003006" target-width="147.794" target-x="109.94" target-y="205.899"></path><path d="M 228.54 193.13 C 221.70 220.50 296.05 237.83 291.03 270.67 C 286.02 303.52 159.21 381.06 114.05 357.34 C 68.89 333.62 70.71 292.11 156.47 293.94 C 242.22 295.76 262.30 257.90 241.77 237.83 C 221.24 217.76 161.03 279.34 159.21 253.79 C 157.38 228.25 234.47 220.50 203.45 201.79 C 178.03 186.47 167.87 234.18 140.05 240.11 C 117.79 244.85 105.53 236.61 102.19 231.90 C 81.05 242.09 48.91 265.29 89.41 276.60 C 129.92 287.92 199.04 273.41 228.54 264.74" fill="none" group-id="2" node-id="308" stroke="#a3b7ff" stroke-linecap="butt" stroke-width="7" target-height="194.59401" target-width="247.14389" target-x="48.9071" target-y="186.468"></path><path d="M 205.80 152.23 C 204.68 143.24 195.98 141.93 191.77 142.40 C 189.43 141.00 184.75 135.38 174.92 136.79 C 165.10 138.19 153.87 143.81 156.68 156.44 C 156.68 156.44 150.12 172.35 148.25 178.90 C 142.64 192.93 150.76 203.11 162.29 204.16 C 177.73 205.56 170.71 204.16 194.57 206.97 C 218.44 209.78 219.84 190.12 214.22 177.49 C 208.61 164.86 207.21 163.46 205.80 152.23 Z" fill="#2c2770" fill-rule="nonzero" node-id="311" stroke="none" target-height="74.392" target-width="77.19899" target-x="142.639" target-y="135.383"></path><path d="M 198.78 162.05 L 198.78 166.26 C 200.66 165.79 204.40 165.70 204.40 169.07 C 204.40 173.28 201.59 176.09 198.78 174.69 C 198.42 179.06 196.07 187.70 189.07 191.30 C 189.32 194.59 190.05 199.33 191.77 202.76 C 194.01 207.25 198.32 209.31 200.19 209.78 C 197.38 213.05 189.52 219.60 180.54 219.60 C 171.55 219.60 164.63 213.05 162.29 209.78 C 163.69 209.31 167.34 207.53 170.71 204.16 C 173.36 201.51 173.87 195.20 173.74 190.59 C 167.90 186.66 166.12 178.79 165.10 174.69 C 163.23 175.15 159.48 174.97 159.48 170.47 C 159.48 165.98 163.69 165.79 165.10 166.26 L 165.10 162.05 C 167.91 162.52 175.20 162.33 181.94 157.84 C 188.68 153.35 190.36 151.29 190.36 150.82 C 190.36 153.16 191.39 157.47 193.17 159.25 C 195.98 162.05 197.85 161.59 198.78 162.05 Z" fill="#ffae64" fill-rule="nonzero" node-id="313" stroke="none" target-height="68.778" target-width="44.916" target-x="159.483" target-y="150.823"></path><path d="M 187.03 181.27 L 180.64 184.46 C 181.10 185.37 182.56 186.56 184.75 185.83 C 186.94 185.10 187.18 182.79 187.03 181.27 Z" fill="#ffffff" fill-rule="nonzero" node-id="315" stroke="none" target-height="5.2910004" target-width="6.5390015" target-x="180.644" target-y="181.267"></path><path d="M 173.35 162.11 L 168.78 162.11 C 168.03 162.11 167.42 162.72 167.42 163.48 C 167.42 164.23 168.03 164.84 168.78 164.84 L 173.35 164.84 C 174.10 164.84 174.71 164.23 174.71 163.48 C 174.71 162.72 174.10 162.11 173.35 162.11 Z" fill="#2c2770" fill-rule="nonzero" node-id="317" stroke="none" target-height="2.7369995" target-width="7.298004" target-x="167.416" target-y="162.108"></path><path d="M 191.59 162.11 L 187.03 162.11 C 186.28 162.11 185.66 162.72 185.66 163.48 C 185.66 164.23 186.28 164.84 187.03 164.84 L 191.59 164.84 C 192.35 164.84 192.96 164.23 192.96 163.48 C 192.96 162.72 192.35 162.11 191.59 162.11 Z" fill="#2c2770" fill-rule="nonzero" node-id="319" stroke="none" target-height="2.7369995" target-width="7.298996" target-x="185.662" target-y="162.108"></path><path d="M 188.85 169.41 C 189.61 169.41 190.22 168.79 190.22 168.04 C 190.22 167.28 189.61 166.67 188.85 166.67 C 188.10 166.67 187.49 167.28 187.49 168.04 C 187.49 168.79 188.10 169.41 188.85 169.41 Z" fill="#000000" fill-rule="nonzero" node-id="321" stroke="none" target-height="2.7369995" target-width="2.7360077" target-x="187.487" target-y="166.67"></path><path d="M 178.36 163.93 L 178.36 180.35 L 182.47 180.35" fill="none" node-id="323" stroke="#000000" stroke-linecap="butt" stroke-width="1" target-height="16.421997" target-width="4.1049957" target-x="178.364" target-y="163.933"></path><path d="M 171.52 169.41 C 172.28 169.41 172.89 168.79 172.89 168.04 C 172.89 167.28 172.28 166.67 171.52 166.67 C 170.76 166.67 170.15 167.28 170.15 168.04 C 170.15 168.79 170.76 169.41 171.52 169.41 Z" fill="#000000" fill-rule="nonzero" node-id="325" stroke="none" target-height="2.7369995" target-width="2.7369995" target-x="170.153" target-y="166.67"></path><path d="M 201.17 168.95 C 201.63 170.01 201.72 172.24 198.43 172.60" fill="none" node-id="327" stroke="#000000" stroke-linecap="butt" stroke-width="1" target-height="3.649002" target-width="3.2849884" target-x="198.434" target-y="168.951"></path><path d="M 162.17 168.95 C 161.72 170.01 161.63 172.24 164.91 172.60" fill="none" node-id="329" stroke="#000000" stroke-linecap="butt" stroke-width="1" target-height="3.649002" target-width="3.2839966" target-x="161.626" target-y="168.951"></path><path d="M 172.43 189.93 C 173.65 190.69 177.54 192.67 181.56 192.67 C 185.37 192.67 188.93 191.44 190.06 190.92 L 190.22 190.85 C 190.18 190.87 190.12 190.90 190.06 190.92 L 171.98 199.51 L 172.43 189.93 Z" fill="#ff8282" fill-rule="nonzero" group-id="3" node-id="333" stroke="none" target-height="9.578995" target-width="18.246994" target-x="171.977" target-y="189.934"></path></svg>