<?xml version="1.0" standalone="no"?><!DOCTYPE svg PUBLIC "-//W3C//DTD SVG 1.1//EN" "http://www.w3.org/Graphics/SVG/1.1/DTD/svg11.dtd"><svg height="626" node-id="1" sillyvg="true" template-height="626" template-width="1024" version="1.1" viewBox="0 0 1024 626" width="1024" xmlns="http://www.w3.org/2000/svg" xmlns:xlink="http://www.w3.org/1999/xlink"><defs node-id="165"><mask height="62" id="mask0" maskUnits="userSpaceOnUse" node-id="58" width="61" x="376" y="32"><path d="M 406.32 93.04 C 422.95 93.04 436.43 79.50 436.43 62.79 C 436.43 46.08 422.95 32.54 406.32 32.54 C 389.68 32.54 376.20 46.08 376.20 62.79 C 376.20 79.50 389.68 93.04 406.32 93.04 Z" fill="#ffffff" fill-rule="nonzero" node-id="168" stroke="none" target-height="60.5058" target-width="60.231995" target-x="376.2" target-y="32.5371"></path></mask><mask height="42" id="mask1" maskUnits="userSpaceOnUse" node-id="73" width="28" x="394" y="24"><path d="M 417.81 30.81 L 417.81 33.34 C 418.93 33.06 421.18 33.00 421.18 35.03 C 421.18 37.57 419.49 39.26 417.81 38.41 C 417.59 41.05 416.18 46.25 411.99 48.42 C 412.14 50.41 412.57 53.26 413.60 55.32 C 414.95 58.03 417.53 59.27 418.65 59.55 C 416.97 61.52 412.26 65.47 406.87 65.47 C 401.48 65.47 397.33 61.52 395.93 59.55 C 396.77 59.27 398.96 58.20 400.98 56.17 C 402.57 54.57 402.87 50.77 402.79 47.99 C 399.30 45.63 398.23 40.89 397.61 38.41 C 396.49 38.70 394.25 38.58 394.25 35.88 C 394.25 33.17 396.77 33.06 397.61 33.34 L 397.61 30.81 C 399.30 31.09 403.67 30.98 407.71 28.27 C 411.75 25.57 412.76 24.33 412.76 24.04 C 412.76 25.45 413.38 28.05 414.44 29.12 C 416.13 30.81 417.25 30.52 417.81 30.81 Z" fill="#ffffff" fill-rule="nonzero" node-id="172" stroke="none" target-height="41.422897" target-width="26.928986" target-x="394.247" target-y="24.0435"></path></mask><mask height="287" id="mask2" maskUnits="userSpaceOnUse" node-id="82" width="112" x="197" y="308"><path d="M 222.07 329.05 L 225.82 310.48 L 302.00 308.20 L 306.70 343.96 C 308.13 354.77 308.58 365.68 308.08 376.56 L 297.89 594.21 L 270.98 594.21 L 265.51 376.17 L 225.82 594.21 L 197.08 594.21 L 219.44 384.83 L 219.23 382.66 C 217.55 364.74 218.51 346.68 222.07 329.05 Z" fill="#ffffff" fill-rule="nonzero" node-id="176" stroke="none" target-height="286.00903" target-width="111.502" target-x="197.083" target-y="308.201"></path></mask><mask height="51" id="mask3" maskUnits="userSpaceOnUse" node-id="96" width="39" x="240" y="173"><path d="M 246.69 200.61 C 248.56 195.97 248.25 180.91 247.86 173.96 C 256.41 175.51 273.18 181.26 271.78 191.92 C 270.38 202.58 274.30 205.24 276.44 205.24 C 278.78 210.26 280.29 220.88 267.69 223.20 C 255.09 225.52 244.55 214.51 240.86 208.72 C 242.02 207.95 244.82 205.24 246.69 200.61 Z" fill="#ffffff" fill-rule="nonzero" node-id="180" stroke="none" target-height="51.55699" target-width="39.434998" target-x="240.858" target-y="173.962"></path></mask><mask height="105" id="mask4" maskUnits="userSpaceOnUse" node-id="146" width="149" x="765" y="292"><path d="M 879.39 303.91 L 860.63 297.22 C 855.05 297.22 840.55 296.94 827.16 295.81 C 813.78 294.69 789.52 295.81 770.00 293.00 L 765.82 318.35 C 774.18 322.57 786.73 326.80 803.46 329.61 C 797.88 346.51 801.60 349.33 806.25 354.96 L 810.43 373.27 L 800.30 397.00 L 882.93 397.00 L 874.38 371.00 L 879.40 342.26 L 896.88 353.56 L 913.61 332.43 L 888.20 309.21 C 885.64 306.88 882.65 305.07 879.39 303.91 Z" fill="#ffffff" fill-rule="nonzero" node-id="184" stroke="none" target-height="104.00299" target-width="147.794" target-x="765.815" target-y="292.997"></path></mask><mask height="70" id="mask5" maskUnits="userSpaceOnUse" node-id="160" width="46" x="819" y="237"><path d="M 824.76 249.15 L 824.76 253.36 C 822.89 252.89 819.15 252.80 819.15 256.17 C 819.15 260.38 821.96 263.19 824.76 261.78 C 825.13 266.16 827.48 274.79 834.48 278.39 C 834.23 281.69 833.50 286.43 831.78 289.86 C 829.54 294.35 825.23 296.40 823.36 296.87 C 826.17 300.15 834.03 306.70 843.01 306.70 C 852.00 306.70 858.92 300.15 861.26 296.87 C 859.86 296.40 856.21 294.63 852.84 291.26 C 850.18 288.61 849.68 282.30 849.81 277.69 C 855.64 273.76 857.42 265.89 858.45 261.78 C 860.32 262.25 864.07 262.06 864.07 257.57 C 864.07 253.08 859.86 252.89 858.45 253.36 L 858.45 249.15 C 855.64 249.62 848.35 249.43 841.61 244.94 C 834.87 240.45 833.19 238.39 833.19 237.92 C 833.19 240.26 832.15 244.57 830.38 246.34 C 827.57 249.15 825.70 248.68 824.76 249.15 Z" fill="#ffffff" fill-rule="nonzero" node-id="188" stroke="none" target-height="68.778" target-width="44.915955" target-x="819.15" target-y="237.921"></path></mask></defs><path d="M 863.23 616.00 L 241.23 616.00 L 198.73 616.00 L 198.73 327.50 C 198.73 307.07 215.29 290.50 235.73 290.50 C 256.16 290.50 272.73 273.94 272.73 253.50 L 272.73 222.25 C 272.73 184.56 303.29 154.00 340.98 154.00 L 649.23 154.00 C 681.81 154.00 708.23 180.41 708.23 213.00 C 708.23 245.59 734.64 272.00 767.23 272.00 L 785.73 272.00 C 828.53 272.00 863.23 306.70 863.23 349.50 L 863.23 616.00 Z" fill="#f3f6ff" fill-rule="nonzero" node-id="192" stroke="none" target-height="462" target-width="664.5" target-x="198.729" target-y="154"></path><path d="M 612.12 149.53 L 611.11 184.71 C 610.42 208.70 622.61 231.18 643.02 243.56 L 651.70 243.80 C 678.00 232.90 695.48 207.45 696.30 178.84 L 697.08 151.89 L 692.18 151.75 C 677.19 151.34 663.32 143.68 654.93 131.19 L 646.25 130.95 C 642.67 142.40 631.98 150.09 620.06 149.75 L 612.12 149.53 Z" fill="#ffbd32" fill-rule="nonzero" node-id="194" stroke="none" target-height="112.852005" target-width="86.65399" target-x="610.421" target-y="130.95"></path><path d="M 603.07 149.52 L 602.29 176.82 C 601.49 205.10 617.30 231.21 642.68 243.53 C 668.98 232.66 686.45 207.29 687.26 178.77 L 688.02 151.89 L 683.13 151.76 C 668.14 151.34 654.27 143.70 645.87 131.24 C 636.62 143.22 622.24 150.06 607.15 149.63 L 603.07 149.52 Z" fill="#54b7ff" fill-rule="nonzero" node-id="196" stroke="none" target-height="112.282" target-width="86.53705" target-x="601.488" target-y="131.244"></path><path d="M 611.23 157.98 L 610.61 179.82 C 609.96 202.60 622.68 223.62 643.10 233.51 C 664.26 224.79 678.33 204.35 678.98 181.39 L 679.60 159.88 L 675.62 159.77 C 663.58 159.44 652.43 153.30 645.68 143.29 C 638.23 152.92 626.67 158.41 614.55 158.07 L 611.23 157.98 Z" fill="none" node-id="198" stroke="#000000" stroke-linecap="butt" stroke-width="2" target-height="90.225006" target-width="69.643005" target-x="609.955" target-y="143.29"></path><path d="M 666.57 176.78 L 639.58 204.99 L 625.93 190.30 L 631.85 184.61 L 639.68 193.03 L 660.75 171.02 L 666.57 176.78 Z" fill="#ffffff" fill-rule="evenodd" node-id="200" stroke="none" target-height="33.973007" target-width="40.635986" target-x="625.931" target-y="171.017"></path><path d="M 768.73 139.00 C 771.49 139.00 773.73 136.76 773.73 134.00 C 773.73 131.24 771.49 129.00 768.73 129.00 C 765.97 129.00 763.73 131.24 763.73 134.00 C 763.73 136.76 765.97 139.00 768.73 139.00 Z" fill="#54b7ff" fill-rule="nonzero" node-id="202" stroke="none" target-height="10" target-width="10" target-x="763.729" target-y="129"></path><path d="M 799.23 163.50 C 805.86 163.50 811.23 158.13 811.23 151.50 C 811.23 144.87 805.86 139.50 799.23 139.50 C 792.60 139.50 787.23 144.87 787.23 151.50 C 787.23 158.13 792.60 163.50 799.23 163.50 Z" fill="none" node-id="204" stroke="#54b7ff" stroke-linecap="butt" stroke-width="1" target-height="24" target-width="24" target-x="787.229" target-y="139.5"></path><path d="M 302.98 108.34 C 311.83 110.03 320.38 104.22 322.06 95.37 C 323.75 86.52 317.94 77.98 309.09 76.29 C 300.24 74.60 291.70 80.41 290.01 89.26 C 288.32 98.11 294.13 106.66 302.98 108.34 Z" fill="#54b7ff" fill-rule="nonzero" node-id="206" stroke="none" target-height="35.4283" target-width="35.42801" target-x="288.324" target-y="74.6017"></path><path d="M 279.53 139.91 C 294.75 142.81 309.44 132.82 312.34 117.60 C 315.24 102.38 305.25 87.69 290.03 84.79 C 274.81 81.89 260.12 91.88 257.23 107.10 C 254.32 122.32 264.31 137.00 279.53 139.91 Z" fill="none" node-id="208" stroke="#7268f5" stroke-linecap="butt" stroke-width="1" target-height="60.9141" target-width="60.91301" target-x="254.325" target-y="81.8919"></path><path d="M 300.09 625.47 C 298.05 625.47 296.45 623.70 296.67 621.67 L 321.83 380.43 L 331.77 381.50 L 303.50 622.43 C 303.30 624.16 301.83 625.47 300.09 625.47 Z" fill="#627ac1" fill-rule="evenodd" node-id="210" stroke="none" target-height="245.034" target-width="35.31598" target-x="296.454" target-y="380.432"></path><path d="M 411.95 625.47 C 413.99 625.47 415.59 623.70 415.37 621.67 L 390.21 380.43 L 380.27 381.50 L 408.54 622.43 C 408.74 624.16 410.21 625.47 411.95 625.47 Z" fill="#627ac1" fill-rule="evenodd" node-id="212" stroke="none" target-height="245.034" target-width="35.31601" target-x="380.27" target-y="380.432"></path><path d="M 572.09 625.47 C 570.05 625.47 568.45 623.70 568.67 621.67 L 593.83 380.43 L 603.77 381.50 L 575.50 622.43 C 575.30 624.16 573.83 625.47 572.09 625.47 Z" fill="#627ac1" fill-rule="evenodd" node-id="214" stroke="none" target-height="245.034" target-width="35.31604" target-x="568.454" target-y="380.432"></path><path d="M 683.95 625.47 C 685.99 625.47 687.59 623.70 687.37 621.67 L 662.21 380.43 L 652.27 381.50 L 680.54 622.43 C 680.74 624.16 682.21 625.47 683.95 625.47 Z" fill="#627ac1" fill-rule="evenodd" node-id="216" stroke="none" target-height="245.034" target-width="35.31598" target-x="652.27" target-y="380.432"></path><path d="M 398.27 370.00 L 307.27 370.00 L 307.27 385.00 L 398.27 385.00 L 398.27 370.00 Z" fill="#a3baff" fill-rule="nonzero" node-id="218" stroke="none" target-height="15" target-width="91" target-x="307.27" target-y="370"></path><path d="M 680.27 370.00 L 398.27 370.00 L 398.27 385.00 L 680.27 385.00 L 680.27 370.00 Z" fill="#ccd9ff" fill-rule="nonzero" node-id="220" stroke="none" target-height="15" target-width="282.00003" target-x="398.27" target-y="370"></path><path d="M 433.24 247.79 C 433.24 246.13 434.59 244.78 436.25 244.79 L 451.43 244.81 L 443.51 352.63 L 433.24 352.63 L 433.24 247.79 Z" fill="#706ac7" fill-rule="nonzero" node-id="222" stroke="none" target-height="107.844986" target-width="18.19101" target-x="433.241" target-y="244.783"></path><path d="M 443.51 249.78 C 443.51 247.02 445.75 244.78 448.51 244.78 L 582.31 244.78 C 585.07 244.78 587.31 247.02 587.31 249.78 L 587.31 352.63 L 443.51 352.63 L 443.51 249.78 Z" fill="#cfccff" fill-rule="nonzero" node-id="224" stroke="none" target-height="107.84799" target-width="143.798" target-x="443.512" target-y="244.78"></path><path d="M 575.46 249.92 L 455.36 249.92 C 452.60 249.92 450.36 252.15 450.36 254.92 L 450.36 342.49 C 450.36 345.25 452.60 347.49 455.36 347.49 L 575.46 347.49 C 578.22 347.49 580.46 345.25 580.46 342.49 L 580.46 254.92 C 580.46 252.15 578.22 249.92 575.46 249.92 Z" fill="#282f48" fill-rule="nonzero" node-id="226" stroke="none" target-height="97.57701" target-width="130.10303" target-x="450.36" target-y="249.916"></path><path d="M 565.30 249.92 C 568.35 260.90 571.07 284.71 559.06 292.71 C 552.85 296.85 543.30 296.12 533.89 295.41 C 519.96 294.35 506.33 293.31 504.28 308.12 C 504.05 309.85 503.82 311.53 503.61 313.16 C 500.74 334.90 499.07 347.49 475.18 347.49 L 575.46 347.49 C 578.22 347.49 580.46 345.25 580.46 342.49 L 580.46 254.92 C 580.46 252.15 578.22 249.92 575.46 249.92 L 565.30 249.92 Z" fill="#2f3b67" fill-rule="evenodd" node-id="228" stroke="none" target-height="97.57701" target-width="105.280975" target-x="475.181" target-y="249.916"></path><path d="M 501.14 268.75 L 471.48 268.75 C 469.27 268.75 467.48 270.54 467.48 272.75 L 467.48 275.02 C 467.48 277.23 469.27 279.02 471.48 279.02 L 501.14 279.02 C 503.35 279.02 505.14 277.23 505.14 275.02 L 505.14 272.75 C 505.14 270.54 503.35 268.75 501.14 268.75 Z" fill="#5fffd8" fill-rule="nonzero" node-id="230" stroke="none" target-height="10.272003" target-width="37.66101" target-x="467.478" target-y="268.746"></path><path d="M 562.77 268.75 L 550.23 268.75 C 548.02 268.75 546.23 270.54 546.23 272.75 L 546.23 275.02 C 546.23 277.23 548.02 279.02 550.23 279.02 L 562.77 279.02 C 564.98 279.02 566.77 277.23 566.77 275.02 L 566.77 272.75 C 566.77 270.54 564.98 268.75 562.77 268.75 Z" fill="#5fffd8" fill-rule="nonzero" node-id="232" stroke="none" target-height="10.272003" target-width="20.54303" target-x="546.225" target-y="268.746"></path><path d="M 565.05 296.14 L 469.19 296.14 C 468.24 296.14 467.48 296.90 467.48 297.85 C 467.48 298.79 468.24 299.56 469.19 299.56 L 565.05 299.56 C 566.00 299.56 566.77 298.79 566.77 297.85 C 566.77 296.90 566.00 296.14 565.05 296.14 Z" fill="#5fffd8" fill-rule="nonzero" node-id="234" stroke="none" target-height="3.4240112" target-width="99.28903" target-x="467.478" target-y="296.136"></path><path d="M 565.05 308.12 L 469.19 308.12 C 468.24 308.12 467.48 308.89 467.48 309.83 C 467.48 310.78 468.24 311.54 469.19 311.54 L 565.05 311.54 C 566.00 311.54 566.77 310.78 566.77 309.83 C 566.77 308.89 566.00 308.12 565.05 308.12 Z" fill="#5fffd8" fill-rule="nonzero" node-id="236" stroke="none" target-height="3.4230042" target-width="99.28903" target-x="467.478" target-y="308.12"></path><path d="M 525.68 320.10 L 469.19 320.10 C 468.24 320.10 467.48 320.87 467.48 321.81 C 467.48 322.76 468.24 323.53 469.19 323.53 L 525.68 323.53 C 526.63 323.53 527.39 322.76 527.39 321.81 C 527.39 320.87 526.63 320.10 525.68 320.10 Z" fill="#5fffd8" fill-rule="nonzero" node-id="238" stroke="none" target-height="3.4230042" target-width="59.915985" target-x="467.478" target-y="320.103"></path><path d="M 433.24 352.63 L 479.46 352.63 L 479.46 369.75 L 438.24 369.75 C 435.48 369.75 433.24 367.51 433.24 364.75 L 433.24 352.63 Z" fill="#706ac7" fill-rule="nonzero" node-id="240" stroke="none" target-height="17.119019" target-width="46.22" target-x="433.241" target-y="352.628"></path><path d="M 479.46 352.63 L 628.39 352.63 L 628.39 364.75 C 628.39 367.51 626.16 369.75 623.39 369.75 L 479.46 369.75 L 479.46 352.63 Z" fill="#2c2770" fill-rule="nonzero" node-id="242" stroke="none" target-height="17.119019" target-width="148.93402" target-x="479.461" target-y="352.628"></path><path d="M 457.35 319.00 L 382.73 319.00 L 393.11 370.00 L 467.73 370.00 L 457.35 319.00 Z" fill="#be7430" fill-rule="nonzero" node-id="244" stroke="none" target-height="51" target-width="85" target-x="382.729" target-y="319"></path><path d="M 383.08 319.00 L 456.73 319.00 L 446.38 370.00 L 372.73 370.00 L 383.08 319.00 Z" fill="#ff9330" fill-rule="nonzero" node-id="246" stroke="none" target-height="51" target-width="84" target-x="372.729" target-y="319"></path><path d="M 387.42 326.99 C 387.67 325.83 388.70 325.00 389.88 325.00 L 446.21 325.00 C 447.81 325.00 449.01 326.48 448.67 328.04 L 441.03 364.00 C 440.79 365.17 439.76 366.00 438.57 366.00 L 382.24 366.00 C 380.64 366.00 379.45 364.52 379.79 362.96 L 387.42 326.99 Z" fill="#ffb36c" fill-rule="nonzero" node-id="248" stroke="none" target-height="41" target-width="69.554016" target-x="379.452" target-y="325"></path><path d="M 446.73 340.00 L 441.27 365.28 C 441.18 365.70 440.80 366.00 440.36 366.00 L 372.99 366.00 C 372.90 366.00 372.81 365.99 372.73 365.96 L 372.73 365.93 C 382.41 366.17 403.62 363.85 409.56 356.61 C 413.49 351.81 418.20 352.41 422.79 352.53 C 426.85 352.64 430.52 352.74 432.65 349.39 C 434.64 346.28 437.15 346.04 439.56 345.81 C 442.47 345.54 445.23 345.27 446.73 340.00 Z" fill="#f2a864" fill-rule="nonzero" node-id="250" stroke="none" target-height="26.171997" target-width="74" target-x="372.729" target-y="340"></path><path d="M 387.25 316.45 C 387.56 317.04 387.73 317.76 387.73 318.50 L 386.59 318.50 C 386.59 317.45 385.98 316.60 385.23 316.60 C 384.48 316.60 383.88 317.45 383.88 318.50 C 383.88 319.55 384.48 320.40 385.23 320.40 C 385.37 320.40 385.50 320.37 385.63 320.31 L 385.97 321.84 C 385.47 322.06 384.93 322.05 384.43 321.82 C 383.93 321.58 383.50 321.13 383.19 320.53 C 382.89 319.93 382.73 319.21 382.73 318.47 C 382.73 317.74 382.90 317.02 383.22 316.43 C 383.53 315.83 383.97 315.39 384.47 315.17 C 384.97 314.94 385.51 314.94 386.01 315.18 C 386.51 315.40 386.94 315.85 387.25 316.45 Z" fill="#c4c4c4" fill-rule="evenodd" node-id="252" stroke="none" target-height="7.1190186" target-width="5.003998" target-x="382.725" target-y="314.942"></path><path d="M 445.25 316.45 C 445.56 317.04 445.73 317.76 445.73 318.50 L 444.59 318.50 C 444.59 317.45 443.98 316.60 443.23 316.60 C 442.48 316.60 441.88 317.45 441.88 318.50 C 441.88 319.55 442.48 320.40 443.23 320.40 C 443.37 320.40 443.50 320.37 443.63 320.31 L 443.97 321.84 C 443.47 322.06 442.93 322.05 442.43 321.82 C 441.93 321.58 441.50 321.13 441.19 320.53 C 440.89 319.93 440.73 319.21 440.73 318.47 C 440.73 317.74 440.90 317.02 441.22 316.43 C 441.53 315.83 441.97 315.39 442.47 315.17 C 442.97 314.94 443.51 314.94 444.01 315.18 C 444.51 315.40 444.94 315.85 445.25 316.45 Z" fill="#c4c4c4" fill-rule="evenodd" node-id="254" stroke="none" target-height="7.1190186" target-width="5.003998" target-x="440.725" target-y="314.942"></path><path d="M 426.25 316.45 C 426.56 317.04 426.73 317.76 426.73 318.50 L 425.59 318.50 C 425.59 317.45 424.98 316.60 424.23 316.60 C 423.48 316.60 422.88 317.45 422.88 318.50 C 422.88 319.55 423.48 320.40 424.23 320.40 C 424.37 320.40 424.50 320.37 424.63 320.31 L 424.97 321.84 C 424.47 322.06 423.93 322.05 423.43 321.82 C 422.93 321.58 422.50 321.13 422.19 320.53 C 421.89 319.93 421.73 319.21 421.73 318.47 C 421.73 317.74 421.90 317.02 422.22 316.43 C 422.53 315.83 422.97 315.39 423.47 315.17 C 423.97 314.94 424.51 314.94 425.01 315.18 C 425.51 315.40 425.94 315.85 426.25 316.45 Z" fill="#c4c4c4" fill-rule="evenodd" node-id="256" stroke="none" target-height="7.1190186" target-width="5.003998" target-x="421.725" target-y="314.942"></path><path d="M 407.25 316.45 C 407.56 317.04 407.73 317.76 407.73 318.50 L 406.59 318.50 C 406.59 317.45 405.98 316.60 405.23 316.60 C 404.48 316.60 403.88 317.45 403.88 318.50 C 403.88 319.55 404.48 320.40 405.23 320.40 C 405.37 320.40 405.50 320.37 405.63 320.31 L 405.97 321.84 C 405.47 322.06 404.93 322.05 404.43 321.82 C 403.93 321.58 403.50 321.13 403.19 320.53 C 402.89 319.93 402.73 319.21 402.73 318.47 C 402.73 317.74 402.90 317.02 403.22 316.43 C 403.53 315.83 403.97 315.39 404.47 315.17 C 404.97 314.94 405.51 314.94 406.01 315.18 C 406.51 315.40 406.94 315.85 407.25 316.45 Z" fill="#c4c4c4" fill-rule="evenodd" node-id="258" stroke="none" target-height="7.1190186" target-width="5.003998" target-x="402.725" target-y="314.942"></path><path d="M 392.13 332.71 C 392.33 331.71 393.20 331.00 394.21 331.00 L 397.60 331.00 C 398.95 331.00 399.95 332.24 399.69 333.56 L 399.33 335.29 C 399.13 336.29 398.26 337.00 397.25 337.00 L 393.86 337.00 C 392.51 337.00 391.50 335.76 391.77 334.44 L 392.13 332.71 Z" fill="#ffdab8" fill-rule="nonzero" node-id="260" stroke="none" target-height="6" target-width="8.451996" target-x="391.503" target-y="331"></path><path d="M 407.13 332.71 C 407.33 331.71 408.20 331.00 409.21 331.00 L 412.60 331.00 C 413.95 331.00 414.95 332.24 414.69 333.56 L 414.33 335.29 C 414.13 336.29 413.26 337.00 412.25 337.00 L 408.86 337.00 C 407.51 337.00 406.50 335.76 406.77 334.44 L 407.13 332.71 Z" fill="#ffdab8" fill-rule="nonzero" node-id="262" stroke="none" target-height="6" target-width="8.451996" target-x="406.503" target-y="331"></path><path d="M 421.13 332.71 C 421.33 331.71 422.20 331.00 423.21 331.00 L 426.60 331.00 C 427.95 331.00 428.95 332.24 428.69 333.56 L 428.33 335.29 C 428.13 336.29 427.26 337.00 426.25 337.00 L 422.86 337.00 C 421.51 337.00 420.50 335.76 420.77 334.44 L 421.13 332.71 Z" fill="#ffdab8" fill-rule="nonzero" node-id="264" stroke="none" target-height="6" target-width="8.451996" target-x="420.503" target-y="331"></path><path d="M 436.13 332.71 C 436.33 331.71 437.20 331.00 438.21 331.00 L 441.60 331.00 C 442.95 331.00 443.95 332.24 443.69 333.56 L 443.33 335.29 C 443.13 336.29 442.26 337.00 441.25 337.00 L 437.86 337.00 C 436.51 337.00 435.50 335.76 435.77 334.44 L 436.13 332.71 Z" fill="#ffdab8" fill-rule="nonzero" node-id="266" stroke="none" target-height="6" target-width="8.451996" target-x="435.503" target-y="331"></path><path d="M 389.13 343.71 C 389.33 342.71 390.20 342.00 391.21 342.00 L 394.60 342.00 C 395.95 342.00 396.95 343.24 396.69 344.56 L 396.33 346.29 C 396.13 347.29 395.26 348.00 394.25 348.00 L 390.86 348.00 C 389.51 348.00 388.50 346.76 388.77 345.44 L 389.13 343.71 Z" fill="#ffdab8" fill-rule="nonzero" node-id="268" stroke="none" target-height="6" target-width="8.451996" target-x="388.503" target-y="342"></path><path d="M 404.13 343.71 C 404.33 342.71 405.20 342.00 406.21 342.00 L 409.60 342.00 C 410.95 342.00 411.95 343.24 411.69 344.56 L 411.33 346.29 C 411.13 347.29 410.26 348.00 409.25 348.00 L 405.86 348.00 C 404.51 348.00 403.50 346.76 403.77 345.44 L 404.13 343.71 Z" fill="#ffdab8" fill-rule="nonzero" node-id="270" stroke="none" target-height="6" target-width="8.451996" target-x="403.503" target-y="342"></path><path d="M 418.13 343.71 C 418.33 342.71 419.20 342.00 420.21 342.00 L 423.60 342.00 C 424.95 342.00 425.95 343.24 425.69 344.56 L 425.33 346.29 C 425.13 347.29 424.26 348.00 423.25 348.00 L 419.86 348.00 C 418.51 348.00 417.50 346.76 417.77 345.44 L 418.13 343.71 Z" fill="#ffdab8" fill-rule="nonzero" node-id="272" stroke="none" target-height="6" target-width="8.451996" target-x="417.503" target-y="342"></path><path d="M 433.13 343.71 C 433.33 342.71 434.20 342.00 435.21 342.00 L 438.60 342.00 C 439.95 342.00 440.95 343.24 440.69 344.56 L 440.33 346.29 C 440.13 347.29 439.26 348.00 438.25 348.00 L 434.86 348.00 C 433.51 348.00 432.50 346.76 432.77 345.44 L 433.13 343.71 Z" fill="#ffdab8" fill-rule="nonzero" node-id="274" stroke="none" target-height="6" target-width="8.451996" target-x="432.503" target-y="342"></path><path d="M 386.13 354.71 C 386.33 353.71 387.20 353.00 388.21 353.00 L 391.60 353.00 C 392.95 353.00 393.95 354.24 393.69 355.56 L 393.33 357.29 C 393.13 358.29 392.26 359.00 391.25 359.00 L 387.86 359.00 C 386.51 359.00 385.50 357.76 385.77 356.44 L 386.13 354.71 Z" fill="#ffdab8" fill-rule="nonzero" node-id="276" stroke="none" target-height="6" target-width="8.451996" target-x="385.503" target-y="353"></path><path d="M 401.13 354.71 C 401.33 353.71 402.20 353.00 403.21 353.00 L 406.60 353.00 C 407.95 353.00 408.95 354.24 408.69 355.56 L 408.33 357.29 C 408.13 358.29 407.26 359.00 406.25 359.00 L 402.86 359.00 C 401.51 359.00 400.50 357.76 400.77 356.44 L 401.13 354.71 Z" fill="#ffdab8" fill-rule="nonzero" node-id="278" stroke="none" target-height="6" target-width="8.451996" target-x="400.503" target-y="353"></path><path d="M 415.13 354.71 C 415.33 353.71 416.20 353.00 417.21 353.00 L 420.60 353.00 C 421.95 353.00 422.95 354.24 422.69 355.56 L 422.33 357.29 C 422.13 358.29 421.26 359.00 420.25 359.00 L 416.86 359.00 C 415.51 359.00 414.50 357.76 414.77 356.44 L 415.13 354.71 Z" fill="#ffdab8" fill-rule="nonzero" node-id="280" stroke="none" target-height="6" target-width="8.451996" target-x="414.503" target-y="353"></path><path d="M 430.13 354.71 C 430.33 353.71 431.20 353.00 432.21 353.00 L 435.60 353.00 C 436.95 353.00 437.95 354.24 437.69 355.56 L 437.33 357.29 C 437.13 358.29 436.26 359.00 435.25 359.00 L 431.86 359.00 C 430.51 359.00 429.50 357.76 429.77 356.44 L 430.13 354.71 Z" fill="#ffdab8" fill-rule="nonzero" node-id="282" stroke="none" target-height="6" target-width="8.451996" target-x="429.503" target-y="353"></path><path d="M 601.30 18.07 L 370.73 18.07 C 362.44 18.07 355.73 24.78 355.73 33.07 L 355.73 90.54 C 355.73 98.82 362.44 105.54 370.73 105.54 L 601.30 105.54 C 609.58 105.54 616.30 98.82 616.30 90.54 L 616.30 33.07 C 616.30 24.78 609.58 18.07 601.30 18.07 Z" fill="#0b86df" fill-rule="nonzero" node-id="284" stroke="none" target-height="87.4708" target-width="260.56897" target-x="355.729" target-y="18.0682"></path><path d="M 605.73 18.07 L 375.16 18.07 C 366.88 18.07 360.16 24.78 360.16 33.07 L 360.16 90.54 C 360.16 98.82 366.88 105.54 375.16 105.54 L 605.73 105.54 C 614.01 105.54 620.73 98.82 620.73 90.54 L 620.73 33.07 C 620.73 24.78 614.01 18.07 605.73 18.07 Z" fill="#54b7ff" fill-rule="nonzero" node-id="286" stroke="none" target-height="87.4708" target-width="260.569" target-x="360.16" target-y="18.0682"></path><path d="M 469.63 36.95 L 473.21 44.20 L 481.22 45.36 L 475.43 51.01 L 476.79 58.98 L 469.63 55.22 L 462.46 58.98 L 463.83 51.01 L 458.04 45.36 L 466.05 44.20 L 469.63 36.95 Z" fill="#ffe071" fill-rule="nonzero" node-id="288" stroke="none" target-height="22.030201" target-width="23.18399" target-x="458.038" target-y="36.9486"></path><path d="M 499.09 36.95 L 502.67 44.20 L 510.68 45.36 L 504.89 51.01 L 506.25 58.98 L 499.09 55.22 L 491.93 58.98 L 493.29 51.01 L 487.50 45.36 L 495.51 44.20 L 499.09 36.95 Z" fill="#ffe071" fill-rule="nonzero" node-id="290" stroke="none" target-height="22.030098" target-width="23.185028" target-x="487.498" target-y="36.9485"></path><path d="M 528.55 36.95 L 532.13 44.20 L 540.14 45.36 L 534.35 51.01 L 535.72 58.98 L 528.55 55.22 L 521.39 58.98 L 522.76 51.01 L 516.96 45.36 L 524.97 44.20 L 528.55 36.95 Z" fill="#ffe071" fill-rule="nonzero" node-id="292" stroke="none" target-height="22.030098" target-width="23.18396" target-x="516.96" target-y="36.9485"></path><path d="M 558.01 36.95 L 561.60 44.20 L 569.61 45.36 L 563.81 51.01 L 565.18 58.98 L 558.01 55.22 L 550.85 58.98 L 552.22 51.01 L 546.42 45.36 L 554.43 44.20 L 558.01 36.95 Z" fill="#ffe071" fill-rule="nonzero" node-id="294" stroke="none" target-height="22.030098" target-width="23.18396" target-x="546.421" target-y="36.9485"></path><path d="M 587.48 36.95 L 591.06 44.20 L 599.07 45.36 L 593.27 51.01 L 594.64 58.98 L 587.48 55.22 L 580.31 58.98 L 581.68 51.01 L 575.88 45.36 L 583.89 44.20 L 587.48 36.95 Z" fill="#ffe071" fill-rule="nonzero" node-id="296" stroke="none" target-height="22.030098" target-width="23.184998" target-x="575.882" target-y="36.9485"></path><path d="M 585.37 70.02 L 462.95 70.02 C 461.86 70.02 460.98 70.90 460.98 71.99 L 460.98 72.00 C 460.98 73.09 461.86 73.97 462.95 73.97 L 585.37 73.97 C 586.46 73.97 587.34 73.09 587.34 72.00 L 587.34 71.99 C 587.34 70.90 586.46 70.02 585.37 70.02 Z" fill="#ffffff" fill-rule="nonzero" node-id="298" stroke="none" target-height="3.9459991" target-width="126.35602" target-x="460.984" target-y="70.0244"></path><path d="M 549.37 83.18 L 462.95 83.18 C 461.86 83.18 460.98 84.06 460.98 85.14 L 460.98 85.16 C 460.98 86.24 461.86 87.12 462.95 87.12 L 549.37 87.12 C 550.45 87.12 551.33 86.24 551.33 85.16 L 551.33 85.14 C 551.33 84.06 550.45 83.18 549.37 83.18 Z" fill="#ffffff" fill-rule="nonzero" node-id="300" stroke="none" target-height="3.9459991" target-width="90.346985" target-x="460.984" target-y="83.1775"></path><path d="M 406.32 93.04 C 422.95 93.04 436.43 79.50 436.43 62.79 C 436.43 46.08 422.95 32.54 406.32 32.54 C 389.68 32.54 376.20 46.08 376.20 62.79 C 376.20 79.50 389.68 93.04 406.32 93.04 Z" fill="#71dcff" fill-rule="nonzero" node-id="302" stroke="none" target-height="60.5058" target-width="60.231995" target-x="376.2" target-y="32.5371"></path><g node-id="497"><path d="M 397.70 59.02 C 390.02 58.30 380.51 67.35 376.71 71.97 C 376.91 75.48 377.67 82.99 379.11 84.92 C 380.55 86.85 395.30 92.75 402.49 95.46 C 417.98 93.75 446.44 86.67 436.37 71.97 C 423.78 53.60 407.29 59.93 397.70 59.02 Z" fill="#ffffff" fill-rule="nonzero" group-id="1" node-id="306" stroke="none" target-height="41.857998" target-width="69.728" target-x="376.713" target-y="53.6022"></path></g><path d="M 422.02 24.89 C 421.35 19.48 416.13 18.69 413.60 18.97 C 412.20 18.13 409.39 14.74 403.50 15.59 C 397.61 16.44 390.88 19.82 392.56 27.42 C 392.56 27.42 391.15 42.08 401.92 42.08 C 401.92 45.47 410.34 62.72 410.34 52.40 C 410.34 42.08 408.90 49.85 415.73 42.08 C 419.93 40.57 422.86 31.65 422.02 24.89 Z" fill="#2c2770" fill-rule="nonzero" node-id="309" stroke="none" target-height="47.9756" target-width="31.977997" target-x="390.881" target-y="14.7445"></path><path d="M 415.13 19.88 C 420.60 19.88 425.03 15.43 425.03 9.94 C 425.03 4.45 420.60 0.00 415.13 0.00 C 409.67 0.00 405.24 4.45 405.24 9.94 C 405.24 15.43 409.67 19.88 415.13 19.88 Z" fill="#2c2770" fill-rule="nonzero" node-id="311" stroke="none" target-height="19.875" target-width="19.78601" target-x="405.241" target-y="0"></path><path d="M 417.81 30.81 L 417.81 33.34 C 418.93 33.06 421.18 33.00 421.18 35.03 C 421.18 37.57 419.49 39.26 417.81 38.41 C 417.59 41.05 416.18 46.25 411.99 48.42 C 412.14 50.41 412.57 53.26 413.60 55.32 C 414.95 58.03 417.53 59.27 418.65 59.55 C 416.97 61.52 412.26 65.47 406.87 65.47 C 401.48 65.47 397.33 61.52 395.93 59.55 C 396.77 59.27 398.96 58.20 400.98 56.17 C 402.57 54.57 402.87 50.77 402.79 47.99 C 399.30 45.63 398.23 40.89 397.61 38.41 C 396.49 38.70 394.25 38.58 394.25 35.88 C 394.25 33.17 396.77 33.06 397.61 33.34 L 397.61 30.81 C 399.30 31.09 403.67 30.98 407.71 28.27 C 411.75 25.57 412.76 24.33 412.76 24.04 C 412.76 25.45 413.38 28.05 414.44 29.12 C 416.13 30.81 417.25 30.52 417.81 30.81 Z" fill="#ffae64" fill-rule="nonzero" node-id="313" stroke="none" target-height="41.422997" target-width="26.928986" target-x="394.247" target-y="24.0435"></path><path d="M 410.76 42.38 L 406.94 44.30 C 407.21 44.85 408.08 45.57 409.40 45.13 C 410.71 44.69 410.86 43.29 410.76 42.38 Z" fill="#ffffff" fill-rule="nonzero" node-id="315" stroke="none" target-height="3.186901" target-width="3.9200134" target-x="406.935" target-y="42.3788"></path><path d="M 402.56 30.84 L 399.82 30.84 C 399.37 30.84 399.00 31.21 399.00 31.66 L 399.00 31.67 C 399.00 32.12 399.37 32.49 399.82 32.49 L 402.56 32.49 C 403.01 32.49 403.38 32.12 403.38 31.67 L 403.38 31.66 C 403.38 31.21 403.01 30.84 402.56 30.84 Z" fill="#2c2770" fill-rule="nonzero" node-id="317" stroke="none" target-height="1.6484013" target-width="4.375" target-x="399.004" target-y="30.8402"></path><path d="M 413.50 30.84 L 410.76 30.84 C 410.31 30.84 409.94 31.21 409.94 31.66 L 409.94 31.67 C 409.94 32.12 410.31 32.49 410.76 32.49 L 413.50 32.49 C 413.95 32.49 414.32 32.12 414.32 31.67 L 414.32 31.66 C 414.32 31.21 413.95 30.84 413.50 30.84 Z" fill="#2c2770" fill-rule="nonzero" node-id="319" stroke="none" target-height="1.6484013" target-width="4.376007" target-x="409.943" target-y="30.8402"></path><path d="M 411.86 35.41 C 412.41 35.41 412.86 34.96 412.86 34.41 C 412.86 33.86 412.41 33.41 411.86 33.41 C 411.31 33.41 410.86 33.86 410.86 34.41 C 410.86 34.96 411.31 35.41 411.86 35.41 Z" fill="#000000" fill-rule="nonzero" node-id="321" stroke="none" target-height="2" target-width="2" target-x="410.857" target-y="33.4116"></path><path d="M 405.57 31.94 L 405.57 41.83 L 408.03 41.83" fill="none" node-id="323" stroke="#000000" stroke-linecap="butt" stroke-width="0.6" target-height="9.8902" target-width="2.461029" target-x="405.567" target-y="31.9391"></path><path d="M 401.46 35.41 C 402.02 35.41 402.46 34.96 402.46 34.41 C 402.46 33.86 402.02 33.41 401.46 33.41 C 400.91 33.41 400.46 33.86 400.46 34.41 C 400.46 34.96 400.91 35.41 401.46 35.41 Z" fill="#000000" fill-rule="nonzero" node-id="325" stroke="none" target-height="2" target-width="2" target-x="400.465" target-y="33.4116"></path><path d="M 419.24 34.96 C 419.51 35.60 419.57 36.94 417.60 37.16" fill="none" node-id="327" stroke="#000000" stroke-linecap="butt" stroke-width="0.6" target-height="2.1977997" target-width="1.9689941" target-x="417.601" target-y="34.9611"></path><path d="M 395.86 34.96 C 395.59 35.60 395.53 36.94 397.50 37.16" fill="none" node-id="329" stroke="#000000" stroke-linecap="butt" stroke-width="0.6" target-height="2.1977997" target-width="1.9689941" target-x="395.532" target-y="34.9611"></path><path d="M 402.01 47.60 C 402.74 48.06 405.07 49.25 407.48 49.25 C 409.77 49.25 411.90 48.50 412.58 48.19 L 412.68 48.15 C 412.65 48.16 412.62 48.18 412.58 48.19 L 401.74 53.37 L 402.01 47.60 Z" fill="#ff8282" fill-rule="nonzero" group-id="2" node-id="333" stroke="none" target-height="5.7693024" target-width="10.938995" target-x="401.739" target-y="47.5986"></path><path d="M 306.10 614.28 L 294.30 604.16 C 288.02 598.78 289.23 582.35 289.23 582.35 L 272.35 581.44 L 272.35 599.68 L 269.61 609.26 L 304.74 616.11 L 306.10 614.28 Z" fill="#ffae64" fill-rule="nonzero" node-id="336" stroke="none" target-height="34.66797" target-width="36.492004" target-x="269.612" target-y="581.437"></path><path d="M 300.21 625.23 L 311.49 625.23 C 312.96 625.23 314.31 624.45 315.05 623.18 C 316.17 621.27 315.58 618.81 313.74 617.58 C 311.51 616.10 308.25 613.89 304.28 611.09 C 296.52 605.61 293.33 601.96 293.33 601.96 C 293.33 601.96 288.77 604.70 281.93 604.70 C 275.09 604.70 271.44 599.68 271.44 599.68 C 268.50 607.02 268.39 615.19 271.14 622.61 L 271.44 623.40 L 284.67 624.32 L 286.95 622.49 L 292.98 624.22 C 295.33 624.89 297.77 625.23 300.21 625.23 Z" fill="#2c2770" fill-rule="nonzero" node-id="338" stroke="none" target-height="25.545044" target-width="47.774017" target-x="268.395" target-y="599.683"></path><path d="M 183.85 614.28 L 195.66 604.16 C 201.93 598.78 200.73 582.35 200.73 582.35 L 217.61 581.44 L 217.61 599.68 L 220.35 609.26 L 185.22 616.11 L 183.85 614.28 Z" fill="#ffae64" fill-rule="nonzero" node-id="340" stroke="none" target-height="34.66797" target-width="36.492996" target-x="183.854" target-y="581.437"></path><path d="M 189.75 625.23 L 178.47 625.23 C 177.00 625.23 175.65 624.45 174.91 623.18 C 173.79 621.27 174.38 618.81 176.22 617.58 C 178.45 616.10 181.71 613.89 185.68 611.09 C 193.43 605.61 196.63 601.96 196.63 601.96 C 196.63 601.96 201.19 604.70 208.03 604.70 C 214.87 604.70 218.52 599.68 218.52 599.68 C 221.46 607.02 221.56 615.19 218.82 622.61 L 218.52 623.40 L 205.29 624.32 L 203.01 622.49 L 196.98 624.22 C 194.63 624.89 192.19 625.23 189.75 625.23 Z" fill="#2c2770" fill-rule="nonzero" node-id="342" stroke="none" target-height="25.545044" target-width="47.774002" target-x="173.79" target-y="599.683"></path><path d="M 222.98 329.05 L 226.73 310.48 L 302.91 308.20 L 307.62 343.96 C 309.04 354.77 309.50 365.68 308.99 376.56 L 298.81 594.21 L 271.89 594.21 L 266.42 376.17 L 226.73 594.21 L 198.00 594.21 L 220.35 384.83 L 220.14 382.66 C 218.46 364.74 219.42 346.68 222.98 329.05 Z" fill="#2c2770" fill-rule="nonzero" node-id="344" stroke="none" target-height="286.00903" target-width="111.502014" target-x="197.995" target-y="308.201"></path><path d="M 231.29 308.66 C 228.86 320.82 224.00 355.73 224.00 398.06 C 224.00 398.06 208.79 547.07 201.19 595.12" fill="none" group-id="3" node-id="348" stroke="#ffffff" stroke-linecap="butt" stroke-width="1" target-height="286.465" target-width="30.106003" target-x="201.189" target-y="308.657"></path><path d="M 266.88 376.62 C 269.61 383.47 275.18 406.27 275.54 442.77 C 275.91 479.26 275.69 558.93 275.54 594.21" fill="none" group-id="3" node-id="350" stroke="#ffffff" stroke-linecap="butt" stroke-width="1" target-height="217.58603" target-width="9.032013" target-x="266.875" target-y="376.624"></path><path d="M 359.64 189.53 L 337.58 200.73 L 340.00 225.04 L 363.14 214.83 C 375.71 209.28 384.55 197.67 386.56 184.08 L 394.48 130.37 L 400.86 123.10 L 405.81 116.69 C 407.50 114.49 408.13 111.65 407.52 108.94 C 407.07 106.97 405.75 105.32 403.92 104.47 L 394.71 100.16 L 400.78 85.53 C 401.37 84.10 400.55 82.49 399.06 82.13 C 397.97 81.86 396.83 82.35 396.28 83.33 L 386.98 99.76 L 384.38 99.32 C 383.08 99.11 381.80 99.76 381.20 100.93 L 378.19 106.92 C 377.35 108.58 377.12 110.47 377.53 112.28 L 379.90 122.79 L 359.64 189.53 Z" fill="#ff9330" fill-rule="nonzero" node-id="353" stroke="none" target-height="143.1814" target-width="70.554016" target-x="337.576" target-y="81.8636"></path><path d="M 401.04 103.18 L 395.57 113.68 C 395.02 114.72 393.77 115.17 392.69 114.69 C 391.67 114.25 391.13 113.11 391.44 112.04 L 392.34 108.84" fill="none" node-id="355" stroke="#000000" stroke-linecap="butt" stroke-width="1" target-height="11.985001" target-width="9.906982" target-x="391.13" target-y="103.181"></path><path d="M 406.03 105.63 L 399.43 115.57 C 398.81 116.51 397.57 116.80 396.59 116.25 C 395.60 115.68 395.23 114.44 395.75 113.42 L 396.01 112.91" fill="none" node-id="357" stroke="#000000" stroke-linecap="butt" stroke-width="1" target-height="11.168999" target-width="10.8029785" target-x="395.226" target-y="105.634"></path><path d="M 406.88 113.25 L 401.51 120.78 C 400.83 121.73 399.54 122.02 398.52 121.44 C 397.53 120.88 397.11 119.68 397.52 118.62 L 398.51 116.07" fill="none" node-id="359" stroke="#000000" stroke-linecap="butt" stroke-width="1" target-height="8.767998" target-width="9.768005" target-x="397.107" target-y="113.25"></path><path d="M 388.83 100.57 L 398.15 104.53 C 398.93 104.86 399.32 105.75 399.04 106.55 C 398.44 108.29 396.73 109.40 394.89 109.25 L 386.37 108.56 C 388.02 109.63 390.27 115.53 390.50 121.65" fill="none" node-id="361" stroke="#000000" stroke-linecap="butt" stroke-width="1" target-height="21.079002" target-width="12.953003" target-x="386.371" target-y="100.567"></path><path d="M 225.58 210.61 L 246.23 205.19 L 299.68 205.19 C 306.12 205.19 312.53 204.30 318.73 202.54 L 349.98 193.71 L 355.46 221.75 L 309.39 249.69 L 305.25 266.77 L 308.87 292.48 C 310.33 302.86 302.13 312.09 291.64 311.85 L 229.81 310.42 C 225.28 310.31 221.75 306.48 222.01 301.96 L 224.03 267.23 L 216.73 281.26 L 190.33 275.56 L 199.74 236.91 C 202.87 224.06 212.79 213.96 225.58 210.61 Z" fill="#54b7ff" fill-rule="nonzero" node-id="363" stroke="none" target-height="118.38101" target-width="165.128" target-x="190.329" target-y="193.706"></path><path d="M 246.23 205.19 L 225.58 210.61 C 212.79 213.96 202.87 224.06 199.74 236.91 L 190.33 275.56 L 216.73 281.26 L 224.03 267.23 L 191.25 468.84 C 190.76 471.83 193.03 474.57 196.06 474.64 L 220.28 475.25 L 250.73 362.50 L 250.73 212.00 L 277.23 212.00 L 283.23 362.50 L 300.17 477.24 L 324.95 477.86 C 328.00 477.93 330.40 475.29 330.04 472.26 L 305.25 266.77 L 309.39 249.69 L 355.46 221.75 L 349.98 193.71 L 318.73 202.54 C 312.53 204.30 306.12 205.19 299.68 205.19 L 246.23 205.19 Z" fill="#ffe071" fill-rule="evenodd" node-id="365" stroke="none" target-height="284.226" target-width="165.128" target-x="190.329" target-y="193.706"></path><path d="M 286.73 164.00 L 273.73 162.00" fill="none" node-id="367" stroke="#000000" stroke-linecap="butt" stroke-width="1" target-height="2" target-width="13" target-x="273.729" target-y="162"></path><path d="M 246.38 200.62 C 248.25 195.93 247.94 180.67 247.55 173.63 C 256.16 175.20 273.03 181.03 271.62 191.82 C 270.21 202.61 274.17 205.31 276.32 205.31 C 278.67 210.39 280.19 221.15 267.51 223.49 C 254.83 225.84 244.22 214.69 240.51 208.83 C 241.68 208.05 244.50 205.31 246.38 200.62 Z" fill="#ff9330" fill-rule="nonzero" node-id="369" stroke="none" target-height="52.20401" target-width="39.686996" target-x="240.506" target-y="173.635"></path><path d="M 273.38 201.32 C 254.38 199.26 248.26 183.25 247.57 175.51 L 273.38 189.96 C 281.29 194.61 292.38 203.39 273.38 201.32 Z" fill="#d76767" fill-rule="nonzero" group-id="4" node-id="373" stroke="none" target-height="27.876007" target-width="44.808014" target-x="247.568" target-y="175.51"></path><path d="M 248.07 175.24 C 247.69 181.67 255.53 193.36 269.87 192.77 C 278.24 192.43 280.36 182.86 282.49 172.31 C 284.01 164.80 286.89 156.78 285.93 151.27 L 273.31 147.18 C 275.03 149.52 274.47 149.00 268.73 149.00 C 263.05 149.00 260.83 145.75 258.73 144.00 C 257.58 151.01 248.73 143.67 248.73 147.18 C 248.73 149.98 250.73 168.36 250.73 170.50 C 248.73 170.50 249.77 164.00 248.07 162.96 C 246.16 161.79 242.33 160.97 242.33 167.05 C 242.33 173.13 246.16 175.04 248.07 175.24 Z" fill="#ff9330" fill-rule="nonzero" node-id="376" stroke="none" target-height="49.68599" target-width="44.554993" target-x="242.331" target-y="143.671"></path><path d="M 248.73 170.50 C 248.73 170.50 249.73 162.50 246.73 162.50 C 240.41 162.50 242.73 170.00 242.73 170.00 C 236.90 159.00 238.73 138.50 255.73 133.50 C 281.39 125.95 293.23 149.79 285.73 151.00 C 270.23 153.50 258.73 146.00 256.73 147.50 C 254.73 149.00 252.73 163.00 251.73 168.00 C 250.93 172.00 249.56 171.67 248.73 170.50 Z" fill="#2c2770" fill-rule="nonzero" node-id="378" stroke="none" target-height="46.045998" target-width="56.333008" target-x="236.896" target-y="125.954"></path><path d="M 265.55 178.16 L 271.94 181.35 C 271.48 182.26 270.02 183.45 267.83 182.72 C 265.64 181.99 265.40 179.68 265.55 178.16 Z" fill="#ffffff" fill-rule="nonzero" node-id="380" stroke="none" target-height="5.2910004" target-width="6.5379944" target-x="265.401" target-y="178.156"></path><path d="M 279.24 159.00 L 283.80 159.00 C 284.56 159.00 285.17 159.61 285.17 160.37 C 285.17 161.12 284.56 161.73 283.80 161.73 L 279.24 161.73 C 278.48 161.73 277.87 161.12 277.87 160.37 C 277.87 159.61 278.48 159.00 279.24 159.00 Z" fill="#2c2770" fill-rule="nonzero" node-id="382" stroke="none" target-height="2.7369995" target-width="7.299011" target-x="277.869" target-y="158.997"></path><path d="M 260.99 159.00 L 265.55 159.00 C 266.31 159.00 266.92 159.61 266.92 160.37 C 266.92 161.12 266.31 161.73 265.55 161.73 L 260.99 161.73 C 260.24 161.73 259.62 161.12 259.62 160.37 C 259.62 159.61 260.24 159.00 260.99 159.00 Z" fill="#2c2770" fill-rule="nonzero" node-id="384" stroke="none" target-height="2.7369995" target-width="7.299011" target-x="259.623" target-y="158.997"></path><path d="M 263.73 167.29 C 262.97 167.29 262.36 166.68 262.36 165.93 C 262.36 165.17 262.97 164.56 263.73 164.56 C 264.48 164.56 265.10 165.17 265.10 165.93 C 265.10 166.68 264.48 167.29 263.73 167.29 Z" fill="#000000" fill-rule="nonzero" node-id="386" stroke="none" target-height="2.7359924" target-width="2.736023" target-x="262.36" target-y="164.559"></path><path d="M 274.22 160.82 L 274.22 177.24 L 270.12 177.24" fill="none" node-id="388" stroke="#000000" stroke-linecap="butt" stroke-width="1" target-height="16.42099" target-width="4.105011" target-x="270.115" target-y="160.822"></path><path d="M 279.06 167.29 C 278.31 167.29 277.69 166.68 277.69 165.93 C 277.69 165.17 278.31 164.56 279.06 164.56 C 279.82 164.56 280.43 165.17 280.43 165.93 C 280.43 166.68 279.82 167.29 279.06 167.29 Z" fill="#000000" fill-rule="nonzero" node-id="390" stroke="none" target-height="2.7359924" target-width="2.7369995" target-x="277.693" target-y="164.559"></path><path d="M 271.73 165.50 C 271.73 168.81 269.04 171.50 265.73 171.50 C 262.42 171.50 259.73 168.81 259.73 165.50 C 259.73 164.67 259.90 164.07 260.17 163.62 C 260.44 163.18 260.83 162.85 261.35 162.61 C 262.41 162.11 263.93 162.00 265.73 162.00 C 267.53 162.00 269.05 162.11 270.11 162.61 C 270.63 162.85 271.02 163.18 271.29 163.62 C 271.56 164.07 271.73 164.67 271.73 165.50 Z" fill="none" node-id="392" stroke="#000000" stroke-linecap="butt" stroke-width="1" target-height="9.5" target-width="12" target-x="259.729" target-y="162"></path><path d="M 275.17 163.62 C 274.05 162.58 272.76 162.58 271.29 163.62" fill="none" node-id="394" stroke="#000000" stroke-linecap="butt" stroke-width="1" target-height="1.0429993" target-width="3.8770142" target-x="271.291" target-y="162.576"></path><path d="M 286.73 165.50 C 286.73 168.81 284.04 171.50 280.73 171.50 C 277.42 171.50 274.73 168.81 274.73 165.50 C 274.73 164.67 274.90 164.07 275.17 163.62 C 275.44 163.18 275.83 162.85 276.35 162.61 C 277.41 162.11 278.93 162.00 280.73 162.00 C 282.53 162.00 284.05 162.11 285.11 162.61 C 285.63 162.85 286.02 163.18 286.29 163.62 C 286.56 164.07 286.73 164.67 286.73 165.50 Z" fill="none" node-id="396" stroke="#000000" stroke-linecap="butt" stroke-width="1" target-height="9.5" target-width="12" target-x="274.729" target-y="162"></path><path d="M 259.73 164.00 L 246.73 162.00" fill="none" node-id="398" stroke="#000000" stroke-linecap="butt" stroke-width="1" target-height="2" target-width="13" target-x="246.729" target-y="162"></path><path d="M 348.96 259.46 L 297.93 266.60 C 297.20 266.70 296.59 267.18 296.33 267.87 L 282.40 304.72 C 281.86 306.14 283.03 307.61 284.53 307.41 L 334.99 300.63 C 335.69 300.54 336.29 300.08 336.56 299.43 L 352.06 262.88 C 352.44 262.00 352.13 260.97 351.33 260.44 L 350.34 259.78 C 349.94 259.51 349.44 259.39 348.96 259.46 Z" fill="#2c2770" fill-rule="nonzero" node-id="400" stroke="none" target-height="48.217987" target-width="70.578" target-x="281.861" target-y="259.393"></path><path d="M 350.03 261.58 L 301.69 268.35 C 299.88 268.60 298.35 269.82 297.70 271.53 L 286.18 302.02 C 284.84 305.56 287.77 309.24 291.52 308.74 L 335.25 302.86 C 337.03 302.63 338.54 301.46 339.21 299.81 L 353.23 265.69 C 354.11 263.55 352.33 261.26 350.03 261.58 Z" fill="#6b8cff" fill-rule="nonzero" node-id="402" stroke="none" target-height="47.984985" target-width="69.26901" target-x="284.836" target-y="261.259"></path><path d="M 322.62 289.05 C 324.83 287.39 325.40 284.43 323.90 282.45 C 322.41 280.46 319.41 280.20 317.20 281.87 C 315.00 283.53 314.42 286.48 315.92 288.47 C 317.42 290.45 320.42 290.71 322.62 289.05 Z" fill="#2c2770" fill-rule="nonzero" node-id="404" stroke="none" target-height="10.511993" target-width="10.977997" target-x="314.423" target-y="280.203"></path><path d="M 269.11 289.45 L 215.23 281.00 L 190.73 275.50 L 188.19 288.54 C 186.38 297.78 193.45 306.38 202.87 306.41 L 265.11 306.58 L 271.25 310.12 C 271.44 310.22 271.63 310.31 271.82 310.39 L 280.24 313.60 C 280.34 313.63 280.44 313.66 280.54 313.69 L 294.50 316.66 C 295.23 316.82 295.98 316.53 296.42 315.93 C 297.21 314.85 296.64 313.30 295.34 312.99 L 285.76 310.66 L 300.65 310.66 C 301.23 310.66 301.75 310.35 302.02 309.85 C 302.55 308.87 301.91 307.67 300.80 307.57 L 288.86 306.42 L 306.48 304.86 C 307.15 304.80 307.75 304.37 308.01 303.75 C 308.51 302.57 307.70 301.25 306.42 301.18 L 290.51 300.23 L 305.33 297.89 C 306.35 297.73 307.13 296.92 307.26 295.91 C 307.43 294.56 306.40 293.35 305.04 293.31 L 285.76 292.77 L 287.21 291.86 L 290.21 283.86 L 281.19 285.36 C 280.75 285.44 280.31 285.55 279.88 285.70 L 269.11 289.45 Z" fill="#ff9330" fill-rule="nonzero" node-id="406" stroke="none" target-height="41.31601" target-width="122.13202" target-x="186.383" target-y="275.5"></path><path d="M 200.37 339.93 C 207.77 331.19 226.46 334.40 233.23 337.80 C 215.34 370.37 199.55 347.37 194.07 380.86 C 191.72 395.19 174.23 381.56 175.57 406.71 C 176.74 428.54 161.78 430.43 160.04 442.19 C 158.29 453.95 153.57 463.94 143.41 467.37 C 128.55 472.37 117.14 454.29 128.36 445.78 C 139.58 437.28 117.73 424.68 134.93 414.63 C 152.12 404.57 133.69 381.28 155.36 375.26 C 177.03 369.24 169.06 356.40 176.06 349.65 C 183.06 342.89 191.12 350.87 200.37 339.93 Z" fill="#6b8cff" fill-rule="nonzero" node-id="408" stroke="none" target-height="141.18198" target-width="116.089005" target-x="117.142" target-y="331.187"></path><path d="M 123.20 271.92 C 126.96 259.50 144.44 260.92 151.94 266.42 C 141.44 275.92 125.66 275.56 134.89 312.99 C 138.84 329.01 116.90 322.33 129.49 348.02 C 140.41 370.31 123.01 378.86 126.44 391.92 C 129.87 404.99 132.19 417.34 123.20 425.42 C 110.05 437.23 94.54 422.28 102.36 408.42 C 110.19 394.56 84.70 392.05 98.02 373.92 C 111.34 355.79 82.62 343.32 102.36 327.42 C 122.11 311.52 101.20 303.58 105.44 293.42 C 109.68 283.26 118.49 287.45 123.20 271.92 Z" fill="#1be3b3" fill-rule="nonzero" node-id="410" stroke="none" target-height="177.733" target-width="69.320496" target-x="82.6205" target-y="259.499"></path><path d="M 28.12 340.77 C 21.36 333.72 5.60 337.44 0.00 340.69 C 16.96 367.44 29.21 347.05 35.64 375.24 C 38.39 387.31 52.59 374.79 52.76 396.25 C 52.91 414.88 65.76 415.69 67.87 425.60 C 69.97 435.51 74.52 443.76 83.36 446.13 C 96.29 449.60 105.07 433.62 95.06 426.98 C 85.05 420.34 103.02 408.47 87.83 400.83 C 72.64 393.18 87.14 372.40 68.35 368.43 C 49.56 364.45 55.68 353.12 49.36 347.74 C 43.04 342.37 36.58 349.58 28.12 340.77 Z" fill="#54b7ff" fill-rule="nonzero" node-id="412" stroke="none" target-height="115.882996" target-width="105.07" target-x="0" target-y="333.719"></path><path d="M 115.24 482.71 C 113.49 443.32 106.25 334.86 128.44 281.53 C 130.38 276.88 134.44 266.92 144.94 266.92" fill="none" node-id="414" stroke="#4f4f4f" stroke-linecap="butt" stroke-width="1" target-height="215.794" target-width="38.693993" target-x="106.247" target-y="266.921"></path><path d="M 94.68 493.21 C 93.67 455.58 77.61 373.42 21.45 345.85" fill="none" node-id="416" stroke="#4f4f4f" stroke-linecap="butt" stroke-width="1" target-height="147.35999" target-width="73.2221" target-x="21.4541" target-y="345.851"></path><path d="M 132.61 493.53 C 136.16 452.68 158.96 364.41 221.80 338.11" fill="none" node-id="418" stroke="#4f4f4f" stroke-linecap="butt" stroke-width="1" target-height="155.423" target-width="89.188995" target-x="132.612" target-y="338.105"></path><path d="M 82.44 475.42 L 142.44 475.42 L 157.91 591.46 C 160.31 609.44 146.32 625.42 128.18 625.42 L 96.71 625.42 C 78.56 625.42 64.57 609.44 66.97 591.46 L 82.44 475.42 Z" fill="#a3baff" fill-rule="nonzero" node-id="420" stroke="none" target-height="150.00003" target-width="95.738396" target-x="64.5716" target-y="475.421"></path><path d="M 150.44 475.42 L 73.44 475.42 L 73.44 486.42 L 150.44 486.42 L 150.44 475.42 Z" fill="#ccd9ff" fill-rule="nonzero" node-id="422" stroke="none" target-height="11" target-width="77.0003" target-x="73.4407" target-y="475.421"></path><path d="M 889.40 620.57 C 891.43 620.57 893.02 618.82 892.84 616.80 L 876.63 443.00 L 866.69 444.07 L 885.97 617.50 C 886.17 619.25 887.64 620.57 889.40 620.57 Z" fill="#627ac1" fill-rule="evenodd" node-id="424" stroke="none" target-height="177.568" target-width="26.337036" target-x="866.688" target-y="443"></path><path d="M 860.40 620.57 C 862.43 620.57 864.02 618.82 863.84 616.80 L 847.63 443.00 L 837.69 444.07 L 856.97 617.50 C 857.17 619.25 858.64 620.57 860.40 620.57 Z" fill="#627ac1" fill-rule="evenodd" node-id="426" stroke="none" target-height="177.568" target-width="26.337036" target-x="837.688" target-y="443"></path><path d="M 773.48 620.57 C 771.44 620.57 769.85 618.82 770.04 616.80 L 786.25 443.00 L 796.19 444.07 L 776.90 617.50 C 776.71 619.25 775.23 620.57 773.48 620.57 Z" fill="#627ac1" fill-rule="evenodd" node-id="428" stroke="none" target-height="177.568" target-width="26.336975" target-x="769.851" target-y="443"></path><path d="M 771.19 431.00 L 880.19 431.00 C 884.61 431.00 888.19 434.58 888.19 439.00 C 888.19 443.42 884.61 447.00 880.19 447.00 L 771.19 447.00 C 766.77 447.00 763.19 443.42 763.19 439.00 C 763.19 434.58 766.77 431.00 771.19 431.00 Z" fill="#a3baff" fill-rule="nonzero" node-id="430" stroke="none" target-height="16" target-width="125" target-x="763.188" target-y="431"></path><path d="M 739.50 614.05 L 751.30 603.94 C 757.58 598.56 756.38 582.12 756.38 582.12 L 773.25 581.21 L 773.25 599.46 L 775.99 609.03 L 740.87 615.88 L 739.50 614.05 Z" fill="#ffae64" fill-rule="nonzero" node-id="432" stroke="none" target-height="34.66803" target-width="36.49298" target-x="739.499" target-y="581.209"></path><path d="M 743.05 614.75 L 774.17 606.75 C 776.92 609.23 777.88 613.14 776.60 616.61 L 774.17 623.17 L 760.94 624.09 L 760.03 620.89 L 753.29 623.42 C 750.50 624.47 747.56 625.00 744.59 625.00 L 734.07 625.00 C 732.63 625.00 731.30 624.24 730.57 622.99 C 729.45 621.07 730.09 618.61 732.00 617.48 L 745.43 609.49 L 741.81 612.12 C 741.08 612.66 740.99 613.72 741.64 614.37 C 742.01 614.74 742.55 614.88 743.05 614.75 Z" fill="#2c2770" fill-rule="nonzero" node-id="434" stroke="none" target-height="18.245972" target-width="48.429993" target-x="729.454" target-y="606.754"></path><path d="M 792.50 614.43 L 804.30 604.32 C 810.58 598.94 809.38 582.50 809.38 582.50 L 826.25 581.59 L 826.25 599.84 L 828.99 609.42 L 793.87 616.26 L 792.50 614.43 Z" fill="#ffae64" fill-rule="nonzero" node-id="436" stroke="none" target-height="34.66803" target-width="36.492004" target-x="792.499" target-y="581.592"></path><path d="M 796.05 615.14 L 827.17 607.14 C 829.92 609.62 830.88 613.52 829.60 617.00 L 827.17 623.56 L 813.94 624.47 L 813.03 621.28 L 806.28 623.80 C 803.50 624.85 800.56 625.38 797.59 625.38 L 787.07 625.38 C 785.63 625.38 784.30 624.62 783.57 623.38 C 782.45 621.46 783.09 618.99 785.00 617.86 L 798.43 609.87 L 794.81 612.50 C 794.08 613.04 793.99 614.11 794.64 614.75 C 795.01 615.12 795.55 615.27 796.05 615.14 Z" fill="#2c2770" fill-rule="nonzero" node-id="438" stroke="none" target-height="18.245972" target-width="48.429993" target-x="782.453" target-y="607.137"></path><path d="M 804.25 594.91 L 829.23 594.91 L 829.23 461.00 L 861.48 444.33 C 879.81 434.86 888.59 413.52 882.24 393.89 L 807.23 392.50 L 744.86 432.30 C 736.56 437.60 732.14 447.26 733.57 457.00 L 753.73 594.91 L 776.23 594.91 L 777.73 463.00 L 785.23 459.07 C 785.18 460.31 785.23 461.56 785.41 462.81 L 804.25 594.91 Z" fill="#2c2770" fill-rule="nonzero" node-id="440" stroke="none" target-height="202.41101" target-width="156.44604" target-x="732.144" target-y="392.5"></path><path d="M 882.73 394.00 C 879.73 420.50 869.73 436.00 820.23 454.50 L 825.73 595.50" fill="none" node-id="442" stroke="#ffffff" stroke-linecap="butt" stroke-width="1" target-height="201.5" target-width="62.5" target-x="820.228" target-y="394"></path><path d="M 786.23 447.00 L 768.23 458.00 L 771.73 594.50" fill="none" node-id="444" stroke="#ffffff" stroke-linecap="butt" stroke-width="1" target-height="147.5" target-width="18" target-x="768.229" target-y="447"></path><path d="M 921.70 337.59 L 900.88 327.69 L 884.32 343.32 L 903.69 353.85 C 915.76 360.42 930.36 360.32 942.35 353.61 L 985.16 329.63 L 994.14 330.20 L 1001.70 330.20 C 1004.28 330.20 1006.74 329.05 1008.39 327.05 C 1009.58 325.61 1010.04 323.69 1009.64 321.86 L 1007.58 312.61 L 1021.82 308.76 C 1023.20 308.39 1023.93 306.87 1023.35 305.56 C 1022.92 304.60 1021.92 304.05 1020.88 304.19 L 1003.47 306.68 L 1002.38 304.65 C 1001.76 303.49 1000.46 302.87 999.17 303.12 L 993.38 304.23 C 991.55 304.58 989.91 305.56 988.73 306.99 L 982.46 314.56 L 921.70 337.59 Z" fill="#ffae64" fill-rule="nonzero" node-id="446" stroke="none" target-height="57.54599" target-width="139.60797" target-x="884.322" target-y="302.87"></path><path d="M 1008.94 319.00 L 998.09 320.94 C 997.01 321.13 995.97 320.45 995.70 319.39 C 995.45 318.38 995.98 317.34 996.95 316.95 L 999.82 315.81" fill="none" node-id="448" stroke="#000000" stroke-linecap="butt" stroke-width="1" target-height="5.324005" target-width="13.492004" target-x="995.448" target-y="315.805"></path><path d="M 1009.98 324.08 L 998.89 324.86 C 997.84 324.94 996.92 324.19 996.78 323.15 C 996.63 322.10 997.34 321.12 998.38 320.92 L 998.91 320.82" fill="none" node-id="450" stroke="#000000" stroke-linecap="butt" stroke-width="1" target-height="4.1130066" target-width="13.350952" target-x="996.629" target-y="320.823"></path><path d="M 1004.84 329.03 L 996.23 329.36 C 995.14 329.40 994.19 328.61 994.04 327.53 C 993.90 326.48 994.54 325.49 995.55 325.19 L 998.00 324.47" fill="none" node-id="452" stroke="#000000" stroke-linecap="butt" stroke-width="1" target-height="4.928009" target-width="10.943054" target-x="993.897" target-y="324.472"></path><path d="M 1003.93 308.51 L 1006.31 317.63 C 1006.51 318.40 1006.08 319.19 1005.32 319.44 C 1003.70 319.99 1001.91 319.36 1000.97 317.92 L 996.63 311.24 C 996.78 313.07 993.71 318.09 989.33 321.74" fill="none" node-id="454" stroke="#000000" stroke-linecap="butt" stroke-width="1" target-height="13.228973" target-width="17.179993" target-x="989.33" target-y="308.506"></path><path d="M 758.53 291.25 L 780.62 297.87 L 782.42 320.56 L 760.99 315.38 C 747.63 312.16 736.86 302.30 732.47 289.28 L 716.80 242.78 L 709.75 237.18 L 704.15 232.11 C 702.23 230.38 701.19 227.88 701.30 225.29 C 701.38 223.42 702.33 221.69 703.86 220.60 L 711.59 215.12 L 703.60 202.71 C 702.83 201.51 703.31 199.90 704.62 199.31 C 705.57 198.89 706.69 199.15 707.36 199.96 L 718.61 213.48 L 720.78 212.70 C 722.02 212.26 723.40 212.67 724.19 213.72 L 727.74 218.43 C 728.85 219.91 729.42 221.74 729.34 223.59 L 728.91 233.42 L 758.53 291.25 Z" fill="#ffae64" fill-rule="nonzero" node-id="456" stroke="none" target-height="121.67" target-width="81.23303" target-x="701.186" target-y="198.891"></path><path d="M 706.29 218.94 L 713.04 227.66 C 713.71 228.53 714.94 228.73 715.85 228.12 C 716.71 227.54 717.01 226.41 716.56 225.47 L 715.20 222.69" fill="none" node-id="458" stroke="#000000" stroke-linecap="butt" stroke-width="1" target-height="9.784012" target-width="10.72699" target-x="706.287" target-y="218.943"></path><path d="M 702.12 222.02 L 709.81 230.04 C 710.54 230.79 711.72 230.86 712.53 230.19 C 713.34 229.50 713.48 228.30 712.83 227.45 L 712.51 227.03" fill="none" node-id="460" stroke="#000000" stroke-linecap="butt" stroke-width="1" target-height="8.838989" target-width="11.360962" target-x="702.116" target-y="222.018"></path><path d="M 702.60 229.14 L 708.77 235.15 C 709.55 235.92 710.78 235.96 711.62 235.26 C 712.43 234.59 712.62 233.42 712.07 232.52 L 710.74 230.34" fill="none" node-id="462" stroke="#000000" stroke-linecap="butt" stroke-width="1" target-height="6.824005" target-width="10.018982" target-x="702.602" target-y="229.14"></path><path d="M 717.04 214.53 L 709.16 219.70 C 708.50 220.13 708.28 221.01 708.67 221.70 C 709.52 223.20 711.26 223.93 712.92 223.49 L 720.62 221.45 C 719.29 222.70 718.20 228.48 719.00 234.13" fill="none" node-id="464" stroke="#000000" stroke-linecap="butt" stroke-width="1" target-height="19.602005" target-width="12.341003" target-x="708.282" target-y="214.525"></path><path d="M 879.39 303.91 L 860.63 297.22 C 855.05 297.22 840.55 296.94 827.16 295.81 C 813.78 294.69 789.52 295.81 770.00 293.00 L 765.82 318.35 C 774.18 322.57 786.73 326.80 803.46 329.61 C 797.88 346.51 801.60 349.33 806.25 354.96 L 810.43 373.27 L 800.30 397.00 L 882.93 397.00 L 874.38 371.00 L 879.40 342.26 L 896.88 353.56 L 913.61 332.43 L 888.20 309.21 C 885.64 306.88 882.65 305.07 879.39 303.91 Z" fill="#6b8cff" fill-rule="nonzero" node-id="466" stroke="none" target-height="104.00299" target-width="147.794" target-x="765.815" target-y="292.997"></path><path d="M 795.01 280.23 C 801.85 307.59 727.50 324.93 732.51 357.77 C 737.53 390.61 864.34 468.16 909.50 444.44 C 954.66 420.72 952.84 379.21 867.08 381.04 C 781.32 382.86 761.25 345.00 781.78 324.93 C 802.31 304.86 862.52 366.44 864.34 340.89 C 866.17 315.35 789.08 307.59 820.10 288.89 C 845.52 273.57 855.68 321.28 883.50 327.21 C 905.76 331.95 918.02 323.71 921.36 319.00 C 942.50 329.19 974.64 352.39 934.13 363.70 C 893.63 375.01 824.51 360.51 795.01 351.84" fill="none" group-id="5" node-id="470" stroke="#a3b7ff" stroke-linecap="butt" stroke-width="7" target-height="194.594" target-width="247.14404" target-x="727.498" target-y="273.566"></path><path d="M 817.75 239.32 C 818.87 230.34 827.57 229.03 831.78 229.50 C 834.12 228.10 838.80 222.48 848.63 223.88 C 858.45 225.29 869.68 230.90 866.87 243.54 C 866.87 243.54 873.42 259.44 875.29 265.99 C 880.91 280.03 872.79 290.21 861.26 291.26 C 845.82 292.66 852.84 291.26 828.98 294.07 C 805.11 296.87 803.71 277.22 809.33 264.59 C 814.94 251.96 816.34 250.55 817.75 239.32 Z" fill="#2c2770" fill-rule="nonzero" node-id="473" stroke="none" target-height="74.39099" target-width="77.198975" target-x="803.711" target-y="222.482"></path><path d="M 824.76 249.15 L 824.76 253.36 C 822.89 252.89 819.15 252.80 819.15 256.17 C 819.15 260.38 821.96 263.19 824.76 261.78 C 825.13 266.16 827.48 274.79 834.48 278.39 C 834.23 281.69 833.50 286.43 831.78 289.86 C 829.54 294.35 825.23 296.40 823.36 296.87 C 826.17 300.15 834.03 306.70 843.01 306.70 C 852.00 306.70 858.92 300.15 861.26 296.87 C 859.86 296.40 856.21 294.63 852.84 291.26 C 850.18 288.61 849.68 282.30 849.81 277.69 C 855.64 273.76 857.42 265.89 858.45 261.78 C 860.32 262.25 864.07 262.06 864.07 257.57 C 864.07 253.08 859.86 252.89 858.45 253.36 L 858.45 249.15 C 855.64 249.62 848.35 249.43 841.61 244.94 C 834.87 240.45 833.19 238.39 833.19 237.92 C 833.19 240.26 832.15 244.57 830.38 246.34 C 827.57 249.15 825.70 248.68 824.76 249.15 Z" fill="#ffae64" fill-rule="nonzero" node-id="475" stroke="none" target-height="68.778" target-width="44.915955" target-x="819.15" target-y="237.921"></path><path d="M 836.52 268.37 L 842.90 271.56 C 842.45 272.47 840.99 273.66 838.80 272.93 C 836.61 272.20 836.37 269.88 836.52 268.37 Z" fill="#ffffff" fill-rule="nonzero" node-id="477" stroke="none" target-height="5.2910156" target-width="6.5390015" target-x="836.366" target-y="268.365"></path><path d="M 850.20 249.21 L 854.76 249.21 C 855.52 249.21 856.13 249.82 856.13 250.57 C 856.13 251.33 855.52 251.94 854.76 251.94 L 850.20 251.94 C 849.45 251.94 848.83 251.33 848.83 250.57 C 848.83 249.82 849.45 249.21 850.20 249.21 Z" fill="#2c2770" fill-rule="nonzero" node-id="479" stroke="none" target-height="2.7369995" target-width="7.299011" target-x="848.834" target-y="249.206"></path><path d="M 831.96 249.21 L 836.52 249.21 C 837.27 249.21 837.89 249.82 837.89 250.57 C 837.89 251.33 837.27 251.94 836.52 251.94 L 831.96 251.94 C 831.20 251.94 830.59 251.33 830.59 250.57 C 830.59 249.82 831.20 249.21 831.96 249.21 Z" fill="#2c2770" fill-rule="nonzero" node-id="481" stroke="none" target-height="2.7369995" target-width="7.299011" target-x="830.588" target-y="249.206"></path><path d="M 834.69 256.50 C 833.94 256.50 833.33 255.89 833.33 255.14 C 833.33 254.38 833.94 253.77 834.69 253.77 C 835.45 253.77 836.06 254.38 836.06 255.14 C 836.06 255.89 835.45 256.50 834.69 256.50 Z" fill="#000000" fill-rule="nonzero" node-id="483" stroke="none" target-height="2.7369995" target-width="2.736023" target-x="833.326" target-y="253.768"></path><path d="M 845.18 251.03 L 845.18 267.45 L 841.08 267.45" fill="none" node-id="485" stroke="#000000" stroke-linecap="butt" stroke-width="1" target-height="16.421997" target-width="4.1049805" target-x="841.08" target-y="251.031"></path><path d="M 852.03 256.50 C 851.27 256.50 850.66 255.89 850.66 255.14 C 850.66 254.38 851.27 253.77 852.03 253.77 C 852.78 253.77 853.40 254.38 853.40 255.14 C 853.40 255.89 852.78 256.50 852.03 256.50 Z" fill="#000000" fill-rule="nonzero" node-id="487" stroke="none" target-height="2.7369995" target-width="2.736023" target-x="850.66" target-y="253.768"></path><path d="M 822.38 256.05 C 821.92 257.11 821.83 259.33 825.12 259.70" fill="none" node-id="489" stroke="#000000" stroke-linecap="butt" stroke-width="1" target-height="3.6489868" target-width="3.2849731" target-x="821.83" target-y="256.049"></path><path d="M 861.38 256.05 C 861.83 257.11 861.92 259.33 858.64 259.70" fill="none" node-id="491" stroke="#000000" stroke-linecap="butt" stroke-width="1" target-height="3.6489868" target-width="3.2839966" target-x="858.639" target-y="256.049"></path><path d="M 851.12 277.03 C 849.90 277.79 846.01 279.77 841.99 279.77 C 838.18 279.77 834.62 278.54 833.49 278.02 L 833.33 277.94 C 833.37 277.97 833.42 277.99 833.49 278.02 L 851.57 286.61 L 851.12 277.03 Z" fill="#ff8282" fill-rule="nonzero" group-id="6" node-id="495" stroke="none" target-height="9.5789795" target-width="18.24701" target-x="833.325" target-y="277.032"></path></svg>