<?xml version="1.0" standalone="no"?><!DOCTYPE svg PUBLIC "-//W3C//DTD SVG 1.1//EN" "http://www.w3.org/Graphics/SVG/1.1/DTD/svg11.dtd"><svg height="613" node-id="1" sillyvg="true" template-height="613" template-width="684" version="1.1" viewBox="0 0 684 613" width="684" xmlns="http://www.w3.org/2000/svg" xmlns:xlink="http://www.w3.org/1999/xlink"><defs node-id="73"><mask height="499" id="mask0" maskUnits="userSpaceOnUse" node-id="7" width="278" x="194" y="93"><path d="M 194.83 98.78 C 194.83 95.63 197.38 93.09 200.53 93.09 L 259.73 93.09 C 262.27 93.09 264.50 94.77 265.20 97.20 L 267.73 105.97 C 268.43 108.41 270.67 110.08 273.20 110.08 L 392.26 110.08 C 394.67 110.08 396.81 108.58 397.62 106.32 L 401.04 96.85 C 401.85 94.59 403.99 93.09 406.39 93.09 L 465.88 93.09 C 469.03 93.09 471.58 95.63 471.58 98.78 L 471.58 585.52 C 471.58 588.66 469.03 591.21 465.88 591.21 L 200.53 591.21 C 197.38 591.21 194.83 588.66 194.83 585.52 L 194.83 98.78 Z" fill="#ffffff" fill-rule="nonzero" node-id="76" stroke="none" target-height="498.11807" target-width="276.742" target-x="194.834" target-y="93.0889"></path></mask><mask height="260" id="mask1" maskUnits="userSpaceOnUse" node-id="32" width="100" x="24" y="312"><path d="M 123.09 371.02 C 125.04 341.89 119.83 321.54 116.98 315.00 L 41.19 312.20 C 37.52 321.54 32.68 351.32 34.64 367.01 C 36.60 382.69 37.52 413.04 38.74 429.84 L 24.07 571.30 L 45.83 571.30 L 81.53 365.42 L 75.66 571.30 L 98.64 571.30 C 105.97 516.68 121.13 400.15 123.09 371.02 Z" fill="#ffffff" fill-rule="nonzero" node-id="80" stroke="none" target-height="259.096" target-width="100.9695" target-x="24.0745" target-y="312.2"></path></mask><mask height="108" id="mask2" maskUnits="userSpaceOnUse" node-id="38" width="157" x="2" y="209"><path d="M 43.95 212.53 L 58.16 209.18 L 90.68 209.18 C 104.28 209.18 117.59 213.14 128.98 220.59 L 158.66 239.99 L 145.16 274.49 L 121.32 257.49 L 118.66 274.49 L 122.52 307.15 C 123.09 311.98 119.25 316.20 114.39 316.08 L 43.74 314.46 C 38.52 314.34 34.82 309.34 36.22 304.31 L 41.53 285.25 L 35.96 271.22 L 28.66 285.25 L 2.26 279.56 L 18.38 235.26 C 22.53 223.86 32.14 215.31 43.95 212.53 Z" fill="#ffffff" fill-rule="nonzero" node-id="84" stroke="none" target-height="107.019" target-width="156.39996" target-x="2.25903" target-y="209.178"></path></mask><mask height="70" id="mask3" maskUnits="userSpaceOnUse" node-id="57" width="46" x="56" y="150"><path d="M 95.49 162.14 L 95.49 166.35 C 97.36 165.88 101.11 165.79 101.11 169.16 C 101.11 173.37 98.30 176.18 95.49 174.77 C 95.13 179.15 92.78 187.78 85.78 191.38 C 86.03 194.68 86.76 199.42 88.48 202.85 C 90.72 207.34 95.03 209.40 96.90 209.86 C 94.09 213.14 86.23 219.69 77.25 219.69 C 68.26 219.69 61.34 213.14 59.00 209.86 C 60.40 209.40 64.05 207.62 67.42 204.25 C 70.07 201.60 70.58 195.29 70.45 190.68 C 64.61 186.75 62.83 178.88 61.81 174.77 C 59.94 175.24 56.19 175.05 56.19 170.56 C 56.19 166.07 60.40 165.88 61.81 166.35 L 61.81 162.14 C 64.61 162.61 71.91 162.42 78.65 157.93 C 85.39 153.44 87.07 151.38 87.07 150.91 C 87.07 153.25 88.10 157.56 89.88 159.33 C 92.69 162.14 94.56 161.67 95.49 162.14 Z" fill="#ffffff" fill-rule="nonzero" node-id="88" stroke="none" target-height="68.778" target-width="44.9154" target-x="56.1926" target-y="150.912"></path></mask></defs><path d="M 683.03 605.99 L 61.03 605.99 L 18.53 605.99 L 18.53 317.49 C 18.53 297.06 35.10 280.49 55.53 280.49 C 75.96 280.49 92.53 263.93 92.53 243.49 L 92.53 212.24 C 92.53 174.55 123.09 143.99 160.78 143.99 L 469.03 143.99 C 501.62 143.99 528.03 170.41 528.03 202.99 C 528.03 235.58 554.45 261.99 587.03 261.99 L 605.53 261.99 C 648.33 261.99 683.03 296.69 683.03 339.49 L 683.03 605.99 Z" fill="#f3f6ff" fill-rule="nonzero" node-id="92" stroke="none" target-height="462.00003" target-width="664.50024" target-x="18.5298" target-y="143.991"></path><path d="M 500.61 218.54 C 505.08 234.76 521.85 244.30 538.07 239.83 C 554.29 235.37 563.83 218.60 559.36 202.37 C 554.90 186.15 538.13 176.62 521.90 181.08 C 505.68 185.55 496.15 202.32 500.61 218.54 Z" fill="#ffe071" fill-rule="nonzero" node-id="94" stroke="none" target-height="67.677" target-width="67.677" target-x="496.149" target-y="176.619"></path><path d="M 444.23 83.99 L 176.63 83.99 C 169.07 83.99 162.95 90.12 162.95 97.67 L 162.95 592.31 C 162.95 599.87 169.07 605.99 176.63 605.99 L 444.23 605.99 C 451.79 605.99 457.91 599.87 457.91 592.31 L 457.91 97.67 C 457.91 90.12 451.79 83.99 444.23 83.99 Z" fill="#706ac7" fill-rule="nonzero" node-id="96" stroke="none" target-height="522.0001" target-width="294.964" target-x="162.946" target-y="83.9909"></path><path d="M 465.87 83.99 L 202.82 83.99 C 194.01 83.99 186.86 91.14 186.86 99.95 L 186.86 590.03 C 186.86 598.85 194.01 605.99 202.82 605.99 L 465.87 605.99 C 474.68 605.99 481.83 598.85 481.83 590.03 L 481.83 99.95 C 481.83 91.14 474.68 83.99 465.87 83.99 Z" fill="#cfccff" fill-rule="nonzero" node-id="98" stroke="none" target-height="522.0001" target-width="294.964" target-x="186.862" target-y="83.9909"></path><path d="M 194.83 98.78 C 194.83 95.63 197.38 93.09 200.53 93.09 L 260.02 93.09 C 262.56 93.09 264.79 94.76 265.49 97.20 L 268.03 105.98 C 268.74 108.41 270.97 110.08 273.50 110.08 L 393.10 110.08 C 395.50 110.08 397.64 108.58 398.45 106.33 L 401.89 96.84 C 402.70 94.59 404.84 93.09 407.24 93.09 L 467.02 93.09 C 470.17 93.09 472.71 95.63 472.71 98.78 L 472.71 585.52 C 472.71 588.66 470.17 591.21 467.02 591.21 L 200.53 591.21 C 197.38 591.21 194.83 588.66 194.83 585.52 L 194.83 98.78 Z" fill="#282f48" fill-rule="nonzero" node-id="100" stroke="none" target-height="498.11807" target-width="277.88098" target-x="194.834" target-y="93.0889"></path><g node-id="220"><path d="M 403.24 381.38 C 414.58 259.01 485.85 228.80 520.06 228.99 L 560.89 215.91 L 574.50 702.09 L 264.30 702.09 L 177.75 597.46 C 201.67 457.58 391.90 503.75 403.24 381.38 Z" fill="#2f3b67" fill-rule="nonzero" group-id="1" node-id="104" stroke="none" target-height="486.177" target-width="396.754" target-x="177.751" target-y="215.912"></path></g><path d="M 175.47 146.55 C 175.47 143.40 172.92 140.85 169.78 140.85 C 166.63 140.85 164.09 143.40 164.09 146.55 L 164.09 286.41 C 164.09 289.56 166.63 292.11 169.78 292.11 C 172.92 292.11 175.47 289.56 175.47 286.41 L 175.47 146.55 Z" fill="#cfccff" fill-rule="nonzero" node-id="107" stroke="none" target-height="151.255" target-width="11.388992" target-x="164.085" target-y="140.854"></path><path d="M 170.92 146.55 C 170.92 143.40 168.37 140.85 165.22 140.85 C 162.08 140.85 159.53 143.40 159.53 146.55 L 159.53 286.41 C 159.53 289.56 162.08 292.11 165.22 292.11 C 168.37 292.11 170.92 289.56 170.92 286.41 L 170.92 146.55 Z" fill="#2f3b67" fill-rule="nonzero" node-id="109" stroke="none" target-height="151.255" target-width="11.3880005" target-x="159.53" target-y="140.854"></path><path d="M 222.38 78.08 C 219.51 69.26 224.13 59.71 232.69 56.76 L 321.82 26.00 L 394.35 61.30 L 434.68 185.44 C 437.55 194.27 432.93 203.81 424.37 206.77 L 295.84 251.12 C 287.28 254.08 278.02 249.32 275.15 240.50 L 222.38 78.08 Z" fill="#ffffff" fill-rule="nonzero" node-id="111" stroke="none" target-height="228.078" target-width="218.03198" target-x="219.514" target-y="26"></path><path d="M 235.38 52.08 C 232.51 43.26 237.13 33.71 245.69 30.76 L 334.82 0.00 L 407.35 35.30 L 447.68 159.44 C 450.55 168.27 445.93 177.82 437.37 180.77 L 308.84 225.12 C 300.28 228.08 291.02 223.32 288.15 214.50 L 235.38 52.08 Z" fill="#a3b7ff" fill-rule="nonzero" node-id="113" stroke="none" target-height="228.078" target-width="218.03198" target-x="232.514" target-y="0"></path><path d="M 344.65 31.13 L 334.53 0.00 L 407.53 35.51 L 375.02 46.71 C 362.46 51.05 348.86 44.07 344.65 31.13 Z" fill="#6b8cff" fill-rule="nonzero" node-id="115" stroke="none" target-height="51.0476" target-width="73" target-x="334.53" target-y="0"></path><path d="M 282.18 81.10 L 344.86 59.51 L 350.39 76.48 L 287.70 98.07 L 282.18 81.10 Z" fill="#ffe071" fill-rule="nonzero" node-id="117" stroke="none" target-height="38.553898" target-width="68.20798" target-x="282.178" target-y="59.5144"></path><path d="M 292.67 113.34 L 320.72 103.68 L 326.24 120.65 L 298.20 130.30 L 292.67 113.34 Z" fill="#ffe071" fill-rule="nonzero" node-id="119" stroke="none" target-height="26.624" target-width="33.56601" target-x="292.673" target-y="103.68"></path><path d="M 303.17 145.57 L 347.71 130.24 L 352.95 146.35 L 308.42 161.69 L 303.17 145.57 Z" fill="#ffe071" fill-rule="nonzero" node-id="121" stroke="none" target-height="31.455994" target-width="49.787018" target-x="303.167" target-y="130.235"></path><path d="M 430.18 147.12 C 452.34 139.70 464.15 115.32 456.56 92.66 C 448.97 70.00 424.86 57.64 402.70 65.06 C 380.54 72.48 368.73 96.87 376.32 119.53 C 383.91 142.19 408.02 154.54 430.18 147.12 Z" fill="#ffffff" fill-rule="nonzero" node-id="123" stroke="none" target-height="96.897705" target-width="95.414" target-x="368.733" target-y="57.6433"></path><path d="M 438.43 144.28 C 460.58 136.86 472.40 112.48 464.81 89.82 C 457.22 67.16 433.11 54.80 410.95 62.22 C 388.79 69.64 376.98 94.03 384.57 116.69 C 392.16 139.34 416.27 151.70 438.43 144.28 Z" fill="#1be3b3" fill-rule="nonzero" node-id="125" stroke="none" target-height="96.8968" target-width="95.414" target-x="376.982" target-y="54.8032"></path><path d="M 444.53 93.91 L 419.67 123.00 L 401.53 104.83 L 407.64 98.41 L 419.18 109.97 L 437.95 88.00 L 444.53 93.91 Z" fill="#2c2770" fill-rule="evenodd" node-id="127" stroke="none" target-height="35" target-width="43" target-x="401.53" target-y="88"></path><path d="M 259.23 333.97 L 286.96 396.41 L 350.38 367.14 L 342.66 337.93 L 283.51 316.40 L 259.23 333.97 Z" fill="#ffe071" fill-rule="nonzero" node-id="129" stroke="none" target-height="80.00598" target-width="91.149994" target-x="259.225" target-y="316.403"></path><path d="M 312.82 327.07 L 283.69 316.47 L 289.94 344.28 L 312.82 327.07 Z" fill="#ffae64" fill-rule="nonzero" node-id="131" stroke="none" target-height="27.816986" target-width="29.130005" target-x="283.686" target-y="316.467"></path><path d="M 342.89 338.01 L 313.76 327.41 L 320.01 355.23 L 342.89 338.01 Z" fill="#ffae64" fill-rule="nonzero" node-id="133" stroke="none" target-height="27.81601" target-width="29.129974" target-x="313.756" target-y="327.412"></path><path d="M 319.64 355.09 L 289.57 344.15 L 287.95 395.70 L 319.64 355.09 Z" fill="#ff8282" fill-rule="nonzero" node-id="135" stroke="none" target-height="51.554016" target-width="31.692993" target-x="287.95" target-y="344.15"></path><path d="M 260.27 334.02 L 350.48 366.85" fill="none" node-id="137" stroke="#000000" stroke-linecap="butt" stroke-width="2" target-height="32.834015" target-width="90.211" target-x="260.271" target-y="334.017"></path><path d="M 110.76 601.04 L 98.96 590.93 C 92.68 585.55 93.88 569.11 93.88 569.11 L 77.00 568.20 L 77.00 586.45 L 74.27 596.03 L 109.39 602.87 L 110.76 601.04 Z" fill="#ffae64" fill-rule="nonzero" node-id="139" stroke="none" target-height="34.66797" target-width="36.4924" target-x="74.2666" target-y="568.2"></path><path d="M 107.20 601.75 L 76.09 593.75 C 73.34 596.22 72.37 600.13 73.66 603.61 L 76.09 610.17 L 89.32 611.08 L 90.23 607.89 L 96.97 610.41 C 99.75 611.46 102.70 611.99 105.67 611.99 L 116.19 611.99 C 117.63 611.99 118.96 611.23 119.69 609.98 C 120.80 608.06 120.17 605.60 118.26 604.47 L 104.83 596.48 L 108.44 599.11 C 109.18 599.65 109.26 600.71 108.62 601.36 C 108.25 601.73 107.71 601.88 107.20 601.75 Z" fill="#2c2770" fill-rule="nonzero" node-id="141" stroke="none" target-height="18.246033" target-width="48.429398" target-x="72.3746" target-y="593.745"></path><path d="M 9.48 601.43 L 21.28 591.31 C 27.56 585.93 26.36 569.50 26.36 569.50 L 43.23 568.58 L 43.23 586.83 L 45.97 596.41 L 10.85 603.25 L 9.48 601.43 Z" fill="#ffae64" fill-rule="nonzero" node-id="143" stroke="none" target-height="34.66797" target-width="36.49232" target-x="9.47778" target-y="568.583"></path><path d="M 13.03 602.13 L 44.15 594.13 C 46.90 596.61 47.86 600.51 46.58 603.99 L 44.15 610.55 L 30.92 611.46 L 30.00 608.27 L 23.26 610.80 C 20.48 611.84 17.53 612.37 14.56 612.37 L 4.05 612.37 C 2.61 612.37 1.28 611.61 0.55 610.37 C -0.57 608.45 0.07 605.99 1.98 604.85 L 15.41 596.87 L 11.79 599.49 C 11.06 600.03 10.97 601.10 11.62 601.74 C 11.99 602.11 12.53 602.26 13.03 602.13 Z" fill="#2c2770" fill-rule="nonzero" node-id="145" stroke="none" target-height="18.246033" target-width="48.429672" target-x="-0.567574" target-y="594.128"></path><path d="M 123.09 371.02 C 125.04 341.89 119.83 321.54 116.98 315.00 L 41.19 312.20 C 37.52 321.54 32.68 351.32 34.64 367.01 C 36.60 382.69 37.52 413.04 38.74 429.84 L 24.07 571.30 L 45.83 571.30 L 81.53 365.42 L 75.66 571.30 L 98.64 571.30 C 105.97 516.68 121.13 400.15 123.09 371.02 Z" fill="#2c2770" fill-rule="nonzero" node-id="147" stroke="none" target-height="259.096" target-width="100.9695" target-x="24.0745" target-y="312.2"></path><path d="M 110.74 313.57 C 113.48 319.65 119.05 337.47 119.41 360.10 C 119.78 382.72 103.14 510.93 94.78 572.21" fill="none" group-id="2" node-id="151" stroke="#ffffff" stroke-linecap="butt" stroke-width="1" target-height="258.64" target-width="24.997704" target-x="94.7783" target-y="313.568"></path><path d="M 42.32 314.02 C 40.80 322.24 37.94 343.77 38.67 364.20 C 39.40 384.64 41.41 419.55 42.32 434.45 L 27.27 572.66" fill="none" group-id="2" node-id="153" stroke="#ffffff" stroke-linecap="butt" stroke-width="1" target-height="258.639" target-width="15.0531025" target-x="27.2676" target-y="314.025"></path><path d="M 43.95 212.53 L 58.16 209.18 L 88.52 208.49 C 102.85 208.16 116.93 212.25 128.86 220.18 L 158.66 239.99 L 145.16 274.49 L 121.32 257.49 L 118.66 274.49 L 117.33 308.61 C 117.16 312.90 113.63 316.30 109.33 316.30 L 44.19 316.30 C 39.01 316.30 35.20 311.45 36.42 306.42 L 41.53 285.25 L 35.96 271.22 L 28.66 285.25 L 2.26 279.56 L 18.38 235.26 C 22.53 223.86 32.14 215.31 43.95 212.53 Z" fill="#ffe071" fill-rule="nonzero" node-id="156" stroke="none" target-height="108.132" target-width="156.39996" target-x="2.25903" target-y="208.165"></path><path d="M 124.53 199.49 C 133.09 199.49 140.03 206.43 140.03 214.99 C 140.03 223.55 133.09 230.49 124.53 230.49 C 115.97 230.49 109.03 223.55 109.03 214.99 C 109.03 206.43 115.97 199.49 124.53 199.49 Z" fill="none" group-id="3" node-id="160" stroke="#d7be67" stroke-linecap="butt" stroke-width="5" target-height="31" target-width="31" target-x="109.03" target-y="199.491"></path><path d="M 16.53 224.49 C 21.22 224.49 25.03 228.30 25.03 232.99 C 25.03 237.69 21.22 241.49 16.53 241.49 C 11.84 241.49 8.03 237.69 8.03 232.99 C 8.03 228.30 11.84 224.49 16.53 224.49 Z" fill="none" group-id="3" node-id="162" stroke="#d7be67" stroke-linecap="butt" stroke-width="5" target-height="17" target-width="16.99997" target-x="8.03003" target-y="224.491"></path><path d="M 60.53 249.49 C 63.57 249.49 66.03 251.95 66.03 254.99 C 66.03 258.03 63.57 260.49 60.53 260.49 C 57.49 260.49 55.03 258.03 55.03 254.99 C 55.03 251.95 57.49 249.49 60.53 249.49 Z" fill="none" group-id="3" node-id="164" stroke="#d7be67" stroke-linecap="butt" stroke-width="3" target-height="11" target-width="11" target-x="55.03" target-y="249.491"></path><path d="M 69.53 301.49 C 77.54 301.49 84.03 307.98 84.03 315.99 C 84.03 324.00 77.54 330.49 69.53 330.49 C 61.52 330.49 55.03 324.00 55.03 315.99 C 55.03 307.98 61.52 301.49 69.53 301.49 Z" fill="none" group-id="3" node-id="166" stroke="#d7be67" stroke-linecap="butt" stroke-width="3" target-height="29" target-width="29" target-x="55.03" target-y="301.491"></path><path d="M 142.53 256.49 C 150.54 256.49 157.03 262.98 157.03 270.99 C 157.03 279.00 150.54 285.49 142.53 285.49 C 134.52 285.49 128.03 279.00 128.03 270.99 C 128.03 262.98 134.52 256.49 142.53 256.49 Z" fill="none" group-id="3" node-id="168" stroke="#d7be67" stroke-linecap="butt" stroke-width="3" target-height="29" target-width="29" target-x="128.03" target-y="256.491"></path><path d="M 102.51 152.32 C 101.39 143.33 92.69 142.02 88.48 142.49 C 86.14 141.09 81.46 135.47 71.63 136.88 C 61.81 138.28 50.58 143.89 53.39 156.53 C 53.39 156.53 51.03 180.85 68.99 180.85 C 68.99 186.49 83.03 215.13 83.03 197.99 C 83.03 180.85 80.63 193.76 92.03 180.85 C 99.03 178.35 103.92 163.54 102.51 152.32 Z" fill="#2c2770" fill-rule="nonzero" node-id="171" stroke="none" target-height="79.658005" target-width="53.3371" target-x="50.5779" target-y="135.472"></path><path d="M 91.03 143.99 C 100.14 143.99 107.53 136.60 107.53 127.49 C 107.53 118.38 100.14 110.99 91.03 110.99 C 81.92 110.99 74.53 118.38 74.53 127.49 C 74.53 136.60 81.92 143.99 91.03 143.99 Z" fill="#2c2770" fill-rule="nonzero" node-id="173" stroke="none" target-height="33" target-width="33" target-x="74.53" target-y="110.991"></path><path d="M 95.49 162.14 L 95.49 166.35 C 97.36 165.88 101.11 165.79 101.11 169.16 C 101.11 173.37 98.30 176.18 95.49 174.77 C 95.13 179.15 92.78 187.78 85.78 191.38 C 86.03 194.68 86.76 199.42 88.48 202.85 C 90.72 207.34 95.03 209.40 96.90 209.86 C 94.09 213.14 86.23 219.69 77.25 219.69 C 68.26 219.69 61.34 213.14 59.00 209.86 C 60.40 209.40 64.05 207.62 67.42 204.25 C 70.07 201.60 70.58 195.29 70.45 190.68 C 64.61 186.75 62.83 178.88 61.81 174.77 C 59.94 175.24 56.19 175.05 56.19 170.56 C 56.19 166.07 60.40 165.88 61.81 166.35 L 61.81 162.14 C 64.61 162.61 71.91 162.42 78.65 157.93 C 85.39 153.44 87.07 151.38 87.07 150.91 C 87.07 153.25 88.10 157.56 89.88 159.33 C 92.69 162.14 94.56 161.67 95.49 162.14 Z" fill="#ffae64" fill-rule="nonzero" node-id="175" stroke="none" target-height="68.778" target-width="44.9154" target-x="56.1926" target-y="150.912"></path><path d="M 83.74 181.36 L 77.35 184.55 C 77.81 185.46 79.27 186.65 81.46 185.92 C 83.65 185.19 83.89 182.88 83.74 181.36 Z" fill="#ffffff" fill-rule="nonzero" node-id="177" stroke="none" target-height="5.2910004" target-width="6.537796" target-x="77.3542" target-y="181.356"></path><path d="M 70.06 162.20 L 65.49 162.20 C 64.74 162.20 64.13 162.81 64.13 163.57 C 64.13 164.32 64.74 164.93 65.49 164.93 L 70.06 164.93 C 70.81 164.93 71.42 164.32 71.42 163.57 C 71.42 162.81 70.81 162.20 70.06 162.20 Z" fill="#2c2770" fill-rule="nonzero" node-id="179" stroke="none" target-height="2.7369995" target-width="7.2985" target-x="64.1257" target-y="162.197"></path><path d="M 88.30 162.20 L 83.74 162.20 C 82.98 162.20 82.37 162.81 82.37 163.57 C 82.37 164.32 82.98 164.93 83.74 164.93 L 88.30 164.93 C 89.06 164.93 89.67 164.32 89.67 163.57 C 89.67 162.81 89.06 162.20 88.30 162.20 Z" fill="#2c2770" fill-rule="nonzero" node-id="181" stroke="none" target-height="2.7369995" target-width="7.298401" target-x="82.3721" target-y="162.197"></path><path d="M 85.56 169.50 C 86.32 169.50 86.93 168.88 86.93 168.13 C 86.93 167.37 86.32 166.76 85.56 166.76 C 84.81 166.76 84.20 167.37 84.20 168.13 C 84.20 168.88 84.81 169.50 85.56 169.50 Z" fill="#000000" fill-rule="nonzero" node-id="183" stroke="none" target-height="2.7369995" target-width="2.7369003" target-x="84.1965" target-y="166.759"></path><path d="M 75.07 164.02 L 75.07 180.44 L 79.18 180.44" fill="none" node-id="185" stroke="#000000" stroke-linecap="butt" stroke-width="1" target-height="16.42099" target-width="4.105301" target-x="75.0735" target-y="164.022"></path><path d="M 68.23 169.50 C 68.99 169.50 69.60 168.88 69.60 168.13 C 69.60 167.37 68.99 166.76 68.23 166.76 C 67.48 166.76 66.86 167.37 66.86 168.13 C 66.86 168.88 67.48 169.50 68.23 169.50 Z" fill="#000000" fill-rule="nonzero" node-id="187" stroke="none" target-height="2.7369995" target-width="2.7369995" target-x="66.8625" target-y="166.759"></path><path d="M 97.88 169.04 C 98.34 170.10 98.43 172.32 95.14 172.69" fill="none" node-id="189" stroke="#000000" stroke-linecap="butt" stroke-width="1" target-height="3.649002" target-width="3.2840042" target-x="95.144" target-y="169.04"></path><path d="M 58.88 169.04 C 58.43 170.10 58.34 172.32 61.62 172.69" fill="none" node-id="191" stroke="#000000" stroke-linecap="butt" stroke-width="1" target-height="3.649002" target-width="3.284298" target-x="58.3356" target-y="169.04"></path><path d="M 69.14 190.02 C 70.36 190.78 74.25 192.76 78.27 192.76 C 82.08 192.76 85.64 191.53 86.77 191.01 L 86.93 190.94 C 86.89 190.96 86.83 190.98 86.77 191.01 L 68.69 199.60 L 69.14 190.02 Z" fill="#ff8282" fill-rule="nonzero" group-id="4" node-id="195" stroke="none" target-height="9.57901" target-width="18.245796" target-x="68.6873" target-y="190.023"></path><path d="M 78.88 296.19 L 95.57 249.15 C 95.92 248.16 96.98 247.60 97.99 247.89 L 131.95 257.35 C 133.08 257.67 133.70 258.89 133.28 259.99 L 115.49 306.73 C 115.12 307.69 114.08 308.22 113.08 307.94 L 80.23 298.79 C 79.11 298.47 78.49 297.28 78.88 296.19 Z" fill="#2c2770" fill-rule="nonzero" node-id="198" stroke="none" target-height="60.61299" target-width="55.2097" target-x="78.4913" target-y="247.605"></path><path d="M 69.04 277.26 L 28.96 284.98 L 4.03 279.49 L 1.23 299.89 C -0.09 309.56 9.30 317.18 18.49 313.90 L 73.23 294.35 L 80.31 294.72 C 80.52 294.73 80.73 294.72 80.94 294.70 L 89.94 293.75 C 90.01 293.74 90.09 293.74 90.17 293.74 L 103.29 294.52 C 104.38 294.58 105.34 293.81 105.51 292.74 C 105.70 291.58 104.91 290.49 103.76 290.30 L 93.49 288.63 L 105.87 288.11 C 106.79 288.07 107.52 287.33 107.54 286.41 C 107.57 285.49 106.88 284.71 105.97 284.62 L 94.33 283.45 L 107.26 281.24 C 108.28 281.06 109.01 280.14 108.94 279.10 C 108.87 278.03 107.99 277.20 106.92 277.20 L 93.00 277.18 L 106.78 274.54 C 108.12 274.29 108.91 272.89 108.45 271.61 C 108.12 270.67 107.21 270.07 106.22 270.13 L 88.13 271.27 L 90.66 264.49 L 79.40 267.94 C 78.10 268.34 76.92 269.06 75.98 270.04 L 69.04 277.26 Z" fill="#ffae64" fill-rule="nonzero" node-id="200" stroke="none" target-height="52.69101" target-width="109.10355" target-x="-0.0895528" target-y="264.491"></path><path d="M 209.66 193.49 L 158.16 240.99 L 146.16 271.49 L 147.61 271.93 C 157.57 274.98 168.37 271.53 174.72 263.28 L 221.16 202.99 L 241.66 198.99 L 256.52 199.92 C 257.07 199.95 257.47 199.43 257.30 198.91 C 256.90 197.71 255.93 196.78 254.71 196.44 L 225.16 187.99 L 226.50 184.86 C 227.59 182.31 228.16 179.56 228.16 176.78 C 228.16 175.95 227.14 175.53 226.56 176.13 L 209.66 193.49 Z" fill="#ffae64" fill-rule="nonzero" node-id="202" stroke="none" target-height="99.44202" target-width="111.31201" target-x="146.159" target-y="175.534"></path><path d="M 650.17 319.93 C 657.57 311.19 676.26 314.40 683.03 317.80 C 665.14 350.37 649.35 327.37 643.87 360.86 C 641.52 375.19 624.03 361.56 625.38 386.71 C 626.54 408.54 611.59 410.43 609.84 422.19 C 608.10 433.95 603.37 443.94 593.21 447.37 C 578.36 452.37 566.94 434.29 578.16 425.78 C 589.38 417.28 567.53 404.68 584.73 394.63 C 601.92 384.57 583.49 361.28 605.16 355.26 C 626.83 349.24 618.86 336.40 625.86 329.65 C 632.86 322.89 640.92 330.87 650.17 319.93 Z" fill="#6b8cff" fill-rule="nonzero" node-id="204" stroke="none" target-height="141.18198" target-width="116.08899" target-x="566.943" target-y="311.187"></path><path d="M 573.00 251.92 C 576.76 239.50 594.24 240.92 601.74 246.42 C 591.24 255.92 575.46 255.56 584.69 292.99 C 588.64 309.01 566.70 302.33 579.29 328.02 C 590.21 350.31 572.81 358.86 576.24 371.92 C 579.67 384.99 581.99 397.34 573.00 405.42 C 559.86 417.23 544.34 402.28 552.16 388.42 C 559.99 374.56 534.50 372.05 547.82 353.92 C 561.14 335.79 532.42 323.32 552.16 307.42 C 571.91 291.52 551.00 283.58 555.24 273.42 C 559.48 263.26 568.29 267.45 573.00 251.92 Z" fill="#1be3b3" fill-rule="nonzero" node-id="206" stroke="none" target-height="177.733" target-width="69.320984" target-x="532.421" target-y="239.499"></path><path d="M 477.93 320.77 C 471.16 313.72 455.40 317.44 449.80 320.69 C 466.76 347.44 479.01 327.05 485.44 355.24 C 488.19 367.31 502.39 354.79 502.56 376.25 C 502.71 394.88 515.56 395.69 517.67 405.60 C 519.77 415.51 524.32 423.76 533.17 426.13 C 546.09 429.60 554.87 413.62 544.86 406.98 C 534.86 400.34 552.82 388.47 537.63 380.83 C 522.44 373.18 536.94 352.40 518.15 348.43 C 499.36 344.45 505.48 333.12 499.16 327.74 C 492.84 322.37 486.38 329.58 477.93 320.77 Z" fill="#54b7ff" fill-rule="nonzero" node-id="208" stroke="none" target-height="115.882996" target-width="105.06998" target-x="449.801" target-y="313.719"></path><path d="M 565.04 462.71 C 563.29 423.32 556.05 314.86 578.24 261.53 C 580.18 256.88 584.24 246.92 594.74 246.92" fill="none" node-id="210" stroke="#4f4f4f" stroke-linecap="butt" stroke-width="1" target-height="215.79399" target-width="38.69403" target-x="556.048" target-y="246.921"></path><path d="M 544.48 473.21 C 543.47 435.58 527.41 353.42 471.25 325.85" fill="none" node-id="212" stroke="#4f4f4f" stroke-linecap="butt" stroke-width="1" target-height="147.35999" target-width="73.221985" target-x="471.255" target-y="325.851"></path><path d="M 582.41 473.53 C 585.96 432.68 608.76 344.41 671.60 318.11" fill="none" node-id="214" stroke="#4f4f4f" stroke-linecap="butt" stroke-width="1" target-height="155.423" target-width="89.188965" target-x="582.413" target-y="318.105"></path><path d="M 532.24 455.42 L 592.24 455.42 L 607.71 571.46 C 610.11 589.44 596.12 605.42 577.98 605.42 L 546.51 605.42 C 528.36 605.42 514.37 589.44 516.77 571.46 L 532.24 455.42 Z" fill="#a3baff" fill-rule="nonzero" node-id="216" stroke="none" target-height="150.00003" target-width="95.73804" target-x="514.373" target-y="455.421"></path><path d="M 600.24 455.42 L 523.24 455.42 L 523.24 466.42 L 600.24 466.42 L 600.24 455.42 Z" fill="#ccd9ff" fill-rule="nonzero" node-id="218" stroke="none" target-height="11" target-width="77" target-x="523.242" target-y="455.421"></path></svg>