<svg width="739" height="601" viewBox="0 0 739 601" fill="none" xmlns="http://www.w3.org/2000/svg">
<path d="M671.156 600.877H49.1559H6.65588V312.377C6.65588 291.943 23.2219 275.377 43.6559 275.377C64.0909 275.377 80.6559 258.812 80.6559 238.377V207.127C80.6559 169.434 111.213 138.877 148.906 138.877H457.156C489.741 138.877 516.156 165.292 516.156 197.877C516.156 230.462 542.572 256.877 575.156 256.877H593.656C636.458 256.877 671.156 291.575 671.156 334.377V600.877Z" fill="#F3F6FF"/>
<path fill-rule="evenodd" clip-rule="evenodd" d="M524.01 597.877C526.25 597.877 527.959 595.842 527.611 593.593L518.654 535.877L506.656 538.088L520.472 595.057C520.873 596.714 522.334 597.877 524.01 597.877Z" fill="#627AC1"/>
<path fill-rule="evenodd" clip-rule="evenodd" d="M459.01 597.877C461.25 597.877 462.959 595.842 462.611 593.593L453.654 535.877L441.656 538.088L455.472 595.057C455.873 596.714 457.334 597.877 459.01 597.877Z" fill="#627AC1"/>
<path fill-rule="evenodd" clip-rule="evenodd" d="M304.302 597.877C302.062 597.877 300.352 595.842 300.701 593.593L309.658 535.877L321.656 538.088L307.841 595.057C307.439 596.714 305.979 597.877 304.302 597.877Z" fill="#627AC1"/>
<path fill-rule="evenodd" clip-rule="evenodd" d="M368.302 597.877C366.062 597.877 364.352 595.842 364.701 593.593L373.658 535.877L385.656 538.088L371.841 595.057C371.439 596.714 369.978 597.877 368.302 597.877Z" fill="#627AC1"/>
<path d="M373.656 255.877H305.656V538.877H373.656V255.877Z" fill="#A3BAFF"/>
<path d="M520.656 255.877H371.656V538.877H520.656V255.877Z" fill="#CCD9FF"/>
<path d="M507.656 265.877H386.656C383.894 265.877 381.656 268.116 381.656 270.877V315.877C381.656 318.638 383.894 320.877 386.656 320.877H507.656C510.417 320.877 512.656 318.638 512.656 315.877V270.877C512.656 268.116 510.417 265.877 507.656 265.877Z" fill="#A3BAFF"/>
<path d="M424.656 271.877C424.656 275.191 427.469 277.877 430.942 277.877H462.37C465.841 277.877 468.656 275.191 468.656 271.877V265.877H424.656V271.877Z" fill="#CCD9FF"/>
<path d="M507.656 332.877H386.656C383.894 332.877 381.656 335.116 381.656 337.877V382.877C381.656 385.638 383.894 387.877 386.656 387.877H507.656C510.417 387.877 512.656 385.638 512.656 382.877V337.877C512.656 335.116 510.417 332.877 507.656 332.877Z" fill="#A3BAFF"/>
<path d="M507.656 400.877H386.656C383.894 400.877 381.656 403.116 381.656 405.877V450.877C381.656 453.638 383.894 455.877 386.656 455.877H507.656C510.417 455.877 512.656 453.638 512.656 450.877V405.877C512.656 403.116 510.417 400.877 507.656 400.877Z" fill="#A3BAFF"/>
<path d="M507.656 467.877H386.656C383.894 467.877 381.656 470.116 381.656 472.877V517.877C381.656 520.638 383.894 522.877 386.656 522.877H507.656C510.417 522.877 512.656 520.638 512.656 517.877V472.877C512.656 470.116 510.417 467.877 507.656 467.877Z" fill="#A3BAFF"/>
<path d="M424.656 339.877C424.656 343.191 427.469 345.877 430.942 345.877H462.37C465.841 345.877 468.656 343.191 468.656 339.877V333.877H424.656V339.877Z" fill="#CCD9FF"/>
<path d="M424.656 406.877C424.656 410.19 427.469 412.877 430.942 412.877H462.37C465.841 412.877 468.656 410.19 468.656 406.877V400.877H424.656V406.877Z" fill="#CCD9FF"/>
<path d="M424.656 473.877C424.656 477.19 427.469 479.877 430.942 479.877H462.37C465.841 479.877 468.656 477.19 468.656 473.877V467.877H424.656V473.877Z" fill="#CCD9FF"/>
<path d="M627.427 587.073L639.287 577.494C643.371 573.993 645.636 568.371 644.304 556.511C642.642 541.71 633.357 479.877 633.357 479.877H658.445L660.27 572.932L662.55 582.056L628.795 588.898L627.427 587.073Z" fill="#FFAE64"/>
<path d="M630.983 587.775L662.094 579.775C664.848 582.253 665.811 586.161 664.524 589.635L662.094 596.196L648.866 597.109L647.954 593.915L641.213 596.443C638.431 597.486 635.484 598.021 632.513 598.021H621.996C620.557 598.021 619.226 597.256 618.501 596.013C617.382 594.094 618.019 591.632 619.928 590.496L633.357 582.512L629.742 585.141C629.005 585.676 628.922 586.743 629.566 587.387C629.936 587.758 630.475 587.905 630.983 587.775Z" fill="#2C2770"/>
<path d="M728.708 586.447L717.305 577.78C713.221 574.28 710.918 561.815 710.006 556.797C706.813 534.446 703.164 476.514 703.164 476.514H678.075L695.409 574.131L693.128 582.342L727.34 588.272L728.708 586.447Z" fill="#FFAE64"/>
<path d="M725.152 587.605L694.041 579.605C691.287 582.083 690.324 585.991 691.611 589.465L694.041 596.026L707.269 596.939L708.182 593.746L714.922 596.273C717.704 597.317 720.651 597.851 723.622 597.851H734.139C735.578 597.851 736.909 597.087 737.634 595.843C738.754 593.924 738.117 591.462 736.207 590.326L722.778 582.342L726.393 584.971C727.13 585.506 727.214 586.573 726.57 587.217C726.199 587.588 725.66 587.735 725.152 587.605Z" fill="#2C2770"/>
<path d="M702.58 315.721L698.83 297.158L622.652 294.877L615.81 346.879L616.758 482.886H717.568L705.216 371.511L705.42 369.332C707.1 351.419 706.143 333.356 702.58 315.721Z" fill="#2C2770"/>
<path d="M694.268 295.333C696.701 307.497 701.567 342.408 701.567 384.739C701.567 384.739 703.232 435.628 710.834 483.676" stroke="white"/>
<path d="M594.656 218.877L598.656 197.377L576.494 193.877L566.494 138.01L574.432 118.561C575.069 117.002 573.322 115.55 571.905 116.46C570.307 117.487 568.875 118.753 567.659 120.212L566.994 121.01L565.628 100.52C565.553 99.3891 564.613 98.5102 563.48 98.5102C562.358 98.5102 561.424 99.3713 561.333 100.489L559.994 117.01L557.262 98.3452C557.108 97.2914 556.204 96.5103 555.14 96.5103C553.955 96.5103 552.994 97.4709 552.994 98.6558V115.51L549.601 102.23C549.302 101.062 548.034 100.434 546.924 100.904C546.085 101.26 545.6 102.143 545.749 103.042L547.994 116.51L543.194 108.91C542.606 107.98 541.277 107.906 540.59 108.765C540.223 109.224 540.137 109.848 540.366 110.389L545.494 122.51L550.156 138.01L555.016 189.445C556.196 201.932 565.269 212.245 577.503 215.006L594.656 218.877Z" fill="#FFAE64"/>
<path d="M554.994 131.01C556.994 127.51 560.661 123.677 564.494 124.01C564.877 123.627 565.943 122.456 567.138 121.146" stroke="black"/>
<path d="M698.078 205.055L680.012 199.099C674.435 199.099 659.934 198.817 646.549 197.691C633.164 196.564 608.904 197.691 589.384 194.874L585.201 220.224C593.567 224.449 606.115 228.674 622.846 231.491C617.269 248.391 620.987 251.207 625.635 256.84L629.818 275.149L619.682 298.877H699.615L701.498 296.377L693.765 272.877L698.656 247.877L705.656 258.377L730.656 251.877L713.031 217.803C709.906 211.761 704.538 207.184 698.078 205.055Z" fill="#1BE3B3"/>
<mask id="mask0" mask-type="alpha" maskUnits="userSpaceOnUse" x="585" y="194" width="147" height="105">
<path d="M699.774 206.408L680.012 199.099C674.435 199.099 659.934 198.817 646.549 197.691C633.164 196.564 608.904 197.691 589.384 194.874L585.201 220.224C593.567 224.449 606.115 228.674 622.846 231.491C617.269 248.391 620.987 251.207 625.635 256.84L629.818 275.149L619.682 298.877H702.32L693.765 272.877L698.783 244.139L706.156 260.377L731.656 252.877L713.793 218.739C710.808 213.035 705.813 208.641 699.774 206.408Z" fill="white"/>
</mask>
<g mask="url(#mask0)">
<path d="M614.395 182.102C621.237 209.471 546.884 226.805 551.902 259.648C556.919 292.491 683.73 370.037 728.889 346.317C774.048 322.597 772.224 281.087 686.467 282.912C600.71 284.737 580.639 246.876 601.166 226.805C621.693 206.734 681.905 268.315 683.73 242.77C685.555 217.226 608.465 209.471 639.483 190.769C664.902 175.443 675.063 223.156 702.888 229.086C725.149 233.83 737.404 225.589 740.749 220.875C761.884 231.062 794.028 254.265 753.522 265.578C713.015 276.891 643.893 262.385 614.395 253.718" stroke="#5FFFD8" stroke-width="7"/>
</g>
<path d="M591.547 248.643L635.691 254.813C637.501 255.066 639.029 256.287 639.675 257.997L649.476 283.917C650.815 287.458 647.886 291.145 644.134 290.641L606.456 285.579C604.705 285.344 603.208 284.202 602.518 282.576L588.88 250.421L591.547 248.643Z" fill="#BDBABA"/>
<path d="M590.109 250.459L635.674 256.838C636.398 256.939 637.009 257.427 637.268 258.111L649.477 290.399C650.012 291.816 648.841 293.29 647.34 293.089L605.86 287.516C603.381 287.183 601.268 285.552 600.317 283.238L587.982 253.2C587.395 251.771 588.58 250.245 590.109 250.459Z" fill="#2C2770"/>
<path d="M615.629 275.042C613.669 273.564 613.158 270.936 614.487 269.172C615.817 267.407 618.484 267.175 620.445 268.652C622.405 270.13 622.916 272.758 621.586 274.522C620.257 276.287 617.589 276.519 615.629 275.042Z" fill="white"/>
<path d="M711.272 268.733L706.667 257.088L729.78 250.865L734.365 272.345C736.354 281.662 729.266 290.449 719.739 290.476L666.758 290.627L661.322 293.751C661.14 293.856 660.95 293.946 660.753 294.021L653.304 296.86C653.217 296.894 653.127 296.92 653.036 296.94L640.625 299.585C639.98 299.722 639.313 299.468 638.924 298.935C638.22 297.971 638.721 296.601 639.881 296.319L648.399 294.251H635.156C634.649 294.251 634.184 293.974 633.943 293.528C633.474 292.66 634.042 291.595 635.024 291.501L645.645 290.481L629.982 289.097C629.378 289.044 628.852 288.662 628.614 288.104C628.169 287.057 628.894 285.886 630.029 285.818L644.176 284.978L630.997 282.9C630.097 282.758 629.399 282.039 629.284 281.135C629.132 279.934 630.049 278.864 631.258 278.829L648.399 278.343L647.107 277.534L644.44 270.422L652.38 271.749C652.827 271.823 653.266 271.936 653.693 272.084L663.194 275.393L711.272 268.733Z" fill="#FFAE64"/>
<path d="M637.133 141.202C638.256 132.219 646.958 130.909 651.169 131.377C653.509 129.973 658.187 124.359 668.013 125.762C677.838 127.166 689.067 132.78 686.26 145.413C686.26 145.413 692.81 161.321 694.681 167.871C700.296 181.907 692.172 192.088 680.645 193.136C665.205 194.54 672.224 193.136 648.362 195.943C624.501 198.75 623.097 179.1 628.711 166.467C634.326 153.835 635.73 152.431 637.133 141.202Z" fill="#2C2770"/>
<path d="M644.151 151.027V155.238C642.28 154.77 638.537 154.677 638.537 158.045C638.537 162.256 641.344 165.064 644.151 163.66C644.516 168.035 646.869 176.671 653.867 180.271C653.616 183.57 652.883 188.305 651.169 191.732C648.923 196.224 644.619 198.282 642.747 198.75C645.555 202.025 653.415 208.576 662.398 208.576C671.381 208.576 678.306 202.025 680.645 198.75C679.241 198.282 675.592 196.505 672.223 193.136C669.572 190.484 669.065 184.179 669.198 179.562C675.031 175.638 676.81 167.769 677.838 163.66C679.709 164.128 683.452 163.941 683.452 159.449C683.452 154.958 679.241 154.77 677.838 155.238V151.027C675.031 151.495 667.732 151.308 660.994 146.817C654.257 142.325 652.573 140.266 652.573 139.798C652.573 142.138 651.541 146.445 649.766 148.22C646.958 151.027 645.087 150.56 644.151 151.027Z" fill="#FFAE64"/>
<path d="M655.905 170.242L662.291 173.435C661.835 174.347 660.375 175.533 658.185 174.803C655.996 174.074 655.753 171.762 655.905 170.242Z" fill="white"/>
<path d="M669.589 151.083H674.151C674.906 151.083 675.519 151.696 675.519 152.452C675.519 153.208 674.906 153.82 674.151 153.82H669.589C668.833 153.82 668.221 153.208 668.221 152.452C668.221 151.696 668.833 151.083 669.589 151.083Z" fill="#2C2770"/>
<path d="M651.343 151.083H655.904C656.66 151.083 657.273 151.696 657.273 152.452C657.273 153.208 656.66 153.82 655.904 153.82H651.343C650.587 153.82 649.974 153.208 649.974 152.452C649.974 151.696 650.587 151.083 651.343 151.083Z" fill="#2C2770"/>
<path d="M654.08 158.382C653.324 158.382 652.711 157.769 652.711 157.013C652.711 156.258 653.324 155.645 654.08 155.645C654.836 155.645 655.448 156.258 655.448 157.013C655.448 157.769 654.836 158.382 654.08 158.382Z" fill="black"/>
<path d="M664.572 152.908V169.33H660.466" stroke="black"/>
<path d="M671.414 158.382C670.658 158.382 670.045 157.769 670.045 157.013C670.045 156.258 670.658 155.645 671.414 155.645C672.17 155.645 672.782 156.258 672.782 157.013C672.782 157.769 672.17 158.382 671.414 158.382Z" fill="black"/>
<path d="M641.764 157.926C641.308 158.99 641.217 161.21 644.501 161.575" stroke="black"/>
<path d="M680.762 157.926C681.218 158.99 681.309 161.21 678.025 161.575" stroke="black"/>
<mask id="mask1" mask-type="alpha" maskUnits="userSpaceOnUse" x="638" y="139" width="46" height="70">
<path d="M644.151 151.027V155.238C642.28 154.77 638.537 154.677 638.537 158.045C638.537 162.256 641.344 165.064 644.151 163.66C644.516 168.035 646.869 176.671 653.867 180.271C653.616 183.57 652.883 188.305 651.169 191.732C648.923 196.224 644.619 198.282 642.747 198.75C645.555 202.025 653.415 208.576 662.398 208.576C671.381 208.576 678.306 202.025 680.645 198.75C679.241 198.282 675.592 196.505 672.223 193.136C669.572 190.484 669.065 184.179 669.198 179.562C675.031 175.638 676.81 167.769 677.838 163.66C679.709 164.128 683.452 163.941 683.452 159.449C683.452 154.958 679.241 154.77 677.838 155.238V151.027C675.031 151.495 667.732 151.308 660.994 146.817C654.257 142.325 652.573 140.266 652.573 139.798C652.573 142.138 651.541 146.445 649.766 148.22C646.958 151.027 645.087 150.56 644.151 151.027Z" fill="white"/>
</mask>
<g mask="url(#mask1)">
<path d="M670.502 178.909C669.285 179.669 665.393 181.646 661.379 181.646C657.568 181.646 654.005 180.413 652.872 179.897L652.712 179.821C652.758 179.844 652.812 179.87 652.872 179.897L670.958 188.488L670.502 178.909Z" fill="#FF8282"/>
</g>
<path d="M151.92 367.922C184.713 355.138 203.917 386.521 209.124 401.362C210.595 405.556 208.252 406.025 204.176 404.254C185.009 395.925 167.182 436.109 144.142 432.269C118.686 428.026 110.201 384.186 151.92 367.922Z" fill="#1BE3B3"/>
<path d="M96.9279 320.2C73.0568 296.238 44.6695 310.22 32.2091 318.495C29.1323 320.538 29.664 325.133 32.7757 327.123C43.0678 333.705 62.7667 349.66 78.0647 382.21C89.0417 405.566 128.53 351.923 96.9279 320.2Z" fill="#54B7FF"/>
<path d="M52.2291 377.028C22.8311 367.291 6.65419 390.412 0.217418 401.942C-0.756042 403.686 1.73971 406.928 3.73279 406.803C29.8832 405.15 41.39 438.371 62.1021 433.804C84.5093 428.863 90.0224 389.545 52.2291 377.028Z" fill="#1BE3B3"/>
<path d="M111.247 516.405C111.247 433.877 148.863 364.877 195.864 393.877M90.822 508.607C109.63 448.488 110.143 334.177 56.5717 320.045L90.822 508.607ZM73.3112 516.088C67.8629 461.377 97.8639 407.877 28.3629 395.377L73.3112 516.088Z" stroke="#4F4F4F"/>
<path d="M61.0748 498.298H121.075L129.224 571.642C130.212 580.527 123.256 588.298 114.316 588.298H67.8338C58.8936 588.298 51.9383 580.527 52.9256 571.642L61.0748 498.298Z" fill="#A3BAFF"/>
<path d="M129.075 498.298H52.0748V509.298H129.075V498.298Z" fill="#CCD9FF"/>
<path d="M245.853 577.157L234.052 567.042C227.774 561.661 228.975 545.227 228.975 545.227L212.097 544.314V562.56L209.36 572.14L244.484 578.982L245.853 577.157Z" fill="#FFAE64"/>
<path d="M239.962 588.105H251.239C252.706 588.105 254.062 587.326 254.801 586.059C255.918 584.145 255.329 581.686 253.484 580.458C251.255 578.974 248.001 576.768 244.028 573.964C236.274 568.49 233.081 564.841 233.081 564.841C233.081 564.841 228.519 567.578 221.677 567.578C214.835 567.578 211.185 562.56 211.185 562.56C208.249 569.9 208.144 578.069 210.889 585.482L211.185 586.28L224.414 587.193L226.695 585.368L232.728 587.092C235.08 587.764 237.515 588.105 239.962 588.105Z" fill="#2C2770"/>
<path d="M123.604 577.157L135.405 567.042C141.682 561.661 140.481 545.227 140.481 545.227L157.359 544.314V562.56L160.096 572.14L124.972 578.982L123.604 577.157Z" fill="#FFAE64"/>
<path d="M129.495 588.105H118.218C116.751 588.105 115.394 587.326 114.655 586.059C113.539 584.145 114.128 581.686 115.972 580.458C118.202 578.974 121.456 576.768 125.428 573.964C133.183 568.49 136.376 564.841 136.376 564.841C136.376 564.841 140.937 567.578 147.78 567.578C154.622 567.578 158.271 562.56 158.271 562.56C161.207 569.9 161.313 578.069 158.567 585.482L158.271 586.28L145.043 587.193L142.762 585.368L136.729 587.092C134.376 587.764 131.942 588.105 129.495 588.105Z" fill="#2C2770"/>
<path d="M162.732 291.922L166.482 273.359L242.66 271.078L247.365 306.839C248.787 317.645 249.246 328.555 248.737 339.442L238.554 557.087H211.641L206.167 339.045L166.482 557.087H137.744L160.096 347.712L159.891 345.533C158.212 327.62 159.169 309.557 162.732 291.922Z" fill="#FF6767"/>
<mask id="mask2" mask-type="alpha" maskUnits="userSpaceOnUse" x="136" y="270" width="112" height="287">
<path d="M161.707 291.721L165.458 273.158L241.635 270.877L246.341 306.638C247.763 317.444 248.222 328.354 247.712 339.241L237.53 556.886H210.617L205.143 338.844L165.458 556.886H136.72L159.071 347.511L158.867 345.332C157.188 327.419 158.145 309.356 161.707 291.721Z" fill="white"/>
</mask>
<g mask="url(#mask2)">
<path d="M170.931 271.333C168.499 283.497 163.633 318.408 163.633 360.739C163.633 360.739 148.428 509.75 140.825 557.798" stroke="white"/>
<path d="M206.511 339.3C209.248 346.142 214.813 368.95 215.178 405.442C215.543 441.935 215.33 521.61 215.178 556.886" stroke="white"/>
</g>
<path d="M170.992 178.894L191.643 173.475H231.87C246.273 173.475 259.806 180.369 268.273 192.02L282.638 211.788L261.638 229.325L248.796 217.978L251.963 267.882C252.329 273.643 247.755 278.516 241.983 278.516H175.415C170.814 278.516 167.161 274.645 167.428 270.052L169.436 235.516L162.138 249.288L135.738 243.853L145.153 205.196C148.282 192.348 158.202 182.25 170.992 178.894Z" fill="#0B86DF"/>
<path d="M272.941 239.116L261.181 228.911L280.571 212.654L294.3 163.421L286.362 143.972C285.725 142.413 287.472 140.961 288.889 141.871C290.487 142.898 291.919 144.164 293.135 145.623L293.8 146.421L295.166 125.931C295.241 124.8 296.181 123.921 297.314 123.921C298.436 123.921 299.37 124.782 299.461 125.9L300.8 142.421L303.532 123.756C303.686 122.702 304.59 121.921 305.654 121.921C306.839 121.921 307.8 122.882 307.8 124.067V140.921L311.193 127.641C311.492 126.473 312.76 125.845 313.87 126.315C314.709 126.671 315.194 127.554 315.045 128.453L312.8 141.921L317.6 134.321C318.188 133.391 319.517 133.317 320.204 134.176C320.571 134.635 320.657 135.259 320.428 135.8L315.3 147.921L312.8 163.421L299.246 230.169C297.77 237.439 291.514 242.756 284.101 243.041C280.018 243.198 276.028 241.795 272.941 239.116Z" fill="#FF9330"/>
<path d="M305.8 156.421C303.8 152.921 300.133 149.088 296.3 149.421C295.467 148.588 291.4 144.021 289.8 142.421C288.2 140.821 286.8 142.088 286.3 142.921L294.3 163.421L276.138 228.788" stroke="black"/>
<path d="M182.605 121.406C176.453 112.232 178.903 99.8074 188.077 93.6556L196.487 88.0159C205.661 81.8641 218.085 84.314 224.237 93.488L228.528 99.8868L186.895 127.804L182.605 121.406Z" fill="#FFE071"/>
<path d="M217.71 129.181C237.273 117.614 249.165 101.526 244.27 93.2483C239.376 84.9709 219.549 87.6382 199.986 99.206C180.422 110.774 168.531 126.862 173.425 135.139C178.32 143.417 198.147 140.749 217.71 129.181Z" fill="#BC9F38"/>
<path d="M191.786 168.905C193.665 164.212 193.352 148.962 192.96 141.923C201.571 143.487 218.44 149.314 217.031 160.107C215.622 170.899 219.575 173.597 221.728 173.597C224.076 178.681 225.602 189.434 212.921 191.781C200.24 194.127 189.633 182.982 185.915 177.117C187.089 176.335 189.907 173.597 191.786 168.905Z" fill="#FF9330"/>
<path d="M188.138 117.288C184.638 119.788 187.276 132.23 191.53 138.274H205.823C210.723 138.274 222.157 132.057 227.262 128.948C232.366 126.703 244.107 121.177 239.513 115.996L236.45 113.405C246.659 102.007 238.492 100.342 227.262 98.788L220.138 97.788C211.638 97.788 190.138 110.581 188.138 117.288Z" fill="#2C2770"/>
<mask id="mask3" mask-type="alpha" maskUnits="userSpaceOnUse" x="186" y="142" width="38" height="50">
<path d="M192.1 168.897C193.967 164.263 193.656 149.201 193.267 142.249C201.823 143.794 218.585 149.549 217.185 160.208C215.785 170.867 219.713 173.532 221.852 173.532C224.185 178.552 225.702 189.173 213.102 191.49C200.501 193.807 189.961 182.8 186.267 177.007C187.433 176.235 190.234 173.532 192.1 168.897Z" fill="white"/>
</mask>
<g mask="url(#mask3)">
<path d="M218.788 169.609C199.792 167.544 193.666 151.541 192.978 143.798L218.788 158.252C226.703 162.898 237.785 171.674 218.788 169.609Z" fill="#D76767"/>
</g>
<path d="M193.477 143.524C193.094 149.954 200.935 161.645 215.277 161.061C223.65 160.719 225.765 151.147 227.898 140.602C229.419 133.084 232.295 125.073 231.34 119.558L218.719 115.466C220.44 117.805 223.882 121.312 218.146 121.312C212.469 121.312 207.054 119.558 204.951 117.805C203.803 124.819 198.64 124.235 198.64 127.742V137.679C194.05 138.147 193.285 133.587 193.477 131.249C191.564 130.08 187.74 129.262 187.74 135.341C187.74 141.42 191.564 143.33 193.477 143.524Z" fill="#FF9330"/>
<path d="M210.962 146.443L217.348 149.637C216.892 150.549 215.433 151.735 213.243 151.005C211.053 150.275 210.81 147.964 210.962 146.443Z" fill="white"/>
<path d="M224.647 127.285H229.208C229.964 127.285 230.577 127.898 230.577 128.653C230.577 129.409 229.964 130.022 229.208 130.022H224.647C223.891 130.022 223.278 129.409 223.278 128.653C223.278 127.898 223.891 127.285 224.647 127.285Z" fill="#2C2770"/>
<path d="M206.401 127.285H210.962C211.718 127.285 212.331 127.898 212.331 128.653C212.331 129.409 211.718 130.022 210.962 130.022H206.401C205.645 130.022 205.032 129.409 205.032 128.653C205.032 127.898 205.645 127.285 206.401 127.285Z" fill="#2C2770"/>
<path d="M211.507 135.025C210.751 135.025 210.138 134.412 210.138 133.656C210.138 132.901 210.751 132.288 211.507 132.288C212.263 132.288 212.875 132.901 212.875 133.656C212.875 134.412 212.263 135.025 211.507 135.025Z" fill="black"/>
<path d="M219.629 129.11V145.531H215.524" stroke="black"/>
<path d="M226.639 137.788C229.953 137.788 232.639 135.102 232.639 131.788C232.639 128.474 229.953 125.788 226.639 125.788C223.325 125.788 220.639 128.474 220.639 131.788C220.639 135.102 223.325 137.788 226.639 137.788Z" stroke="black"/>
<path d="M210.639 137.788C213.953 137.788 216.639 135.102 216.639 131.788C216.639 128.474 213.953 125.788 210.639 125.788C207.325 125.788 204.639 128.474 204.639 131.788C204.639 135.102 207.325 137.788 210.639 137.788Z" stroke="black"/>
<path d="M204.639 132.288L191.639 129.788" stroke="black"/>
<path d="M226.507 135.025C225.751 135.025 225.138 134.412 225.138 133.656C225.138 132.901 225.751 132.288 226.507 132.288C227.263 132.288 227.875 132.901 227.875 133.656C227.875 134.412 227.263 135.025 226.507 135.025Z" fill="black"/>
<path d="M295.638 227.788L245.614 234.781C243.803 235.034 242.275 236.255 241.629 237.964L230.102 268.448C228.763 271.989 231.693 275.676 235.445 275.172L279.22 269.291C280.971 269.056 282.467 267.914 283.157 266.288L298.638 229.788L295.638 227.788Z" fill="white"/>
<path d="M297.687 229.771L245.852 237.027C245.128 237.128 244.517 237.617 244.258 238.3L230.324 275.152C229.788 276.569 230.96 278.043 232.461 277.842L282.899 271.066C283.608 270.97 284.212 270.504 284.483 269.843L299.814 232.512C300.401 231.083 299.216 229.557 297.687 229.771Z" fill="#2C2770"/>
<path d="M268.547 257.485C270.753 255.823 271.328 252.866 269.832 250.882C268.336 248.897 265.336 248.635 263.13 250.297C260.925 251.96 260.35 254.916 261.846 256.901C263.342 258.885 266.342 259.147 268.547 257.485Z" fill="white"/>
<path d="M160.958 250.389L166.138 237.288L140.138 230.288L134.497 256.709C132.508 266.026 139.597 274.813 149.124 274.841L211.032 275.017L217.182 278.551C217.364 278.656 217.554 278.746 217.75 278.821L226.166 282.029C226.264 282.066 226.365 282.096 226.468 282.118L240.429 285.094C241.156 285.249 241.905 284.962 242.343 284.362C243.135 283.278 242.571 281.737 241.266 281.42L231.684 279.094H246.582C247.152 279.094 247.675 278.782 247.946 278.28C248.473 277.304 247.835 276.106 246.73 276L234.783 274.852L252.402 273.296C253.082 273.236 253.674 272.806 253.941 272.178C254.442 271.001 253.626 269.684 252.349 269.608L236.435 268.663L251.26 266.325C252.272 266.165 253.058 265.356 253.187 264.339C253.358 262.988 252.327 261.784 250.966 261.746L231.684 261.198L233.138 260.288L236.138 252.288L227.122 253.794C226.676 253.869 226.237 253.981 225.809 254.13L215.041 257.88L160.958 250.389Z" fill="#FF9330"/>
<path d="M135.638 243.788L140.638 227.288L167.138 236.788L162.138 249.288L135.638 243.788Z" fill="#0B86DF"/>
<path d="M316.108 104.498C313.954 110.414 316.837 116.895 322.545 118.973C328.254 121.05 334.628 117.939 336.781 112.023L336.986 111.459L316.313 103.934L316.108 104.498Z" fill="#6B8CFF"/>
<path d="M329.044 101.119L325.779 99.9305L318.707 97.3563L316.313 103.934L336.986 111.459L339.38 104.881L332.308 102.307L329.044 101.119Z" fill="#A3B7FF"/>
<path d="M352.515 35.169L328.574 100.947L318.493 97.2786L319.223 83.6029C312.722 75.6329 310.507 64.3341 314.37 53.7206C320.127 37.9023 337.205 29.5967 352.515 35.169ZM352.515 35.169C367.825 40.7413 375.569 58.0815 369.812 73.8998C365.948 84.5138 356.988 91.7449 346.885 93.671L338.654 104.616L328.574 100.947L352.515 35.169Z" fill="#FFE98F"/>
<path d="M335.205 66.115L328.798 63.783C326.793 69.2924 328.717 75.2644 333.119 78.4924L325.37 99.7815L331.777 102.114L339.526 80.8244C344.973 81.1809 350.285 77.8429 352.291 72.3335L345.884 70.0016C344.783 73.0241 341.493 74.6114 338.549 73.5399C335.605 72.4684 334.105 69.1375 335.205 66.115Z" fill="#FFAE64"/>
<path d="M363.415 12.5318L358.716 10.8217L353.244 25.8567L357.943 27.5668L363.415 12.5318Z" fill="#FFE071"/>
<path d="M385.196 29.5449L388.25 34.0283L375.32 43.331L372.266 38.8476L385.196 29.5449Z" fill="#FFE071"/>
<path d="M330.396 9.59934L325.175 11.0709L329.101 26.5087L334.322 25.0371L330.396 9.59934Z" fill="#FFE071"/>
<path d="M359.168 133.663C359.168 132.004 360.514 130.66 362.173 130.663L377.359 130.692L369.439 238.505H359.168V133.663Z" fill="#706AC7"/>
<path d="M369.439 135.657C369.439 132.896 371.678 130.657 374.439 130.657H508.237C510.998 130.657 513.237 132.896 513.237 135.657V238.505H369.439V135.657Z" fill="#CFCCFF"/>
<path d="M501.39 135.793H381.287C378.525 135.793 376.287 138.031 376.287 140.793V228.37C376.287 231.131 378.525 233.37 381.287 233.37H501.39C504.151 233.37 506.39 231.131 506.39 228.37V140.793C506.39 138.031 504.151 135.793 501.39 135.793Z" fill="#282F48"/>
<path fill-rule="evenodd" clip-rule="evenodd" d="M491.227 135.793C494.276 146.782 496.994 170.587 484.99 178.59C478.778 182.731 469.228 182.002 459.816 181.284C445.883 180.222 432.253 179.182 430.21 193.997C429.972 195.726 429.75 197.405 429.535 199.033C426.662 220.775 424.998 233.37 401.108 233.37H501.389C504.15 233.37 506.389 231.131 506.389 228.37V140.793C506.389 138.031 504.15 135.793 501.389 135.793H491.227Z" fill="#2F3B67"/>
<path d="M427.066 154.623H397.405C395.196 154.623 393.405 156.414 393.405 158.623V160.895C393.405 163.104 395.196 164.895 397.405 164.895H427.066C429.275 164.895 431.066 163.104 431.066 160.895V158.623C431.066 156.414 429.275 154.623 427.066 154.623Z" fill="#5FFFD8"/>
<path d="M488.694 154.623H476.152C473.943 154.623 472.152 156.414 472.152 158.623V160.895C472.152 163.104 473.943 164.895 476.152 164.895H488.694C490.903 164.895 492.694 163.104 492.694 160.895V158.623C492.694 156.414 490.903 154.623 488.694 154.623Z" fill="#5FFFD8"/>
<path d="M490.982 182.013H395.117C394.171 182.013 393.405 182.78 393.405 183.725C393.405 184.671 394.171 185.437 395.117 185.437H490.982C491.927 185.437 492.694 184.671 492.694 183.725C492.694 182.78 491.927 182.013 490.982 182.013Z" fill="#5FFFD8"/>
<path d="M490.982 193.997H395.117C394.171 193.997 393.405 194.763 393.405 195.708C393.405 196.654 394.171 197.42 395.117 197.42H490.982C491.927 197.42 492.694 196.654 492.694 195.708C492.694 194.763 491.927 193.997 490.982 193.997Z" fill="#5FFFD8"/>
<path d="M451.609 205.98H395.117C394.171 205.98 393.405 206.746 393.405 207.692C393.405 208.637 394.171 209.403 395.117 209.403H451.609C452.554 209.403 453.321 208.637 453.321 207.692C453.321 206.746 452.554 205.98 451.609 205.98Z" fill="#5FFFD8"/>
<path d="M359.168 238.505H405.388V255.624H364.168C361.406 255.624 359.168 253.385 359.168 250.624V238.505Z" fill="#706AC7"/>
<path d="M405.388 238.505H554.322V250.624C554.322 253.385 552.083 255.624 549.322 255.624H405.388V238.505Z" fill="#2C2770"/>
</svg>
